<svg xmlns="http://www.w3.org/2000/svg" xmlns:xlink="http://www.w3.org/1999/xlink" width="384" height="384" viewBox="0 0 288 288"><defs><path id="b" d="M1.078-7.29H4.95v.83H1.98v1.788c.141-.047.29-.09.43-.11.14-.019.29-.038.43-.038.808 0 1.45.23 1.93.672.48.449.718 1.046.718 1.808 0 .79-.25 1.399-.738 1.828-.488.434-1.18.64-2.059.64-.312 0-.62-.026-.941-.07a5.6 5.6 0 0 1-.98-.23v-.988q.432.24.91.36c.308.081.64.109.992.109.558 0 1.008-.137 1.34-.438.316-.3.488-.7.488-1.21 0-.5-.172-.9-.488-1.2-.332-.3-.782-.45-1.34-.45a3.4 3.4 0 0 0-.793.09 4.4 4.4 0 0 0-.8.27Zm0 0"/><path id="c" d="M3.18-6.64q-.761 0-1.149.75c-.261.5-.383 1.25-.383 2.25s.122 1.75.383 2.25q.386.75 1.149.75c.511 0 .89-.25 1.148-.75.25-.5.383-1.25.383-2.25s-.133-1.75-.383-2.25c-.258-.5-.637-.75-1.148-.75m0-.782c.808 0 1.43.332 1.87.973.43.648.65 1.59.65 2.808 0 1.23-.22 2.172-.65 2.813-.44.637-1.062.957-1.878.957Q1.943.129 1.3-.828C.87-1.468.66-2.41.66-3.641c0-1.218.21-2.16.64-2.808.43-.64 1.058-.973 1.879-.973m0 0"/><path id="e" d="M1.238-.828h1.614v-5.563l-1.75.352v-.902L2.84-7.29h.988v6.46h1.613V0H1.238Zm0 0"/><path id="h" d="M1.922-.828h3.437V0H.73v-.828c.372-.383.88-.902 1.532-1.563A72 72 0 0 0 3.48-3.648q.48-.528.66-.903c.122-.238.188-.488.188-.73 0-.38-.137-.7-.406-.938-.274-.242-.621-.37-1.063-.37-.308 0-.64.058-.98.16q-.51.162-1.098.488v-1q.6-.238 1.11-.36c.34-.078.66-.12.949-.12q1.126 0 1.8.57c.45.382.68.882.68 1.511 0 .3-.058.59-.172.852-.109.27-.308.59-.609.949-.078.098-.34.367-.777.82-.442.45-1.051 1.078-1.84 1.89m0 0"/><path id="i" d="M.98-7.29h1.47l1.859 4.962 1.87-4.961h1.47V0H6.69v-6.398l-1.882 5H3.82l-1.879-5V0h-.96Zm0 0"/><path id="j" d="M3.059-4.84q-.72.001-1.137.57-.422.568-.422 1.54c0 .66.129 1.171.41 1.55.281.38.66.559 1.149.559.48 0 .863-.18 1.14-.559.281-.379.422-.89.422-1.55 0-.641-.14-1.16-.422-1.54-.277-.378-.66-.57-1.14-.57m0-.762c.78 0 1.39.262 1.84.762.44.512.671 1.211.671 2.11 0 .902-.23 1.601-.672 2.101C4.45-.12 3.84.13 3.058.13c-.788 0-1.41-.25-1.847-.758Q.55-1.379.55-2.73c0-.899.219-1.598.66-2.11.437-.5 1.059-.762 1.848-.762m0 0"/><path id="k" d="M4.54-4.64v-2.962h.901V0H4.54v-.82c-.187.332-.43.57-.719.718-.289.153-.629.23-1.03.23Q1.798.13 1.171-.647C.75-1.172.55-1.871.55-2.73c0-.86.199-1.551.62-2.079.419-.52.958-.793 1.618-.793.402 0 .742.082 1.031.243q.436.239.72.718M1.48-2.73c0 .66.13 1.18.399 1.558.27.383.64.563 1.121.563.48 0 .852-.18 1.129-.563.27-.379.41-.898.41-1.558s-.14-1.168-.41-1.551A1.32 1.32 0 0 0 3-4.851q-.719 0-1.121.57c-.27.383-.399.89-.399 1.55m0 0"/><path id="l" d="M5.621-2.96v.44H1.488c.043.622.223 1.098.563 1.418q.49.48 1.39.48c.34 0 .68-.038 1-.116.32-.082.649-.211.97-.39v.847c-.321.14-.65.25-.99.312a6 6 0 0 1-1.03.098c-.88 0-1.57-.25-2.082-.75C.8-1.121.55-1.81.55-2.68Q.55-4.016 1.27-4.809c.48-.52 1.14-.793 1.96-.793.739 0 1.32.243 1.75.711.418.48.641 1.121.641 1.93M4.72-3.22c-.008-.492-.149-.883-.41-1.18-.27-.292-.63-.44-1.07-.44-.5 0-.9.148-1.2.429s-.48.68-.52 1.191Zm0 0"/><path id="m" d="M.941-7.602h.899V0H.94Zm0 0"/><path id="o" d="M.422-5.469h.898l1.121 4.27L3.56-5.47H4.62l1.117 4.27L6.86-5.47h.903L6.328 0H5.27L4.09-4.48 2.91 0H1.852Zm0 0"/><path id="p" d="M.941-5.469h.899V0H.94Zm0-2.133h.899v1.141H.94Zm0 0"/><path id="q" d="M1.828-7.02v1.551H3.68v.7H1.828v2.968c0 .45.063.742.184.86.117.132.367.191.75.191h.918V0h-.918Q1.707 0 1.32-.39C1.06-.649.93-1.122.93-1.8v-2.97H.27v-.699h.66v-1.55Zm0 0"/><path id="r" d="M5.488-3.3V0H4.59v-3.27c0-.52-.11-.902-.309-1.16-.203-.261-.5-.39-.902-.39-.488 0-.867.16-1.149.468-.28.313-.421.73-.421 1.262V0H.91v-7.602h.899v2.98c.21-.32.46-.57.761-.73.29-.16.63-.25 1.008-.25.621 0 1.102.204 1.422.59.32.39.488.961.488 1.711m0 0"/><path id="t" d="M1.102-.148v-.903q.357.182.75.27.375.092.75.09c.636 0 1.136-.207 1.476-.649.344-.441.543-1.101.602-2q-.301.424-.72.649c-.288.152-.608.222-.96.222q-1.109-.002-1.738-.66-.633-.66-.633-1.812c0-.739.223-1.34.66-1.797.441-.453 1.031-.684 1.77-.684.84 0 1.492.332 1.93.973.44.648.671 1.59.671 2.808 0 1.16-.281 2.07-.82 2.75Q4.017.13 2.64.13c-.25 0-.5-.027-.75-.07-.261-.04-.519-.11-.788-.207m1.957-3.09q.663-.002 1.05-.453c.262-.297.391-.72.391-1.25 0-.52-.129-.938-.39-1.239-.258-.3-.61-.46-1.051-.46-.438 0-.79.16-1.047.46-.262.301-.39.72-.39 1.239 0 .53.128.953.39 1.25.258.3.61.453 1.047.453m0 0"/><path id="u" d="M1.07-1.238h1.032V0H1.07Zm0 0"/><path id="w" d="M3.3-4.04c-.44 0-.788.161-1.05.462-.262.297-.39.719-.39 1.238q-.002.798.39 1.25.391.45 1.05.45.658 0 1.052-.45.386-.452.386-1.25c0-.52-.129-.941-.386-1.238-.262-.3-.614-.461-1.051-.461m1.962-3.089v.899a3.441 3.441 0 0 0-1.5-.36q-.99 0-1.5.66c-.34.442-.543 1.11-.582 1.989.191-.278.43-.5.718-.649.293-.148.614-.23.961-.23.73 0 1.313.23 1.73.672.423.437.641 1.046.641 1.808 0 .75-.23 1.352-.671 1.8C4.62-.09 4.03.13 3.3.13c-.84 0-1.492-.32-1.93-.957C.921-1.468.7-2.41.7-3.641c0-1.148.27-2.07.82-2.75.54-.68 1.282-1.03 2.2-1.03.242 0 .492.03.75.07.25.05.511.12.793.222m0 0"/><path id="C" d="m-6.32-3.422 3.629 1.344v-2.684Zm-.97.563V-3.98L0-6.762v1.032l-1.871.66v3.289L0-1.121v1.043Zm0 0"/><path id="D" d="M-5.262-4.879h.84a3.6 3.6 0 0 0-.308.77c-.07.257-.11.507-.11.77 0 .577.192 1.038.559 1.359.37.32.89.48 1.55.48q1.008 0 1.56-.48c.37-.32.55-.782.55-1.36 0-.262-.027-.512-.098-.77a3.5 3.5 0 0 0-.32-.769h.828c.121.258.211.52.262.777q.077.412.078.864c0 .816-.25 1.476-.77 1.957-.507.492-1.21.73-2.09.73-.89 0-1.59-.238-2.097-.73-.512-.489-.774-1.16-.774-2.02 0-.277.032-.55.09-.808.063-.262.14-.52.25-.77m0 0"/><path id="E" d="M-2.16-.852H-5.47v-.898h3.278c.52 0 .902-.102 1.16-.3.261-.2.39-.5.39-.91 0-.481-.148-.868-.46-1.15-.31-.28-.727-.421-1.27-.421H-5.47v-.899H0v.899h-.84c.34.222.578.48.738.761q.23.434.23 1c0 .63-.187 1.11-.577 1.43-.38.328-.95.488-1.711.488m-3.442-2.257"/><path id="F" d="M-4.629-4.11c-.062.098-.101.212-.133.329-.02.12-.039.25-.039.39 0 .512.172.903.5 1.172.332.278.801.41 1.422.41H0v.899h-5.469v-.899h.848a1.8 1.8 0 0 1-.738-.73q-.242-.451-.243-1.11c0-.062.012-.132.012-.21.012-.07.02-.153.04-.25Zm0 0"/><path id="G" d="M-2.75-3.43c0 .73.09 1.23.25 1.508.172.281.45.422.852.422.32 0 .578-.102.757-.309.192-.21.282-.5.282-.863 0-.5-.172-.898-.532-1.2-.347-.3-.82-.448-1.41-.448h-.199Zm-.371-1.789H0v.899h-.828c.34.21.578.468.726.77.153.3.23.679.23 1.12 0 .559-.148 1.008-.456 1.34-.313.328-.73.488-1.262.488-.61 0-1.07-.199-1.39-.617-.31-.41-.47-1.02-.47-1.84V-4.32h-.09c-.41 0-.73.14-.96.41-.219.27-.34.648-.34 1.14 0 .32.04.622.121.918.078.301.188.582.328.852h-.828a6 6 0 0 1-.281-.95 5 5 0 0 1-.102-.91c0-.788.211-1.378.622-1.769.41-.39 1.03-.59 1.859-.59m0 0"/><path id="H" d="M.5-3.219c.64.258 1.07.508 1.27.75q.3.36.3.957v.723h-.75v-.531q.002-.36-.18-.57c-.12-.141-.39-.29-.831-.462l-.399-.16L-5.469-.3v-.949l4.278-1.71-4.278-1.712v-.95Zm0 0"/><path id="J" d="M-7.59-3.102c.762.442 1.5.762 2.23.973a7.7 7.7 0 0 0 2.22.32c.761 0 1.5-.101 2.23-.32a9.5 9.5 0 0 0 2.219-.973v.782c-.77.492-1.508.86-2.25 1.101a7.1 7.1 0 0 1-2.2.36q-1.078 0-2.187-.36A9.6 9.6 0 0 1-7.59-2.32Zm0 0"/><path id="K" d="M-3.21-7.27c0 .282.12.508.358.668q.366.242 1.012.243c.418 0 .762-.082 1-.243a.77.77 0 0 0 .36-.668q-.001-.42-.36-.66c-.238-.16-.582-.242-1-.242-.422 0-.762.082-1 .242s-.37.38-.37.66m-.618 0c0-.511.18-.921.539-1.218.36-.301.848-.461 1.45-.461.609 0 1.089.16 1.44.46.36.298.528.708.528 1.22 0 .519-.168.94-.527 1.238q-.527.452-1.442.453c-.61 0-1.09-.152-1.45-.453-.358-.297-.538-.719-.538-1.239m-2.973 5.04c0 .28.13.5.371.66q.36.241.989.242c.441 0 .77-.082 1.011-.242a.76.76 0 0 0 .36-.66.77.77 0 0 0-.36-.668c-.242-.16-.57-.243-1.011-.243-.418 0-.75.09-.989.25-.242.16-.37.38-.37.66m-.62-4.41v-.782l7.55 4.563v.78Zm0 4.41q.002-.762.542-1.23c.36-.302.84-.462 1.438-.462.62 0 1.101.16 1.46.461.36.3.532.711.532 1.23 0 .52-.172.93-.531 1.231-.36.3-.84.45-1.461.45Q-6.34-.55-6.88-1q-.542-.45-.543-1.23m0 0"/><path id="L" d="M-7.59-.8v-.778c.77-.48 1.52-.852 2.262-1.094a7.1 7.1 0 0 1 2.187-.367c.73 0 1.461.129 2.2.367.742.242 1.48.613 2.25 1.094v.777c-.75-.43-1.48-.75-2.22-.969a8 8 0 0 0-2.23-.32c-.75 0-1.488.11-2.218.32-.73.22-1.47.54-2.23.97m0 0"/><clipPath id="a"><path d="M97 1h2v254.84h-2Zm0 0"/></clipPath><clipPath id="d"><path d="M155 1h1v254.84h-1Zm0 0"/></clipPath><clipPath id="f"><path d="M212 1h2v254.84h-2Zm0 0"/></clipPath><clipPath id="g"><path d="M270 1h1v254.84h-1Zm0 0"/></clipPath><clipPath id="s"><path d="M44.398 229H287v2H44.398Zm0 0"/></clipPath><clipPath id="v"><path d="M44.398 192H287v2H44.398Zm0 0"/></clipPath><clipPath id="x"><path d="M44.398 155H287v2H44.398Zm0 0"/></clipPath><clipPath id="y"><path d="M44.398 118H287v2H44.398Zm0 0"/></clipPath><clipPath id="z"><path d="M44.398 81H287v2H44.398Zm0 0"/></clipPath><clipPath id="A"><path d="M44.398 44H287v2H44.398Zm0 0"/></clipPath><clipPath id="B"><path d="M44.398 7H287v2H44.398Zm0 0"/></clipPath></defs><path fill="#FFF" d="M-28.8-28.8h345.6v345.6H-28.8z"/><path fill="#EAEAF2" d="M44.398 255.84H287V1H44.398Zm0 0"/><g clip-path="url(#a)"><path fill="none" stroke="#FFF" stroke-linecap="round" stroke-linejoin="round" stroke-miterlimit="10" stroke-width=".8" d="M98.156 255.84V1"/></g><g fill="#262626"><use xlink:href="#b" x="88.619" y="270.434"/><use xlink:href="#c" x="94.979" y="270.434"/><use xlink:href="#c" x="101.339" y="270.434"/></g><g clip-path="url(#d)"><path fill="none" stroke="#FFF" stroke-linecap="round" stroke-linejoin="round" stroke-miterlimit="10" stroke-width=".8" d="M155.59 255.84V1"/></g><g fill="#262626"><use xlink:href="#e" x="142.873" y="270.434"/><use xlink:href="#c" x="149.233" y="270.434"/><use xlink:href="#c" x="155.593" y="270.434"/><use xlink:href="#c" x="161.953" y="270.434"/></g><g clip-path="url(#f)"><path fill="none" stroke="#FFF" stroke-linecap="round" stroke-linejoin="round" stroke-miterlimit="10" stroke-width=".8" d="M213.023 255.84V1"/></g><g fill="#262626"><use xlink:href="#e" x="200.307" y="270.434"/><use xlink:href="#b" x="206.667" y="270.434"/><use xlink:href="#c" x="213.027" y="270.434"/><use xlink:href="#c" x="219.387" y="270.434"/></g><g clip-path="url(#g)"><path fill="none" stroke="#FFF" stroke-linecap="round" stroke-linejoin="round" stroke-miterlimit="10" stroke-width=".8" d="M270.46 255.84V1"/></g><g fill="#262626"><use xlink:href="#h" x="257.74" y="270.434"/><use xlink:href="#c" x="264.1" y="270.434"/><use xlink:href="#c" x="270.46" y="270.434"/><use xlink:href="#c" x="276.82" y="270.434"/></g><g fill="#262626"><use xlink:href="#i" x="135.302" y="284.106"/><use xlink:href="#j" x="143.932" y="284.106"/><use xlink:href="#k" x="150.052" y="284.106"/><use xlink:href="#l" x="156.402" y="284.106"/><use xlink:href="#m" x="162.552" y="284.106"/><use xlink:href="#n" x="165.332" y="284.106"/><use xlink:href="#o" x="168.512" y="284.106"/><use xlink:href="#p" x="176.692" y="284.106"/><use xlink:href="#k" x="179.472" y="284.106"/><use xlink:href="#q" x="185.822" y="284.106"/><use xlink:href="#r" x="189.742" y="284.106"/></g><g clip-path="url(#s)"><path fill="none" stroke="#FFF" stroke-linecap="round" stroke-linejoin="round" stroke-miterlimit="10" stroke-width=".8" d="M44.398 230.191H287"/></g><g fill="#262626"><use xlink:href="#b" x="15.134" y="233.99"/><use xlink:href="#t" x="21.494" y="233.99"/><use xlink:href="#u" x="27.854" y="233.99"/><use xlink:href="#b" x="31.034" y="233.99"/></g><g clip-path="url(#v)"><path fill="none" stroke="#FFF" stroke-linecap="round" stroke-linejoin="round" stroke-miterlimit="10" stroke-width=".8" d="M44.398 193.184H287"/></g><g fill="#262626"><use xlink:href="#w" x="15.134" y="196.982"/><use xlink:href="#c" x="21.494" y="196.982"/><use xlink:href="#u" x="27.854" y="196.982"/><use xlink:href="#c" x="31.034" y="196.982"/></g><g clip-path="url(#x)"><path fill="none" stroke="#FFF" stroke-linecap="round" stroke-linejoin="round" stroke-miterlimit="10" stroke-width=".8" d="M44.398 156.176H287"/></g><g fill="#262626"><use xlink:href="#w" x="15.134" y="159.973"/><use xlink:href="#c" x="21.494" y="159.973"/><use xlink:href="#u" x="27.854" y="159.973"/><use xlink:href="#b" x="31.034" y="159.973"/></g><g clip-path="url(#y)"><path fill="none" stroke="#FFF" stroke-linecap="round" stroke-linejoin="round" stroke-miterlimit="10" stroke-width=".8" d="M44.398 119.168H287"/></g><g fill="#262626"><use xlink:href="#w" x="15.134" y="122.965"/><use xlink:href="#e" x="21.494" y="122.965"/><use xlink:href="#u" x="27.854" y="122.965"/><use xlink:href="#c" x="31.034" y="122.965"/></g><g clip-path="url(#z)"><path fill="none" stroke="#FFF" stroke-linecap="round" stroke-linejoin="round" stroke-miterlimit="10" stroke-width=".8" d="M44.398 82.16H287"/></g><g fill="#262626"><use xlink:href="#w" x="15.134" y="85.956"/><use xlink:href="#e" x="21.494" y="85.956"/><use xlink:href="#u" x="27.854" y="85.956"/><use xlink:href="#b" x="31.034" y="85.956"/></g><g clip-path="url(#A)"><path fill="none" stroke="#FFF" stroke-linecap="round" stroke-linejoin="round" stroke-miterlimit="10" stroke-width=".8" d="M44.398 45.152H287"/></g><g fill="#262626"><use xlink:href="#w" x="15.134" y="48.948"/><use xlink:href="#h" x="21.494" y="48.948"/><use xlink:href="#u" x="27.854" y="48.948"/><use xlink:href="#c" x="31.034" y="48.948"/></g><g clip-path="url(#B)"><path fill="none" stroke="#FFF" stroke-linecap="round" stroke-linejoin="round" stroke-miterlimit="10" stroke-width=".8" d="M44.398 8.145H287"/></g><g fill="#262626"><use xlink:href="#w" x="15.134" y="11.94"/><use xlink:href="#h" x="21.494" y="11.94"/><use xlink:href="#u" x="27.854" y="11.94"/><use xlink:href="#b" x="31.034" y="11.94"/></g><use xlink:href="#C" x="9.056" y="161.529" fill="#262626"/><g fill="#262626"><use xlink:href="#D" x="9.056" y="154.861"/><use xlink:href="#D" x="9.056" y="149.361"/><use xlink:href="#E" x="9.056" y="143.861"/><use xlink:href="#F" x="9.056" y="137.521"/><use xlink:href="#G" x="9.056" y="133.411"/><use xlink:href="#D" x="9.056" y="127.281"/><use xlink:href="#H" x="9.056" y="121.781"/><use xlink:href="#I" x="9.056" y="115.861"/><use xlink:href="#J" x="9.056" y="112.681"/><use xlink:href="#K" x="9.056" y="108.781"/><use xlink:href="#L" x="9.056" y="99.281"/></g><path fill="none" stroke="#00F" stroke-linecap="round" stroke-linejoin="round" stroke-miterlimit="10" stroke-opacity=".9" d="m55.426 127.309 14.703-39.227 29.406-75.5 58.813 77.719 117.625 153.957"/><path fill="#00F" fill-opacity=".9" stroke="#00F" stroke-linejoin="round" stroke-miterlimit="10" stroke-opacity=".9" d="M55.426 130.309a3 3 0 0 0 3-3 3.005 3.005 0 0 0-3-3 3.005 3.005 0 0 0-3 3 3 3 0 0 0 3 3ZM70.129 91.082a3 3 0 0 0 3-3 3 3 0 0 0-3-3 3.005 3.005 0 0 0-3 3 3.005 3.005 0 0 0 3 3ZM99.535 15.582a3 3 0 0 0 3-3 3.005 3.005 0 0 0-3-3 3.005 3.005 0 0 0-3 3 3 3 0 0 0 3 3ZM158.348 93.3a3 3 0 0 0 3-3 3 3 0 0 0-3-3 3.005 3.005 0 0 0-3 3 3 3 0 0 0 3 3ZM275.973 247.258a3 3 0 0 0 3-3 3 3 0 0 0-3-3 3 3 0 0 0-3 3 3.005 3.005 0 0 0 3 3Zm0 0"/><path fill="none" stroke="#FFF" stroke-linecap="square" stroke-miterlimit="10" stroke-width=".8" d="M44.398 255.84V1M287 255.84V1M44.398 255.84H287M44.398 1H287"/></svg>