<svg xmlns="http://www.w3.org/2000/svg" xmlns:xlink="http://www.w3.org/1999/xlink" width="384" height="307.2" viewBox="0 0 288 230.4"><defs><path id="c" d="M3.18-6.64q-.761 0-1.149.75c-.261.5-.383 1.25-.383 2.25s.122 1.75.383 2.25q.386.75 1.149.75c.511 0 .89-.25 1.148-.75.25-.5.383-1.25.383-2.25s-.133-1.75-.383-2.25c-.258-.5-.637-.75-1.148-.75m0-.782c.808 0 1.43.332 1.87.973.43.648.65 1.59.65 2.808 0 1.23-.22 2.172-.65 2.813-.44.637-1.062.957-1.878.957Q1.943.129 1.3-.828C.87-1.468.66-2.41.66-3.641c0-1.218.21-2.16.64-2.808.43-.64 1.058-.973 1.879-.973m0 0"/><path id="d" d="M1.07-1.238h1.032V0H1.07Zm0 0"/><path id="f" d="M1.078-7.29H4.95v.83H1.98v1.788c.141-.047.29-.09.43-.11.14-.019.29-.038.43-.038.808 0 1.45.23 1.93.672.48.449.718 1.046.718 1.808 0 .79-.25 1.399-.738 1.828-.488.434-1.18.64-2.059.64-.312 0-.62-.026-.941-.07a5.6 5.6 0 0 1-.98-.23v-.988q.432.24.91.36c.308.081.64.109.992.109.558 0 1.008-.137 1.34-.438.316-.3.488-.7.488-1.21 0-.5-.172-.9-.488-1.2-.332-.3-.782-.45-1.34-.45a3.4 3.4 0 0 0-.793.09 4.4 4.4 0 0 0-.8.27Zm0 0"/><path id="h" d="M1.238-.828h1.614v-5.563l-1.75.352v-.902L2.84-7.29h.988v6.46h1.613V0H1.238Zm0 0"/><path id="k" d="M1.922-.828h3.437V0H.73v-.828c.372-.383.88-.902 1.532-1.563A72 72 0 0 0 3.48-3.648q.48-.528.66-.903c.122-.238.188-.488.188-.73 0-.38-.137-.7-.406-.938-.274-.242-.621-.37-1.063-.37-.308 0-.64.058-.98.16q-.51.162-1.098.488v-1q.6-.238 1.11-.36c.34-.078.66-.12.949-.12q1.126 0 1.8.57c.45.382.68.882.68 1.511 0 .3-.058.59-.172.852-.109.27-.308.59-.609.949-.078.098-.34.367-.777.82-.442.45-1.051 1.078-1.84 1.89m0 0"/><path id="n" d="M4.059-3.93c.472.102.84.309 1.101.63.262.32.399.722.399 1.179 0 .723-.25 1.281-.739 1.672-.5.39-1.199.578-2.11.578a5 5 0 0 1-.948-.09c-.32-.05-.66-.14-1-.258v-.953c.27.16.566.281.898.363q.48.118 1.02.118.93.002 1.41-.36c.32-.238.488-.597.488-1.07 0-.418-.148-.758-.45-1-.3-.238-.718-.367-1.257-.367H2.02v-.813h.89c.48 0 .852-.09 1.11-.289q.39-.285.39-.84c0-.37-.14-.66-.398-.86q-.41-.298-1.14-.3-.407 0-.872.09a8 8 0 0 0-1.02.27v-.88c.372-.1.72-.18 1.051-.23.32-.05.63-.082.93-.082q1.107.001 1.77.512.66.51.66 1.379c0 .402-.121.742-.352 1.02-.23.28-.559.48-.98.581m0 0"/><path id="o" d="M5.352-7.05v.96a6.5 6.5 0 0 0-1.063-.398 4.1 4.1 0 0 0-.96-.133c-.54 0-.958.11-1.25.312-.29.207-.43.508-.43.887 0 .32.09.57.292.73.188.172.559.301 1.098.403l.602.117c.73.14 1.27.39 1.62.742.348.36.528.828.528 1.418 0 .711-.238 1.242-.71 1.602Q4.363.13 3 .129a6.3 6.3 0 0 1-1.11-.11C1.5-.05 1.103-.16.692-.32V-1.34q.6.344 1.168.512c.38.117.762.168 1.141.168.559 0 .988-.11 1.3-.328.302-.223.462-.532.462-.953 0-.36-.114-.637-.332-.84q-.329-.299-1.078-.45l-.602-.12q-1.106-.207-1.602-.688C.82-4.352.66-4.781.66-5.34c0-.641.219-1.15.68-1.52.45-.371 1.082-.563 1.879-.563.34 0 .68.031 1.043.094.347.058.707.156 1.09.277m0 0"/><path id="p" d="M1.828-7.02v1.551H3.68v.7H1.828v2.968c0 .45.063.742.184.86.117.132.367.191.75.191h.918V0h-.918Q1.707 0 1.32-.39C1.06-.649.93-1.122.93-1.8v-2.97H.27v-.699h.66v-1.55Zm0 0"/><path id="q" d="M4.54-4.64v-2.962h.901V0H4.54v-.82c-.187.332-.43.57-.719.718-.289.153-.629.23-1.03.23Q1.798.13 1.171-.647C.75-1.172.55-1.871.55-2.73c0-.86.199-1.551.62-2.079.419-.52.958-.793 1.618-.793.402 0 .742.082 1.031.243q.436.239.72.718M1.48-2.73c0 .66.13 1.18.399 1.558.27.383.64.563 1.121.563.48 0 .852-.18 1.129-.563.27-.379.41-.898.41-1.558s-.14-1.168-.41-1.551A1.32 1.32 0 0 0 3-4.851q-.719 0-1.121.57c-.27.383-.399.89-.399 1.55m0 0"/><path id="s" d="M5.621-2.96v.44H1.488c.043.622.223 1.098.563 1.418q.49.48 1.39.48c.34 0 .68-.038 1-.116.32-.082.649-.211.97-.39v.847c-.321.14-.65.25-.99.312a6 6 0 0 1-1.03.098c-.88 0-1.57-.25-2.082-.75C.8-1.121.55-1.81.55-2.68Q.55-4.016 1.27-4.809c.48-.52 1.14-.793 1.96-.793.739 0 1.32.243 1.75.711.418.48.641 1.121.641 1.93M4.72-3.22c-.008-.492-.149-.883-.41-1.18-.27-.292-.63-.44-1.07-.44-.5 0-.9.148-1.2.429s-.48.68-.52 1.191Zm0 0"/><path id="t" d="M.3-5.469h.95l1.71 4.59 1.712-4.59h.95L3.57 0H2.352Zm0 0"/><path id="u" d="M3.059-4.84q-.72.001-1.137.57-.422.568-.422 1.54c0 .66.129 1.171.41 1.55.281.38.66.559 1.149.559.48 0 .863-.18 1.14-.559.281-.379.422-.89.422-1.55 0-.641-.14-1.16-.422-1.54-.277-.378-.66-.57-1.14-.57m0-.762c.78 0 1.39.262 1.84.762.44.512.671 1.211.671 2.11 0 .902-.23 1.601-.672 2.101C4.45-.12 3.84.13 3.058.13c-.788 0-1.41-.25-1.847-.758Q.55-1.379.55-2.73c0-.899.219-1.598.66-2.11.437-.5 1.059-.762 1.848-.762m0 0"/><path id="v" d="M3.71-7.602v.75h-.858c-.32 0-.551.07-.672.204q-.193.19-.192.699v.48h1.48v.7h-1.48V0H1.09v-4.77H.23v-.699h.86v-.383c0-.597.14-1.046.422-1.328q.416-.421 1.347-.422Zm0 0"/><path id="w" d="M5.488-3.3V0H4.59v-3.27c0-.52-.11-.902-.309-1.16-.203-.261-.5-.39-.902-.39-.488 0-.867.16-1.149.468-.28.313-.421.73-.421 1.262V0H.91v-5.469h.899v.848c.21-.32.46-.57.761-.73.29-.16.63-.25 1.008-.25.621 0 1.102.203 1.422.59.32.39.488.96.488 1.71m0 0"/><path id="x" d="M4.11-4.629a1.2 1.2 0 0 0-.329-.133c-.12-.02-.25-.039-.39-.039-.512 0-.903.172-1.172.5-.278.332-.41.801-.41 1.422V0H.91v-5.469h.899v.848c.18-.328.43-.578.73-.738q.451-.242 1.11-.243c.062 0 .132.012.21.012.07.012.153.02.25.04Zm0 0"/><path id="y" d="M5.2-4.422c.222-.398.491-.687.8-.887.309-.191.68-.293 1.11-.293.562 0 1 .204 1.312.602.308.398.469.969.469 1.7V0h-.903v-3.27c0-.52-.097-.91-.277-1.171-.191-.25-.473-.38-.852-.38-.468 0-.84.16-1.109.47-.27.312-.398.73-.398 1.261V0h-.903v-3.27c0-.52-.097-.91-.277-1.171-.192-.25-.48-.38-.863-.38-.457 0-.829.16-1.098.47q-.403.466-.402 1.261V0H.91v-5.469h.899v.848c.203-.328.453-.578.742-.738.277-.16.62-.243 1.02-.243.398 0 .73.102 1.007.301.281.2.48.5.621.88m0 0"/><path id="z" d="M3.43-2.75c-.73 0-1.23.09-1.508.25-.281.172-.422.45-.422.852 0 .32.102.578.309.757.21.192.5.282.863.282.5 0 .898-.172 1.2-.532.3-.347.448-.82.448-1.41v-.199Zm1.789-.371V0H4.32v-.828c-.21.34-.468.578-.77.726-.3.153-.679.23-1.12.23-.559 0-1.008-.148-1.34-.456C.762-.641.602-1.058.602-1.59c0-.61.199-1.07.617-1.39.41-.31 1.02-.47 1.84-.47H4.32v-.09c0-.41-.14-.73-.41-.96-.27-.219-.648-.34-1.14-.34-.32 0-.622.04-.918.121-.301.078-.582.188-.852.328v-.828c.32-.12.64-.222.95-.281a5 5 0 0 1 .91-.102c.788 0 1.378.211 1.769.622.39.41.59 1.03.59 1.859m0 0"/><path id="A" d="M.941-7.602h.899V0H.94Zm0 0"/><path id="B" d="M.941-5.469h.899V0H.94Zm0-2.133h.899v1.141H.94Zm0 0"/><path id="C" d="M4.43-5.309v.848a5 5 0 0 0-.79-.289 4 4 0 0 0-.85-.102c-.45 0-.79.07-1.009.211a.67.67 0 0 0-.332.61c0 .21.082.37.242.492.16.117.48.238.957.34l.313.07c.64.14 1.09.34 1.36.578.257.25.398.602.398 1.04q0 .765-.598 1.202c-.402.297-.96.438-1.66.438-.3 0-.602-.027-.922-.078a6 6 0 0 1-1-.25v-.93q.499.27.98.39c.32.09.641.13.961.13.418 0 .75-.07.98-.211a.7.7 0 0 0 .34-.621c0-.239-.09-.43-.25-.559s-.519-.262-1.081-.379l-.309-.07c-.558-.121-.969-.301-1.21-.54-.25-.241-.372-.57-.372-1 0-.511.184-.91.543-1.19q.54-.423 1.559-.423c.332 0 .64.032.941.082q.434.077.809.211m0 0"/><path id="D" d="M4.871-2.73c0-.66-.14-1.168-.41-1.551a1.33 1.33 0 0 0-1.121-.57q-.719 0-1.121.57c-.278.383-.41.89-.41 1.55s.132 1.18.41 1.56c.27.382.64.562 1.12.562.47 0 .84-.18 1.122-.563.27-.379.41-.898.41-1.558M1.81-4.64c.18-.32.421-.56.71-.72.29-.16.641-.242 1.04-.242.66 0 1.203.274 1.62.793.41.528.622 1.22.622 2.079S5.59-1.172 5.18-.648c-.418.52-.961.777-1.621.777-.399 0-.75-.078-1.04-.23a1.7 1.7 0 0 1-.71-.72V0H.91v-7.602h.899Zm0 0"/><path id="E" d="M.852-2.16V-5.47h.898v3.278c0 .52.102.902.3 1.16.2.261.5.39.91.39.481 0 .868-.148 1.15-.46.28-.31.421-.727.421-1.27V-5.47h.899V0H4.53v-.84c-.222.34-.48.578-.761.738a2.1 2.1 0 0 1-1 .23c-.63 0-1.11-.187-1.43-.577C1.012-.83.852-1.4.852-2.16m2.257-3.442"/><path id="I" d="M3.781-6.43 1.29-2.54h2.492Zm-.261-.86h1.242v4.75H5.8v.821H4.76V0h-.98v-1.719H.488v-.953Zm0 0"/><path id="K" d="M3.3-4.04c-.44 0-.788.161-1.05.462-.262.297-.39.719-.39 1.238q-.002.798.39 1.25.391.45 1.05.45.658 0 1.052-.45.386-.452.386-1.25c0-.52-.129-.941-.386-1.238-.262-.3-.614-.461-1.051-.461m1.962-3.089v.899a3.441 3.441 0 0 0-1.5-.36q-.99 0-1.5.66c-.34.442-.543 1.11-.582 1.989.191-.278.43-.5.718-.649.293-.148.614-.23.961-.23.73 0 1.313.23 1.73.672.423.437.641 1.046.641 1.808 0 .75-.23 1.352-.671 1.8C4.62-.09 4.03.13 3.3.13c-.84 0-1.492-.32-1.93-.957C.921-1.468.7-2.41.7-3.641c0-1.148.27-2.07.82-2.75.54-.68 1.282-1.03 2.2-1.03.242 0 .492.03.75.07.25.05.511.12.793.222m0 0"/><path id="M" d="M3.18-3.46c-.47 0-.84.132-1.11.382s-.398.59-.398 1.027c0 .442.129.79.398 1.04.27.25.64.37 1.11.37.46 0 .832-.12 1.101-.379.27-.25.41-.59.41-1.03 0-.438-.14-.778-.402-1.028-.27-.25-.64-.383-1.11-.383M2.19-3.88q-.63-.153-.992-.59C.961-4.762.852-5.109.852-5.53c0-.578.199-1.04.617-1.38q.615-.51 1.71-.51 1.08 0 1.712.51c.41.34.62.802.62 1.38 0 .422-.12.77-.363 1.062-.238.29-.558.489-.976.59q.704.166 1.11.649c.257.32.398.718.398 1.18 0 .71-.22 1.25-.649 1.62C4.59-.05 3.97.13 3.171.13c-.8 0-1.421-.18-1.85-.559Q.677-.985.68-2.05c0-.462.129-.86.398-1.18.262-.32.633-.54 1.113-.649M1.828-5.44c0 .382.113.68.352.89.242.211.57.313 1 .313.422 0 .75-.102.992-.313q.359-.316.36-.89c0-.38-.122-.668-.36-.88-.242-.21-.57-.32-.992-.32-.43 0-.758.11-1 .32-.239.212-.352.5-.352.88m0 0"/><path id="N" d="m-6.32-3.422 3.629 1.344v-2.684Zm-.97.563V-3.98L0-6.762v1.032l-1.871.66v3.289L0-1.121v1.043Zm0 0"/><path id="O" d="M-5.262-4.879h.84a3.6 3.6 0 0 0-.308.77c-.07.257-.11.507-.11.77 0 .577.192 1.038.559 1.359.37.32.89.48 1.55.48q1.008 0 1.56-.48c.37-.32.55-.782.55-1.36 0-.262-.027-.512-.098-.77a3.5 3.5 0 0 0-.32-.769h.828c.121.258.211.52.262.777q.077.412.078.864c0 .816-.25 1.476-.77 1.957-.507.492-1.21.73-2.09.73-.89 0-1.59-.238-2.097-.73-.512-.489-.774-1.16-.774-2.02 0-.277.032-.55.09-.808.063-.262.14-.52.25-.77m0 0"/><path id="P" d="M-2.16-.852H-5.47v-.898h3.278c.52 0 .902-.102 1.16-.3.261-.2.39-.5.39-.91 0-.481-.148-.868-.46-1.15-.31-.28-.727-.421-1.27-.421H-5.47v-.899H0v.899h-.84c.34.222.578.48.738.761q.23.434.23 1c0 .63-.187 1.11-.577 1.43-.38.328-.95.488-1.711.488m-3.442-2.257"/><path id="Q" d="M-4.629-4.11c-.062.098-.101.212-.133.329-.02.12-.039.25-.039.39 0 .512.172.903.5 1.172.332.278.801.41 1.422.41H0v.899h-5.469v-.899h.848a1.8 1.8 0 0 1-.738-.73q-.242-.451-.243-1.11c0-.062.012-.132.012-.21.012-.07.02-.153.04-.25Zm0 0"/><path id="R" d="M-2.75-3.43c0 .73.09 1.23.25 1.508.172.281.45.422.852.422.32 0 .578-.102.757-.309.192-.21.282-.5.282-.863 0-.5-.172-.898-.532-1.2-.347-.3-.82-.448-1.41-.448h-.199Zm-.371-1.789H0v.899h-.828c.34.21.578.468.726.77.153.3.23.679.23 1.12 0 .559-.148 1.008-.456 1.34-.313.328-.73.488-1.262.488-.61 0-1.07-.199-1.39-.617-.31-.41-.47-1.02-.47-1.84V-4.32h-.09c-.41 0-.73.14-.96.41-.219.27-.34.648-.34 1.14 0 .32.04.622.121.918.078.301.188.582.328.852h-.828a6 6 0 0 1-.281-.95 5 5 0 0 1-.102-.91c0-.788.211-1.378.622-1.769.41-.39 1.03-.59 1.859-.59m0 0"/><path id="S" d="M.5-3.219c.64.258 1.07.508 1.27.75q.3.36.3.957v.723h-.75v-.531q.002-.36-.18-.57c-.12-.141-.39-.29-.831-.462l-.399-.16L-5.469-.3v-.949l4.278-1.71-4.278-1.712v-.95Zm0 0"/><clipPath id="a"><path d="M0 0h288v230.398H0Zm0 0"/></clipPath><clipPath id="b"><path d="M41 1h1v197.238h-1Zm0 0"/></clipPath><clipPath id="e"><path d="M80 1h1v197.238h-1Zm0 0"/></clipPath><clipPath id="g"><path d="M119 1h1v197.238h-1Zm0 0"/></clipPath><clipPath id="i"><path d="M158 1h1v197.238h-1Zm0 0"/></clipPath><clipPath id="j"><path d="M197 1h2v197.238h-2Zm0 0"/></clipPath><clipPath id="l"><path d="M236 1h2v197.238h-2Zm0 0"/></clipPath><clipPath id="m"><path d="M275 1h2v197.238h-2Zm0 0"/></clipPath><clipPath id="F"><path d="M38.012 188H287v2H38.012Zm0 0"/></clipPath><clipPath id="G"><path d="M38.012 146H287v2H38.012Zm0 0"/></clipPath><clipPath id="H"><path d="M38.012 104H287v2H38.012Zm0 0"/></clipPath><clipPath id="J"><path d="M38.012 62H287v2H38.012Zm0 0"/></clipPath><clipPath id="L"><path d="M38.012 20H287v2H38.012Zm0 0"/></clipPath></defs><g clip-path="url(#a)"><path fill="#FFF" d="M0 230.398h288V0H0Zm0 0"/></g><path fill="#EAEAF2" d="M38.012 198.238H287V1H38.012Zm0 0"/><g clip-path="url(#b)"><path fill="none" stroke="#FFF" stroke-linecap="round" stroke-linejoin="round" stroke-miterlimit="10" stroke-width=".8" d="M41.523 198.238V1"/></g><g fill="#262626"><use xlink:href="#c" x="33.569" y="212.834"/><use xlink:href="#d" x="39.929" y="212.834"/><use xlink:href="#c" x="43.109" y="212.834"/></g><g clip-path="url(#e)"><path fill="none" stroke="#FFF" stroke-linecap="round" stroke-linejoin="round" stroke-miterlimit="10" stroke-width=".8" d="M80.55 198.238V1"/></g><g fill="#262626"><use xlink:href="#c" x="72.596" y="212.834"/><use xlink:href="#d" x="78.956" y="212.834"/><use xlink:href="#f" x="82.136" y="212.834"/></g><g clip-path="url(#g)"><path fill="none" stroke="#FFF" stroke-linecap="round" stroke-linejoin="round" stroke-miterlimit="10" stroke-width=".8" d="M119.574 198.238V1"/></g><g fill="#262626"><use xlink:href="#h" x="111.623" y="212.834"/><use xlink:href="#d" x="117.983" y="212.834"/><use xlink:href="#c" x="121.163" y="212.834"/></g><g clip-path="url(#i)"><path fill="none" stroke="#FFF" stroke-linecap="round" stroke-linejoin="round" stroke-miterlimit="10" stroke-width=".8" d="M158.602 198.238V1"/></g><g fill="#262626"><use xlink:href="#h" x="150.649" y="212.834"/><use xlink:href="#d" x="157.009" y="212.834"/><use xlink:href="#f" x="160.189" y="212.834"/></g><g clip-path="url(#j)"><path fill="none" stroke="#FFF" stroke-linecap="round" stroke-linejoin="round" stroke-miterlimit="10" stroke-width=".8" d="M197.629 198.238V1"/></g><g fill="#262626"><use xlink:href="#k" x="189.676" y="212.834"/><use xlink:href="#d" x="196.036" y="212.834"/><use xlink:href="#c" x="199.216" y="212.834"/></g><g clip-path="url(#l)"><path fill="none" stroke="#FFF" stroke-linecap="round" stroke-linejoin="round" stroke-miterlimit="10" stroke-width=".8" d="M236.656 198.238V1"/></g><g fill="#262626"><use xlink:href="#k" x="228.703" y="212.834"/><use xlink:href="#d" x="235.063" y="212.834"/><use xlink:href="#f" x="238.243" y="212.834"/></g><g clip-path="url(#m)"><path fill="none" stroke="#FFF" stroke-linecap="round" stroke-linejoin="round" stroke-miterlimit="10" stroke-width=".8" d="M275.684 198.238V1"/></g><g fill="#262626"><use xlink:href="#n" x="267.729" y="212.834"/><use xlink:href="#d" x="274.089" y="212.834"/><use xlink:href="#c" x="277.269" y="212.834"/></g><g fill="#262626"><use xlink:href="#o" x="84.919" y="226.506"/><use xlink:href="#p" x="91.269" y="226.506"/><use xlink:href="#q" x="95.189" y="226.506"/><use xlink:href="#d" x="101.539" y="226.506"/><use xlink:href="#r" x="104.719" y="226.506"/><use xlink:href="#q" x="107.899" y="226.506"/><use xlink:href="#s" x="114.249" y="226.506"/><use xlink:href="#t" x="120.399" y="226.506"/></g><g fill="#262626"><use xlink:href="#d" x="125.553" y="226.506"/><use xlink:href="#r" x="128.733" y="226.506"/><use xlink:href="#u" x="131.913" y="226.506"/><use xlink:href="#v" x="138.033" y="226.506"/><use xlink:href="#r" x="141.553" y="226.506"/><use xlink:href="#w" x="144.733" y="226.506"/><use xlink:href="#u" x="151.073" y="226.506"/><use xlink:href="#x" x="157.193" y="226.506"/></g><g fill="#262626"><use xlink:href="#y" x="161.132" y="226.506"/><use xlink:href="#z" x="170.872" y="226.506"/><use xlink:href="#A" x="177.002" y="226.506"/><use xlink:href="#r" x="179.782" y="226.506"/><use xlink:href="#q" x="182.962" y="226.506"/><use xlink:href="#B" x="189.312" y="226.506"/><use xlink:href="#C" x="192.092" y="226.506"/><use xlink:href="#p" x="197.302" y="226.506"/><use xlink:href="#x" x="201.222" y="226.506"/><use xlink:href="#B" x="205.332" y="226.506"/><use xlink:href="#D" x="208.112" y="226.506"/><use xlink:href="#E" x="214.462" y="226.506"/><use xlink:href="#p" x="220.802" y="226.506"/><use xlink:href="#B" x="224.722" y="226.506"/><use xlink:href="#u" x="227.502" y="226.506"/><use xlink:href="#w" x="233.622" y="226.506"/></g><g clip-path="url(#F)"><path fill="none" stroke="#FFF" stroke-linecap="round" stroke-linejoin="round" stroke-miterlimit="10" stroke-width=".8" d="M38.012 189.273H287"/></g><g fill="#262626"><use xlink:href="#c" x="15.104" y="193.071"/><use xlink:href="#d" x="21.464" y="193.071"/><use xlink:href="#c" x="24.644" y="193.071"/></g><g clip-path="url(#G)"><path fill="none" stroke="#FFF" stroke-linecap="round" stroke-linejoin="round" stroke-miterlimit="10" stroke-width=".8" d="M38.012 147.238H287"/></g><g fill="#262626"><use xlink:href="#c" x="15.104" y="151.036"/><use xlink:href="#d" x="21.464" y="151.036"/><use xlink:href="#k" x="24.644" y="151.036"/></g><g clip-path="url(#H)"><path fill="none" stroke="#FFF" stroke-linecap="round" stroke-linejoin="round" stroke-miterlimit="10" stroke-width=".8" d="M38.012 105.203H287"/></g><g fill="#262626"><use xlink:href="#c" x="15.104" y="109"/><use xlink:href="#d" x="21.464" y="109"/><use xlink:href="#I" x="24.644" y="109"/></g><g clip-path="url(#J)"><path fill="none" stroke="#FFF" stroke-linecap="round" stroke-linejoin="round" stroke-miterlimit="10" stroke-width=".8" d="M38.012 63.168H287"/></g><g fill="#262626"><use xlink:href="#c" x="15.104" y="66.964"/><use xlink:href="#d" x="21.464" y="66.964"/><use xlink:href="#K" x="24.644" y="66.964"/></g><g clip-path="url(#L)"><path fill="none" stroke="#FFF" stroke-linecap="round" stroke-linejoin="round" stroke-miterlimit="10" stroke-width=".8" d="M38.012 21.133H287"/></g><g fill="#262626"><use xlink:href="#c" x="15.104" y="24.928"/><use xlink:href="#d" x="21.464" y="24.928"/><use xlink:href="#M" x="24.644" y="24.928"/></g><use xlink:href="#N" x="9.026" y="122.479" fill="#262626"/><g fill="#262626"><use xlink:href="#O" x="9.026" y="115.811"/><use xlink:href="#O" x="9.026" y="110.311"/><use xlink:href="#P" x="9.026" y="104.811"/><use xlink:href="#Q" x="9.026" y="98.471"/><use xlink:href="#R" x="9.026" y="94.361"/><use xlink:href="#O" x="9.026" y="88.231"/><use xlink:href="#S" x="9.026" y="82.731"/></g><path fill="none" stroke="#36ADA4" stroke-linecap="round" stroke-linejoin="round" stroke-miterlimit="10" stroke-width="1.5" d="m49.328 189.273 11.914-74.054 11.914-71.59 11.91-22.168 11.914-6.078 11.915-4.926 11.914-.492 11.914.656 11.914 5.914 11.91 11 11.914 14.121 11.914 29.227 11.914 29.558 11.914 34.48 11.914 15.767 11.91 19.375 11.914 8.046 11.914 5.09 11.915 2.133 11.914 2.465"/><path fill="none" stroke="#FFF" stroke-linecap="square" stroke-miterlimit="10" stroke-width=".8" d="M38.012 198.238V1M287 198.238V1M38.012 198.238H287M38.012 1H287"/></svg>