<svg xmlns="http://www.w3.org/2000/svg" xmlns:xlink="http://www.w3.org/1999/xlink" width="460.8" height="307.2" viewBox="0 0 345.6 230.4"><defs><path id="c" d="M5.031-.84V0H.301C.289-.21.328-.41.41-.61c.12-.32.308-.628.57-.949.257-.312.648-.671 1.148-1.09.781-.632 1.3-1.132 1.582-1.511.27-.371.41-.719.41-1.059a1.2 1.2 0 0 0-.383-.883c-.25-.238-.566-.359-.968-.359-.418 0-.758.133-1.008.383q-.391.387-.39 1.058L.468-5.12q.093-1.001.691-1.54c.399-.35.95-.53 1.63-.53s1.23.203 1.632.582q.598.567.598 1.41 0 .433-.18.847c-.121.282-.309.57-.578.872q-.41.463-1.352 1.261-.796.658-1.02.899c-.152.16-.269.32-.37.48Zm0 0"/><path id="d" d="M.422-3.531c0-.84.078-1.52.258-2.04q.259-.777.77-1.199c.34-.28.78-.421 1.3-.421q.57.001 1.012.242c.277.16.52.379.707.668.191.293.34.64.453 1.062.098.418.156.989.156 1.688 0 .84-.09 1.52-.258 2.043-.172.52-.43.91-.77 1.187-.34.281-.78.41-1.3.41-.7 0-1.238-.238-1.629-.73-.473-.59-.7-1.559-.7-2.91m.898 0c0 1.18.13 1.96.41 2.351.27.39.61.578 1.008.578.403 0 .742-.187 1.024-.578q.417-.584.418-2.351c0-1.18-.14-1.957-.418-2.348-.282-.383-.621-.582-1.024-.582-.41 0-.726.172-.968.512-.301.437-.45 1.25-.45 2.418m0 0"/><path id="f" d="M3.23 0v-1.71H.13v-.81L3.39-7.16h.718v4.64h.97v.81h-.97V0Zm0-2.52v-3.23L.988-2.52Zm0 0"/><path id="h" d="m4.98-5.41-.878.07q-.123-.51-.332-.75a1.22 1.22 0 0 0-.88-.37c-.28 0-.53.081-.742.23-.277.199-.488.5-.648.878-.16.391-.25.942-.25 1.66.21-.32.469-.546.781-.706a2 2 0 0 1 .957-.243c.582 0 1.082.22 1.492.653.41.43.622.988.622 1.668 0 .449-.102.87-.293 1.25-.2.39-.457.68-.797.879-.34.203-.723.3-1.153.3-.738 0-1.328-.257-1.789-.8C.61-1.22.38-2.11.38-3.351c0-1.38.25-2.38.762-3.02.437-.54 1.039-.82 1.8-.82.559 0 1.028.16 1.387.48.363.32.57.75.652 1.3M1.39-2.32c0 .3.06.59.188.87q.18.419.543.63c.23.148.469.218.73.218.36 0 .68-.148.95-.449.258-.3.398-.699.398-1.219 0-.492-.14-.878-.398-1.171a1.31 1.31 0 0 0-.992-.43c-.399 0-.73.152-1.008.43-.281.293-.41.66-.41 1.12m0 0"/><path id="j" d="M1.77-3.879c-.372-.133-.641-.32-.82-.57C.77-4.691.69-4.99.69-5.34c0-.52.18-.95.559-1.31q.569-.543 1.5-.542c.621 0 1.129.191 1.512.55q.567.54.566 1.32c0 .34-.09.63-.258.872-.18.25-.441.437-.8.57.44.14.77.367 1 .688s.351.703.351 1.14c0 .621-.223 1.13-.652 1.54-.438.421-1.008.62-1.707.62C2.05.11 1.48-.09 1.05-.51c-.43-.41-.64-.93-.64-1.56 0-.46.109-.85.35-1.167.227-.313.567-.524 1.009-.64M1.59-5.37c0 .34.11.621.332.832.219.219.5.32.848.32.34 0 .609-.101.832-.32q.328-.318.328-.781c0-.32-.121-.59-.34-.809a1.12 1.12 0 0 0-.828-.332c-.34 0-.621.11-.84.32a1.03 1.03 0 0 0-.332.77m-.281 3.3c0 .262.062.5.18.731.12.238.292.418.53.55.231.13.481.188.75.188.422 0 .762-.128 1.04-.398.27-.27.41-.621.41-1.04s-.14-.76-.418-1.038C3.52-3.36 3.16-3.5 2.738-3.5c-.418 0-.758.14-1.027.41q-.404.422-.402 1.02m0 0"/><path id="l" d="M3.73 0h-.878v-5.602c-.223.204-.5.41-.84.614-.34.199-.653.347-.922.449v-.852c.488-.23.922-.507 1.289-.84q.54-.48.781-.96h.57Zm0 0"/><path id="n" d="M.77 0v-7.16h2.699c.472 0 .832.031 1.09.07.351.059.64.18.882.34q.357.24.579.691c.14.297.218.618.218.97 0 .62-.199 1.128-.59 1.55-.386.418-1.09.629-2.097.629H1.719V0Zm.949-3.75H3.57c.61 0 1.04-.11 1.301-.34.258-.23.39-.55.39-.969 0-.3-.081-.55-.23-.77a1.14 1.14 0 0 0-.601-.421c-.16-.04-.461-.059-.88-.059H1.72Zm0 0"/><path id="o" d="M4.04-.64c-.33.28-.642.48-.938.59-.301.1-.633.16-.973.16C1.559.11 1.12-.02.82-.3.512-.579.36-.93.36-1.372c0-.25.05-.48.171-.688q.176-.316.457-.511c.184-.121.39-.22.633-.29.168-.038.43-.081.777-.128.711-.082 1.23-.184 1.57-.301v-.23c0-.36-.077-.61-.238-.762-.23-.2-.57-.297-1.011-.297-.418 0-.719.078-.918.219-.2.148-.34.41-.43.77l-.86-.122c.079-.36.208-.66.387-.89.18-.22.43-.399.774-.52.34-.117.726-.18 1.18-.18.437 0 .796.063 1.078.16.28.102.48.23.61.391.132.16.222.352.269.59.03.16.05.43.05.82v1.168c0 .82.012 1.332.051 1.55.04.224.11.423.23.622H4.22a1.6 1.6 0 0 1-.18-.64m-.071-1.962q-.478.199-1.438.332c-.36.06-.62.122-.77.18a.7.7 0 0 0-.34.281.77.77 0 0 0-.12.418c0 .243.078.43.258.59s.441.23.78.23c.34 0 .641-.07.9-.218.261-.152.46-.352.59-.61.093-.203.14-.492.14-.882Zm0 0"/><path id="p" d="m2.578-.79.133.778c-.262.043-.48.07-.672.07-.32 0-.57-.046-.738-.136A.8.8 0 0 1 .93-.48C.852-.64.82-.988.82-1.52V-4.5H.18v-.691h.64V-6.47L1.691-7v1.809h.887v.691h-.887v3.031c0 .258.008.418.047.489a.4.4 0 0 0 .153.171q.104.06.3.059c.098 0 .23-.012.387-.04m0 0"/><path id="q" d="M.66 0v-7.16h.88v2.57c.401-.469.92-.71 1.55-.71.379 0 .719.081 1 .23.281.148.488.36.61.62.12.27.179.66.179 1.16V0H4v-3.29c0-.44-.102-.76-.29-.96-.19-.2-.46-.3-.8-.3-.262 0-.512.07-.738.21-.23.14-.39.32-.492.55s-.14.552-.14.95V0Zm0 0"/><path id="s" d="M.64 0v-7.16h.88V0Zm0 0"/><path id="t" d="m4.21-1.672.911.113c-.152.54-.422.95-.8 1.239-.391.289-.88.43-1.481.43-.762 0-1.371-.231-1.809-.688q-.66-.693-.66-1.973c0-.87.219-1.55.668-2.027.441-.48 1.031-.723 1.75-.723.691 0 1.262.242 1.7.711q.66.702.66 1.988c0 .063-.008.133-.008.23H1.27c.03.583.19 1.013.48 1.313.29.297.648.45 1.09.45.32 0 .601-.082.832-.25Q4-1.1 4.21-1.672M1.32-3.09H4.22c-.04-.441-.149-.762-.328-.98a1.36 1.36 0 0 0-1.09-.508q-.615.001-1.02.406c-.281.274-.43.633-.46 1.082m0 0"/><path id="u" d="M.66 0v-5.191h.79v.742c.378-.563.929-.852 1.652-.852.308 0 .597.063.859.172.258.11.46.258.59.438s.219.402.27.652c.03.16.05.45.05.848V0h-.883v-3.148c0-.364-.039-.622-.097-.801a.9.9 0 0 0-.36-.43 1.2 1.2 0 0 0-.61-.16c-.382 0-.71.117-.98.36q-.403.358-.402 1.35V0Zm0 0"/><path id="v" d="m.5.422.852.129q.057.388.296.57c.223.16.512.25.891.25.402 0 .723-.09.941-.25.22-.16.38-.39.461-.68.04-.18.059-.55.059-1.12C3.61-.22 3.129 0 2.559 0c-.72 0-1.27-.25-1.66-.77Q.318-1.536.32-2.62c0-.488.09-.95.27-1.367.18-.422.441-.742.781-.973a2.17 2.17 0 0 1 1.2-.34q.912.002 1.507.742v-.632h.813V-.7C4.89.1 4.8.66 4.64 1c-.16.34-.422.602-.782.8-.359.188-.789.29-1.308.29q-.931 0-1.5-.418C.67 1.39.48.98.5.422m.73-3.113c0 .68.13 1.18.399 1.492.27.32.61.469 1.02.469.402 0 .73-.149 1.011-.461.27-.309.41-.797.41-1.47 0-.628-.14-1.109-.422-1.429-.277-.32-.617-.488-1.02-.488q-.584-.002-.987.476c-.282.32-.41.793-.41 1.41m0 0"/><path id="x" d="M.91 0v-1h1v1Zm0 0"/><path id="T" d="M.82 0v-7.16h4.828v.851H1.77v2.207h3.359v.852h-3.36V0Zm0 0"/><path id="U" d="M.73 0v-7.16h.95v6.32h3.53V0Zm0 0"/><path id="V" d="m.45-2.3.89-.079c.039.36.14.66.3.89q.226.34.72.548c.32.14.69.21 1.1.21.36 0 .669-.05.95-.16.281-.097.48-.25.621-.437.13-.184.2-.39.2-.613a.97.97 0 0 0-.2-.59c-.133-.16-.34-.297-.64-.418-.192-.082-.61-.192-1.27-.352q-.99-.239-1.383-.449-.51-.268-.77-.66a1.6 1.6 0 0 1-.25-.899c0-.363.102-.691.313-1.011.2-.309.5-.551.899-.711.39-.16.832-.25 1.308-.25.532 0 1 .09 1.403.261.398.168.718.418.937.75.223.34.332.711.352 1.13l-.91.07c-.051-.45-.211-.79-.489-1.032-.281-.226-.703-.347-1.25-.347-.582 0-.992.11-1.25.32-.261.207-.39.457-.39.758q0 .393.27.633c.179.168.66.34 1.429.52q1.155.268 1.59.448.616.299.922.73.297.453.296 1.02 0 .57-.328 1.079c-.218.34-.539.601-.941.78-.41.18-.867.27-1.379.27q-.972 0-1.629-.27A2.2 2.2 0 0 1 .84-1.01a2.4 2.4 0 0 1-.39-1.29m0 0"/><path id="W" d="M2.59 0v-6.309H.23v-.851h5.68v.851H3.54V0Zm0 0"/><path id="X" d="M.738 0v-7.16h1.434l1.687 5.07c.16.48.27.828.34 1.059q.125-.386.38-1.149L6.3-7.16h1.27V0h-.91v-5.988L4.577 0H3.73L1.66-6.09V0Zm0 0"/><path id="Y" d="M5.281-4.21H.56v-.821H5.28Zm0 2.17H.56v-.82H5.28Zm0 0"/><path id="Z" d="M.89 0v-1h1v1c0 .36-.07.648-.199.879q-.199.336-.62.531l-.243-.379a.86.86 0 0 0 .41-.36c.082-.16.133-.39.153-.671Zm0 0"/><path id="aa" d="m.422-1.879.918-.07c.058.449.219.789.469 1.008.25.23.55.34.902.34q.627 0 1.078-.477c.29-.32.441-.742.441-1.274 0-.5-.152-.886-.43-1.18-.28-.288-.652-.437-1.1-.437-.278 0-.54.07-.77.2-.23.128-.41.289-.532.488L.57-3.38l.692-3.68H4.82v.84H1.97L1.579-4.3q.649-.45 1.35-.449c.622 0 1.15.219 1.583.648.43.442.648.993.648 1.672q0 .975-.57 1.68c-.461.578-1.078.86-1.88.86q-.975 0-1.589-.54C.7-.79.47-1.27.421-1.879m0 0"/><path id="ab" d="M.66-6.148V-7.16h.88v1.012ZM.66 0v-5.191h.88V0Zm0 0"/><path id="ac" d="m4.04-1.898.87.109c-.101.598-.34 1.07-.73 1.398-.39.34-.871.5-1.43.5q-1.077 0-1.719-.687C.601-1.04.391-1.7.391-2.57c0-.559.09-1.051.28-1.47.18-.42.458-.73.84-.94A2.5 2.5 0 0 1 2.75-5.3c.559 0 1.02.152 1.379.429.36.281.59.691.691 1.21l-.851.13c-.078-.34-.23-.598-.43-.778a1.12 1.12 0 0 0-.75-.27c-.45 0-.809.157-1.09.477-.277.32-.41.82-.41 1.5q0 1.055.402 1.524c.258.316.61.469 1.047.469.34 0 .633-.102.864-.313.226-.207.378-.539.437-.976m0 0"/><path id="ad" d="M.66 0v-7.16h.88v4.082L3.62-5.191h1.14l-1.98 1.93L4.961 0H3.879L2.16-2.648l-.62.59V0Zm0 0"/><path id="ae" d="m.309-1.55.87-.13c.04.352.18.621.4.801.222.18.542.27.94.27.403 0 .7-.082.903-.243.187-.16.289-.359.289-.578 0-.199-.09-.351-.262-.468Q3.27-2.02 2.551-2.2c-.64-.16-1.09-.301-1.34-.422a1.3 1.3 0 0 1-.57-.488 1.3 1.3 0 0 1-.192-.7q-.002-.343.16-.64c.102-.2.25-.36.43-.492a1.9 1.9 0 0 1 .563-.25 3.012 3.012 0 0 1 1.828.07c.308.121.539.27.691.473.14.199.238.468.3.796l-.862.122a1 1 0 0 0-.34-.622c-.188-.148-.45-.226-.79-.226q-.614 0-.87.2c-.18.14-.258.288-.258.468 0 .12.027.219.11.308.07.102.179.172.339.23.078.044.34.11.77.231.62.16 1.058.301 1.3.403.239.11.442.27.578.468q.211.3.211.75c0 .301-.09.57-.257.829-.172.261-.422.453-.743.59-.32.14-.687.21-1.09.21C1.84.11 1.33-.02.98-.3.621-.578.398-.988.31-1.55m0 0"/><path id="af" d="m.422-1.89.879-.122c.097.5.27.864.508 1.082.242.22.543.328.89.328.41 0 .762-.136 1.04-.43a1.45 1.45 0 0 0 .433-1.058c0-.398-.14-.738-.402-1-.258-.262-.598-.398-1-.398-.168 0-.38.039-.622.097l.102-.77a.7.7 0 0 0 .14.013c.372 0 .712-.09 1.008-.293.301-.2.454-.5.454-.91 0-.32-.114-.579-.332-.79-.22-.21-.5-.32-.84-.32s-.63.11-.86.32c-.23.22-.37.54-.43.961l-.878-.148c.097-.594.347-1.05.726-1.371.383-.32.852-.492 1.422-.492.39 0 .75.09 1.078.261.32.168.57.399.75.68.184.29.274.602.274.922 0 .316-.09.598-.25.848q-.26.39-.742.601c.421.098.742.309.98.61.238.308.36.699.36 1.16q-.001.932-.688 1.578C3.96-.09 3.39.12 2.699.12c-.64 0-1.16-.18-1.57-.562C.71-.81.48-1.29.422-1.891m0 0"/><path id="ag" d="M.469-6.219v-.851h4.64v.691c-.46.488-.918 1.14-1.359 1.938-.45.8-.8 1.632-1.04 2.472A8.7 8.7 0 0 0 2.38 0h-.91q.015-.838.332-2.04c.21-.8.508-1.57.91-2.312q.596-1.106 1.27-1.867Zm0 0"/><path id="ah" d="m5.879-2.512.95.242c-.2.782-.56 1.38-1.079 1.782q-.778.597-1.89.597c-.77 0-1.4-.148-1.88-.46-.492-.31-.859-.758-1.109-1.36A4.9 4.9 0 0 1 .5-3.629q0-1.111.422-1.95A2.87 2.87 0 0 1 2.14-6.851a3.64 3.64 0 0 1 1.738-.43c.71 0 1.312.192 1.8.552q.74.54 1.02 1.53l-.93.22c-.167-.52-.41-.891-.718-1.13-.32-.242-.711-.359-1.192-.359-.558 0-1.02.14-1.39.399a2.1 2.1 0 0 0-.778 1.058A4.2 4.2 0 0 0 1.47-3.64q0 .93.27 1.602c.183.46.452.8.831 1.02.371.218.77.328 1.211.328.528 0 .98-.149 1.348-.457.36-.301.61-.762.75-1.364m0 0"/><path id="C" d="m0 0-7.16-2.73v-1.02L0-6.68v1.07l-2.172.84v2.989L0-.988Zm-2.941-2.05v-2.43l-1.98.75c-.599.23-1.099.402-1.49.511.462.09.923.219 1.372.38Zm0 0"/><path id="D" d="m-1.898-4.04.109-.87c.598.101 1.07.34 1.398.73.34.39.5.871.5 1.43q0 1.077-.687 1.719c-.461.43-1.121.64-1.992.64-.559 0-1.051-.09-1.47-.28a1.87 1.87 0 0 1-.94-.84A2.5 2.5 0 0 1-5.3-2.75c0-.559.152-1.02.429-1.379.281-.36.691-.59 1.21-.691l.13.851c-.34.078-.598.23-.778.43q-.27.315-.27.75c0 .45.157.809.477 1.09.32.277.82.41 1.5.41q1.055 0 1.524-.402c.316-.258.469-.61.469-1.047 0-.34-.102-.633-.313-.864-.207-.226-.539-.378-.976-.437m0 0"/><path id="E" d="M0-4.059h-.762c.582.41.871.957.871 1.649 0 .308-.058.601-.168.86-.113.26-.261.46-.441.59-.18.132-.39.222-.648.269-.172.043-.442.05-.82.05h-3.223v-.879h2.882c.457 0 .77-.011.93-.05a.9.9 0 0 0 .54-.352c.14-.18.198-.398.198-.656a1.44 1.44 0 0 0-.199-.75 1.1 1.1 0 0 0-.55-.492c-.231-.09-.57-.14-1.02-.14h-2.781v-.88H0Zm0 0"/><path id="F" d="M0-.648h-5.191v-.793h.793c-.364-.2-.602-.38-.723-.559a1 1 0 0 1-.18-.559c0-.3.102-.601.281-.91l.82.309c-.12.219-.19.43-.19.64a.877.877 0 0 0 .652.848c.316.102.66.14 1.027.14H0Zm0 0"/><path id="G" d="M-.64-4.04c.28.33.48.642.59.938.1.301.16.633.16.973 0 .57-.13 1.008-.41 1.309-.278.308-.63.46-1.071.46-.25 0-.48-.05-.688-.171a1.5 1.5 0 0 1-.511-.457 2.3 2.3 0 0 1-.29-.633 9 9 0 0 1-.128-.777c-.082-.711-.184-1.23-.301-1.57h-.23c-.36 0-.61.077-.762.238-.2.23-.297.57-.297 1.011 0 .418.078.719.219.918.148.2.41.34.77.43l-.122.86c-.36-.079-.66-.208-.89-.387a1.7 1.7 0 0 1-.52-.774 3.6 3.6 0 0 1-.18-1.18c0-.437.063-.796.16-1.078.102-.28.23-.48.391-.61.16-.132.352-.222.59-.269.16-.03.43-.05.82-.05h1.168c.82 0 1.332-.012 1.55-.051.224-.04.423-.11.622-.23v.921c-.18.098-.39.16-.64.18m-1.962.071q.199.478.332 1.438c.06.36.122.62.18.77.059.152.16.261.281.34q.196.12.418.12c.243 0 .43-.078.59-.258s.23-.441.23-.78c0-.34-.07-.641-.218-.9a1.45 1.45 0 0 0-.61-.59c-.203-.093-.492-.14-.882-.14Zm0 0"/><path id="H" d="M1.988-.621 1.16-.52q.077-.284.078-.511c0-.188-.039-.34-.097-.457a1 1 0 0 0-.27-.293q-.137-.088-.66-.27C.16-2.07.09-2.09 0-2.129L-5.191-.16v-.95L-2.18-2.19q.571-.204 1.2-.368c-.399-.101-.801-.222-1.18-.363l-3.031-1.11v-.878l5.27 1.969c.562.222.952.382 1.171.492.29.16.5.34.64.539.13.2.2.441.2.719 0 .18-.04.37-.102.57m0 0"/><clipPath id="a"><path d="M0 0h345.602v230.398H0Zm0 0"/></clipPath><clipPath id="b"><path d="M92 1h1v199.828h-1Zm0 0"/></clipPath><clipPath id="e"><path d="M153 1h1v199.828h-1Zm0 0"/></clipPath><clipPath id="g"><path d="M213 1h2v199.828h-2Zm0 0"/></clipPath><clipPath id="i"><path d="M274 1h2v199.828h-2Zm0 0"/></clipPath><clipPath id="k"><path d="M335 1h1.23v199.828H335Zm0 0"/></clipPath><clipPath id="m"><path d="M160 220h51v10.398h-51Zm0 0"/></clipPath><clipPath id="w"><path d="M34.59 178h301.64v2H34.59Zm0 0"/></clipPath><clipPath id="y"><path d="M34.59 135h301.64v2H34.59Zm0 0"/></clipPath><clipPath id="z"><path d="M34.59 91h301.64v2H34.59Zm0 0"/></clipPath><clipPath id="A"><path d="M34.59 48h301.64v2H34.59Zm0 0"/></clipPath><clipPath id="B"><path d="M34.59 4h301.64v2H34.59Zm0 0"/></clipPath><clipPath id="I"><path d="M34.59 1h301.64v199.828H34.59Zm0 0"/></clipPath><clipPath id="J"><path d="M34.59 1h301.64v43H34.59Zm0 0"/></clipPath><clipPath id="K"><path d="M34.59 40h301.64v107H34.59Zm0 0"/></clipPath><clipPath id="L"><path d="M34.59 5h301.64v143H34.59Zm0 0"/></clipPath><clipPath id="M"><path d="M34.59 97h301.64v97H34.59Zm0 0"/></clipPath><clipPath id="N"><path d="M34.59 61h301.64v130H34.59Zm0 0"/></clipPath><clipPath id="O"><path d="M34.59 16h301.64v142H34.59Zm0 0"/></clipPath><clipPath id="P"><path d="M34.59 22h301.64v134H34.59Zm0 0"/></clipPath><clipPath id="Q"><path d="M34.59 20h301.64v134H34.59Zm0 0"/></clipPath><clipPath id="R"><path d="M34.59 4h301.64v8H34.59Zm0 0"/></clipPath><clipPath id="S"><path d="M203 28h142.602v146H203Zm0 0"/></clipPath></defs><g clip-path="url(#a)"><path fill="#FFF" d="M0 230.398h345.602V0H0Zm0 0"/></g><path fill="#EAEAF2" d="M34.59 200.828h301.64V1H34.59Zm0 0"/><g clip-path="url(#b)"><path fill="none" stroke="#FFF" stroke-linecap="round" stroke-linejoin="round" stroke-miterlimit="10" stroke-width=".8" d="M92.48 200.828V1"/></g><g fill="#262626"><use xlink:href="#c" x="86.918" y="214.984"/><use xlink:href="#d" x="92.478" y="214.984"/></g><g clip-path="url(#e)"><path fill="none" stroke="#FFF" stroke-linecap="round" stroke-linejoin="round" stroke-miterlimit="10" stroke-width=".8" d="M153.418 200.828V1"/></g><g fill="#262626"><use xlink:href="#f" x="147.855" y="214.984"/><use xlink:href="#d" x="153.415" y="214.984"/></g><g clip-path="url(#g)"><path fill="none" stroke="#FFF" stroke-linecap="round" stroke-linejoin="round" stroke-miterlimit="10" stroke-width=".8" d="M214.355 200.828V1"/></g><g fill="#262626"><use xlink:href="#h" x="208.793" y="214.984"/><use xlink:href="#d" x="214.353" y="214.984"/></g><g clip-path="url(#i)"><path fill="none" stroke="#FFF" stroke-linecap="round" stroke-linejoin="round" stroke-miterlimit="10" stroke-width=".8" d="M275.293 200.828V1"/></g><g fill="#262626"><use xlink:href="#j" x="269.73" y="214.984"/><use xlink:href="#d" x="275.29" y="214.984"/></g><g clip-path="url(#k)"><path fill="none" stroke="#FFF" stroke-linecap="round" stroke-linejoin="round" stroke-miterlimit="10" stroke-width=".8" d="M336.23 200.828V1"/></g><g fill="#262626"><use xlink:href="#l" x="327.886" y="214.984"/><use xlink:href="#d" x="333.446" y="214.984"/><use xlink:href="#d" x="339.006" y="214.984"/></g><g fill="#262626" clip-path="url(#m)"><use xlink:href="#n" x="160.105" y="228.124"/><use xlink:href="#o" x="166.775" y="228.124"/><use xlink:href="#p" x="172.335" y="228.124"/><use xlink:href="#q" x="175.115" y="228.124"/><use xlink:href="#r" x="180.675" y="228.124"/><use xlink:href="#s" x="183.455" y="228.124"/><use xlink:href="#t" x="185.675" y="228.124"/><use xlink:href="#u" x="191.235" y="228.124"/><use xlink:href="#v" x="196.795" y="228.124"/><use xlink:href="#p" x="202.355" y="228.124"/><use xlink:href="#q" x="205.135" y="228.124"/></g><g clip-path="url(#w)"><path fill="none" stroke="#FFF" stroke-linecap="round" stroke-linejoin="round" stroke-miterlimit="10" stroke-width=".8" d="M34.59 179.105h301.64"/></g><g fill="#262626"><use xlink:href="#d" x="13.684" y="182.685"/><use xlink:href="#x" x="19.244" y="182.685"/><use xlink:href="#c" x="22.024" y="182.685"/></g><g clip-path="url(#y)"><path fill="none" stroke="#FFF" stroke-linecap="round" stroke-linejoin="round" stroke-miterlimit="10" stroke-width=".8" d="M34.59 135.668h301.64"/></g><g fill="#262626"><use xlink:href="#d" x="13.684" y="139.244"/><use xlink:href="#x" x="19.244" y="139.244"/><use xlink:href="#f" x="22.024" y="139.244"/></g><g clip-path="url(#z)"><path fill="none" stroke="#FFF" stroke-linecap="round" stroke-linejoin="round" stroke-miterlimit="10" stroke-width=".8" d="M34.59 92.227h301.64"/></g><g fill="#262626"><use xlink:href="#d" x="13.684" y="95.804"/><use xlink:href="#x" x="19.244" y="95.804"/><use xlink:href="#h" x="22.024" y="95.804"/></g><g clip-path="url(#A)"><path fill="none" stroke="#FFF" stroke-linecap="round" stroke-linejoin="round" stroke-miterlimit="10" stroke-width=".8" d="M34.59 48.785h301.64"/></g><g fill="#262626"><use xlink:href="#d" x="13.684" y="52.363"/><use xlink:href="#x" x="19.244" y="52.363"/><use xlink:href="#j" x="22.024" y="52.363"/></g><g clip-path="url(#B)"><path fill="none" stroke="#FFF" stroke-linecap="round" stroke-linejoin="round" stroke-miterlimit="10" stroke-width=".8" d="M34.59 5.344h301.64"/></g><g fill="#262626"><use xlink:href="#l" x="13.684" y="8.922"/><use xlink:href="#x" x="19.244" y="8.922"/><use xlink:href="#d" x="22.024" y="8.922"/></g><g fill="#262626"><use xlink:href="#C" x="7.574" y="121.476"/><use xlink:href="#D" x="7.574" y="114.806"/><use xlink:href="#D" x="7.574" y="109.806"/><use xlink:href="#E" x="7.574" y="104.806"/><use xlink:href="#F" x="7.574" y="99.246"/><use xlink:href="#G" x="7.574" y="95.916"/><use xlink:href="#D" x="7.574" y="90.356"/><use xlink:href="#H" x="7.574" y="85.356"/></g><g clip-path="url(#I)"><path fill="#CE9032" fill-opacity=".1" d="M34.59-8.89v30.64h9.14l3.047.684h3.047l3.047 2.539h3.047l3.047 2.02h3.047l3.047 3.886h3.046l3.047-1.496 3.047.254 3.047 5.582h3.047l3.047 1.066 3.047.207 3.047 1.438 3.046.402 3.047 4.75 3.047-.184 3.047 3.344h3.047l3.047 2.18h3.047l3.047 6.703 3.046-.148 3.047 5.722h3.047l3.047 5.594h3.047l3.047 12.21h3.047l3.047 10.852h3.046l3.047 9.106h3.047l3.047 17.363 3.047-.086 3.047 9.5 3.047-.16 3.047 5.652 3.046.313 3.047 10.672 3.047.074 3.047 10.809 3.047.207 3.047 6.82 3.047.066 3.047 8.278 3.046-.063 3.047 2.633h3.047l3.047 7.25 3.047.117 3.047 3.188 3.047.058 3.047 8.207 3.046.11 3.047 7.586 3.047-.688 3.047 9.262 3.047-1 3.047 7.941 3.047-.144 3.047 11.203 3.046-.215 3.047 5.7 3.047.972 3.047 3.594 3.047.234 3.047 1.793 3.047-.266 3.047-.074 3.046.38 3.047 1.972 3.047-.442 3.047.625 3.047.84 3.047 3.125 3.047.207 3.047 2.074 3.046.235 3.047 2.445 3.047.79 3.047 2.327h3.047l3.047-.297 3.047.207 3.047-.148 3.046.09 3.047-.543h3.047l3.047-.98h3.047l3.047-.876h3.047l3.047-1.05h3.046V36.105h-3.046l-3.047 1.817h-3.047l-3.047 1.558h-3.047l-3.047 1.801h-3.047l-3.047 1.02-3.046-.172-3.047.285-3.047-.398-3.047.57h-3.047l-3.047-4.273-3.047-1.383-3.047-4.07-3.046-.376-3.047-3.226-3.047-.313-3.047-4.523-3.047-1.156-3.047-.852-3.047.598-3.047-2.63-3.046-.487-3.047.097-3.047.344-3.047-2.29-3.047-.288-3.047-4.313-3.047-1.113-3.047-6.117-3.046.219-3.047-10.344-3.047.117-3.047-6.219-3.047.739-3.047-6.38-3.047.442-3.047-4.578-3.046-.063-3.047-4.304-3.047-.028-3.047-1.503-3.047-.055-3.047-3.09h-3.047l-3.047-1.016-3.046.024-3.047-2.844-3.047-.023-3.047-1.954-3.047-.054-3.047-2.395-3.047-.015-3.047-1.578-3.046-.032-3.047-.52-3.047.016-3.047-.406h-3.047l-3.047.77h-3.047l-3.047 1.199h-3.046l-3.047 2.164h-3.047l-3.047 3.434h-3.047l-3.047 1.949h-3.047l-3.047 2.246-3.046-.063-3.047 2.97h-3.047l-3.047 1.046h-3.047l-3.047 1.695-3.047-.093-3.047 2.574-3.046.23-3.047.828-3.047.121-3.047.63h-3.047L74.2-14.435l-3.047.168-3.047-.972H65.06l-3.047 2.582h-3.047l-3.047 1.41h-3.047l-3.047 1.844h-3.047l-3.047.511Zm0 0"/></g><g clip-path="url(#J)"><path fill="#F561DD" fill-opacity=".1" d="M34.59-5.152v22.12h3.047l3.047-2.027 3.046-.57 3.047 3.504h3.047l3.047 3.875h3.047l3.047-3.445h3.047l3.047 3.445h3.046l3.047-.352 3.047.352 3.047-1.074h3.047l3.047 2.422h3.047l3.047-1.004h3.046l3.047-.344h3.047l3.047 1.348h3.047l3.047-3.563h3.047l3.047.77h3.046l3.047 1.789h3.047l3.047-.344h3.047l3.047 1.02h3.047l3.047-2.465h3.046l3.047 1.789h3.047l3.047 1.004 3.047.324h12.187l3.047 1.25h3.047l3.047.3h3.047l3.047-.3h3.047l3.047-.93h3.046l3.047 2.973h3.047l3.047-.856h3.047l3.047.856h3.047l3.047 2.152h3.046l3.047-1.597 3.047.273h6.094l3.047 1.066h3.047l3.047.258 3.046.262 3.047.508h3.047l3.047.996h3.047l3.047.488h3.047l3.047-1.992 3.046.254 3.047 3.156h3.047l3.047-1.418h3.047l3.047-2.512h3.047l3.047-.797h3.046l3.047 3.79 3.047-.239 3.047.946 3.047-.235h6.094l3.047 1.383h3.046l3.047.223 3.047.226 3.047 1.742h3.047l3.047 2.485 3.047-.203 3.047 5.332h3.046v-65.668h-3.046l-3.047 2.898-3.047-.117-3.047 1.441h-3.047l-3.047 1.051-6.094.274h-3.046l-3.047.859h-6.094l-3.047-.145-3.047.598-3.047-.152-3.047 2.484h-3.046l-3.047-.535h-3.047l-3.047-1.645h-3.047l-3.047-.898h-3.047l-3.047 2.027-3.046.172-3.047-1.3h-3.047l-3.047.312h-3.047l-3.047.648h-3.047l-3.047.34-6.093.344h-3.047l-3.047.719h-6.094l-3.047.187-3.047-1.078h-3.046l-3.047 1.461h-3.047l-3.047.594h-3.047l-3.047-.594h-3.047l-3.047 2.102h-3.046l-3.047-.668h-3.047l-3.047-.22h-3.047l-3.047.22h-3.047l-3.047.902h-12.187l-3.047.234-3.047.743h-3.047L141.23-7.79h-3.046l-3.047-1.86h-3.047l-3.047.758h-3.047l-3.047-.257h-3.047l-3.047 1.359h-3.046l-3.047.594h-3.047l-3.047-2.696h-3.047l-3.047 1h-3.047l-3.047-.257h-3.046l-3.047-.743H83.34l-3.047 1.817h-3.047L74.2-8.891l-3.047.266-3.047-.266H65.06l-3.047 2.664h-3.047L55.918-8.89h-3.047l-3.047 3.008h-3.047L43.73-2.988l-3.046-.485-3.047-1.68Zm0 0"/></g><g clip-path="url(#K)"><path fill="none" stroke="#F77189" stroke-linecap="round" stroke-linejoin="round" stroke-miterlimit="10" stroke-opacity=".9" stroke-width="1.5" d="m34.59 46.438 3.047.046 3.047-5.343h3.046l3.047 1.91 3.047.043 3.047 2.3 3.047-.085 3.047 11.773 3.047-.086 3.047 19.156h3.046l3.047 21.72H74.2l3.047 11.468h3.047l3.047 8.082h3.047l3.047 9.687h3.046l3.047 2.086h3.047l3.047 2.692 3.047-.043 3.047 3.648h3.047l3.047 2.996h3.046l3.047 2.219h3.047l3.047.3h3.047l3.047 4.52 3.047-.043 3.047-.824h3.046l3.047-2.172h3.047l3.047 1.52h3.047l3.047-.781h3.047l3.047 1.343h3.046l3.047 1.043h3.047l3.047-4.515h3.047l3.047 1.78h3.047l3.047 1.216h3.046l3.047-.219 3.047.047 3.047-2.219 3.047-.086 3.047.176h3.047l3.047-1.133h3.046l3.047.09 3.047-.043 3.047-2.086 3.047.043 3.047-.176 3.047.047 3.047 1.434 3.046.043 3.047 1.129 3.047.172 3.047 2.609 3.047-.438 3.047-.257 6.094-1.391 3.046.215 3.047-.477 3.047.086 3.047.524 3.047-.696 3.047-2.347 3.047-.13 3.047 1.696 3.046.086 3.047 1.043 3.047-.566 3.047-2.043 3.047 1.043 3.047-2.43 3.047 2.215 3.047.261 3.046-2 3.047-.824 3.047-.043 3.047.649 3.047-.043 3.047.304 3.047-.652 3.047.738 3.046-.78"/></g><g clip-path="url(#L)"><path fill="none" stroke="#CE9032" stroke-linecap="round" stroke-linejoin="round" stroke-miterlimit="10" stroke-opacity=".9" stroke-width="1.5" d="M34.59 6.43h9.14l3.047.086h3.047l3.047.347h3.047l3.047.305h3.047l3.047.652h3.046l3.047-.261 3.047.043 3.047 1.043h3.047l3.047.218 3.047.043 3.047.305 3.046.086 3.047 1.086 3.047-.043 3.047.824h3.047l3.047.566h3.047l3.047 1.868 3.046-.043 3.047 1.738h3.047l3.047 1.824h3.047l3.047 4.387h3.047l3.047 4.344h3.046l3.047 3.953h3.047l3.047 8.297 3.047-.043 3.047 4.953 3.047-.086 3.047 3.082 3.046.176 3.047 6.125 3.047.043 3.047 6.601 3.047.133 3.047 4.387 3.047.043 3.047 5.558 3.046-.043 3.047 1.825h3.047l3.047 5.171 3.047.086 3.047 2.344 3.047.047 3.047 6.254 3.046.086 3.047 6.082 3.047-.563 3.047 7.817 3.047-.867 3.047 7.082 3.047-.133 3.047 10.773 3.046-.215 3.047 5.907 3.047 1.043 3.047 3.953 3.047.261 3.047 2.04 3.047-.305 3.047-.086 3.046.433 3.047 2.305 3.047-.523 3.047.738 3.047 1 3.047 3.824 3.047.262 3.047 2.648 3.046.305 3.047 3.258 3.047 1.086 3.047 3.3h3.047l3.047-.433 3.047.305 3.047-.219 3.046.129 3.047-.781h3.047l3.047-1.391h3.047l3.047-1.215h3.047l3.047-1.433h3.046"/></g><g clip-path="url(#M)"><path fill="none" stroke="#97A431" stroke-linecap="round" stroke-linejoin="round" stroke-miterlimit="10" stroke-opacity=".9" stroke-width="1.5" d="m34.59 98.566 3.047.391 3.047 19.418 3.046-.086 3.047 15.074 3.047.696 3.047 15.812 3.047-.305 3.047 3.996 3.047.829 3.047 3.386 3.046-.304 3.047 1.086 3.047-.215 3.047 5.601 3.047-.39 3.047.39 3.047.133 3.047 2.953 3.046.086 3.047-2.824 3.047.176 3.047 1.562 3.047.696 3.047.433 3.047-.129 3.047 3.692 3.046 1.043 3.047-2.301 3.047-.438 3.047 2.567 3.047-.305 3.047 1.691 3.047.567 3.047 2.953 3.046-.91 3.047 15.55 3.047 1.434 3.047-.957h3.047l3.047-1.738h3.047l3.047-1.3h3.046l3.047-1.263h3.047l3.047-1.171h3.047l3.047-1.477h3.047l3.047-2.172h3.046l3.047-1.566h3.047l3.047-1.606h3.047l3.047-1.824h3.047l3.047-1.61h3.046l3.047-1.777h3.047l3.047-1.695h3.047l3.047-2.043h3.047l3.047-1.562h3.046l3.047-1.696h3.047l3.047-1.39h3.047l3.047-2.344h3.047l3.047-1.871h3.046l3.047-1.91h3.047l3.047-1.739h3.047l3.047-1.734h3.047l3.047-1.781h3.046l3.047-2.13h3.047l3.047-1.476h3.047l3.047-2.129h3.047l3.047-1.523h3.046l3.047-1.649h3.047l3.047-1.476h3.047l3.047-1.305h3.047l3.047-1.433h3.046"/></g><g clip-path="url(#N)"><path fill="none" stroke="#32B166" stroke-linecap="round" stroke-linejoin="round" stroke-miterlimit="10" stroke-opacity=".9" stroke-width="1.5" d="m34.59 69.29 3.047-.22 3.047-7.035 3.046-.219 3.047 4.91 3.047.305 3.047 12.555 3.047-.176 3.047 28.844 3.047.176 3.047 9.773 3.046.262 3.047 15.812H74.2l3.047 9.86 3.047.738 3.047 3.172 3.047.348 3.047 3.562 3.046.957 3.047 4.168 3.047.348 3.047.695 3.047.043 3.047 1.172 3.047-.477 3.047.914 3.046-1.175 3.047 2.218 3.047-.742 3.047 1.652 3.047-1.347 3.047 4.738 3.047-.652 3.047 2.691 3.046.086 3.047.957 3.047 2.258 3.047 5.258 3.047 1.695 3.047 12.25 3.047.215 3.047-1.3h3.046l3.047-1.263h3.047l3.047-1.171h3.047l3.047-1.477h3.047l3.047-2.172h3.046l3.047-1.566h3.047l3.047-1.606h3.047l3.047-1.824h3.047l3.047-1.61h3.046l3.047-1.777h3.047l3.047-1.695h3.047l3.047-2.043h3.047l3.047-1.562h3.046l3.047-1.696h3.047l3.047-1.39h3.047l3.047-2.344h3.047l3.047-1.871h3.046l3.047-1.91h3.047l3.047-1.739h3.047l3.047-1.734h3.047l3.047-1.781h3.046l3.047-2.13h3.047l3.047-1.476h3.047l3.047-2.129h3.047l3.047-1.523h3.046l3.047-1.649h3.047l3.047-1.476h3.047l3.047-1.305h3.047l3.047-1.433h3.046"/></g><g clip-path="url(#O)"><path fill="none" stroke="#36ADA4" stroke-linecap="round" stroke-linejoin="round" stroke-miterlimit="10" stroke-opacity=".9" stroke-width="1.5" d="M34.59 18.813h3.047l3.047-1.524h3.046l3.047 1.086h3.047l3.047.043h3.047l3.047 2.957 3.047-.09 3.047 1.219h3.046l3.047 1.695 3.047-.047 3.047 4.391h3.047l3.047 4.039h3.047l3.047 6.992h3.046l3.047 7.692h3.047l3.047 12.554 3.047.086 3.047 6.211 3.047-.086 3.047 8.645 3.046-.043 3.047 11.164 3.047.043 3.047 7.43 3.047.128 3.047 2.954 3.047-.086 3.047.867 3.046.09 3.047 7.12 3.047.177 3.047 3.953 3.047.304 3.047 6.559 3.047.262 3.047 8.816 3.046.133 3.047 4.777 3.047.13 3.047 4.562 3.047-.434 3.047 4.168 3.047 1.39 3.047-.347 3.046.695 3.047 1.477 3.047.133 3.047 1.605 3.047 1.172 3.047-3.258 3.047-.433 3.047 2.867 3.046-.696 3.047 2.868 3.047-.782 3.047 1.043 3.047-.086 3.047.477 3.047.305 3.047 2.52 3.046 1.214 3.047-1.258 3.047.348 3.047 2.734 3.047.305 3.047 2.172 3.047.176 3.047 1.257 3.046.48 3.047.997 3.047.043 3.047-.348 3.047.22 3.047-1.563 3.047.128 3.047-1.304h3.046l3.047-2.082h3.047l3.047-1.477h3.047l3.047-2.129h3.047l3.047-1.523h3.046l3.047-1.649h3.047l3.047-1.476h3.047l3.047-1.305h3.047l3.047-1.433h3.046"/></g><g clip-path="url(#P)"><path fill="none" stroke="#39A7D0" stroke-linecap="round" stroke-linejoin="round" stroke-miterlimit="10" stroke-opacity=".9" stroke-width="1.5" d="m34.59 25.676 3.047-.09 3.047-1.691 3.046.043 3.047-.348 3.047-.043 3.047 1.215h3.047l3.047 2.215 3.047-.043 3.047 2.605 3.046.09 3.047 2.52 3.047.042 3.047 2.13 3.047.042 3.047.91 3.047.043 3.047.524 3.046-.086 3.047 2.824 3.047-.047 3.047 4.52 3.047.043 3.047 3.39 3.047-.047 3.047 2.91 3.046-.042 3.047 5.691 3.047.176 3.047 4.344 3.047.086 3.047 5.125 3.047-.086 3.047 6.734 3.046-.043 3.047 6.383 3.047.262 3.047 2 3.047-.09 3.047 9.082 3.047-.133 3.047 5.039 3.046-.348 3.047 7.258 3.047.477 3.047 2.867 3.047-.133 3.047 8.125 3.047-.652 3.047 6.82 3.046.914 3.047 5.473 3.047.347 3.047 7.82 3.047.259 3.047.914 3.047-.61 3.047 3.39 3.046-.132 3.047 1.914 3.047.477 3.047 1.043 3.047.172 3.047 1.523 3.047.129 3.047 2.086 3.046 1 3.047 1.3 3.047.133 3.047 2.606 3.047-.262 3.047 1.867 3.047-.172 3.047 2.215 3.046.61 3.047-.22h3.047l3.047 1.696 3.047.086 3.047-1.39 3.047.347 3.047-1.258 3.046.258 3.047-1.215 3.047.172 3.047-1.172 3.047-.086 3.047-2.3 3.047.129 3.047-1.262 3.046-.086 3.047-1.563h3.047l3.047-1.476h3.047l3.047-1.305h3.047l3.047-1.433h3.046"/></g><g clip-path="url(#Q)"><path fill="none" stroke="#A48CF4" stroke-linecap="round" stroke-linejoin="round" stroke-miterlimit="10" stroke-opacity=".9" stroke-width="1.5" d="m34.59 22.98 3.047.043 3.047-1.3 3.046-.09 3.047 1.87 3.047-.089 3.047-.172h3.047l3.047 1.953h3.047l3.047 1.262h3.046l3.047 1.91 3.047.043 3.047 1.867h3.047l3.047 1.871 3.047-.043 3.047 2.735 3.046.043 3.047 4.172 3.047-.043 3.047 2.691h3.047l3.047 3.086 3.047.043 3.047 4.91 3.046-.047 3.047 4.649 3.047.047 3.047 4.949 3.047.09 3.047 6.773 3.047-.215 3.047 5.387 3.046-.086 3.047 6.602 3.047.261 3.047 6.516h3.047l3.047 7.516 3.047.171 3.047 5.04 3.046.085 3.047 2.52 3.047.262 3.047 3.562 3.047.262 3.047 6.992 3.047-.738 3.047 10.687 3.046-1.433 3.047 5.3 3.047-.785 3.047 9.125 3.047-.433 3.047 1.043 3.047.738 3.047 2.648 3.046.391 3.047 2 3.047-.785 3.047 2.129 3.047.39 3.047-.824 3.047-.347 3.047 3.3 3.046.567 3.047 1.347 3.047-.347 3.047 1.953 3.047.219 3.047 2.129 3.047.695 3.047.562 3.046.176 3.047 1.477 3.047-.133 3.047-.3 3.047.214 3.047.043 3.047-.52 3.047-.218 3.046.828 3.047-1.61 3.047.176 3.047-.87h3.047l3.047-1.435 3.047-.171 3.047-1.524 3.046.047 3.047-1.348 3.047-.132 3.047-1.477h3.047l3.047-1.215h3.047l3.047-1.39h3.046"/></g><g clip-path="url(#R)"><path fill="none" stroke="#F561DD" stroke-linecap="round" stroke-linejoin="round" stroke-miterlimit="10" stroke-opacity=".9" stroke-width="1.5" d="M34.59 5.91h3.047l3.047-.176 3.046-.043 3.047.305h3.047l3.047.434h3.047l3.047-.39h3.047l3.047.39h3.046l3.047-.043 3.047.043 3.047-.13h3.047l3.047.305h3.047l3.047-.132h3.046l3.047-.043h3.047l3.047.175h3.047l3.047-.437h3.047l3.047.09h3.046l3.047.215h3.047l3.047-.043h3.047l3.047.129h3.047l3.047-.301h3.046l3.047.215h3.047l3.047.132 3.047.043h12.187l3.047.172h3.047l3.047.043h3.047l3.047-.043h3.047l3.047-.129h3.046l3.047.434h3.047l3.047-.129h3.047l3.047.129h3.047l3.047.348h3.046l3.047-.262 3.047.043h6.094l3.047.176h3.047l6.093.086 3.047.086h3.047l3.047.175h3.047l3.047.086h3.047l3.047-.347 3.046.043 3.047.566h3.047l3.047-.262h3.047l3.047-.433h3.047l3.047-.13h3.046l3.047.65 3.047-.044 3.047.176 3.047-.043h6.094l3.047.258h3.046l3.047.043 3.047.047 3.047.347h3.047l3.047.52 3.047-.043 3.047 1.215h3.046"/></g><path fill="none" stroke="#FFF" stroke-linecap="square" stroke-miterlimit="10" stroke-width=".8" d="M34.59 200.828V1M336.23 200.828V1M34.59 200.828h301.64M34.59 1h301.64"/><path fill="#EAEAF2" fill-opacity=".8" d="M219.684 158.977H329.23q1.999-.001 2-2V44.852q-.001-1.999-2-2H219.684q-1.999.001-2 2v112.125q.001 1.999 2 2m0 0"/><g clip-path="url(#S)"><path fill="none" stroke="#CCC" stroke-miterlimit="10" stroke-opacity=".8" d="M219.684 158.977H329.23q1.999-.001 2-2V44.852q-.001-1.999-2-2H219.684q-1.999.001-2 2v112.125q.001 1.999 2 2Zm0 0"/></g><path fill="none" stroke="#F77189" stroke-linecap="round" stroke-linejoin="round" stroke-miterlimit="10" stroke-opacity=".9" stroke-width="1.5" d="M221.684 50.508h20"/><g fill="#262626"><use xlink:href="#T" x="249.683" y="54.008"/><use xlink:href="#T" x="255.793" y="54.008"/></g><path fill="none" stroke="#CE9032" stroke-linecap="round" stroke-linejoin="round" stroke-miterlimit="10" stroke-opacity=".9" stroke-width="1.5" d="M221.684 64.648h20"/><g fill="#262626"><use xlink:href="#U" x="249.683" y="68.148"/><use xlink:href="#V" x="255.243" y="68.148"/><use xlink:href="#W" x="261.913" y="68.148"/><use xlink:href="#X" x="268.023" y="68.148"/><use xlink:href="#Y" x="276.353" y="68.148"/><use xlink:href="#l" x="282.193" y="68.148"/><use xlink:href="#Z" x="287.753" y="68.148"/><use xlink:href="#r" x="290.533" y="68.148"/><use xlink:href="#aa" x="293.313" y="68.148"/><use xlink:href="#d" x="298.873" y="68.148"/><use xlink:href="#r" x="304.433" y="68.148"/><use xlink:href="#p" x="307.213" y="68.148"/><use xlink:href="#ab" x="309.993" y="68.148"/><use xlink:href="#ac" x="312.213" y="68.148"/><use xlink:href="#ad" x="317.213" y="68.148"/><use xlink:href="#ae" x="322.213" y="68.148"/></g><path fill="none" stroke="#97A431" stroke-linecap="round" stroke-linejoin="round" stroke-miterlimit="10" stroke-opacity=".9" stroke-width="1.5" d="M221.684 78.79h20"/><g fill="#262626"><use xlink:href="#U" x="249.683" y="82.289"/><use xlink:href="#V" x="255.243" y="82.289"/><use xlink:href="#W" x="261.913" y="82.289"/><use xlink:href="#X" x="268.023" y="82.289"/><use xlink:href="#Y" x="276.353" y="82.289"/><use xlink:href="#c" x="282.193" y="82.289"/><use xlink:href="#Z" x="287.753" y="82.289"/><use xlink:href="#r" x="290.533" y="82.289"/><use xlink:href="#aa" x="293.313" y="82.289"/><use xlink:href="#d" x="298.873" y="82.289"/><use xlink:href="#r" x="304.433" y="82.289"/><use xlink:href="#p" x="307.213" y="82.289"/><use xlink:href="#ab" x="309.993" y="82.289"/><use xlink:href="#ac" x="312.213" y="82.289"/><use xlink:href="#ad" x="317.213" y="82.289"/><use xlink:href="#ae" x="322.213" y="82.289"/></g><path fill="none" stroke="#32B166" stroke-linecap="round" stroke-linejoin="round" stroke-miterlimit="10" stroke-opacity=".9" stroke-width="1.5" d="M221.684 92.93h20"/><g fill="#262626"><use xlink:href="#U" x="249.683" y="96.429"/><use xlink:href="#V" x="255.243" y="96.429"/><use xlink:href="#W" x="261.913" y="96.429"/><use xlink:href="#X" x="268.023" y="96.429"/><use xlink:href="#Y" x="276.353" y="96.429"/><use xlink:href="#af" x="282.193" y="96.429"/><use xlink:href="#Z" x="287.753" y="96.429"/><use xlink:href="#r" x="290.533" y="96.429"/><use xlink:href="#aa" x="293.313" y="96.429"/><use xlink:href="#d" x="298.873" y="96.429"/><use xlink:href="#r" x="304.433" y="96.429"/><use xlink:href="#p" x="307.213" y="96.429"/><use xlink:href="#ab" x="309.993" y="96.429"/><use xlink:href="#ac" x="312.213" y="96.429"/><use xlink:href="#ad" x="317.213" y="96.429"/><use xlink:href="#ae" x="322.213" y="96.429"/></g><path fill="none" stroke="#36ADA4" stroke-linecap="round" stroke-linejoin="round" stroke-miterlimit="10" stroke-opacity=".9" stroke-width="1.5" d="M221.684 107.07h20"/><g fill="#262626"><use xlink:href="#U" x="249.683" y="110.57"/><use xlink:href="#V" x="255.243" y="110.57"/><use xlink:href="#W" x="261.913" y="110.57"/><use xlink:href="#X" x="268.023" y="110.57"/><use xlink:href="#Y" x="276.353" y="110.57"/><use xlink:href="#l" x="282.193" y="110.57"/><use xlink:href="#Z" x="287.753" y="110.57"/><use xlink:href="#r" x="290.533" y="110.57"/><use xlink:href="#ag" x="293.313" y="110.57"/><use xlink:href="#aa" x="298.873" y="110.57"/><use xlink:href="#r" x="304.433" y="110.57"/><use xlink:href="#p" x="307.213" y="110.57"/><use xlink:href="#ab" x="309.993" y="110.57"/><use xlink:href="#ac" x="312.213" y="110.57"/><use xlink:href="#ad" x="317.213" y="110.57"/><use xlink:href="#ae" x="322.213" y="110.57"/></g><path fill="none" stroke="#39A7D0" stroke-linecap="round" stroke-linejoin="round" stroke-miterlimit="10" stroke-opacity=".9" stroke-width="1.5" d="M221.684 121.21h20"/><g fill="#262626"><use xlink:href="#U" x="249.683" y="124.711"/><use xlink:href="#V" x="255.243" y="124.711"/><use xlink:href="#W" x="261.913" y="124.711"/><use xlink:href="#X" x="268.023" y="124.711"/><use xlink:href="#Y" x="276.353" y="124.711"/><use xlink:href="#c" x="282.193" y="124.711"/><use xlink:href="#Z" x="287.753" y="124.711"/><use xlink:href="#r" x="290.533" y="124.711"/><use xlink:href="#ag" x="293.313" y="124.711"/><use xlink:href="#aa" x="298.873" y="124.711"/><use xlink:href="#r" x="304.433" y="124.711"/><use xlink:href="#p" x="307.213" y="124.711"/><use xlink:href="#ab" x="309.993" y="124.711"/><use xlink:href="#ac" x="312.213" y="124.711"/><use xlink:href="#ad" x="317.213" y="124.711"/><use xlink:href="#ae" x="322.213" y="124.711"/></g><path fill="none" stroke="#A48CF4" stroke-linecap="round" stroke-linejoin="round" stroke-miterlimit="10" stroke-opacity=".9" stroke-width="1.5" d="M221.684 135.352h20"/><g fill="#262626"><use xlink:href="#U" x="249.683" y="138.851"/><use xlink:href="#V" x="255.243" y="138.851"/><use xlink:href="#W" x="261.913" y="138.851"/><use xlink:href="#X" x="268.023" y="138.851"/><use xlink:href="#Y" x="276.353" y="138.851"/><use xlink:href="#af" x="282.193" y="138.851"/><use xlink:href="#Z" x="287.753" y="138.851"/><use xlink:href="#r" x="290.533" y="138.851"/><use xlink:href="#ag" x="293.313" y="138.851"/><use xlink:href="#aa" x="298.873" y="138.851"/><use xlink:href="#r" x="304.433" y="138.851"/><use xlink:href="#p" x="307.213" y="138.851"/><use xlink:href="#ab" x="309.993" y="138.851"/><use xlink:href="#ac" x="312.213" y="138.851"/><use xlink:href="#ad" x="317.213" y="138.851"/><use xlink:href="#ae" x="322.213" y="138.851"/></g><path fill="none" stroke="#F561DD" stroke-linecap="round" stroke-linejoin="round" stroke-miterlimit="10" stroke-opacity=".9" stroke-width="1.5" d="M221.684 149.492h20"/><g fill="#262626"><use xlink:href="#ah" x="249.683" y="152.992"/><use xlink:href="#W" x="256.903" y="152.992"/><use xlink:href="#X" x="263.013" y="152.992"/><use xlink:href="#Z" x="271.343" y="152.992"/><use xlink:href="#r" x="274.123" y="152.992"/><use xlink:href="#ag" x="276.903" y="152.992"/><use xlink:href="#aa" x="282.463" y="152.992"/><use xlink:href="#r" x="288.023" y="152.992"/><use xlink:href="#p" x="290.803" y="152.992"/><use xlink:href="#ab" x="293.583" y="152.992"/><use xlink:href="#ac" x="295.803" y="152.992"/><use xlink:href="#ad" x="300.803" y="152.992"/><use xlink:href="#ae" x="305.803" y="152.992"/></g></svg>