<svg xmlns="http://www.w3.org/2000/svg" xmlns:xlink="http://www.w3.org/1999/xlink" width="480" height="240" viewBox="0 0 360 180"><defs><path id="b" d="M3.18-6.64q-.761 0-1.149.75c-.261.5-.383 1.25-.383 2.25s.122 1.75.383 2.25q.386.75 1.149.75c.511 0 .89-.25 1.148-.75.25-.5.383-1.25.383-2.25s-.133-1.75-.383-2.25c-.258-.5-.637-.75-1.148-.75m0-.782c.808 0 1.43.332 1.87.973.43.648.65 1.59.65 2.808 0 1.23-.22 2.172-.65 2.813-.44.637-1.062.957-1.878.957Q1.943.129 1.3-.828C.87-1.468.66-2.41.66-3.641c0-1.218.21-2.16.64-2.808.43-.64 1.058-.973 1.879-.973m0 0"/><path id="d" d="M1.078-7.29H4.95v.83H1.98v1.788c.141-.047.29-.09.43-.11.14-.019.29-.038.43-.038.808 0 1.45.23 1.93.672.48.449.718 1.046.718 1.808 0 .79-.25 1.399-.738 1.828-.488.434-1.18.64-2.059.64-.312 0-.62-.026-.941-.07a5.6 5.6 0 0 1-.98-.23v-.988q.432.24.91.36c.308.081.64.109.992.109.558 0 1.008-.137 1.34-.438.316-.3.488-.7.488-1.21 0-.5-.172-.9-.488-1.2-.332-.3-.782-.45-1.34-.45a3.4 3.4 0 0 0-.793.09 4.4 4.4 0 0 0-.8.27Zm0 0"/><path id="f" d="M1.238-.828h1.614v-5.563l-1.75.352v-.902L2.84-7.29h.988v6.46h1.613V0H1.238Zm0 0"/><path id="i" d="M1.922-.828h3.437V0H.73v-.828c.372-.383.88-.902 1.532-1.563A72 72 0 0 0 3.48-3.648q.48-.528.66-.903c.122-.238.188-.488.188-.73 0-.38-.137-.7-.406-.938-.274-.242-.621-.37-1.063-.37-.308 0-.64.058-.98.16q-.51.162-1.098.488v-1q.6-.238 1.11-.36c.34-.078.66-.12.949-.12q1.126 0 1.8.57c.45.382.68.882.68 1.511 0 .3-.058.59-.172.852-.109.27-.308.59-.609.949-.078.098-.34.367-.777.82-.442.45-1.051 1.078-1.84 1.89m0 0"/><path id="k" d="M-.02-7.29h6.16v.83H3.55V0H2.56v-6.46H-.02Zm0 0"/><path id="l" d="M4.11-4.629a1.2 1.2 0 0 0-.329-.133c-.12-.02-.25-.039-.39-.039-.512 0-.903.172-1.172.5-.278.332-.41.801-.41 1.422V0H.91v-5.469h.899v.848c.18-.328.43-.578.73-.738q.451-.242 1.11-.243c.062 0 .132.012.21.012.07.012.153.02.25.04Zm0 0"/><path id="m" d="M3.43-2.75c-.73 0-1.23.09-1.508.25-.281.172-.422.45-.422.852 0 .32.102.578.309.757.21.192.5.282.863.282.5 0 .898-.172 1.2-.532.3-.347.448-.82.448-1.41v-.199Zm1.789-.371V0H4.32v-.828c-.21.34-.468.578-.77.726-.3.153-.679.23-1.12.23-.559 0-1.008-.148-1.34-.456C.762-.641.602-1.058.602-1.59c0-.61.199-1.07.617-1.39.41-.31 1.02-.47 1.84-.47H4.32v-.09c0-.41-.14-.73-.41-.96-.27-.219-.648-.34-1.14-.34-.32 0-.622.04-.918.121-.301.078-.582.188-.852.328v-.828c.32-.12.64-.222.95-.281a5 5 0 0 1 .91-.102c.788 0 1.378.211 1.769.622.39.41.59 1.03.59 1.859m0 0"/><path id="n" d="M.941-5.469h.899V0H.94Zm0-2.133h.899v1.141H.94Zm0 0"/><path id="o" d="M5.488-3.3V0H4.59v-3.27c0-.52-.11-.902-.309-1.16-.203-.261-.5-.39-.902-.39-.488 0-.867.16-1.149.468-.28.313-.421.73-.421 1.262V0H.91v-5.469h.899v.848c.21-.32.46-.57.761-.73.29-.16.63-.25 1.008-.25.621 0 1.102.203 1.422.59.32.39.488.96.488 1.71m0 0"/><path id="p" d="M4.54-2.8c0-.641-.142-1.15-.4-1.509-.269-.363-.652-.543-1.128-.543-.48 0-.864.18-1.133.543-.27.36-.399.868-.399 1.508 0 .653.13 1.153.399 1.512.27.36.652.539 1.133.539.476 0 .86-.18 1.129-.54.257-.358.398-.858.398-1.51M5.44-.68c0 .918-.21 1.61-.62 2.07-.423.45-1.051.68-1.9.68-.32 0-.612-.03-.89-.07a4.7 4.7 0 0 1-.82-.219v-.87c.258.14.52.237.777.308.262.07.524.11.793.11.578 0 1.02-.157 1.32-.458.29-.312.438-.77.438-1.39v-.442c-.187.32-.43.563-.719.723S3.191 0 2.79 0c-.68 0-1.22-.25-1.63-.762C.75-1.27.55-1.949.55-2.8c0-.84.2-1.52.61-2.027.41-.512.95-.774 1.63-.774.401 0 .741.082 1.03.243q.436.239.72.718v-.828h.901Zm0 0"/><path id="r" d="M.98-7.29h.989V0H.98Zm0 0"/><path id="s" d="M1.828-7.02v1.551H3.68v.7H1.828v2.968c0 .45.063.742.184.86.117.132.367.191.75.191h.918V0h-.918Q1.707 0 1.32-.39C1.06-.649.93-1.122.93-1.8v-2.97H.27v-.699h.66v-1.55Zm0 0"/><path id="t" d="M5.621-2.96v.44H1.488c.043.622.223 1.098.563 1.418q.49.48 1.39.48c.34 0 .68-.038 1-.116.32-.082.649-.211.97-.39v.847c-.321.14-.65.25-.99.312a6 6 0 0 1-1.03.098c-.88 0-1.57-.25-2.082-.75C.8-1.121.55-1.81.55-2.68Q.55-4.016 1.27-4.809c.48-.52 1.14-.793 1.96-.793.739 0 1.32.243 1.75.711.418.48.641 1.121.641 1.93M4.72-3.22c-.008-.492-.149-.883-.41-1.18-.27-.292-.63-.44-1.07-.44-.5 0-.9.148-1.2.429s-.48.68-.52 1.191Zm0 0"/><path id="u" d="M3.059-4.84q-.72.001-1.137.57-.422.568-.422 1.54c0 .66.129 1.171.41 1.55.281.38.66.559 1.149.559.48 0 .863-.18 1.14-.559.281-.379.422-.89.422-1.55 0-.641-.14-1.16-.422-1.54-.277-.378-.66-.57-1.14-.57m0-.762c.78 0 1.39.262 1.84.762.44.512.671 1.211.671 2.11 0 .902-.23 1.601-.672 2.101C4.45-.12 3.84.13 3.058.13c-.788 0-1.41-.25-1.847-.758Q.55-1.379.55-2.73c0-.899.219-1.598.66-2.11.437-.5 1.059-.762 1.848-.762m0 0"/><path id="v" d="M4.43-5.309v.848a5 5 0 0 0-.79-.289 4 4 0 0 0-.85-.102c-.45 0-.79.07-1.009.211a.67.67 0 0 0-.332.61c0 .21.082.37.242.492.16.117.48.238.957.34l.313.07c.64.14 1.09.34 1.36.578.257.25.398.602.398 1.04q0 .765-.598 1.202c-.402.297-.96.438-1.66.438-.3 0-.602-.027-.922-.078a6 6 0 0 1-1-.25v-.93q.499.27.98.39c.32.09.641.13.961.13.418 0 .75-.07.98-.211a.7.7 0 0 0 .34-.621c0-.239-.09-.43-.25-.559s-.519-.262-1.081-.379l-.309-.07c-.558-.121-.969-.301-1.21-.54-.25-.241-.372-.57-.372-1 0-.511.184-.91.543-1.19q.54-.423 1.559-.423c.332 0 .64.032.941.082q.434.077.809.211m0 0"/><path id="y" d="M3.781-6.43 1.29-2.54h2.492Zm-.261-.86h1.242v4.75H5.8v.821H4.76V0h-.98v-1.719H.488v-.953Zm0 0"/><path id="A" d="M3.3-4.04c-.44 0-.788.161-1.05.462-.262.297-.39.719-.39 1.238q-.002.798.39 1.25.391.45 1.05.45.658 0 1.052-.45.386-.452.386-1.25c0-.52-.129-.941-.386-1.238-.262-.3-.614-.461-1.051-.461m1.962-3.089v.899a3.441 3.441 0 0 0-1.5-.36q-.99 0-1.5.66c-.34.442-.543 1.11-.582 1.989.191-.278.43-.5.718-.649.293-.148.614-.23.961-.23.73 0 1.313.23 1.73.672.423.437.641 1.046.641 1.808 0 .75-.23 1.352-.671 1.8C4.62-.09 4.03.13 3.3.13c-.84 0-1.492-.32-1.93-.957C.921-1.468.7-2.41.7-3.641c0-1.148.27-2.07.82-2.75.54-.68 1.282-1.03 2.2-1.03.242 0 .492.03.75.07.25.05.511.12.793.222m0 0"/><path id="C" d="M3.18-3.46c-.47 0-.84.132-1.11.382s-.398.59-.398 1.027c0 .442.129.79.398 1.04.27.25.64.37 1.11.37.46 0 .832-.12 1.101-.379.27-.25.41-.59.41-1.03 0-.438-.14-.778-.402-1.028-.27-.25-.64-.383-1.11-.383M2.19-3.88q-.63-.153-.992-.59C.961-4.762.852-5.109.852-5.53c0-.578.199-1.04.617-1.38q.615-.51 1.71-.51 1.08 0 1.712.51c.41.34.62.802.62 1.38 0 .422-.12.77-.363 1.062-.238.29-.558.489-.976.59q.704.166 1.11.649c.257.32.398.718.398 1.18 0 .71-.22 1.25-.649 1.62C4.59-.05 3.97.13 3.171.13c-.8 0-1.421-.18-1.85-.559Q.677-.985.68-2.05c0-.462.129-.86.398-1.18.262-.32.633-.54 1.113-.649M1.828-5.44c0 .382.113.68.352.89.242.211.57.313 1 .313.422 0 .75-.102.992-.313q.359-.316.36-.89c0-.38-.122-.668-.36-.88-.242-.21-.57-.32-.992-.32-.43 0-.758.11-1 .32-.239.212-.352.5-.352.88m0 0"/><path id="aa" d="M1.07-1.238h1.032V0H1.07Zm0 0"/><path id="ab" d="M6.441-6.73v1.039a4 4 0 0 0-1.07-.688 3.2 3.2 0 0 0-1.191-.23q-1.26 0-1.918.77c-.442.51-.66 1.237-.66 2.198q-.001 1.443.66 2.211c.437.508 1.078.758 1.918.758.422 0 .808-.066 1.191-.226.379-.153.73-.383 1.07-.692v1.031c-.351.239-.722.41-1.101.52-.38.11-.79.168-1.219.168-1.101 0-1.973-.328-2.61-1C.872-1.54.56-2.461.56-3.641c0-1.168.312-2.09.953-2.77.636-.667 1.508-1.01 2.61-1.01.437 0 .847.062 1.23.171.378.121.75.29 1.09.52m0 0"/><path id="ac" d="M.98-7.29h1.47l1.859 4.962 1.87-4.961h1.47V0H6.69v-6.398l-1.882 5H3.82l-1.879-5V0h-.96Zm0 0"/><path id="ad" d="M.98-7.29h.989v6.462h3.55V0H.98Zm0 0"/><path id="ae" d="M5.352-7.05v.96a6.5 6.5 0 0 0-1.063-.398 4.1 4.1 0 0 0-.96-.133c-.54 0-.958.11-1.25.312-.29.207-.43.508-.43.887 0 .32.09.57.292.73.188.172.559.301 1.098.403l.602.117c.73.14 1.27.39 1.62.742.348.36.528.828.528 1.418 0 .711-.238 1.242-.71 1.602Q4.363.13 3 .129a6.3 6.3 0 0 1-1.11-.11C1.5-.05 1.103-.16.692-.32V-1.34q.6.344 1.168.512c.38.117.762.168 1.141.168.559 0 .988-.11 1.3-.328.302-.223.462-.532.462-.953 0-.36-.114-.637-.332-.84q-.329-.299-1.078-.45l-.602-.12q-1.106-.207-1.602-.688C.82-4.352.66-4.781.66-5.34c0-.641.219-1.15.68-1.52.45-.371 1.082-.563 1.879-.563.34 0 .68.031 1.043.094.347.058.707.156 1.09.277m0 0"/><path id="E" d="m-6.32-3.422 3.629 1.344v-2.684Zm-.97.563V-3.98L0-6.762v1.032l-1.871.66v3.289L0-1.121v1.043Zm0 0"/><path id="F" d="M-5.262-4.879h.84a3.6 3.6 0 0 0-.308.77c-.07.257-.11.507-.11.77 0 .577.192 1.038.559 1.359.37.32.89.48 1.55.48q1.008 0 1.56-.48c.37-.32.55-.782.55-1.36 0-.262-.027-.512-.098-.77a3.5 3.5 0 0 0-.32-.769h.828c.121.258.211.52.262.777q.077.412.078.864c0 .816-.25 1.476-.77 1.957-.507.492-1.21.73-2.09.73-.89 0-1.59-.238-2.097-.73-.512-.489-.774-1.16-.774-2.02 0-.277.032-.55.09-.808.063-.262.14-.52.25-.77m0 0"/><path id="G" d="M-2.16-.852H-5.47v-.898h3.278c.52 0 .902-.102 1.16-.3.261-.2.39-.5.39-.91 0-.481-.148-.868-.46-1.15-.31-.28-.727-.421-1.27-.421H-5.47v-.899H0v.899h-.84c.34.222.578.48.738.761q.23.434.23 1c0 .63-.187 1.11-.577 1.43-.38.328-.95.488-1.711.488m-3.442-2.257"/><path id="H" d="M-4.629-4.11c-.062.098-.101.212-.133.329-.02.12-.039.25-.039.39 0 .512.172.903.5 1.172.332.278.801.41 1.422.41H0v.899h-5.469v-.899h.848a1.8 1.8 0 0 1-.738-.73q-.242-.451-.243-1.11c0-.062.012-.132.012-.21.012-.07.02-.153.04-.25Zm0 0"/><path id="I" d="M-2.75-3.43c0 .73.09 1.23.25 1.508.172.281.45.422.852.422.32 0 .578-.102.757-.309.192-.21.282-.5.282-.863 0-.5-.172-.898-.532-1.2-.347-.3-.82-.448-1.41-.448h-.199Zm-.371-1.789H0v.899h-.828c.34.21.578.468.726.77.153.3.23.679.23 1.12 0 .559-.148 1.008-.456 1.34-.313.328-.73.488-1.262.488-.61 0-1.07-.199-1.39-.617-.31-.41-.47-1.02-.47-1.84V-4.32h-.09c-.41 0-.73.14-.96.41-.219.27-.34.648-.34 1.14 0 .32.04.622.121.918.078.301.188.582.328.852h-.828a6 6 0 0 1-.281-.95 5 5 0 0 1-.102-.91c0-.788.211-1.378.622-1.769.41-.39 1.03-.59 1.859-.59m0 0"/><path id="J" d="M.5-3.219c.64.258 1.07.508 1.27.75q.3.36.3.957v.723h-.75v-.531q.002-.36-.18-.57c-.12-.141-.39-.29-.831-.462l-.399-.16L-5.469-.3v-.949l4.278-1.71-4.278-1.712v-.95Zm0 0"/><path id="L" d="M-7.59-3.102c.762.442 1.5.762 2.23.973a7.7 7.7 0 0 0 2.22.32c.761 0 1.5-.101 2.23-.32a9.5 9.5 0 0 0 2.219-.973v.782c-.77.492-1.508.86-2.25 1.101a7.1 7.1 0 0 1-2.2.36q-1.078 0-2.187-.36A9.6 9.6 0 0 1-7.59-2.32Zm0 0"/><path id="M" d="M-3.21-7.27c0 .282.12.508.358.668q.366.242 1.012.243c.418 0 .762-.082 1-.243a.77.77 0 0 0 .36-.668q-.001-.42-.36-.66c-.238-.16-.582-.242-1-.242-.422 0-.762.082-1 .242s-.37.38-.37.66m-.618 0c0-.511.18-.921.539-1.218.36-.301.848-.461 1.45-.461.609 0 1.089.16 1.44.46.36.298.528.708.528 1.22 0 .519-.168.94-.527 1.238q-.527.452-1.442.453c-.61 0-1.09-.152-1.45-.453-.358-.297-.538-.719-.538-1.239m-2.973 5.04c0 .28.13.5.371.66q.36.241.989.242c.441 0 .77-.082 1.011-.242a.76.76 0 0 0 .36-.66.77.77 0 0 0-.36-.668c-.242-.16-.57-.243-1.011-.243-.418 0-.75.09-.989.25-.242.16-.37.38-.37.66m-.62-4.41v-.782l7.55 4.563v.78Zm0 4.41q.002-.762.542-1.23c.36-.302.84-.462 1.438-.462.62 0 1.101.16 1.46.461.36.3.532.711.532 1.23 0 .52-.172.93-.531 1.231-.36.3-.84.45-1.461.45Q-6.34-.55-6.88-1q-.542-.45-.543-1.23m0 0"/><path id="N" d="M-7.59-.8v-.778c.77-.48 1.52-.852 2.262-1.094a7.1 7.1 0 0 1 2.187-.367c.73 0 1.461.129 2.2.367.742.242 1.48.613 2.25 1.094v.777c-.75-.43-1.48-.75-2.22-.969a8 8 0 0 0-2.23-.32c-.75 0-1.488.11-2.218.32-.73.22-1.47.54-2.23.97m0 0"/><clipPath id="a"><path d="M41.07 4.96H42v142.88h-.93Zm0 0"/></clipPath><clipPath id="c"><path d="M95 4.96h2v142.88h-2Zm0 0"/></clipPath><clipPath id="e"><path d="M151 4.96h1v142.88h-1Zm0 0"/></clipPath><clipPath id="g"><path d="M206 4.96h2v142.88h-2Zm0 0"/></clipPath><clipPath id="h"><path d="M261 4.96h2v142.88h-2Zm0 0"/></clipPath><clipPath id="j"><path d="M316 4.96h2v142.88h-2Zm0 0"/></clipPath><clipPath id="w"><path d="M41.07 123H359v2H41.07Zm0 0"/></clipPath><clipPath id="x"><path d="M41.07 93H359v2H41.07Zm0 0"/></clipPath><clipPath id="z"><path d="M41.07 63H359v2H41.07Zm0 0"/></clipPath><clipPath id="B"><path d="M41.07 34H359v2H41.07Zm0 0"/></clipPath><clipPath id="D"><path d="M41.07 4.96H359V6H41.07Zm0 0"/></clipPath><clipPath id="O"><path d="M41.07 4.96H357V130H41.07Zm0 0"/></clipPath><clipPath id="P"><path d="M41.07 4.96H358V130H41.07Zm0 0"/></clipPath><clipPath id="Q"><path d="M41.07 4.96H357V132H41.07Zm0 0"/></clipPath><clipPath id="R"><path d="M41.07 4.96H358V133H41.07Zm0 0"/></clipPath><clipPath id="S"><path d="M41.07 4.96H358V129H41.07Zm0 0"/></clipPath><clipPath id="T"><path d="M41.07 4.96H359V130H41.07Zm0 0"/></clipPath><clipPath id="U"><path d="M41.07 8H357v133H41.07Zm0 0"/></clipPath><clipPath id="V"><path d="M41.07 7H358v135H41.07Zm0 0"/></clipPath><clipPath id="W"><path d="M41.07 13H358v92H41.07Zm0 0"/></clipPath><clipPath id="X"><path d="M41.07 9H358v107H41.07Zm0 0"/></clipPath><clipPath id="Y"><path d="M41.07 6H359v94H41.07Zm0 0"/></clipPath><clipPath id="Z"><path d="M41.07 40H358v87H41.07Zm0 0"/></clipPath></defs><path fill="#FFF" d="M-36-18h432v216H-36z"/><path fill="#EAEAF2" d="M41.07 147.84H359V4.96H41.07Zm0 0"/><g clip-path="url(#a)"><path fill="none" stroke="#FFF" stroke-linecap="round" stroke-linejoin="round" stroke-miterlimit="10" stroke-opacity=".5" stroke-width=".8" d="M41.07 147.84V4.96"/></g><use xlink:href="#b" x="37.89" y="162.434" fill="#262626"/><g clip-path="url(#c)"><path fill="none" stroke="#FFF" stroke-linecap="round" stroke-linejoin="round" stroke-miterlimit="10" stroke-opacity=".5" stroke-width=".8" d="M96.266 147.84V4.96"/></g><g fill="#262626"><use xlink:href="#d" x="80.368" y="162.434"/><use xlink:href="#b" x="86.728" y="162.434"/><use xlink:href="#b" x="93.088" y="162.434"/><use xlink:href="#b" x="99.448" y="162.434"/><use xlink:href="#b" x="105.808" y="162.434"/></g><g clip-path="url(#e)"><path fill="none" stroke="#FFF" stroke-linecap="round" stroke-linejoin="round" stroke-miterlimit="10" stroke-opacity=".5" stroke-width=".8" d="M151.46 147.84V4.96"/></g><g fill="#262626"><use xlink:href="#f" x="132.384" y="162.434"/><use xlink:href="#b" x="138.744" y="162.434"/><use xlink:href="#b" x="145.104" y="162.434"/><use xlink:href="#b" x="151.464" y="162.434"/><use xlink:href="#b" x="157.824" y="162.434"/><use xlink:href="#b" x="164.184" y="162.434"/></g><g clip-path="url(#g)"><path fill="none" stroke="#FFF" stroke-linecap="round" stroke-linejoin="round" stroke-miterlimit="10" stroke-opacity=".5" stroke-width=".8" d="M206.66 147.84V4.96"/></g><g fill="#262626"><use xlink:href="#f" x="187.58" y="162.434"/><use xlink:href="#d" x="193.94" y="162.434"/><use xlink:href="#b" x="200.3" y="162.434"/><use xlink:href="#b" x="206.66" y="162.434"/><use xlink:href="#b" x="213.02" y="162.434"/><use xlink:href="#b" x="219.38" y="162.434"/></g><g clip-path="url(#h)"><path fill="none" stroke="#FFF" stroke-linecap="round" stroke-linejoin="round" stroke-miterlimit="10" stroke-opacity=".5" stroke-width=".8" d="M261.855 147.84V4.96"/></g><g fill="#262626"><use xlink:href="#i" x="242.777" y="162.434"/><use xlink:href="#b" x="249.137" y="162.434"/><use xlink:href="#b" x="255.497" y="162.434"/><use xlink:href="#b" x="261.857" y="162.434"/><use xlink:href="#b" x="268.217" y="162.434"/><use xlink:href="#b" x="274.577" y="162.434"/></g><g clip-path="url(#j)"><path fill="none" stroke="#FFF" stroke-linecap="round" stroke-linejoin="round" stroke-miterlimit="10" stroke-opacity=".5" stroke-width=".8" d="M317.05 147.84V4.96"/></g><g fill="#262626"><use xlink:href="#i" x="297.973" y="162.434"/><use xlink:href="#d" x="304.333" y="162.434"/><use xlink:href="#b" x="310.693" y="162.434"/><use xlink:href="#b" x="317.053" y="162.434"/><use xlink:href="#b" x="323.413" y="162.434"/><use xlink:href="#b" x="329.773" y="162.434"/></g><use xlink:href="#k" x="154.894" y="176.106" fill="#262626"/><g fill="#262626"><use xlink:href="#l" x="159.536" y="176.106"/><use xlink:href="#m" x="163.646" y="176.106"/><use xlink:href="#n" x="169.776" y="176.106"/><use xlink:href="#o" x="172.556" y="176.106"/><use xlink:href="#n" x="178.896" y="176.106"/><use xlink:href="#o" x="181.676" y="176.106"/><use xlink:href="#p" x="188.016" y="176.106"/><use xlink:href="#q" x="194.366" y="176.106"/><use xlink:href="#r" x="197.546" y="176.106"/><use xlink:href="#s" x="200.496" y="176.106"/><use xlink:href="#t" x="204.416" y="176.106"/><use xlink:href="#l" x="210.566" y="176.106"/><use xlink:href="#m" x="214.676" y="176.106"/><use xlink:href="#s" x="220.806" y="176.106"/><use xlink:href="#n" x="224.726" y="176.106"/><use xlink:href="#u" x="227.506" y="176.106"/><use xlink:href="#o" x="233.626" y="176.106"/><use xlink:href="#v" x="239.966" y="176.106"/></g><g clip-path="url(#w)"><path fill="none" stroke="#FFF" stroke-linecap="round" stroke-linejoin="round" stroke-miterlimit="10" stroke-opacity=".5" stroke-width=".8" d="M41.07 123.742H359"/></g><g fill="#262626"><use xlink:href="#i" x="21.351" y="127.539"/><use xlink:href="#b" x="27.711" y="127.539"/></g><g clip-path="url(#x)"><path fill="none" stroke="#FFF" stroke-linecap="round" stroke-linejoin="round" stroke-miterlimit="10" stroke-opacity=".5" stroke-width=".8" d="M41.07 94.047H359"/></g><g fill="#262626"><use xlink:href="#y" x="21.351" y="97.843"/><use xlink:href="#b" x="27.711" y="97.843"/></g><g clip-path="url(#z)"><path fill="none" stroke="#FFF" stroke-linecap="round" stroke-linejoin="round" stroke-miterlimit="10" stroke-opacity=".5" stroke-width=".8" d="M41.07 64.352H359"/></g><g fill="#262626"><use xlink:href="#A" x="21.351" y="68.148"/><use xlink:href="#b" x="27.711" y="68.148"/></g><g clip-path="url(#B)"><path fill="none" stroke="#FFF" stroke-linecap="round" stroke-linejoin="round" stroke-miterlimit="10" stroke-opacity=".5" stroke-width=".8" d="M41.07 34.656H359"/></g><g fill="#262626"><use xlink:href="#C" x="21.351" y="38.452"/><use xlink:href="#b" x="27.711" y="38.452"/></g><g clip-path="url(#D)"><path fill="none" stroke="#FFF" stroke-linecap="round" stroke-linejoin="round" stroke-miterlimit="10" stroke-opacity=".5" stroke-width=".8" d="M41.07 4.96H359"/></g><g fill="#262626"><use xlink:href="#f" x="14.992" y="8.757"/><use xlink:href="#b" x="21.352" y="8.757"/><use xlink:href="#b" x="27.712" y="8.757"/></g><use xlink:href="#E" x="8.914" y="109.509" fill="#262626"/><g fill="#262626"><use xlink:href="#F" x="8.914" y="102.841"/><use xlink:href="#F" x="8.914" y="97.341"/><use xlink:href="#G" x="8.914" y="91.841"/><use xlink:href="#H" x="8.914" y="85.501"/><use xlink:href="#I" x="8.914" y="81.391"/><use xlink:href="#F" x="8.914" y="75.261"/><use xlink:href="#J" x="8.914" y="69.761"/><use xlink:href="#K" x="8.914" y="63.841"/><use xlink:href="#L" x="8.914" y="60.661"/><use xlink:href="#M" x="8.914" y="56.761"/><use xlink:href="#N" x="8.914" y="47.261"/></g><g clip-path="url(#O)"><path fill="#DB5F57" fill-opacity=".1" d="M41.07 77.191v52.204l1.106-3.86 1.101-.426 1.106-.148 1.101-4.988 1.106-1.391 1.105.945 1.102-.023 1.105-1.082 1.102-1.102 1.105.66 1.106-.914 1.101 2.25 1.106.055 1.101-1.34 1.106-1.09 1.105-1.976 1.102-.211 1.105-.242 1.102 4.468 1.105.274 1.106-2.555 1.101-1.59 1.106-1.98 1.102-1.172 1.105-4.375 1.105-.086 1.102-4.547 1.105-1.734 1.102.383 1.106-3.79 1.105 1.063 1.102-3.023 1.105-.871 1.102-.48 1.105-1.36 1.106-2.614 1.101-2.113 1.106.031 1.101.844 1.106 1.582 1.105-1.18 1.102 4.477 1.105.148 1.106-.644 1.101 3.344 1.106 1.136 1.101-2.765 1.106-1.805 1.105-.836 1.102 1.938 1.105-3.973 1.102 3.023 1.105.895 1.106-.93 1.101 1.196 1.106-2.59 1.101 1.312 1.106-1.46 1.105.16 1.102-1.942 1.105-4.988 1.102.828 1.105-3.313 1.106-.777 1.101-2.016 1.106.711 1.101-2.691 1.106-2.742 1.105-1.766 1.102-6.11 1.105.153 1.102-6.89 1.105.62 1.106-1.91 1.101-2.597 1.106 3.097 1.101-.199 1.106-1.761 1.105-.458 1.102-3.66 1.105 4.668 1.102-.851 1.105 2.101 1.106 1.965 1.101 3.778 1.106-.028 1.105-.465 1.102-5.242 1.105-4.55 1.102 2.19 1.105.844 1.106 1.16 1.101 4.102 1.106-.136 1.101 3.828 1.106-3.454 1.105 1.981 1.102-5.879 1.105-4.941 1.102-1.43 1.105.566 1.106 7.332 1.101 1.133 1.106 4.703 1.101-4.144 1.106-1.512 1.105-2.277 1.102-.68 1.105 2.328 1.102-4.558 1.105 2.054 1.106.438 1.101.504 1.106 2.48 1.102-3.476 1.105-2.047 1.105-4.567 1.102 2.899 1.106-.27 1.101 2.383 1.106-1.14 1.105 1.46 1.102 2.387 1.105-4.754 1.102.86 1.105-.286 1.106-2.586 1.101 3.942 1.106 1.008 1.101-.047 1.106 2.082 1.105-2.86 1.102-3.96 1.105-4.524 1.106-.234 1.101 2.824 1.106-2.793 1.101-1.11 1.106.77 1.105 1.066 1.102-3.484 1.105-3.351 1.102-3.493 1.105.059 1.106 4.02 1.101-2.645 1.106 4.43 1.101 3.73 1.106 1.781 1.105 2.16 1.102-4.855 1.105-.004 1.102-.926 1.105-2.843 1.106-1.868 1.101 4.102 1.106.105 1.101 3.262 1.106-4.597 1.105.296 1.102-.05 1.105.523 1.102-3.906 1.105-.367 1.106-2.782 1.101 2.176 1.106-.074 1.101-3.691 1.106 1.476 1.105-1.262 1.102-1.527 1.105 3.797 1.102-4.734 1.105-.215 1.106-4.282 1.101 1.48 1.106-5.01 1.105 2.468 1.102-.906 1.105 2.43 1.102 1.484 1.105 1.695 1.106.106 1.101 2.816 1.106.773 1.101-3.074 1.106-.508 1.105 3.082 1.102 2.012 1.105 3.234 1.102-3.375 1.105 1.844 1.106-1.308 1.101 3.5 1.106-1.993 1.101-3.625 1.106-1.796 1.105 2.382 1.102-3.359 1.105-.555 1.102-.058 1.106-3.457 1.105-1.13 1.102-.35 1.105-2.99 1.102.11 1.105-.675 1.106 2.394 1.101-1.27 1.106 3.766 1.101 1.211 1.106 1.422 1.105.562 1.102-.98 1.105-.34 1.102 1.91 1.105.11 1.106-.121 1.101-1.774 1.106.028 1.105 1.648 1.102-1.176 1.105-3.433 1.102-.461 1.105-3.836 1.106-1.356 1.101-.762 1.106 1.024 1.101 1.492 1.106-.055 1.105-1.73 1.102.012 1.105-1.735 1.102.106 1.105 4.531 1.106 2.61 1.101-.047 1.106-.06 1.101-2.82 1.106.993 1.105 3.91 1.102 3.133 1.105-2.145 1.102 1.38 1.105 2.702 1.106.762 1.101 1.492 1.106.844L315.945 42l1.106-3.508 1.105-4.433 1.102 1.757 1.105-.105 1.102-.008 1.105-1.453 1.106-3.79 1.101-2.05 1.106-1.879 1.101 2.11 1.106 1.062 1.105-.762 1.102-1.546 1.105.582 1.102-2.188 1.105-.36 1.106.278 1.101-1.73 1.106 2.714 1.105.04 1.102-.747 1.105 2.868 1.102 1.418 1.105 1.804 1.106-4.816 1.101-3.711 1.106 2.176 1.101 1.574 1.106.183 1.105 2.434 1.102.52 1.105.957 1.102.148 1.105-2.75 1.106 3.856 1.101-.56 1.106-.315V8.57l-1.106.7-1.101.03-1.106-.745-1.105-.293-1.102-.051-1.105.152-1.102.078-1.105-1.093-1.106-.489-1.101.29-1.106-.141-1.101-.813-1.106.735-1.105-.516-1.102.504-1.105-.27-1.102-.28-1.105-.06-1.106.235-1.101.105-1.106-.097-1.105-.074-1.102.27-1.105.175-1.102.289-1.105-.07-1.106.265-1.101-1.23-1.106.41-1.101-.816-1.106-.286-1.105-.046-1.102-.028-1.105.043-1.102-.043-1.105 1.926-1.106.871-1.101-.23-1.106.003-1.101-.34-1.106-.054-1.105.523-1.102.746-1.105-.648-1.102.648-1.105.301-1.106.063-1.101-.551-1.106.004-1.101.008-1.106-2.032-1.105-.668-1.102-.144-1.105-.055-1.102.102-1.105-.356-1.106.024-1.101-.352-1.106-.02-1.101-.144-1.106-.254-1.105 1.313-1.102 1.043-1.105.687-1.102.004-1.105.164-1.106-.05-1.101-.153-1.106.02-1.105.023-1.102.344-1.105-.09-1.102-.129-1.105.02-1.106.125-1.101.253-1.106-1.152-1.101-.098-1.106-.875-1.105-.12-1.102-.051-1.105-.637-1.102.023-1.106.41-1.105-.05-1.102.125-1.105-.075-1.102-.41-1.105.313-1.106-.297-1.101-.711-1.106-.562-1.101-.38-1.106.606-1.105.05-1.102.384-1.105.504-1.102.195-1.105-.188-1.106-.707-1.101-.25-1.106.086-1.101.703-1.106-.023-1.105.324-1.102.785-1.105.61-1.102-.18-1.105-.324-1.106.996-1.101-.703-1.106.797-1.105.132-1.102-.293-1.105.696-1.102-.625-1.105-.168-1.106-.164-1.101-.582-1.106.144-1.101-.246-1.106.817-1.105.003-1.102-.265-1.105-1.188-1.102-.011-1.105-1.301-1.106.375-1.101-.078-1.106-.051-1.101.98-1.106.832-1.105.082-1.102-.07-1.105-.047-1.102.032-1.105-.524-1.106.149-1.101.234-1.106.262-1.101-.293-1.106.508-1.105-1.266-1.102 1.23-1.105.43-1.102-.738-1.105-.992-1.106.203-1.101 1.48-1.106.48-1.101-.156-1.106-.398-1.105 1.922-1.102-.77-1.105-.504-1.106 1.157-1.101.011-1.106 1.371-1.101-.707-1.106.621-1.105-.148-1.102.113-1.105.996-1.102-.55-1.105-.88-1.106.192-1.101.074-1.106-1.867-1.102.871-1.105 1.793-1.105-.469-1.102-.425-1.106-.586-1.101-.227-1.106-1.273-1.105 1.18-1.102 1.308-1.105-1.844-1.102 2.278-1.105-.297-1.106-.266-1.101.485-1.106-.172-1.101-.22-1.106-1.269-1.105-.46-1.102 1.257-1.105 4.84-1.102 1.496-1.105-.418-1.106-1.054-1.101-1.223-1.106 1.207-1.101-2.582-1.106 1.062-1.105-.218-1.102-.653-1.105 1.11-1.102.832-1.105-.23-1.106-.34-1.101-.587-1.106-5.398-1.105-2.234-1.102.324-1.105.527-1.102-.375-1.105-.008-1.106.524-1.101-.594-1.106.387-1.101-.418-1.106 3.238-1.105 1.133-1.102 2.539-1.105.05-1.102 1.833-1.105.144-1.106 5.672-1.101 3.219-1.106.219-1.101 1.836-1.106-1.43-1.105-1.277-1.102-.16-1.105 1.011-1.102 2.102-1.105-2.543-1.106 3.77-1.101-2.954-1.106 2.281-1.101-2.976-1.106 1.578-1.105-4.867-1.102-3.512-1.105.203-1.102-.555-1.105 4.594-1.106 6.168-1.101 1.363-1.106 2.77-1.101-1.719-1.106-.32-1.105-4.633-1.102.402-1.105.442-1.106.2-1.101-.267-1.106-.945-1.102 1.207-1.105.84-1.105 2.328-1.102-1.55-1.105.038-1.102 5.883-1.106-4.289-1.105 1.336-1.102 1.52-1.105 3.527-1.102.426-1.105-.738-1.106 2.43-1.101 4.816-1.106 4.53-1.101 5.579-1.106.793-1.105-2.29-1.102-2.515-1.105-4.043-1.102-5.406-1.105 1.707-1.106 5.816-1.101 2.278-1.106-1.86-1.101.364-1.106 4.328-1.105.543-1.102-2.637-1.105-.125-1.102-1.738-1.105 6.047-1.106 2.351-1.101 4.735-1.106 5.914-1.101 2.949Zm0 0"/></g><g clip-path="url(#P)"><path fill="none" stroke="#DB5F57" stroke-linejoin="round" stroke-miterlimit="10" stroke-opacity=".1" d="M41.07 77.191v52.204l1.106-3.86 1.101-.426 1.106-.148 1.101-4.988 1.106-1.391 1.105.945 1.102-.023 1.105-1.082 1.102-1.102 1.105.66 1.106-.914 1.101 2.25 1.106.055 1.101-1.34 1.106-1.09 1.105-1.976 1.102-.211 1.105-.242 1.102 4.468 1.105.274 1.106-2.555 1.101-1.59 1.106-1.98 1.102-1.172 1.105-4.375 1.105-.086 1.102-4.547 1.105-1.734 1.102.383 1.106-3.79 1.105 1.063 1.102-3.023 1.105-.871 1.102-.48 1.105-1.36 1.106-2.614 1.101-2.113 1.106.031 1.101.844 1.106 1.582 1.105-1.18 1.102 4.477 1.105.148 1.106-.644 1.101 3.344 1.106 1.136 1.101-2.765 1.106-1.805 1.105-.836 1.102 1.938 1.105-3.973 1.102 3.023 1.105.895 1.106-.93 1.101 1.196 1.106-2.59 1.101 1.312 1.106-1.46 1.105.16 1.102-1.942 1.105-4.988 1.102.828 1.105-3.313 1.106-.777 1.101-2.016 1.106.711 1.101-2.691 1.106-2.742 1.105-1.766 1.102-6.11 1.105.153 1.102-6.89 1.105.62 1.106-1.91 1.101-2.597 1.106 3.097 1.101-.199 1.106-1.761 1.105-.458 1.102-3.66 1.105 4.668 1.102-.851 1.105 2.101 1.106 1.965 1.101 3.778 1.106-.028 1.105-.465 1.102-5.242 1.105-4.55 1.102 2.19 1.105.844 1.106 1.16 1.101 4.102 1.106-.136 1.101 3.828 1.106-3.454 1.105 1.981 1.102-5.879 1.105-4.941 1.102-1.43 1.105.566 1.106 7.332 1.101 1.133 1.106 4.703 1.101-4.144 1.106-1.512 1.105-2.277 1.102-.68 1.105 2.328 1.102-4.558 1.105 2.054 1.106.438 1.101.504 1.106 2.48 1.102-3.476 1.105-2.047 1.105-4.567 1.102 2.899 1.106-.27 1.101 2.383 1.106-1.14 1.105 1.46 1.102 2.387 1.105-4.754 1.102.86 1.105-.286 1.106-2.586 1.101 3.942 1.106 1.008 1.101-.047 1.106 2.082 1.105-2.86 1.102-3.96 1.105-4.524 1.106-.234 1.101 2.824 1.106-2.793 1.101-1.11 1.106.77 1.105 1.066 1.102-3.484 1.105-3.351 1.102-3.493 1.105.059 1.106 4.02 1.101-2.645 1.106 4.43 1.101 3.73 1.106 1.781 1.105 2.16 1.102-4.855 1.105-.004 1.102-.926 1.105-2.843 1.106-1.868 1.101 4.102 1.106.105 1.101 3.262 1.106-4.597 1.105.296 1.102-.05 1.105.523 1.102-3.906 1.105-.367 1.106-2.782 1.101 2.176 1.106-.074 1.101-3.691 1.106 1.476 1.105-1.262 1.102-1.527 1.105 3.797 1.102-4.734 1.105-.215 1.106-4.282 1.101 1.48 1.106-5.01 1.105 2.468 1.102-.906 1.105 2.43 1.102 1.484 1.105 1.695 1.106.106 1.101 2.816 1.106.773 1.101-3.074 1.106-.508 1.105 3.082 1.102 2.012 1.105 3.234 1.102-3.375 1.105 1.844 1.106-1.308 1.101 3.5 1.106-1.993 1.101-3.625 1.106-1.796 1.105 2.382 1.102-3.359 1.105-.555 1.102-.058 1.106-3.457 1.105-1.13 1.102-.35 1.105-2.99 1.102.11 1.105-.675 1.106 2.394 1.101-1.27 1.106 3.766 1.101 1.211 1.106 1.422 1.105.562 1.102-.98 1.105-.34 1.102 1.91 1.105.11 1.106-.121 1.101-1.774 1.106.028 1.105 1.648 1.102-1.176 1.105-3.433 1.102-.461 1.105-3.836 1.106-1.356 1.101-.762 1.106 1.024 1.101 1.492 1.106-.055 1.105-1.73 1.102.012 1.105-1.735 1.102.106 1.105 4.531 1.106 2.61 1.101-.047 1.106-.06 1.101-2.82 1.106.993 1.105 3.91 1.102 3.133 1.105-2.145 1.102 1.38 1.105 2.702 1.106.762 1.101 1.492 1.106.844L315.945 42l1.106-3.508 1.105-4.433 1.102 1.757 1.105-.105 1.102-.008 1.105-1.453 1.106-3.79 1.101-2.05 1.106-1.879 1.101 2.11 1.106 1.062 1.105-.762 1.102-1.546 1.105.582 1.102-2.188 1.105-.36 1.106.278 1.101-1.73 1.106 2.714 1.105.04 1.102-.747 1.105 2.868 1.102 1.418 1.105 1.804 1.106-4.816 1.101-3.711 1.106 2.176 1.101 1.574 1.106.183 1.105 2.434 1.102.52 1.105.957 1.102.148 1.105-2.75 1.106 3.856 1.101-.56 1.106-.315V8.57l-1.106.7-1.101.03-1.106-.745-1.105-.293-1.102-.051-1.105.152-1.102.078-1.105-1.093-1.106-.489-1.101.29-1.106-.141-1.101-.813-1.106.735-1.105-.516-1.102.504-1.105-.27-1.102-.28-1.105-.06-1.106.235-1.101.105-1.106-.097-1.105-.074-1.102.27-1.105.175-1.102.289-1.105-.07-1.106.265-1.101-1.23-1.106.41-1.101-.816-1.106-.286-1.105-.046-1.102-.028-1.105.043-1.102-.043-1.105 1.926-1.106.871-1.101-.23-1.106.003-1.101-.34-1.106-.054-1.105.523-1.102.746-1.105-.648-1.102.648-1.105.301-1.106.063-1.101-.551-1.106.004-1.101.008-1.106-2.032-1.105-.668-1.102-.144-1.105-.055-1.102.102-1.105-.356-1.106.024-1.101-.352-1.106-.02-1.101-.144-1.106-.254-1.105 1.313-1.102 1.043-1.105.687-1.102.004-1.105.164-1.106-.05-1.101-.153-1.106.02-1.105.023-1.102.344-1.105-.09-1.102-.129-1.105.02-1.106.125-1.101.253-1.106-1.152-1.101-.098-1.106-.875-1.105-.12-1.102-.051-1.105-.637-1.102.023-1.106.41-1.105-.05-1.102.125-1.105-.075-1.102-.41-1.105.313-1.106-.297-1.101-.711-1.106-.562-1.101-.38-1.106.606-1.105.05-1.102.384-1.105.504-1.102.195-1.105-.188-1.106-.707-1.101-.25-1.106.086-1.101.703-1.106-.023-1.105.324-1.102.785-1.105.61-1.102-.18-1.105-.324-1.106.996-1.101-.703-1.106.797-1.105.132-1.102-.293-1.105.696-1.102-.625-1.105-.168-1.106-.164-1.101-.582-1.106.144-1.101-.246-1.106.817-1.105.003-1.102-.265-1.105-1.188-1.102-.011-1.105-1.301-1.106.375-1.101-.078-1.106-.051-1.101.98-1.106.832-1.105.082-1.102-.07-1.105-.047-1.102.032-1.105-.524-1.106.149-1.101.234-1.106.262-1.101-.293-1.106.508-1.105-1.266-1.102 1.23-1.105.43-1.102-.738-1.105-.992-1.106.203-1.101 1.48-1.106.48-1.101-.156-1.106-.398-1.105 1.922-1.102-.77-1.105-.504-1.106 1.157-1.101.011-1.106 1.371-1.101-.707-1.106.621-1.105-.148-1.102.113-1.105.996-1.102-.55-1.105-.88-1.106.192-1.101.074-1.106-1.867-1.102.871-1.105 1.793-1.105-.469-1.102-.425-1.106-.586-1.101-.227-1.106-1.273-1.105 1.18-1.102 1.308-1.105-1.844-1.102 2.278-1.105-.297-1.106-.266-1.101.485-1.106-.172-1.101-.22-1.106-1.269-1.105-.46-1.102 1.257-1.105 4.84-1.102 1.496-1.105-.418-1.106-1.054-1.101-1.223-1.106 1.207-1.101-2.582-1.106 1.062-1.105-.218-1.102-.653-1.105 1.11-1.102.832-1.105-.23-1.106-.34-1.101-.587-1.106-5.398-1.105-2.234-1.102.324-1.105.527-1.102-.375-1.105-.008-1.106.524-1.101-.594-1.106.387-1.101-.418-1.106 3.238-1.105 1.133-1.102 2.539-1.105.05-1.102 1.833-1.105.144-1.106 5.672-1.101 3.219-1.106.219-1.101 1.836-1.106-1.43-1.105-1.277-1.102-.16-1.105 1.011-1.102 2.102-1.105-2.543-1.106 3.77-1.101-2.954-1.106 2.281-1.101-2.976-1.106 1.578-1.105-4.867-1.102-3.512-1.105.203-1.102-.555-1.105 4.594-1.106 6.168-1.101 1.363-1.106 2.77-1.101-1.719-1.106-.32-1.105-4.633-1.102.402-1.105.442-1.106.2-1.101-.267-1.106-.945-1.102 1.207-1.105.84-1.105 2.328-1.102-1.55-1.105.038-1.102 5.883-1.106-4.289-1.105 1.336-1.102 1.52-1.105 3.527-1.102.426-1.105-.738-1.106 2.43-1.101 4.816-1.106 4.53-1.101 5.579-1.106.793-1.105-2.29-1.102-2.515-1.105-4.043-1.102-5.406-1.105 1.707-1.106 5.816-1.101 2.278-1.106-1.86-1.101.364-1.106 4.328-1.105.543-1.102-2.637-1.105-.125-1.102-1.738-1.105 6.047-1.106 2.351-1.101 4.735-1.106 5.914-1.101 2.949Zm0 0"/></g><g clip-path="url(#Q)"><path fill="#DB5F57" fill-opacity=".1" d="M41.07 98.531v33.336l1.106-2.199 1.101.945 1.106-2.761 1.101-2.098 1.106-2.082 1.105-1.184 1.102-.886 1.105-.133 1.102-.957 1.105-4.02 1.106-7 1.101-3.754 1.106-.656 1.101-.176 1.106-.738 1.105 1.844 1.102-1.825 1.105-.156 1.102 1.438 1.105 1.11 1.106-.29 1.101-1.652 1.106-3.16 1.102-1.657 1.105 2.23 1.105.5 1.102 2.329 1.105-3.695 1.102-2.735 1.106-3.215 1.105-1.765 1.102-5.078 1.105-1.368 1.102-6.882 1.105-3.555 1.106-5.027 1.101.62 1.106-3.519 1.101-4.738 1.106-.496 1.105 4.629 1.102-1.711 1.105-1.047 1.106-3.313 1.101.086 1.106-1.644 1.101 4.61 1.106-.61 1.105 3.465 1.102 1.379 1.105 4.3 1.102-1.86 1.105 1.661 1.106 4.918 1.101-3.445 1.106-4.852 1.101-3.773 1.106.406 1.105-.008 1.102.692 1.105 1.058 1.102-4.262 1.105-3.44 1.106-.65 1.101-4.242 1.106-1.386 1.101-1.547 1.106.484 1.105-3.969 1.102-2.28 1.105.823 1.102-1.097 1.105-3.375 1.106 1.676 1.101-1.079 1.106-.793 1.101.301 1.106.832 1.105-4.004 1.102.977 1.105-3.883 1.102-2.906 1.105-.668 1.106 2.055 1.101.132 1.106.391 1.105 1.7 1.102 3.511 1.105.324 1.102-2.59 1.105-.87 1.106 2.48 1.101-1.266 1.106 1.031 1.101.387 1.106.387 1.105 1.695 1.102-1.785 1.105-3.785 1.102.719 1.105-.418 1.106-.067 1.101-2.972 1.106-1.864 1.101 2.813 1.106-1.227L159.19 31l1.102 3.543 1.105 2.008 1.102-2.196 1.105 1.563 1.106-1.73 1.101 1.109 1.106 3.21 1.102-.956 1.105 1.574 1.105 1.691 1.102-.468 1.106-.82 1.101-2.626 1.106-2.011 1.105-.375 1.102-2.344 1.105-2.168 1.102-.047 1.105 1.477 1.106.789 1.101-.305 1.106-2.629 1.101-.043 1.106-1.71 1.105-3.548 1.102.649 1.105 2.031 1.106-.805 1.101-.789 1.106.422 1.101 1.547 1.106-.828 1.105 2.219 1.102-1.934 1.105-.71 1.102-1.345 1.105-1.074 1.106.48 1.101-.515 1.106 2.027 1.101-.168 1.106-2.797 1.105 1.723 1.102 1.621 1.105 1.551 1.102-.867 1.105.058 1.106-2.285 1.101-1.16 1.106-.062 1.101.285 1.106.293 1.105-.004 1.102.449 1.105-2.164 1.102.785 1.105 1.652 1.106-1.187 1.101-.445 1.106-1.153 1.101-1.644 1.106-.172 1.105 1.297 1.102-.801 1.105 1.293 1.102-.324 1.105-.34 1.106-.598 1.101-1.074 1.106.07 1.105-.824 1.102-1.082 1.105-.562 1.102-1.114 1.105-1.406 1.106-.262 1.101.239 1.106.382 1.101.73 1.106-1.3 1.105-.129 1.102 1.278 1.105.546 1.102 1.77 1.105.605 1.106.059 1.101-.605 1.106.574 1.101.23 1.106.008 1.105.82 1.102.114 1.105-.582 1.102-.543 1.106.96 1.105.051 1.102-1.172 1.105-.484 1.102-.098 1.105-.597 1.106-.262 1.101.422 1.106-.328 1.101.52 1.106.968 1.105.043 1.102.563 1.105-.782 1.102.106 1.105-.602 1.106 2.04 1.101.073 1.106 1.493 1.105-1.696 1.102.059 1.105-.18 1.102.364 1.105-.204 1.106.106 1.101-.598 1.106-.054 1.101-.422 1.106-.051 1.105.773 1.102.098 1.105-2 1.102 1.023 1.105-1.668 1.106.918 1.101 1.684 1.106-.156 1.101-.106 1.106-.039 1.105-1.074 1.102 1.238 1.105.063 1.102-.055 1.105-.152 1.106-.946 1.101-.054 1.106.215 1.101.343 1.106.22 1.105-.075 1.102-1.762 1.105.078 1.102-.07 1.105.086 1.106.223 1.101-1.391 1.106-.707 1.101-.344 1.106.176 1.105-.043 1.102-.23 1.105.726 1.102-1.066 1.105.027 1.106.313 1.101.273 1.106-.012 1.105-.5 1.102.352 1.105-.13 1.102.2 1.105.145 1.106.379 1.101-.23 1.106.214 1.101.055 1.106-.73 1.105-.368 1.102-.242 1.105-.992 1.102.09 1.105.078 1.106.117 1.101-.414 1.106.785V8.28l-1.106-.136-1.101.18-1.106.132-1.105-.168-1.102.106-1.105-.102-1.102.176-1.105-.008-1.106.293-1.101-.215-1.106.074-1.101-.008-1.106.067-1.105.008-1.102.047-1.105.144-1.102-.148-1.105.16-1.106.18-1.101-.126-1.106.11-1.105.125-1.102.336-1.105-.184-1.102.059-1.105.02-1.106.042-1.101-.066-1.106.086-1.101-.262-1.106.004-1.105.117-1.102-.441-1.105-.086-1.102.48-1.105.09-1.106-.207-1.101-.765-1.106-.207-1.101-.008-1.106.203-1.105.168-1.102-.028-1.105-.175-1.102.57-1.105.066-1.106.032-1.101.293-1.106.062-1.101-.476-1.106-.31-1.105.13-1.102.414-1.105.601-1.102.09-1.105-.304-1.106-.028-1.101.32-1.106-.019-1.101-.207-1.106-.293-1.105-.094-1.102.086-1.105-.094-1.102.051-1.105.395-1.106-.02-1.101-.093-1.106-.47-1.105-.202-1.102.175-1.105.059-1.102-.203-1.105.004-1.106-.301-1.101.352-1.106-.04-1.101-.12-1.106.16-1.105-.036-1.102-.48-1.105.062-1.102 1.032-1.106-.227-1.105.121-1.102.102-1.105-.082-1.102.035-1.105.133-1.106.004-1.101-.012-1.106-.113-1.101.175-1.106-.144-1.105-.078-1.102.246-1.105-.09-1.102-1.031-1.105.191-1.106-.031-1.101-.32-1.106-.407-1.101-.238h-1.106l-1.105-.344-1.102.09-1.105.278-1.102-.47-1.105-.323-1.106-.051-1.101.18-1.106.046-1.105-.039-1.102-.11-1.105-.073-1.102.156-1.105.187-1.106.082-1.101.032-1.106.41-1.101-.543-1.106-.281-1.105.308-1.102.348-1.105-.074-1.102-.348-1.105.063-1.106.101-1.101.156-1.106.102-1.101.453-1.106-.355-1.105.132-1.102 2.23-1.105.009-1.102.343-1.105.207-1.106-.449-1.101.043-1.106.004-1.101.25-1.106-.254L198.93 10l-1.102.305-1.105-.07-1.102 2.464-1.105.524-1.106-.145-1.101-2.297-1.106-.133-1.101-.23-1.106-.023-1.105.277-1.102-.246-1.105.375-1.106-.672-1.101.133-1.106.476-1.101-.754-1.106.04-1.105-2.672-1.102-.266-1.105.922-1.102-.563-1.105-.183-1.106-.223-1.101-.098-1.106 1.098-1.102.254-1.105 1.023-1.105.325-1.102-.082-1.106-.141-1.101.34-1.106.012-1.105-.418-1.102.554-1.105-1.015-1.102.566-1.105 1.066-1.106-.195-1.101-.11-1.106-1.66-1.101-.113-1.106-1.633-1.105-.128-1.102.007-1.105-.632-1.102-.356-1.105.113-1.106-.078-1.101-.71-1.106.062-1.101.047-1.106-.89-1.105 1.51-1.102.802-1.105 1.168-1.102.085-1.105.52-1.106.879-1.101-.063-1.106.895-1.105-.168-1.102-.469-1.105-.476-1.102.18-1.105-.645-1.106.004-1.101-.18-1.106.008-1.101-.797-1.106-.227-1.105-.707-1.102.086-1.105-.527-1.102-.414-1.105.762-1.106 1.082-1.101.605-1.106 1.574-1.101.579-1.106 2.12-1.105-.23-1.102 4.637-1.105.023-1.102-.32-1.105-.184-1.106.286-1.101-.43-1.106-.656-1.101 1.144-1.106-1.34-1.105-.582-1.102 1.688-1.105-.711-1.102 1.633-1.105-1.649-1.106.14-1.101-4.515-1.106-.023-1.101 2.273-1.106-.844-1.105.961-1.102 5.235-1.105.648-1.106 1.547-1.101.098-1.106 2.59-1.102-.172-1.105.937-1.105-.734-1.102 3.41-1.105 2.316-1.102 4.73-1.106 2.106-1.105-.824-1.102 2.39-1.105 4.06-1.102-4.387-1.105.015-1.106-2.71-1.101 6.48-1.106-1.012-1.101 4.293-1.106-.363-1.105-1.871-1.102-1.266-1.105-1.043-1.102 1.617-1.105-3.008-1.106 4.68-1.101 5.707-1.106-1.98-1.101 7.64-1.106 1.934-1.105 7.437-1.102-.132-1.105 5.43-1.102-2.466-1.105 5.075-1.106 8.039-1.101 5.66-1.106 6.066-1.101-1.804Zm0 0"/></g><g clip-path="url(#R)"><path fill="none" stroke="#DB5F57" stroke-linejoin="round" stroke-miterlimit="10" stroke-opacity=".1" d="M41.07 98.531v33.336l1.106-2.199 1.101.945 1.106-2.761 1.101-2.098 1.106-2.082 1.105-1.184 1.102-.886 1.105-.133 1.102-.957 1.105-4.02 1.106-7 1.101-3.754 1.106-.656 1.101-.176 1.106-.738 1.105 1.844 1.102-1.825 1.105-.156 1.102 1.438 1.105 1.11 1.106-.29 1.101-1.652 1.106-3.16 1.102-1.657 1.105 2.23 1.105.5 1.102 2.329 1.105-3.695 1.102-2.735 1.106-3.215 1.105-1.765 1.102-5.078 1.105-1.368 1.102-6.882 1.105-3.555 1.106-5.027 1.101.62 1.106-3.519 1.101-4.738 1.106-.496 1.105 4.629 1.102-1.711 1.105-1.047 1.106-3.313 1.101.086 1.106-1.644 1.101 4.61 1.106-.61 1.105 3.465 1.102 1.379 1.105 4.3 1.102-1.86 1.105 1.661 1.106 4.918 1.101-3.445 1.106-4.852 1.101-3.773 1.106.406 1.105-.008 1.102.692 1.105 1.058 1.102-4.262 1.105-3.44 1.106-.65 1.101-4.242 1.106-1.386 1.101-1.547 1.106.484 1.105-3.969 1.102-2.28 1.105.823 1.102-1.097 1.105-3.375 1.106 1.676 1.101-1.079 1.106-.793 1.101.301 1.106.832 1.105-4.004 1.102.977 1.105-3.883 1.102-2.906 1.105-.668 1.106 2.055 1.101.132 1.106.391 1.105 1.7 1.102 3.511 1.105.324 1.102-2.59 1.105-.87 1.106 2.48 1.101-1.266 1.106 1.031 1.101.387 1.106.387 1.105 1.695 1.102-1.785 1.105-3.785 1.102.719 1.105-.418 1.106-.067 1.101-2.972 1.106-1.864 1.101 2.813 1.106-1.227L159.19 31l1.102 3.543 1.105 2.008 1.102-2.196 1.105 1.563 1.106-1.73 1.101 1.109 1.106 3.21 1.102-.956 1.105 1.574 1.105 1.691 1.102-.468 1.106-.82 1.101-2.626 1.106-2.011 1.105-.375 1.102-2.344 1.105-2.168 1.102-.047 1.105 1.477 1.106.789 1.101-.305 1.106-2.629 1.101-.043 1.106-1.71 1.105-3.548 1.102.649 1.105 2.031 1.106-.805 1.101-.789 1.106.422 1.101 1.547 1.106-.828 1.105 2.219 1.102-1.934 1.105-.71 1.102-1.345 1.105-1.074 1.106.48 1.101-.515 1.106 2.027 1.101-.168 1.106-2.797 1.105 1.723 1.102 1.621 1.105 1.551 1.102-.867 1.105.058 1.106-2.285 1.101-1.16 1.106-.062 1.101.285 1.106.293 1.105-.004 1.102.449 1.105-2.164 1.102.785 1.105 1.652 1.106-1.187 1.101-.445 1.106-1.153 1.101-1.644 1.106-.172 1.105 1.297 1.102-.801 1.105 1.293 1.102-.324 1.105-.34 1.106-.598 1.101-1.074 1.106.07 1.105-.824 1.102-1.082 1.105-.562 1.102-1.114 1.105-1.406 1.106-.262 1.101.239 1.106.382 1.101.73 1.106-1.3 1.105-.129 1.102 1.278 1.105.546 1.102 1.77 1.105.605 1.106.059 1.101-.605 1.106.574 1.101.23 1.106.008 1.105.82 1.102.114 1.105-.582 1.102-.543 1.106.96 1.105.051 1.102-1.172 1.105-.484 1.102-.098 1.105-.597 1.106-.262 1.101.422 1.106-.328 1.101.52 1.106.968 1.105.043 1.102.563 1.105-.782 1.102.106 1.105-.602 1.106 2.04 1.101.073 1.106 1.493 1.105-1.696 1.102.059 1.105-.18 1.102.364 1.105-.204 1.106.106 1.101-.598 1.106-.054 1.101-.422 1.106-.051 1.105.773 1.102.098 1.105-2 1.102 1.023 1.105-1.668 1.106.918 1.101 1.684 1.106-.156 1.101-.106 1.106-.039 1.105-1.074 1.102 1.238 1.105.063 1.102-.055 1.105-.152 1.106-.946 1.101-.054 1.106.215 1.101.343 1.106.22 1.105-.075 1.102-1.762 1.105.078 1.102-.07 1.105.086 1.106.223 1.101-1.391 1.106-.707 1.101-.344 1.106.176 1.105-.043 1.102-.23 1.105.726 1.102-1.066 1.105.027 1.106.313 1.101.273 1.106-.012 1.105-.5 1.102.352 1.105-.13 1.102.2 1.105.145 1.106.379 1.101-.23 1.106.214 1.101.055 1.106-.73 1.105-.368 1.102-.242 1.105-.992 1.102.09 1.105.078 1.106.117 1.101-.414 1.106.785V8.28l-1.106-.136-1.101.18-1.106.132-1.105-.168-1.102.106-1.105-.102-1.102.176-1.105-.008-1.106.293-1.101-.215-1.106.074-1.101-.008-1.106.067-1.105.008-1.102.047-1.105.144-1.102-.148-1.105.16-1.106.18-1.101-.126-1.106.11-1.105.125-1.102.336-1.105-.184-1.102.059-1.105.02-1.106.042-1.101-.066-1.106.086-1.101-.262-1.106.004-1.105.117-1.102-.441-1.105-.086-1.102.48-1.105.09-1.106-.207-1.101-.765-1.106-.207-1.101-.008-1.106.203-1.105.168-1.102-.028-1.105-.175-1.102.57-1.105.066-1.106.032-1.101.293-1.106.062-1.101-.476-1.106-.31-1.105.13-1.102.414-1.105.601-1.102.09-1.105-.304-1.106-.028-1.101.32-1.106-.019-1.101-.207-1.106-.293-1.105-.094-1.102.086-1.105-.094-1.102.051-1.105.395-1.106-.02-1.101-.093-1.106-.47-1.105-.202-1.102.175-1.105.059-1.102-.203-1.105.004-1.106-.301-1.101.352-1.106-.04-1.101-.12-1.106.16-1.105-.036-1.102-.48-1.105.062-1.102 1.032-1.106-.227-1.105.121-1.102.102-1.105-.082-1.102.035-1.105.133-1.106.004-1.101-.012-1.106-.113-1.101.175-1.106-.144-1.105-.078-1.102.246-1.105-.09-1.102-1.031-1.105.191-1.106-.031-1.101-.32-1.106-.407-1.101-.238h-1.106l-1.105-.344-1.102.09-1.105.278-1.102-.47-1.105-.323-1.106-.051-1.101.18-1.106.046-1.105-.039-1.102-.11-1.105-.073-1.102.156-1.105.187-1.106.082-1.101.032-1.106.41-1.101-.543-1.106-.281-1.105.308-1.102.348-1.105-.074-1.102-.348-1.105.063-1.106.101-1.101.156-1.106.102-1.101.453-1.106-.355-1.105.132-1.102 2.23-1.105.009-1.102.343-1.105.207-1.106-.449-1.101.043-1.106.004-1.101.25-1.106-.254L198.93 10l-1.102.305-1.105-.07-1.102 2.464-1.105.524-1.106-.145-1.101-2.297-1.106-.133-1.101-.23-1.106-.023-1.105.277-1.102-.246-1.105.375-1.106-.672-1.101.133-1.106.476-1.101-.754-1.106.04-1.105-2.672-1.102-.266-1.105.922-1.102-.563-1.105-.183-1.106-.223-1.101-.098-1.106 1.098-1.102.254-1.105 1.023-1.105.325-1.102-.082-1.106-.141-1.101.34-1.106.012-1.105-.418-1.102.554-1.105-1.015-1.102.566-1.105 1.066-1.106-.195-1.101-.11-1.106-1.66-1.101-.113-1.106-1.633-1.105-.128-1.102.007-1.105-.632-1.102-.356-1.105.113-1.106-.078-1.101-.71-1.106.062-1.101.047-1.106-.89-1.105 1.51-1.102.802-1.105 1.168-1.102.085-1.105.52-1.106.879-1.101-.063-1.106.895-1.105-.168-1.102-.469-1.105-.476-1.102.18-1.105-.645-1.106.004-1.101-.18-1.106.008-1.101-.797-1.106-.227-1.105-.707-1.102.086-1.105-.527-1.102-.414-1.105.762-1.106 1.082-1.101.605-1.106 1.574-1.101.579-1.106 2.12-1.105-.23-1.102 4.637-1.105.023-1.102-.32-1.105-.184-1.106.286-1.101-.43-1.106-.656-1.101 1.144-1.106-1.34-1.105-.582-1.102 1.688-1.105-.711-1.102 1.633-1.105-1.649-1.106.14-1.101-4.515-1.106-.023-1.101 2.273-1.106-.844-1.105.961-1.102 5.235-1.105.648-1.106 1.547-1.101.098-1.106 2.59-1.102-.172-1.105.937-1.105-.734-1.102 3.41-1.105 2.316-1.102 4.73-1.106 2.106-1.105-.824-1.102 2.39-1.105 4.06-1.102-4.387-1.105.015-1.106-2.71-1.101 6.48-1.106-1.012-1.101 4.293-1.106-.363-1.105-1.871-1.102-1.266-1.105-1.043-1.102 1.617-1.105-3.008-1.106 4.68-1.101 5.707-1.106-1.98-1.101 7.64-1.106 1.934-1.105 7.437-1.102-.132-1.105 5.43-1.102-2.466-1.105 5.075-1.106 8.039-1.101 5.66-1.106 6.066-1.101-1.804Zm0 0"/></g><g clip-path="url(#S)"><path fill="#57D3DB" fill-opacity=".1" d="M41.07 68.383v60.426l1.106-3.614 1.101-.601 1.106-.102 1.101-6.125 1.106-1.98 1.105.89 1.102-.054 1.105-.985 1.102-1.097 1.105.511 1.106-.93 1.101 2.688 1.106.215 1.101-1.527 1.106-1.211 1.105-2.114 1.102-.078 1.105-.132 1.102 5.097 1.105.078 1.106-2.57 1.101-1.875 1.106-2.387 1.102-1.719 1.105-4.269 1.105-.258 1.102-4.57 1.105-1.91 1.102.445 1.106-3.344 1.105 1.781 1.102-3.445 1.105-.781 1.102-.188 1.105-1.093 1.106-2.989 1.101-2.511 1.106-.184 1.101.879 1.106 1.586 1.105-1.293 1.102 4.406 1.105.426 1.106-.918 1.101 3.102 1.106.957 1.101-2.418 1.106-1.735 1.105-.765 1.102 1.609 1.105-3.512 1.102 3.485 1.105 1.027 1.106-.836 1.101 1.2 1.106-2.7 1.101 1.32 1.106-2.054 1.105.23 1.102-2.125 1.105-5.332 1.102.235 1.105-3.66 1.106-1.255 1.101-1.847 1.106.18 1.101-2.934 1.106-2.73 1.105-1.891 1.102-6.395 1.105.297 1.102-7.023 1.105.894 1.106-2.617 1.101-2.879 1.106 3.207 1.101-.312 1.106-1.426 1.105-.703 1.102-4.215 1.105 4.832 1.102-1.316 1.105 1.859 1.106 1.863 1.101 3.348 1.106-.211 1.105-.219 1.102-5.074 1.105-4.035 1.102 2.129 1.105.691 1.106 1.098 1.101 3.144 1.106-.304 1.101 3.554 1.106-4.164 1.105 2.356 1.102-5.766 1.105-5.367 1.102-1.324 1.105-.442 1.106 6.844 1.101.508 1.106 4.637 1.101-3.582 1.106-2.02 1.105-2.535 1.102-1.863 1.105 1.57 1.102-4.61 1.105 1.641 1.106-1.168 1.101.067 1.106 1.304 1.102-2.851 1.105-2.274 1.105-5.765 1.102 1.336 1.106-2.883 1.101.976 1.106-1.71 1.105.093 1.102.305 1.105-5.164 1.102-.008 1.105-2.113 1.106-3.461 1.101.41 1.106-.844 1.101-.07 1.106-.305 1.105-1.133 1.102-1.824 1.105-2.031 1.106-.848 1.101-.094 1.106-.609 1.101-1.004 1.106.192 1.105-.223 1.102-.54 1.105-.48 1.102-.57 1.105-.418 1.106.234 1.101-.566 1.106.285 1.101.074 1.106.059 1.105.102 1.102-.621 1.105.007 1.102-.328 1.105-.3 1.106-.067 1.101.145 1.106-.028 1.101.18 1.106-.363 1.105.027h1.102l1.105.023 1.102-.148 1.105.023 1.106-.152 1.101.082 1.106-.016 1.101-.183 1.106.07 1.105-.055 1.102-.117 1.105.13 1.102-.208 1.105-.008 1.106-.214 1.101.09 1.106-.278 1.105.098 1.102-.059 1.105.164 1.102.152 2.21.086 1.102.063h1.106l1.101-.07 1.106-.004 1.105.129 1.102.027 1.105.168 1.102-.172 1.105.012 1.106-.074 1.101.168 1.106-.122 1.101-.207 1.106.008 1.105-.035 1.102-.098 1.105.082 1.102-.105 1.106-.149 1.105-.09 1.102-.03 1.105-.16 1.102-.032 1.105-.047 1.106.125 1.101-.148 1.106-.02 1.101.016 1.106.004 1.105.047 1.102-.004 1.105-.07 1.102.1 1.105-.003 1.106.02 1.101.035 1.106.062 1.105-.027 1.102.12 1.105-.112 1.102-.032 1.105.008 1.106.07h1.101l1.106-.07 1.101.047 1.106-.027 1.105-.008 1.102.082 1.105-.133 1.102.047 1.105-.023 1.106.191 1.101-.082 1.106.035 1.101.063 1.106.027 1.105.016 1.102.074 1.105.125 1.102-.09 1.105.11 1.106-.02 1.101-.149 1.106-.004 1.101.032 1.106.023 1.105-.137 1.102.036 1.105-.075 1.102-.039 1.105-.011 1.106-.036 1.101-.168 1.106-.062 1.101.137 1.106-.13 1.105.102 1.102-.004 1.105.094 1.102-.117 1.105-.043 1.106-.039 1.101-.008 1.106.121 1.105.035 1.102.032 1.105.035 1.102.039 1.105.02 1.106-.012 1.101.074 1.106-.168 1.101.113 1.106.086 1.105-.039 1.102.05 1.105.04 1.102.074 1.105-.094 1.106-.011 1.101-.032h1.106l1.102.094V6.898l-1.102.04-1.106-.145-1.101-.043-1.106-.066-1.105.039-1.102-.13-1.105.075-1.102.004-1.105.062-1.106.028-1.101-.09-1.106.18-1.101.003-1.106.06-1.105.062-1.102-.086L339.13 7l-1.102.063-1.105.023-1.106-.035-1.101.094-1.106.039-1.105-.063-1.102-.02-1.105-.054-1.102-.008-1.105-.082-1.106.117-1.101-.023-1.106.054-1.101.098-1.106-.125h-1.105l-1.102.008-1.105.082-1.102-.11-1.105-.019-1.106-.062-1.101.035-1.106-.02-1.101.035-1.106-.101-1.105-.074-1.102-.02-1.105-.113-1.102.035-1.105.059-1.106.019-1.101-.066-1.106-.098-1.101.113-1.106-.015-1.105.093-1.102-.023-1.105.117-1.102.027-1.105.043-1.106.04-1.101.054-1.106-.035-1.101-.043-1.106.02-1.105-.004-1.102.008-1.105.003-1.102-.054-1.105-.004-1.106-.047-1.101.004-1.106.027-1.105-.012-1.102-.039-1.105-.046-1.102.027-1.105-.004-1.106-.102-1.101-.003-1.106-.036-1.101.09-1.106.047-1.105.05-1.102-.027-1.105.016-1.102-.035-1.106-.023-1.105-.02-1.102.059-1.105.02-1.102-.005h-1.105l-1.106-.015-1.101-.094-1.106-.05-1.101-.017-1.106-.027-1.105-.101-1.102-.032-1.105-.008-1.102-.023-1.105-.016-1.106-.023-1.101.004-1.106-.067-1.101-.003-1.106-.016-1.105.039-1.102.113-1.105.11-1.102-.004-1.105.058-1.106.153-1.101.058-1.106.102-1.105.125-1.102-.004-1.105.039-1.102-.105-1.105.09-1.106-.106-1.101.039-1.106.11-1.101-.15-1.106.04-1.105.02-1.102.023-1.105-.129-1.102-.047-1.105-.055-1.106-.023-1.101-.105-1.106-.043-1.101.171-1.106.082-1.105.098-1.102-.004-1.105-.047-1.102.149-1.105.039-1.106-.031-1.101-.028-1.106.032-1.101-.079-1.106-.058-1.105-.219-1.102.238-1.105.024-1.102-.117-1.105-.204-1.106.028-1.101-.024-1.106.028-1.101-.09-1.106-.23-1.105.492-1.102-.36-1.105-.152-1.106.129-1.101.027-1.106.41-1.101-.093-1.106.582-1.105-.442-1.102.012-1.105.508-1.102.148-1.105-.238-1.106-.207-1.101.039-1.106-.906-1.102.367-1.105 1.347-1.105-.207-1.102-.37-1.106-.204-1.101-.043-1.106-1.195-1.105.637-1.102.933-1.105-1.144-1.102 1.25-1.105-.285-1.106-.223-1.101.191-1.106.285-1.101-.101-1.106-1.129-1.105-.254-1.102 1.04-1.105 3.788-1.102.957-1.105.117-1.106-.925-1.101-1.016-1.106.945-1.101-1.414-1.106.766-1.105-.117-1.102-.293-1.105.867-1.102.469-1.105-.18-1.106-.227-1.101-.585-1.106-4.376-1.105-1.69-1.102.073-1.105.793-1.102-.582-1.105.067-1.106.375-1.101-.485-1.106.457-1.101-.55-1.106 2.726-1.105.91-1.102 2.082-1.105.055-1.102 1.648-1.105-.078-1.106 5.153-1.101 3.277-1.106.078-1.101 2.043-1.106-1.379-1.105-1.062L108.41 20l-1.105.848-1.102 1.851-1.105-2.254-1.106 4.098-1.101-2.684-1.106 1.703-1.101-2.722-1.106 1.613-1.105-4.512-1.102-3.343-1.105-.024-1.102-.5-1.105 4.301-1.106 5.926-1.101.949-1.106 2.953-1.101-1.637-1.106.122-1.105-4.454-1.102.489-1.105.617-1.106.27-1.101-.157-1.106-.82-1.102.488-1.105 1.172-1.105 2.187-1.102-2.125-1.105.207-1.102 6.079-1.106-4.18-1.105 1.5-1.102 1.379-1.105 3.465-1.102-.117-1.105-.403-1.106 2.395-1.101 4.675-1.106 3.711-1.101 6.16-1.106.899-1.105-2.516-1.102-1.41-1.105-4.246-1.102-5.168L57.63 38l-1.106 5.758-1.101 1.933-1.106-2.543-1.101.504-1.106 3.727-1.105.191-1.102-3.078-1.105-.129-1.102-2.277-1.105 6.055-1.106 2.187-1.101 3.91-1.106 4.407-1.101 1.875Zm0 0"/></g><g clip-path="url(#T)"><path fill="none" stroke="#57D3DB" stroke-linejoin="round" stroke-miterlimit="10" stroke-opacity=".1" d="M41.07 68.383v60.426l1.106-3.614 1.101-.601 1.106-.102 1.101-6.125 1.106-1.98 1.105.89 1.102-.054 1.105-.985 1.102-1.097 1.105.511 1.106-.93 1.101 2.688 1.106.215 1.101-1.527 1.106-1.211 1.105-2.114 1.102-.078 1.105-.132 1.102 5.097 1.105.078 1.106-2.57 1.101-1.875 1.106-2.387 1.102-1.719 1.105-4.269 1.105-.258 1.102-4.57 1.105-1.91 1.102.445 1.106-3.344 1.105 1.781 1.102-3.445 1.105-.781 1.102-.188 1.105-1.093 1.106-2.989 1.101-2.511 1.106-.184 1.101.879 1.106 1.586 1.105-1.293 1.102 4.406 1.105.426 1.106-.918 1.101 3.102 1.106.957 1.101-2.418 1.106-1.735 1.105-.765 1.102 1.609 1.105-3.512 1.102 3.485 1.105 1.027 1.106-.836 1.101 1.2 1.106-2.7 1.101 1.32 1.106-2.054 1.105.23 1.102-2.125 1.105-5.332 1.102.235 1.105-3.66 1.106-1.255 1.101-1.847 1.106.18 1.101-2.934 1.106-2.73 1.105-1.891 1.102-6.395 1.105.297 1.102-7.023 1.105.894 1.106-2.617 1.101-2.879 1.106 3.207 1.101-.312 1.106-1.426 1.105-.703 1.102-4.215 1.105 4.832 1.102-1.316 1.105 1.859 1.106 1.863 1.101 3.348 1.106-.211 1.105-.219 1.102-5.074 1.105-4.035 1.102 2.129 1.105.691 1.106 1.098 1.101 3.144 1.106-.304 1.101 3.554 1.106-4.164 1.105 2.356 1.102-5.766 1.105-5.367 1.102-1.324 1.105-.442 1.106 6.844 1.101.508 1.106 4.637 1.101-3.582 1.106-2.02 1.105-2.535 1.102-1.863 1.105 1.57 1.102-4.61 1.105 1.641 1.106-1.168 1.101.067 1.106 1.304 1.102-2.851 1.105-2.274 1.105-5.765 1.102 1.336 1.106-2.883 1.101.976 1.106-1.71 1.105.093 1.102.305 1.105-5.164 1.102-.008 1.105-2.113 1.106-3.461 1.101.41 1.106-.844 1.101-.07 1.106-.305 1.105-1.133 1.102-1.824 1.105-2.031 1.106-.848 1.101-.094 1.106-.609 1.101-1.004 1.106.192 1.105-.223 1.102-.54 1.105-.48 1.102-.57 1.105-.418 1.106.234 1.101-.566 1.106.285 1.101.074 1.106.059 1.105.102 1.102-.621 1.105.007 1.102-.328 1.105-.3 1.106-.067 1.101.145 1.106-.028 1.101.18 1.106-.363 1.105.027h1.102l1.105.023 1.102-.148 1.105.023 1.106-.152 1.101.082 1.106-.016 1.101-.183 1.106.07 1.105-.055 1.102-.117 1.105.13 1.102-.208 1.105-.008 1.106-.214 1.101.09 1.106-.278 1.105.098 1.102-.059 1.105.164 1.102.152 2.21.086 1.102.063h1.106l1.101-.07 1.106-.004 1.105.129 1.102.027 1.105.168 1.102-.172 1.105.012 1.106-.074 1.101.168 1.106-.122 1.101-.207 1.106.008 1.105-.035 1.102-.098 1.105.082 1.102-.105 1.106-.149 1.105-.09 1.102-.03 1.105-.16 1.102-.032 1.105-.047 1.106.125 1.101-.148 1.106-.02 1.101.016 1.106.004 1.105.047 1.102-.004 1.105-.07 1.102.1 1.105-.003 1.106.02 1.101.035 1.106.062 1.105-.027 1.102.12 1.105-.112 1.102-.032 1.105.008 1.106.07h1.101l1.106-.07 1.101.047 1.106-.027 1.105-.008 1.102.082 1.105-.133 1.102.047 1.105-.023 1.106.191 1.101-.082 1.106.035 1.101.063 1.106.027 1.105.016 1.102.074 1.105.125 1.102-.09 1.105.11 1.106-.02 1.101-.149 1.106-.004 1.101.032 1.106.023 1.105-.137 1.102.036 1.105-.075 1.102-.039 1.105-.011 1.106-.036 1.101-.168 1.106-.062 1.101.137 1.106-.13 1.105.102 1.102-.004 1.105.094 1.102-.117 1.105-.043 1.106-.039 1.101-.008 1.106.121 1.105.035 1.102.032 1.105.035 1.102.039 1.105.02 1.106-.012 1.101.074 1.106-.168 1.101.113 1.106.086 1.105-.039 1.102.05 1.105.04 1.102.074 1.105-.094 1.106-.011 1.101-.032h1.106l1.102.094V6.898l-1.102.04-1.106-.145-1.101-.043-1.106-.066-1.105.039-1.102-.13-1.105.075-1.102.004-1.105.062-1.106.028-1.101-.09-1.106.18-1.101.003-1.106.06-1.105.062-1.102-.086L339.13 7l-1.102.063-1.105.023-1.106-.035-1.101.094-1.106.039-1.105-.063-1.102-.02-1.105-.054-1.102-.008-1.105-.082-1.106.117-1.101-.023-1.106.054-1.101.098-1.106-.125h-1.105l-1.102.008-1.105.082-1.102-.11-1.105-.019-1.106-.062-1.101.035-1.106-.02-1.101.035-1.106-.101-1.105-.074-1.102-.02-1.105-.113-1.102.035-1.105.059-1.106.019-1.101-.066-1.106-.098-1.101.113-1.106-.015-1.105.093-1.102-.023-1.105.117-1.102.027-1.105.043-1.106.04-1.101.054-1.106-.035-1.101-.043-1.106.02-1.105-.004-1.102.008-1.105.003-1.102-.054-1.105-.004-1.106-.047-1.101.004-1.106.027-1.105-.012-1.102-.039-1.105-.046-1.102.027-1.105-.004-1.106-.102-1.101-.003-1.106-.036-1.101.09-1.106.047-1.105.05-1.102-.027-1.105.016-1.102-.035-1.106-.023-1.105-.02-1.102.059-1.105.02-1.102-.005h-1.105l-1.106-.015-1.101-.094-1.106-.05-1.101-.017-1.106-.027-1.105-.101-1.102-.032-1.105-.008-1.102-.023-1.105-.016-1.106-.023-1.101.004-1.106-.067-1.101-.003-1.106-.016-1.105.039-1.102.113-1.105.11-1.102-.004-1.105.058-1.106.153-1.101.058-1.106.102-1.105.125-1.102-.004-1.105.039-1.102-.105-1.105.09-1.106-.106-1.101.039-1.106.11-1.101-.15-1.106.04-1.105.02-1.102.023-1.105-.129-1.102-.047-1.105-.055-1.106-.023-1.101-.105-1.106-.043-1.101.171-1.106.082-1.105.098-1.102-.004-1.105-.047-1.102.149-1.105.039-1.106-.031-1.101-.028-1.106.032-1.101-.079-1.106-.058-1.105-.219-1.102.238-1.105.024-1.102-.117-1.105-.204-1.106.028-1.101-.024-1.106.028-1.101-.09-1.106-.23-1.105.492-1.102-.36-1.105-.152-1.106.129-1.101.027-1.106.41-1.101-.093-1.106.582-1.105-.442-1.102.012-1.105.508-1.102.148-1.105-.238-1.106-.207-1.101.039-1.106-.906-1.102.367-1.105 1.347-1.105-.207-1.102-.37-1.106-.204-1.101-.043-1.106-1.195-1.105.637-1.102.933-1.105-1.144-1.102 1.25-1.105-.285-1.106-.223-1.101.191-1.106.285-1.101-.101-1.106-1.129-1.105-.254-1.102 1.04-1.105 3.788-1.102.957-1.105.117-1.106-.925-1.101-1.016-1.106.945-1.101-1.414-1.106.766-1.105-.117-1.102-.293-1.105.867-1.102.469-1.105-.18-1.106-.227-1.101-.585-1.106-4.376-1.105-1.69-1.102.073-1.105.793-1.102-.582-1.105.067-1.106.375-1.101-.485-1.106.457-1.101-.55-1.106 2.726-1.105.91-1.102 2.082-1.105.055-1.102 1.648-1.105-.078-1.106 5.153-1.101 3.277-1.106.078-1.101 2.043-1.106-1.379-1.105-1.062L108.41 20l-1.105.848-1.102 1.851-1.105-2.254-1.106 4.098-1.101-2.684-1.106 1.703-1.101-2.722-1.106 1.613-1.105-4.512-1.102-3.343-1.105-.024-1.102-.5-1.105 4.301-1.106 5.926-1.101.949-1.106 2.953-1.101-1.637-1.106.122-1.105-4.454-1.102.489-1.105.617-1.106.27-1.101-.157-1.106-.82-1.102.488-1.105 1.172-1.105 2.187-1.102-2.125-1.105.207-1.102 6.079-1.106-4.18-1.105 1.5-1.102 1.379-1.105 3.465-1.102-.117-1.105-.403-1.106 2.395-1.101 4.675-1.106 3.711-1.101 6.16-1.106.899-1.105-2.516-1.102-1.41-1.105-4.246-1.102-5.168L57.63 38l-1.106 5.758-1.101 1.933-1.106-2.543-1.101.504-1.106 3.727-1.105.191-1.102-3.078-1.105-.129-1.102-2.277-1.105 6.055-1.106 2.187-1.101 3.91-1.106 4.407-1.101 1.875Zm0 0"/></g><g clip-path="url(#U)"><path fill="#57D3DB" fill-opacity=".1" d="M41.07 107.363v29.176l1.106.172 1.101-.969 1.106.281 1.101-.015 1.106.043 1.105.496 1.102-.246 1.105 1.012 1.102-.211 1.105-.993 1.106.625 1.101-.558 1.106-.465 1.101-.336 1.106-.91 1.105-.043 1.102 1.3 1.105-.304 1.102-.875 1.105-2.098 1.106-.425 1.101.57 1.106.71 1.102.024 1.105.801 1.105-.059 1.102.957 1.105.707 1.102.165 1.106.87 1.105-.757 1.102.308 1.105.211 1.102 1.707 1.105 1.664 1.106.106 1.101.191 1.106.328 1.101-.378 1.106.835 1.105-.199 1.102-2.062 1.105.203 1.106.27 1.101.101 1.106.527 1.101-.441 1.106.16 1.105-.738 1.102.14 1.105.192 1.102-.508 1.105-2.754 1.106.328 1.101-.812 1.106.238 1.101 1.621 1.106-.11 1.105.122 1.102.066 1.105-.324 1.102-.152 1.105-.114 1.106-.265 1.101-2.114 1.106-.226 1.101.125 1.106 1.613 1.105-.11 1.102-.984 1.105-.062 1.102 1.086 1.105-.484 1.106-1.594 1.101-.215 1.106-2.45 1.101-.456 1.106.867 1.105.648 1.102 2.649 1.105-.25 1.102-.508 1.105.781 1.106-.637 1.101-.445 1.106.184 1.105-1.16 1.102-1.817 1.105.254 1.102-1.383 1.105 1.422 1.106-2.535 1.101-1.324 1.106.02 1.101-3.747 1.106-2.61 1.105-.038 1.102-.09 1.105-.86 1.102 1.454 1.105-.157 1.106-.117 1.101 1.797 1.106-3.64 1.101 1.746 1.106.793 1.105 3.187 1.102.445 1.105-.73 1.102 2.41 1.105 3.078 1.106-.62 1.101.108 1.106.993 1.102-.41 1.105-3.004 1.105-.47 1.102.688 1.106 4.637 1.101-1.144 1.106.414 1.105-.625 1.102-1.004 1.105-.028 1.102.496 1.105.02 1.106.344 1.101-2.356 1.106-.258 1.101.903 1.106 1.058 1.105-.441 1.102-1.063 1.105-.425 1.106.726 1.101-.918 1.106-2.02 1.101.427 1.106-1.57 1.105-2.993 1.102-2.727 1.105-2.449 1.102-2.566 1.105-.121 1.106-2.735 1.101-.062 1.106.07 1.101-1.45 1.106.118 1.105-.941 1.102.886 1.105.313 1.102-2.215 1.105-.266 1.106 3.692 1.101-2.988 1.106 1.62 1.101 4.56 1.106-2.532 1.105-.75 1.102-2.14 1.105.437 1.102.785 1.105-1.027 1.106-.676 1.101-1.195 1.106-1.47 1.101.571 1.106 1.844 1.105-2.035 1.102 4.508 1.105 1.43 1.102-.247 1.105 1.727 1.106 2.601 1.101-.039 1.106-1.082 1.105-.488 1.102.746 1.105-4.922 1.102-.39 1.105 3.02 1.106.335 1.101-1.8 1.106-1.813 1.101.492 1.106-2.192 1.105-3.906 1.102-5.011 1.105-7.872 1.102 1.88 1.105.538 1.106-1.101 1.101-1.68 1.106 3.285 1.101-6.418 1.106-4.062 1.105-1.84 1.102-2.074 1.105 1.804 1.102-2.609 1.106 2.04 1.105 1.687 1.102 6.015 1.105 7.086 1.102-5.863 1.105-.18 1.106 1.188 1.101 2.449 1.106 1.687 1.101 5.622 1.106 3.8 1.105 3.207 1.102.282 1.105-1.125 1.102-1.98 1.105-1.802 1.106-5.691 1.101-1.094 1.106-.715 1.105 6.82 1.102-2.374 1.105-.79 1.102-2.605 1.105-.496 1.106-1.105 1.101-4.618 1.106-4.988 1.101 2.844 1.106-.445 1.105 1.335 1.102 1.797 1.105 4.344 1.102 1.613 1.105-1.968 1.106-2.09 1.101.449 1.106.047 1.101 1.125 1.106-.86 1.105-.855 1.102 3.566 1.105 4.157 1.102-.528 1.105 1.528 1.106 1.703 1.101-3.735 1.106 4.446 1.101-1.793 1.106-1.797 1.105-4.84 1.102-.351 1.105-5.551 1.102-5.801 1.105.16 1.106 1.774 1.101 1.648 1.106.996 1.101-1.812 1.106-3.899 1.105-3.086 1.102.067 1.105-1.95 1.102-6.605 1.105 2.027 1.106 5.422 1.101-4.824 1.106.082 1.105 4.883 1.102.465 1.105-.067 1.102-1.984 1.105-2.653 1.106-.62 1.101 2.706 1.106 2.645 1.101 4.14 1.106-2.242 1.105 7.7 1.102 1.773 1.105 2.059 1.102 4.691 1.105-.484 1.106.023 1.101-.594 1.106.121V21.613l-1.106.117-1.101.016-1.106-2.32-1.105.012-1.102.628-1.105-2.199-1.102-2.66-1.105-5.805-1.106 1.996-1.101-2.984-1.106.469-1.101.55-1.106 1.426-1.105 1.02-1.102-.113-1.105-1.504-1.102 1.574-1.105 1.828-1.106-.129-1.101-.52-1.106.508-1.105.493-1.102 1.222-1.105.23-1.102.798-1.105 2.183-1.106 1.64-1.101.231-1.106-.777-1.101.617-1.106 2.3-1.105-2.92-1.102.624-1.105 1.11-1.102 4.656-1.105.84-1.106.007-1.101.543-1.106-1.953-1.101 4.867-1.106-2.214-1.105-1.215-1.102 1.457-1.105-1.649-1.102-2.511-1.105-2.524-1.106-1.875-1.101-2.168-1.106-.726-1.101-3.188-1.106 3.809-1.105 6.058-1.102-.773-1.105.512-1.102-3.766-1.105.785-1.106-.8-1.101 1.335-1.106 1.95-1.101 2.09-1.106 2.5-1.105 2.378-1.102 3.41-1.105.59-1.102 4.89-1.105-4.722-1.106 1.61-1.101.78-1.106 1.044-1.105.265-1.102-.058-1.105 5.703-1.102-4.566-1.105-.797-1.106-2.23-1.101-1.571-1.106-1.895-1.101 1.907-1.106 1.671-1.105-.386-1.102-.188-1.105-7.27-1.102-1.898-1.106-.277-1.105-2.277-1.102 3.425-1.105-4.714-1.102 6.625-1.105 1.156-1.106 1.863-1.101 1.148-1.106 1.223-1.101.57-1.106-.859-1.105-2.062-1.102.558-1.105 1.235-1.102 6.343-1.105.703-1.106 7.004-1.101-2.418-1.106 4.961-1.101-3.988-1.106-.883-1.105-1.449-1.102 1.242-1.105.992-1.102-3.648-1.105 2.652-1.106 1.239-1.101-.391-1.106-.73-1.105-5.84-1.102-.239-1.105-2.66-1.102 1.586L227.633 36l-1.106.695-1.101-.082-1.106 3.715-1.101-1.25-1.106 2.156-1.105 3.332-1.102-4.539-1.105-.187-1.102 1.254-1.105-1.149-1.106.61-1.101-1.094-1.106.758-1.101-3.774-1.106-3.984-1.105-1.691-1.102 5.503-1.105-4.543-1.102 2.012-1.105-2.043-1.106.781-1.101 5.551-1.106.516-1.101-.164-1.106 4.39-1.105 4.215-1.102 4.004-1.105.356-1.102 5.257-1.105 7.563-1.106 6.488-1.101-5.445-1.106 2.195-1.101 4.528-1.106 2.855-1.105-3.965-1.102-3.586-1.105.602-1.106 2.844-1.101 2.785-1.106-3.531-1.101 3.214-1.106.895-1.105-2.363-1.102-.637-1.105.336-1.102.86-1.105.136-1.106-.7-1.101-3.015-1.106-1.89-1.102 4.656-1.105-.02-1.105 1.778-1.102-1.954-1.106 3.008-1.101.074-1.106-.257-1.105-.063-1.102-3.992-1.105-6-1.102 5.308-1.105-1.949-1.106-.152-1.101 5.172-1.106.828-1.101-.398-1.106 2.347-1.105.04-1.102-.376-1.105.082-1.102.446-1.105-.149-1.106 5.543-1.101-.379-1.106 3.637-1.101-5.285-1.106 7.683-1.105-7.047-1.102 1.75-1.105 4.938-1.102 2.262-1.105-5.98-1.106 1.855-1.101 2.039-1.106 3.27-1.105-4.29-1.102 2.328-1.105.567-1.102 1.015-1.105.996-1.106.598-1.101.496-1.106 3.63-1.101-2.141-1.106 2.222-1.105-.605-1.102 6.75-1.105.82-1.102 1.676-1.105.597-1.106.266-1.101-1.082-1.106-.734-1.101 1.87-1.106.61-1.105 1.899-1.102-.336-1.105 4.398-1.102 1.793-1.105.887-1.106-.985-1.101-5.316-1.106-1.156-1.101-3.246-1.106-2.215-1.105 3.84-1.102 1.18-1.105 1.242-1.102 2.796-1.105-3.035-1.106 4.192-1.101-2.68-1.106-3.574-1.101.625-1.106-1.11-1.105 1.922-1.102 1.594-1.105-.477-1.106.746-1.101 1.442-1.106-2.262-1.102-2.867-1.105-3.031-1.105-2.875-1.102-.48-1.105-1.141-1.102 2.101-1.106 2.114-1.105-1.633-1.102-.075-1.105-4.382-1.102.093-1.105 1.993-1.106 1.441-1.101.828-1.106-1.863-1.101 1.336-1.106.176-1.105 2.976-1.102 3.844-1.105.273-1.102-2.316-1.105.039-1.106 1.664-1.101-1.937-1.106.285-1.101-.36-1.106-3.398-1.105 1.516-1.102-.997-1.105.227-1.102 1.707-1.105 2.43-1.106-.614-1.101 1.36-1.106.066-1.101.113Zm0 0"/></g><g clip-path="url(#V)"><path fill="none" stroke="#57D3DB" stroke-linejoin="round" stroke-miterlimit="10" stroke-opacity=".1" d="M41.07 107.363v29.176l1.106.172 1.101-.969 1.106.281 1.101-.015 1.106.043 1.105.496 1.102-.246 1.105 1.012 1.102-.211 1.105-.993 1.106.625 1.101-.558 1.106-.465 1.101-.336 1.106-.91 1.105-.043 1.102 1.3 1.105-.304 1.102-.875 1.105-2.098 1.106-.425 1.101.57 1.106.71 1.102.024 1.105.801 1.105-.059 1.102.957 1.105.707 1.102.165 1.106.87 1.105-.757 1.102.308 1.105.211 1.102 1.707 1.105 1.664 1.106.106 1.101.191 1.106.328 1.101-.378 1.106.835 1.105-.199 1.102-2.062 1.105.203 1.106.27 1.101.101 1.106.527 1.101-.441 1.106.16 1.105-.738 1.102.14 1.105.192 1.102-.508 1.105-2.754 1.106.328 1.101-.812 1.106.238 1.101 1.621 1.106-.11 1.105.122 1.102.066 1.105-.324 1.102-.152 1.105-.114 1.106-.265 1.101-2.114 1.106-.226 1.101.125 1.106 1.613 1.105-.11 1.102-.984 1.105-.062 1.102 1.086 1.105-.484 1.106-1.594 1.101-.215 1.106-2.45 1.101-.456 1.106.867 1.105.648 1.102 2.649 1.105-.25 1.102-.508 1.105.781 1.106-.637 1.101-.445 1.106.184 1.105-1.16 1.102-1.817 1.105.254 1.102-1.383 1.105 1.422 1.106-2.535 1.101-1.324 1.106.02 1.101-3.747 1.106-2.61 1.105-.038 1.102-.09 1.105-.86 1.102 1.454 1.105-.157 1.106-.117 1.101 1.797 1.106-3.64 1.101 1.746 1.106.793 1.105 3.187 1.102.445 1.105-.73 1.102 2.41 1.105 3.078 1.106-.62 1.101.108 1.106.993 1.102-.41 1.105-3.004 1.105-.47 1.102.688 1.106 4.637 1.101-1.144 1.106.414 1.105-.625 1.102-1.004 1.105-.028 1.102.496 1.105.02 1.106.344 1.101-2.356 1.106-.258 1.101.903 1.106 1.058 1.105-.441 1.102-1.063 1.105-.425 1.106.726 1.101-.918 1.106-2.02 1.101.427 1.106-1.57 1.105-2.993 1.102-2.727 1.105-2.449 1.102-2.566 1.105-.121 1.106-2.735 1.101-.062 1.106.07 1.101-1.45 1.106.118 1.105-.941 1.102.886 1.105.313 1.102-2.215 1.105-.266 1.106 3.692 1.101-2.988 1.106 1.62 1.101 4.56 1.106-2.532 1.105-.75 1.102-2.14 1.105.437 1.102.785 1.105-1.027 1.106-.676 1.101-1.195 1.106-1.47 1.101.571 1.106 1.844 1.105-2.035 1.102 4.508 1.105 1.43 1.102-.247 1.105 1.727 1.106 2.601 1.101-.039 1.106-1.082 1.105-.488 1.102.746 1.105-4.922 1.102-.39 1.105 3.02 1.106.335 1.101-1.8 1.106-1.813 1.101.492 1.106-2.192 1.105-3.906 1.102-5.011 1.105-7.872 1.102 1.88 1.105.538 1.106-1.101 1.101-1.68 1.106 3.285 1.101-6.418 1.106-4.062 1.105-1.84 1.102-2.074 1.105 1.804 1.102-2.609 1.106 2.04 1.105 1.687 1.102 6.015 1.105 7.086 1.102-5.863 1.105-.18 1.106 1.188 1.101 2.449 1.106 1.687 1.101 5.622 1.106 3.8 1.105 3.207 1.102.282 1.105-1.125 1.102-1.98 1.105-1.802 1.106-5.691 1.101-1.094 1.106-.715 1.105 6.82 1.102-2.374 1.105-.79 1.102-2.605 1.105-.496 1.106-1.105 1.101-4.618 1.106-4.988 1.101 2.844 1.106-.445 1.105 1.335 1.102 1.797 1.105 4.344 1.102 1.613 1.105-1.968 1.106-2.09 1.101.449 1.106.047 1.101 1.125 1.106-.86 1.105-.855 1.102 3.566 1.105 4.157 1.102-.528 1.105 1.528 1.106 1.703 1.101-3.735 1.106 4.446 1.101-1.793 1.106-1.797 1.105-4.84 1.102-.351 1.105-5.551 1.102-5.801 1.105.16 1.106 1.774 1.101 1.648 1.106.996 1.101-1.812 1.106-3.899 1.105-3.086 1.102.067 1.105-1.95 1.102-6.605 1.105 2.027 1.106 5.422 1.101-4.824 1.106.082 1.105 4.883 1.102.465 1.105-.067 1.102-1.984 1.105-2.653 1.106-.62 1.101 2.706 1.106 2.645 1.101 4.14 1.106-2.242 1.105 7.7 1.102 1.773 1.105 2.059 1.102 4.691 1.105-.484 1.106.023 1.101-.594 1.106.121V21.613l-1.106.117-1.101.016-1.106-2.32-1.105.012-1.102.628-1.105-2.199-1.102-2.66-1.105-5.805-1.106 1.996-1.101-2.984-1.106.469-1.101.55-1.106 1.426-1.105 1.02-1.102-.113-1.105-1.504-1.102 1.574-1.105 1.828-1.106-.129-1.101-.52-1.106.508-1.105.493-1.102 1.222-1.105.23-1.102.798-1.105 2.183-1.106 1.64-1.101.231-1.106-.777-1.101.617-1.106 2.3-1.105-2.92-1.102.624-1.105 1.11-1.102 4.656-1.105.84-1.106.007-1.101.543-1.106-1.953-1.101 4.867-1.106-2.214-1.105-1.215-1.102 1.457-1.105-1.649-1.102-2.511-1.105-2.524-1.106-1.875-1.101-2.168-1.106-.726-1.101-3.188-1.106 3.809-1.105 6.058-1.102-.773-1.105.512-1.102-3.766-1.105.785-1.106-.8-1.101 1.335-1.106 1.95-1.101 2.09-1.106 2.5-1.105 2.378-1.102 3.41-1.105.59-1.102 4.89-1.105-4.722-1.106 1.61-1.101.78-1.106 1.044-1.105.265-1.102-.058-1.105 5.703-1.102-4.566-1.105-.797-1.106-2.23-1.101-1.571-1.106-1.895-1.101 1.907-1.106 1.671-1.105-.386-1.102-.188-1.105-7.27-1.102-1.898-1.106-.277-1.105-2.277-1.102 3.425-1.105-4.714-1.102 6.625-1.105 1.156-1.106 1.863-1.101 1.148-1.106 1.223-1.101.57-1.106-.859-1.105-2.062-1.102.558-1.105 1.235-1.102 6.343-1.105.703-1.106 7.004-1.101-2.418-1.106 4.961-1.101-3.988-1.106-.883-1.105-1.449-1.102 1.242-1.105.992-1.102-3.648-1.105 2.652-1.106 1.239-1.101-.391-1.106-.73-1.105-5.84-1.102-.239-1.105-2.66-1.102 1.586L227.633 36l-1.106.695-1.101-.082-1.106 3.715-1.101-1.25-1.106 2.156-1.105 3.332-1.102-4.539-1.105-.187-1.102 1.254-1.105-1.149-1.106.61-1.101-1.094-1.106.758-1.101-3.774-1.106-3.984-1.105-1.691-1.102 5.503-1.105-4.543-1.102 2.012-1.105-2.043-1.106.781-1.101 5.551-1.106.516-1.101-.164-1.106 4.39-1.105 4.215-1.102 4.004-1.105.356-1.102 5.257-1.105 7.563-1.106 6.488-1.101-5.445-1.106 2.195-1.101 4.528-1.106 2.855-1.105-3.965-1.102-3.586-1.105.602-1.106 2.844-1.101 2.785-1.106-3.531-1.101 3.214-1.106.895-1.105-2.363-1.102-.637-1.105.336-1.102.86-1.105.136-1.106-.7-1.101-3.015-1.106-1.89-1.102 4.656-1.105-.02-1.105 1.778-1.102-1.954-1.106 3.008-1.101.074-1.106-.257-1.105-.063-1.102-3.992-1.105-6-1.102 5.308-1.105-1.949-1.106-.152-1.101 5.172-1.106.828-1.101-.398-1.106 2.347-1.105.04-1.102-.376-1.105.082-1.102.446-1.105-.149-1.106 5.543-1.101-.379-1.106 3.637-1.101-5.285-1.106 7.683-1.105-7.047-1.102 1.75-1.105 4.938-1.102 2.262-1.105-5.98-1.106 1.855-1.101 2.039-1.106 3.27-1.105-4.29-1.102 2.328-1.105.567-1.102 1.015-1.105.996-1.106.598-1.101.496-1.106 3.63-1.101-2.141-1.106 2.222-1.105-.605-1.102 6.75-1.105.82-1.102 1.676-1.105.597-1.106.266-1.101-1.082-1.106-.734-1.101 1.87-1.106.61-1.105 1.899-1.102-.336-1.105 4.398-1.102 1.793-1.105.887-1.106-.985-1.101-5.316-1.106-1.156-1.101-3.246-1.106-2.215-1.105 3.84-1.102 1.18-1.105 1.242-1.102 2.796-1.105-3.035-1.106 4.192-1.101-2.68-1.106-3.574-1.101.625-1.106-1.11-1.105 1.922-1.102 1.594-1.105-.477-1.106.746-1.101 1.442-1.106-2.262-1.102-2.867-1.105-3.031-1.105-2.875-1.102-.48-1.105-1.141-1.102 2.101-1.106 2.114-1.105-1.633-1.102-.075-1.105-4.382-1.102.093-1.105 1.993-1.106 1.441-1.101.828-1.106-1.863-1.101 1.336-1.106.176-1.105 2.976-1.102 3.844-1.105.273-1.102-2.316-1.105.039-1.106 1.664-1.101-1.937-1.106.285-1.101-.36-1.106-3.398-1.105 1.516-1.102-.997-1.105.227-1.102 1.707-1.105 2.43-1.106-.614-1.101 1.36-1.106.066-1.101.113Zm0 0"/></g><g clip-path="url(#W)"><path fill="none" stroke="#DB5F57" stroke-linecap="round" stroke-linejoin="round" stroke-miterlimit="10" stroke-width="1.5" d="m41.07 103.293 1.106-5.797 1.101-1.687 1.106-3.028 1.101-4.863 1.106-1.871 1.105-2.55 1.102.855 1.105-.477 1.102.766 1.105.058 1.106-2.62 2.207 1.901 1.101-1.808 1.106-3.453 1.105-1.844 1.102 2.602 1.105 1.898 1.102 3.492 1.105 1.281 1.106-1.671 2.207-6.84 1.102-2.996 1.105-3.403 1.105.328 2.207-5.117 1.102-.57 1.106-2.563 1.105 2.676 1.102-4.453 1.105-.457 1.102.535 2.21-3.566 1.102-1.66 2.207 1.043 1.106.691 1.105-.812 1.102 2.035 1.105 2.39 1.106-.16 1.101 2.531 1.106-.816 1.101-2.063 1.106-3.988 1.105-2.715 1.102 1.246 1.105-2.086 1.102 3.266 1.105 2.879 1.106-1.25 1.101 2.082 1.106-2.434 1.101 2.133 1.106-2.617 1.105 1.352 1.102-2.02 1.105-3 1.102.496 1.105-1.02 1.106.325 1.101-1.922 1.106.246 1.101-2.957 1.106-4.207 1.105-.957 1.102-3.969 1.105.051 1.102-4.715 1.105-.258 1.106-2.57 1.101-1.09 1.106 1.352 1.101.199 1.106-1.14 1.105-.227 1.102-1.64 1.105 2.07 1.102-.59 1.105 2.168 1.106 3.68 1.101 2.183 1.106.156 1.105-.117 2.207-5.867 1.102 1.422 1.105.53 1.106.048 1.101 3.344 1.106-.672 1.101 2.523 1.106-1.2 1.105 1.2 1.102-3.683 1.105-4.895 1.102-1.34 1.105.512 1.106 4.3 1.101.676 1.106 2.438 1.101-2.313 1.106-.625 1.105-.988 1.102-1.48 1.105 2.086 1.102-2.934 1.105.438 1.106.855 1.101.363 1.106 1.535 1.102-1.527 1.105-.785 1.105-3.18 1.102 1.012 1.106.8 1.101 1.153 1.106-.664 1.105 1.168 1.102 1.469 1.105-2.875 1.102.375 1.105-.07 1.106-1.602 1.101 2.32 1.106-.18 1.101-.027 1.106.461 1.105-1.176 1.102-1.597 1.105-3.223 1.106.082 1.101 1.492 1.106-1.637 1.101-1.296 1.106.28 1.105 1.032 1.102-1.375 1.105-1.887 1.102-2.363 1.105.66 1.106 1.758 1.101-1.176 1.106 2.086 1.101 1.746 1.106.817 1.105 1.343 1.102-2.445 1.105.024 1.102-.43 2.21-2.813 1.102 1.559 1.106.082 1.101 1.668 1.106-2.484 1.105.797 1.102-.02 1.105.855 1.102-1.82 1.105-.183 1.106-1.801 1.101 1.21 1.106-.109 1.101-1.554 1.106.82 2.207-1 1.105 1.555L232.047 21l1.105-.176 1.106-2.539 1.101 1.094 1.106-3.004 1.105 1.398 1.102-.363 1.105.906 1.102.352 1.105.684 1.106.066 1.101 1.059 1.106.343 1.101-1.414 1.106.098 1.105 1.637 1.102.906 1.105 1.367 1.102-1.879 1.105.895 1.106-.953 1.101 1.937 1.106-.715 1.101-1.457 1.106-.75 1.105 1.035 1.102-1.472 1.105-.242 1.102-.09 1.106-1.707 1.105-.766 1.102-.191 1.105-1.176 1.102.082 1.105-.277 1.106 1.632 1.101-.582 1.106 2.457 1.101.477 1.106.648 1.105.274 1.102-.426 1.105-.125 1.102.785 2.21-.031 1.102-.809 1.106.04 1.105.742 1.102-.59 1.105-2.063 1.102-.75 1.105-2.574 1.106-.55 1.101-.31 1.106.524 1.101.918 1.106-.035 1.105-.688 1.102-.047 1.105-.84 1.102.126 2.21 4.922 2.208-.06 1.101-1.136 1.106.465 1.105 1.805 1.102 1.242 1.105-.746 1.102.316 1.105 1.09 1.106.406 1.101.914 1.106.422 1.101 1.57 1.106-2.187 1.105-3.18 1.102.903 2.207-.067 1.105-.703 1.106-1.75 1.101-.62 1.106-1.145 1.101 1.671 1.106.399 1.105-.344 1.102-.922 1.105.207 1.102-1.23 1.105-.145 1.106.188 1.101-.918 1.106 1.242 1.105.047 1.102-.23 1.105 1.57 1.102.453 1.105 1.16 1.106-2.773 1.101-1.45 1.106 1.16 1.101.641 1.106.336 1.105 1.762 1.102.222 1.105.403 1.102.101 1.105-1.23 1.106 2.3 1.101-.292 1.106-.508"/></g><g clip-path="url(#X)"><path fill="none" stroke="#DB5F57" stroke-dasharray="5.55 2.4" stroke-linejoin="round" stroke-miterlimit="10" stroke-width="1.5" d="m41.07 115.2 1.106-5.313 1.101 1.37 1.106-4.41 1.101-3.882 1.106-5.059 1.105-3.129 1.102.79 1.105-2.782 1.102-.41 1.105-5.73 1.106-4.465 1.101-5.7 1.106.665 2.207-5.653 1.105 2.426 1.102-1.723 1.105.446 2.207 2.843 1.106.036 1.101-2.973 1.106-1.074 1.102-4.067 1.105 2.469 1.105.242 1.102 3.36 1.105-3.88 1.102-2.562 1.106-1.195 1.105-1.938L76.395 59l1.105-1.84 1.102-5.148 1.105-1.41 1.106-2.985 1.101.399 1.106-3.055 1.101-2.418 1.106-1.023 1.105 1.992 1.102-3.473 1.105-1.004 2.207-2.328 1.106-.812 1.101 4.566 1.106-.379 1.105 2.559 1.102-.125 1.105 2.504 1.102-1.774 1.105 1.121 1.106 3.13 2.207-4.395 1.101-1.672 2.211.148 2.207 1.024 1.102-4.446 1.105-1.61 1.106-1.382 1.101-2.41 1.106-1.48 1.101-1.079 1.106-.297 1.105-2.363 1.102-.933 1.105.671 1.102-.59 1.105-1.331 1.106.949 1.101-.14 1.106-.4 1.101.239 1.106.414 1.105-1.68 1.102.399 1.105-1.703 1.102-1.22 1.105-.25 1.106.583 1.101.098 1.106-.246 1.105.59 1.102 1.71 1.105-.418 1.102-1.699 1.105-1.187 1.106 1.683 1.101-.656 2.207 1.035 1.106.23 1.105.794 1.102-.72 1.105-1.573 1.102.355 1.105-.144 1.106.785 1.101-1.434 1.106-.098 1.101 1.457 1.106-.515 1.105-2.363 2.207 3.003 1.102-1.375 1.105.989 1.106-.871 1.101.386 1.106 1.672 1.102-.437 1.105.625 1.105.336 1.102-.364 1.106-.957 1.101-1.261 1.106-.899 1.105-.094 1.102-.89 1.105-1.543 1.102.11 1.105 2.07 1.106.375 1.101.226 1.106-1.55 1.101-.09 1.106-.52 1.105-1.961 1.102.45 1.105.874 2.207-.672 1.106.282 1.101 1.918 1.106-.34 1.105.847 1.102-2.199 1.105-.32 1.102-.824 1.105-.418 1.106.367 1.101-.383 1.106 1.016 1.101-.11 1.106-1.172 3.312 2.168 1.102-1.55 1.105-.036 1.106-.964 1.101-.809 1.106-.078 3.312.125 1.102.398 1.105-1.047 1.102.22 1.105.675 1.106-.453 1.101.047 2.207-1.617 1.106-.13 1.105.555 1.102-.476 1.105.68 2.207-.254 1.106-.325 1.101-.625 1.106.059 2.207-.559 1.105-.418 2.207-1.132 1.106-.13 1.101.239 1.106.394 1.101.524 1.106-.633 1.105-.16 1.102 1.152 1.105.317 1.102.761 1.105.344 1.106.102 1.101-.39 1.106.343 1.101.12 1.106.005 1.105.344 1.102.039 2.207-.575 1.106.422 1.105.137 1.102-1.102 1.105-.273 1.102.191 2.21-.492 1.102.27 1.106-.14 1.101.081 1.106.637 1.105.02 1.102.382 1.105-.422 1.102-.035 1.105-.199 1.106 1.254 1.101.082 1.106.758 1.105-1.047 4.414.047 1.106.199 1.101-.195 1.106-.02 1.101-.367 1.106-.016 1.105.543 1.102.004 1.105-1.305 1.102.305 1.105-.898 1.106.617 1.101 1.078 3.313-.344 1.105-.57 1.102.336 1.105.117 1.102-.012 1.105-.164 1.106-.57 1.101-.027 1.106.215 1.101.55 1.106.215 1.105-.082 1.102-1.121 4.418.363 1.101-.566 1.106-.399 1.101-.136 2.211.035 1.102-.145 1.105.454 1.102-.7 1.105-.05 3.313.207 1.105-.329 1.102.246 1.105-.136 3.313.304 1.101-.113 2.207.203 1.106-.508 2.207-.39 1.105-.445 1.102-.008 1.105.12 1.106-.003 1.101-.297 1.106.461"/></g><g clip-path="url(#Y)"><path fill="none" stroke="#57D3DB" stroke-linecap="round" stroke-linejoin="round" stroke-miterlimit="10" stroke-width="1.5" d="m41.07 98.594 1.106-5.735 1.101-1.242 1.106-2.254 1.101-5.015 1.106-2.082 1.105-2.582 1.102 1.109 1.105-.426 1.102.988 1.105.16 1.106-2.328 1.101 1.094 1.106 1.38 1.101-1.731 1.106-3.485 1.105-1.668 1.102 2.547 1.105 2.055 1.102 3.254 1.105 1.3 1.106-1.734 1.101-4.02 2.207-6.245 1.106-3.332 1.105.07 1.102-2.223 1.105-2.687 1.102-.469 1.106-2.422 1.105 2.98 1.102-4.761 1.105-.492 1.102.968 1.105-1.644 1.106-2.078 1.101-1.5 1.106.316 1.101.52 1.106.656 1.105-.953 1.102 1.96 1.105 2.438 1.106-.52 1.101 2.368 1.106-.996 1.101-1.684 1.106-3.828 1.105-2.535 1.102 1.055 1.105-1.743 1.102 3.414 1.105 2.77 1.106-1.227 1.101 1.961 1.106-2.199 1.101 2 1.106-3.078 1.105 1.246 1.102-1.992 1.105-3.086 1.102.164 1.105-1.297 1.106.059 1.101-1.942 1.106.047 1.101-3.101 1.106-3.942 1.105-.906 1.102-4.023 1.105.12 1.102-4.55 1.105-.008 1.106-2.676 1.101-1.164 1.106 1.375 1.101.09 1.106-.902 1.105-.387 1.102-1.816 1.105 2.02 1.102-.692 1.105 1.773 1.106 3.121 1.101 1.965 2.211-.012 1.102-2.77 1.105-2.452 1.102 1.21 1.105.403 1.106.168 1.101 2.277 1.106-.625 1.101 2.286 1.106-1.618 1.105 1.118 1.102-3.36 1.105-4.578 1.102-1.184 1.105-.093 1.106 3.988 1.101.305 1.106 2.175 1.101-1.886 1.106-.899 1.105-1.125 1.102-1.558 1.105 1.36 1.102-2.77 1.105.5 2.208.066 1.105.758 1.102-1.242 1.105-1.036 1.105-3.554 1.102.484 1.106-.988 1.101.469 1.106-.75 2.207.242 1.105-2.836 1.102-.012 1.105-.836 1.106-2.02 1.101.25 1.106-.624 1.101-.047 1.106-.219 1.105-.488 1.102-.735 1.105-1.261 1.106-.309 1.101-.004 1.106-.316 1.101-.489 2.211.07 2.207-.464 1.102-.402L200.035 9l1.106.148 1.101-.242 2.207.176 2.211.074 1.102-.383 1.105.028 3.313-.434 2.207-.008 1.101.141 1.106-.168 3.312.14 3.313-.179 1.101.117 4.418-.16 3.309-.062 3.312-.208 1.106-.214 20.972.257L261.856 8l3.313-.18 3.309-.09 4.418-.12 12.144.19 1.102.09 3.312-.074 4.414.024 6.625-.176 1.106.102 1.101-.098 3.313.137 2.207-.004 1.105.117 1.102-.031 2.21.133 2.208-.086 8.832-.008 2.207-.192 1.101.082 1.106-.125 3.312.168 4.414-.129 2.211.082 13.246-.097 1.102.101 2.21-.039 3.31.106"/></g><g clip-path="url(#Z)"><path fill="none" stroke="#57D3DB" stroke-dasharray="5.55 2.4" stroke-linejoin="round" stroke-miterlimit="10" stroke-width="1.5" d="m41.07 121.953 2.207-1.21 1.106.105 1.101-.684 1.106.324 2.207-1.941 2.207.785 1.105-1.254 1.106 2.012 1.101-.098 1.106-.379 1.101.801 1.106-1.285 1.105-.043 1.102 1.809 1.105-.29 2.207-4.894 2.207-.684 1.106 1.285 2.207-.718 1.105-1.028 1.102.43 1.105 2.547 1.102.117 1.106 1.254 1.105-1.437 1.102-.895 1.105.676 1.102 1.094 1.105 2.27 2.207 3.097 1.106 1.297 1.101-.91 2.211.183 1.102-1.828 1.105-.86 1.106.688 1.101-.262 1.106 2.051 1.101 1.121 1.106-2.02 1.105 1.153L96.266 123l1.105-.523 1.102-.844 1.105-3.297 2.207 2.488 1.106.696 1.101 3.468 1.106.438 1.105-.383 1.102-.863 1.105-2.36 1.102.094 1.105-1.008 1.106-.437 1.101-1.992 1.106.253 2.207 1.278 1.105-.352 1.102-1.332 1.105-.441 1.102-2.832 1.105.062 1.106-1.91 1.101.961 1.106-3.039 1.101-.473 1.106.133 1.105-.172 1.102.813 1.105-.406 1.102-1.418 1.105 2.535 1.106-1.953 1.101-1.243 1.106-.836 1.105 2.41 1.102-2.038 1.105-2.34 1.102-1.57 1.105 4.234 1.106-5.11 1.101 1.98 2.207-3.487 1.106-4.079 1.105.055 1.102-.265 1.105-.473 1.102.914 1.105-.098 1.106-1.234 1.101 1.101 1.106-2.234 1.101-1.715 1.106.473 1.105 2.566 1.102-2.43 1.105 2.633 1.102 3.204 1.105 1.57 1.106-.184 1.101.02 1.106-1.008 1.102.773 1.105-2.39 1.105-.227 1.102-1.984 1.106 3.266 1.101.933 1.106.555 1.105-.38 1.102-.933 1.105-.18 1.102.567 1.105 1.191 1.106-.273 1.101-2.79 1.106 1.638 2.207-1.832 1.105-.52 1.102 1.258 1.105 1.77 1.106-1.063 1.101-2.723 1.106-2.11 1.101 2.938 1.106-4.027 1.105-5.281 1.102-3.989 1.105-1.406 1.102-3.285 1.105-2.168 1.106-3.562 1.101.05 1.106-.218 1.101-3.504 1.106-.328 1.105.546 1.102-.558 1.105 2.426 1.102-3.86 1.105.715 1.106 3.836 2.207.824 1.101 2.828 1.106-1.57 1.105.195 1.102-1.695 1.105.313 1.102 2.66 1.105-2.18 1.106-1.414 1.101.027 1.106-2.593 1.101.328 1.106.574 1.105.023 1.102 1.461 1.105 2.043 1.102-.004 1.105 3.786 1.106 1.664 1.101.175 1.106-1.16 1.105-1.57 1.102 2.195 1.105-2.957 1.102-.812 1.105 2.23 1.106.613 1.101 1.09 1.106-3.386 1.101 1.457 1.106-4.598 1.105-2.305 1.102-5.675 1.105-4.555 1.102.66 1.105 1.3 1.106-.12 1.101-1.125 1.106 1.03 1.101-3.78 1.106-2.965 1.105-1.5 1.102-4.348 1.105 3.258 1.102-3.016 1.106 2.16 1.105.981 1.102 3.957 1.105 7.176 1.102-2.836 1.105.105 1.106-.242 1.101.27 1.106 1.793 1.101 3.593 1.106 3.016 1.105 2.004 1.102 2.422 1.105-3.414 2.207-1.996 1.106-3.368 1.101-.937 1.106-1.16 1.105 5.773 1.102-3.636 1.105-.688 1.102-3.008 1.105-1.437 1.106-1.801 2.207-6.824 1.101.754 2.211.453 1.102 2.781 1.105 1.914 1.102 1.195 1.105-4.011 1.106-2.95 1.101 1.817 1.106.387 1.101 1.648 1.106.504 1.105.836 2.207 5.941 1.102-.992 1.105 1.371 1.106 1.961 1.101-4.3 1.106 3.199 1.101-1.168 1.106-.903 1.105-2.844 1.102-2.5 2.207-6.546 1.105 1.543 1.106-.266 1.101.52 1.106.886 1.101-1.023 2.211-5.407 1.102-.363 1.105-1.09 1.102-3.914 1.105.766 1.106 2.457 1.101-2.152 1.106.105 1.105 1.531 1.102-.558 1.105.718 1.102-.933 1.105-1.836 1.106-1.023 2.207 2.167 1.101 3.56 1.106-2.118 1.105 6.75 2.207 4.348 1.102 2.03 1.105-.25 1.106 1.173 1.101-.301h1.106"/></g><path fill="none" stroke="#FFF" stroke-linecap="square" stroke-miterlimit="10" stroke-width=".8" d="M41.07 147.84V4.96M359 147.84V4.96M41.07 147.84H359M41.07 4.96H359"/><path fill="#EAEAF2" fill-opacity=".8" stroke="#CCC" stroke-miterlimit="10" stroke-opacity=".8" d="M48.07 71.648h73.453q1.999-.001 2-2V11.961c0-1.336-.668-2-2-2H48.07c-1.332 0-2 .664-2 2v57.687q.001 1.999 2 2Zm0 0"/><path fill="none" stroke="#DB5F57" stroke-linecap="round" stroke-linejoin="round" stroke-miterlimit="10" stroke-width="1.5" d="M50.07 18.055h20"/><g fill="#262626"><use xlink:href="#f" x="78.07" y="21.554"/><use xlink:href="#q" x="84.43" y="21.554"/><use xlink:href="#r" x="87.61" y="21.554"/><use xlink:href="#s" x="90.56" y="21.554"/><use xlink:href="#t" x="94.48" y="21.554"/><use xlink:href="#l" x="100.63" y="21.554"/><use xlink:href="#v" x="104.74" y="21.554"/><use xlink:href="#aa" x="109.95" y="21.554"/></g><path fill="none" stroke="#57D3DB" stroke-linecap="round" stroke-linejoin="round" stroke-miterlimit="10" stroke-width="1.5" d="M50.07 32.727h20"/><g fill="#262626"><use xlink:href="#f" x="78.07" y="36.226"/><use xlink:href="#b" x="84.43" y="36.226"/><use xlink:href="#q" x="90.79" y="36.226"/><use xlink:href="#r" x="93.97" y="36.226"/><use xlink:href="#s" x="96.92" y="36.226"/><use xlink:href="#t" x="100.84" y="36.226"/><use xlink:href="#l" x="106.99" y="36.226"/><use xlink:href="#v" x="111.1" y="36.226"/><use xlink:href="#aa" x="116.31" y="36.226"/></g><path fill="none" stroke="#000" stroke-linecap="round" stroke-linejoin="round" stroke-miterlimit="10" stroke-width="1.5" d="M50.07 47.398h20"/><g fill="#262626"><use xlink:href="#ab" x="78.07" y="50.898"/><use xlink:href="#k" x="85.05" y="50.898"/><use xlink:href="#ac" x="91.16" y="50.898"/></g><path fill="none" stroke="#000" stroke-dasharray="5.55 2.4" stroke-linejoin="round" stroke-miterlimit="10" stroke-width="1.5" d="M50.07 62.07h20"/><g fill="#262626"><use xlink:href="#ad" x="78.07" y="65.569"/><use xlink:href="#ae" x="83.64" y="65.569"/><use xlink:href="#k" x="89.99" y="65.569"/><use xlink:href="#ac" x="96.1" y="65.569"/></g></svg>