<svg xmlns="http://www.w3.org/2000/svg" xmlns:xlink="http://www.w3.org/1999/xlink" width="384" height="384" viewBox="0 0 288 288"><defs><path id="b" d="M3.18-6.64q-.761 0-1.149.75c-.261.5-.383 1.25-.383 2.25s.122 1.75.383 2.25q.386.75 1.149.75c.511 0 .89-.25 1.148-.75.25-.5.383-1.25.383-2.25s-.133-1.75-.383-2.25c-.258-.5-.637-.75-1.148-.75m0-.782c.808 0 1.43.332 1.87.973.43.648.65 1.59.65 2.808 0 1.23-.22 2.172-.65 2.813-.44.637-1.062.957-1.878.957Q1.943.129 1.3-.828C.87-1.468.66-2.41.66-3.641c0-1.218.21-2.16.64-2.808.43-.64 1.058-.973 1.879-.973m0 0"/><path id="c" d="M1.07-1.238h1.032V0H1.07Zm0 0"/><path id="e" d="M1.922-.828h3.437V0H.73v-.828c.372-.383.88-.902 1.532-1.563A72 72 0 0 0 3.48-3.648q.48-.528.66-.903c.122-.238.188-.488.188-.73 0-.38-.137-.7-.406-.938-.274-.242-.621-.37-1.063-.37-.308 0-.64.058-.98.16q-.51.162-1.098.488v-1q.6-.238 1.11-.36c.34-.078.66-.12.949-.12q1.126 0 1.8.57c.45.382.68.882.68 1.511 0 .3-.058.59-.172.852-.109.27-.308.59-.609.949-.078.098-.34.367-.777.82-.442.45-1.051 1.078-1.84 1.89m0 0"/><path id="g" d="M3.781-6.43 1.29-2.54h2.492Zm-.261-.86h1.242v4.75H5.8v.821H4.76V0h-.98v-1.719H.488v-.953Zm0 0"/><path id="i" d="M3.3-4.04c-.44 0-.788.161-1.05.462-.262.297-.39.719-.39 1.238q-.002.798.39 1.25.391.45 1.05.45.658 0 1.052-.45.386-.452.386-1.25c0-.52-.129-.941-.386-1.238-.262-.3-.614-.461-1.051-.461m1.962-3.089v.899a3.441 3.441 0 0 0-1.5-.36q-.99 0-1.5.66c-.34.442-.543 1.11-.582 1.989.191-.278.43-.5.718-.649.293-.148.614-.23.961-.23.73 0 1.313.23 1.73.672.423.437.641 1.046.641 1.808 0 .75-.23 1.352-.671 1.8C4.62-.09 4.03.13 3.3.13c-.84 0-1.492-.32-1.93-.957C.921-1.468.7-2.41.7-3.641c0-1.148.27-2.07.82-2.75.54-.68 1.282-1.03 2.2-1.03.242 0 .492.03.75.07.25.05.511.12.793.222m0 0"/><path id="k" d="M3.18-3.46c-.47 0-.84.132-1.11.382s-.398.59-.398 1.027c0 .442.129.79.398 1.04.27.25.64.37 1.11.37.46 0 .832-.12 1.101-.379.27-.25.41-.59.41-1.03 0-.438-.14-.778-.402-1.028-.27-.25-.64-.383-1.11-.383M2.19-3.88q-.63-.153-.992-.59C.961-4.762.852-5.109.852-5.53c0-.578.199-1.04.617-1.38q.615-.51 1.71-.51 1.08 0 1.712.51c.41.34.62.802.62 1.38 0 .422-.12.77-.363 1.062-.238.29-.558.489-.976.59q.704.166 1.11.649c.257.32.398.718.398 1.18 0 .71-.22 1.25-.649 1.62C4.59-.05 3.97.13 3.171.13c-.8 0-1.421-.18-1.85-.559Q.677-.985.68-2.05c0-.462.129-.86.398-1.18.262-.32.633-.54 1.113-.649M1.828-5.44c0 .382.113.68.352.89.242.211.57.313 1 .313.422 0 .75-.102.992-.313q.359-.316.36-.89c0-.38-.122-.668-.36-.88-.242-.21-.57-.32-.992-.32-.43 0-.758.11-1 .32-.239.212-.352.5-.352.88m0 0"/><path id="m" d="M1.238-.828h1.614v-5.563l-1.75.352v-.902L2.84-7.29h.988v6.46h1.613V0H1.238Zm0 0"/><path id="n" d="M.98-7.29h1.47l1.859 4.962 1.87-4.961h1.47V0H6.69v-6.398l-1.882 5H3.82l-1.879-5V0h-.96Zm0 0"/><path id="o" d="M5.621-2.96v.44H1.488c.043.622.223 1.098.563 1.418q.49.48 1.39.48c.34 0 .68-.038 1-.116.32-.082.649-.211.97-.39v.847c-.321.14-.65.25-.99.312a6 6 0 0 1-1.03.098c-.88 0-1.57-.25-2.082-.75C.8-1.121.55-1.81.55-2.68Q.55-4.016 1.27-4.809c.48-.52 1.14-.793 1.96-.793.739 0 1.32.243 1.75.711.418.48.641 1.121.641 1.93M4.72-3.22c-.008-.492-.149-.883-.41-1.18-.27-.292-.63-.44-1.07-.44-.5 0-.9.148-1.2.429s-.48.68-.52 1.191Zm0 0"/><path id="p" d="M3.43-2.75c-.73 0-1.23.09-1.508.25-.281.172-.422.45-.422.852 0 .32.102.578.309.757.21.192.5.282.863.282.5 0 .898-.172 1.2-.532.3-.347.448-.82.448-1.41v-.199Zm1.789-.371V0H4.32v-.828c-.21.34-.468.578-.77.726-.3.153-.679.23-1.12.23-.559 0-1.008-.148-1.34-.456C.762-.641.602-1.058.602-1.59c0-.61.199-1.07.617-1.39.41-.31 1.02-.47 1.84-.47H4.32v-.09c0-.41-.14-.73-.41-.96-.27-.219-.648-.34-1.14-.34-.32 0-.622.04-.918.121-.301.078-.582.188-.852.328v-.828c.32-.12.64-.222.95-.281a5 5 0 0 1 .91-.102c.788 0 1.378.211 1.769.622.39.41.59 1.03.59 1.859m0 0"/><path id="q" d="M5.488-3.3V0H4.59v-3.27c0-.52-.11-.902-.309-1.16-.203-.261-.5-.39-.902-.39-.488 0-.867.16-1.149.468-.28.313-.421.73-.421 1.262V0H.91v-5.469h.899v.848c.21-.32.46-.57.761-.73.29-.16.63-.25 1.008-.25.621 0 1.102.203 1.422.59.32.39.488.96.488 1.71m0 0"/><path id="s" d="M1.809-.82v2.89H.91v-7.539h.899v.828c.18-.32.421-.558.71-.718.29-.16.641-.243 1.04-.243.66 0 1.203.274 1.62.793.41.528.622 1.22.622 2.079S5.59-1.172 5.18-.648c-.418.52-.961.777-1.621.777-.399 0-.75-.078-1.04-.23a1.7 1.7 0 0 1-.71-.72M4.87-2.73c0-.66-.14-1.168-.41-1.551a1.33 1.33 0 0 0-1.121-.57q-.719 0-1.121.57c-.278.383-.41.89-.41 1.55s.132 1.18.41 1.56c.27.382.64.562 1.12.562.47 0 .84-.18 1.122-.563.27-.379.41-.898.41-1.558m0 0"/><path id="t" d="M4.11-4.629a1.2 1.2 0 0 0-.329-.133c-.12-.02-.25-.039-.39-.039-.512 0-.903.172-1.172.5-.278.332-.41.801-.41 1.422V0H.91v-5.469h.899v.848c.18-.328.43-.578.73-.738q.451-.242 1.11-.243c.062 0 .132.012.21.012.07.012.153.02.25.04Zm0 0"/><path id="u" d="M4.54-4.64v-2.962h.901V0H4.54v-.82c-.187.332-.43.57-.719.718-.289.153-.629.23-1.03.23Q1.798.13 1.171-.647C.75-1.172.55-1.871.55-2.73c0-.86.199-1.551.62-2.079.419-.52.958-.793 1.618-.793.402 0 .742.082 1.031.243q.436.239.72.718M1.48-2.73c0 .66.13 1.18.399 1.558.27.383.64.563 1.121.563.48 0 .852-.18 1.129-.563.27-.379.41-.898.41-1.558s-.14-1.168-.41-1.551A1.32 1.32 0 0 0 3-4.851q-.719 0-1.121.57c-.27.383-.399.89-.399 1.55m0 0"/><path id="v" d="M.941-5.469h.899V0H.94Zm0-2.133h.899v1.141H.94Zm0 0"/><path id="w" d="M4.879-5.262v.84a3.6 3.6 0 0 0-.77-.308 2.9 2.9 0 0 0-.77-.11c-.577 0-1.038.192-1.359.559-.32.37-.48.89-.48 1.55q0 1.008.48 1.56c.32.37.782.55 1.36.55.262 0 .512-.027.77-.098.261-.07.511-.18.769-.32v.828c-.258.121-.52.211-.777.262a4.7 4.7 0 0 1-.864.078c-.816 0-1.476-.25-1.957-.77-.492-.507-.73-1.21-.73-2.09 0-.89.238-1.59.73-2.097.489-.512 1.16-.774 2.02-.774.277 0 .55.032.808.09.262.063.52.14.77.25m0 0"/><path id="x" d="M1.828-7.02v1.551H3.68v.7H1.828v2.968c0 .45.063.742.184.86.117.132.367.191.75.191h.918V0h-.918Q1.707 0 1.32-.39C1.06-.649.93-1.122.93-1.8v-2.97H.27v-.699h.66v-1.55Zm0 0"/><path id="y" d="M3.059-4.84q-.72.001-1.137.57-.422.568-.422 1.54c0 .66.129 1.171.41 1.55.281.38.66.559 1.149.559.48 0 .863-.18 1.14-.559.281-.379.422-.89.422-1.55 0-.641-.14-1.16-.422-1.54-.277-.378-.66-.57-1.14-.57m0-.762c.78 0 1.39.262 1.84.762.44.512.671 1.211.671 2.11 0 .902-.23 1.601-.672 2.101C4.45-.12 3.84.13 3.058.13c-.788 0-1.41-.25-1.847-.758Q.55-1.379.55-2.73c0-.899.219-1.598.66-2.11.437-.5 1.059-.762 1.848-.762m0 0"/><path id="z" d="M4.871-2.73c0-.66-.14-1.168-.41-1.551a1.33 1.33 0 0 0-1.121-.57q-.719 0-1.121.57c-.278.383-.41.89-.41 1.55s.132 1.18.41 1.56c.27.382.64.562 1.12.562.47 0 .84-.18 1.122-.563.27-.379.41-.898.41-1.558M1.81-4.64c.18-.32.421-.56.71-.72.29-.16.641-.242 1.04-.242.66 0 1.203.274 1.62.793.41.528.622 1.22.622 2.079S5.59-1.172 5.18-.648c-.418.52-.961.777-1.621.777-.399 0-.75-.078-1.04-.23a1.7 1.7 0 0 1-.71-.72V0H.91v-7.602h.899Zm0 0"/><path id="A" d="M.941-7.602h.899V0H.94Zm0 0"/><path id="B" d="M3.219.5c-.258.64-.508 1.07-.75 1.27q-.36.3-.957.3H.789v-.75h.531q.36.002.57-.18c.141-.12.29-.39.462-.831l.16-.399L.3-5.469h.949L2.96-1.19 4.673-5.47h.95Zm0 0"/><path id="C" d="M5.488-3.3V0H4.59v-3.27c0-.52-.11-.902-.309-1.16-.203-.261-.5-.39-.902-.39-.488 0-.867.16-1.149.468-.28.313-.421.73-.421 1.262V0H.91v-7.602h.899v2.98c.21-.32.46-.57.761-.73.29-.16.63-.25 1.008-.25.621 0 1.102.204 1.422.59.32.39.488.961.488 1.711m0 0"/><path id="J" d="M-3.422-4.441c.082-.207.23-.418.461-.618.242-.203.563-.402.973-.601L0-6.66v1.058l-1.871.93c-.48.242-.809.48-.969.703q-.239.345-.238.93v1.07H0v.989h-7.29v-2.23c0-.83.18-1.45.52-1.86.348-.41.88-.621 1.579-.621.46 0 .851.113 1.152.32q.452.333.617.93M-6.48-1.97h2.59V-3.21q0-.705-.329-1.07c-.222-.239-.543-.367-.972-.367-.418 0-.739.128-.957.367q-.333.365-.332 1.07Zm0 0"/><path id="K" d="M-2.75-3.43c0 .73.09 1.23.25 1.508.172.281.45.422.852.422.32 0 .578-.102.757-.309.192-.21.282-.5.282-.863 0-.5-.172-.898-.532-1.2-.347-.3-.82-.448-1.41-.448h-.199Zm-.371-1.789H0v.899h-.828c.34.21.578.468.726.77.153.3.23.679.23 1.12 0 .559-.148 1.008-.456 1.34-.313.328-.73.488-1.262.488-.61 0-1.07-.199-1.39-.617-.31-.41-.47-1.02-.47-1.84V-4.32h-.09c-.41 0-.73.14-.96.41-.219.27-.34.648-.34 1.14 0 .32.04.622.121.918.078.301.188.582.328.852h-.828a6 6 0 0 1-.281-.95 5 5 0 0 1-.102-.91c0-.788.211-1.378.622-1.769.41-.39 1.03-.59 1.859-.59m0 0"/><path id="L" d="M-7.02-1.828h1.551V-3.68h.7v1.852h2.968c.45 0 .742-.063.86-.184.132-.117.191-.367.191-.75v-.918H0v.918Q0-1.707-.39-1.32c-.258.261-.731.39-1.41.39h-2.97v.66h-.699v-.66h-1.55Zm0 0"/><path id="M" d="M-5.469-.941v-.899H0v.899Zm-2.133 0v-.899h1.141v.899Zm0 0"/><path id="N" d="M-4.84-3.059q.001.72.57 1.137.568.422 1.54.422c.66 0 1.171-.129 1.55-.41.38-.281.559-.66.559-1.149 0-.48-.18-.863-.559-1.14-.379-.281-.89-.422-1.55-.422-.641 0-1.16.14-1.54.422-.378.277-.57.66-.57 1.14m-.762 0c0-.78.262-1.39.762-1.84.512-.44 1.211-.671 2.11-.671.902 0 1.601.23 2.101.672.508.449.758 1.058.758 1.84 0 .788-.25 1.41-.758 1.847q-.75.66-2.101.66c-.899 0-1.598-.219-2.11-.66-.5-.437-.762-1.059-.762-1.848m0 0"/><path id="P" d="M-7.602-3.71h.75v.858c0 .32.07.551.204.672q.19.193.699.192h.48v-1.48h.7v1.48H0v.898h-4.77v.86h-.699v-.86h-.383c-.597 0-1.046-.14-1.328-.422q-.421-.415-.422-1.347Zm0 0"/><path id="Q" d="M-.82-1.809h2.89v.899h-7.539v-.899h.828a1.8 1.8 0 0 1-.718-.71c-.16-.29-.243-.641-.243-1.04 0-.66.274-1.203.793-1.62.528-.41 1.22-.622 2.079-.622s1.558.211 2.082.621c.52.418.777.961.777 1.621 0 .399-.078.75-.23 1.04-.149.289-.387.53-.72.71M-2.73-4.87c-.66 0-1.168.14-1.551.41q-.57.42-.57 1.121 0 .719.57 1.121c.383.278.89.41 1.55.41s1.18-.132 1.56-.41c.382-.27.562-.64.562-1.12 0-.47-.18-.84-.563-1.122-.379-.27-.898-.41-1.558-.41m0 0"/><path id="R" d="M-5.309-4.43h.848c-.117.258-.219.52-.289.79a4 4 0 0 0-.102.85c0 .45.07.79.211 1.009.141.222.34.332.61.332.21 0 .37-.082.492-.242.117-.16.238-.48.34-.957l.07-.313c.14-.64.34-1.09.578-1.36.25-.257.602-.398 1.04-.398q.765 0 1.202.598c.297.402.438.96.438 1.66 0 .3-.027.602-.078.922s-.13.648-.25 1h-.93q.27-.499.39-.98c.09-.32.13-.641.13-.961 0-.418-.07-.75-.211-.98a.7.7 0 0 0-.621-.34c-.239 0-.43.09-.559.25s-.262.519-.379 1.081l-.07.309c-.121.558-.301.969-.54 1.21-.241.25-.57.372-1 .372-.511 0-.91-.184-1.19-.543q-.423-.54-.423-1.559c0-.332.032-.64.082-.941q.077-.434.211-.809m0 0"/><path id="S" d="M-5.469-.3v-.95l4.59-1.71-4.59-1.712v-.95L0-3.57v1.218Zm0 0"/><path id="T" d="M-2.96-5.621h.44v4.133c.622-.043 1.098-.223 1.418-.563q.48-.49.48-1.39c0-.34-.038-.68-.116-1a4 4 0 0 0-.39-.97h.847c.14.321.25.65.312.99.059.343.098.69.098 1.03 0 .88-.25 1.57-.75 2.082-.5.508-1.188.758-2.059.758q-1.336.001-2.129-.719c-.52-.48-.793-1.14-.793-1.96 0-.739.243-1.32.711-1.75.48-.418 1.121-.641 1.93-.641m-.259.902c-.492.008-.883.149-1.18.41-.292.27-.44.63-.44 1.07 0 .5.148.9.429 1.2s.68.48 1.191.52Zm0 0"/><path id="ak" d="M1.64-5.398v2.28h1.036c.383 0 .672-.089.883-.288.207-.2.316-.485.316-.852s-.11-.64-.316-.84c-.211-.199-.5-.3-.883-.3Zm-.824-.676h1.86c.672 0 1.187.16 1.539.469q.525.462.523 1.347c0 .602-.172 1.059-.523 1.36-.352.308-.867.457-1.54.457H1.642V0H.816Zm0 0"/><path id="al" d="M4.68-2.465v.367H1.242c.031.516.184.914.465 1.18.277.27.66.402 1.16.402.281 0 .567-.035.832-.101.266-.067.54-.176.809-.324v.707c-.27.117-.543.21-.824.257-.286.051-.579.086-.86.086C2.09.11 1.516-.1 1.09-.516Q.457-1.144.457-2.234q0-1.11.602-1.774c.398-.433.949-.656 1.632-.656.618 0 1.098.2 1.457.59.352.402.532.933.532 1.61m-.746-.219c-.012-.406-.125-.73-.344-.98-.223-.242-.524-.367-.89-.367-.419 0-.75.125-1 .36-.25.23-.4.566-.434.987Zm0 0"/><path id="am" d="M3.422-3.855a.9.9 0 0 0-.274-.11C3.047-3.98 2.941-4 2.824-4c-.426 0-.75.145-.976.418-.23.273-.34.668-.34 1.184V0h-.75v-4.555h.75v.707c.148-.277.36-.484.61-.617q.376-.2.921-.2c.05 0 .11.009.176.009.058.008.125.015.207.031Zm0 0"/><path id="an" d="M3.09-6.332v.625h-.715c-.266 0-.46.059-.559.168-.109.11-.16.3-.16.582v.402h1.235v.582H1.656V0h-.75v-3.973H.191v-.582h.715v-.32c0-.496.117-.871.352-1.105q.352-.352 1.125-.352Zm0 0"/><path id="ao" d="M4.066-4.383v.7a3.2 3.2 0 0 0-.644-.258 2.4 2.4 0 0 0-.64-.09c-.481 0-.868.156-1.134.465-.265.308-.398.742-.398 1.293q0 .838.398 1.296c.266.309.653.461 1.133.461.219 0 .426-.027.64-.086.22-.054.427-.148.645-.265v.691a2.9 2.9 0 0 1-.652.219C3.191.082 2.95.109 2.7.109c-.683 0-1.234-.21-1.633-.64C.656-.957.457-1.543.457-2.273c0-.743.2-1.325.61-1.75.406-.426.964-.641 1.683-.641.23 0 .457.023.672.074q.328.074.644.207m0 0"/><path id="ap" d="M1.523-5.848v1.293h1.543v.582H1.523V-1.5q0 .564.153.719c.097.105.308.156.625.156h.765V0h-.765q-.877-.002-1.203-.324Q.774-.652.773-1.5v-2.473H.227v-.582h.546v-1.293Zm0 0"/><path id="ar" d="M5.363-5.605v.867a3.3 3.3 0 0 0-.89-.578 2.7 2.7 0 0 0-.993-.192c-.699 0-1.23.219-1.597.645q-.55.632-.551 1.832c0 .797.184 1.414.55 1.84.368.425.9.632 1.598.632.352 0 .676-.058.993-.191.316-.125.609-.316.89-.574v.86c-.289.198-.597.339-.914.429-.316.094-.66.144-1.015.144Q2.056.11 1.258-.727.463-1.56.465-3.03c0-.977.262-1.742.793-2.309q.798-.839 2.176-.84a3.6 3.6 0 0 1 1.023.14c.316.103.625.243.906.435m0 0"/><path id="as" d="M2.855-2.29c-.605 0-1.023.075-1.257.208q-.347.21-.348.707c0 .266.082.484.258.633.176.16.418.234.715.234.418 0 .75-.14 1-.441q.375-.439.375-1.176v-.164Zm1.493-.308V0h-.75v-.691c-.176.285-.391.484-.641.609s-.566.191-.934.191c-.464 0-.84-.125-1.117-.382Q.498-.661.5-1.324c0-.508.168-.89.516-1.156.343-.262.851-.395 1.535-.395h1.047v-.074c0-.34-.118-.61-.34-.801-.227-.184-.543-.281-.95-.281-.269 0-.519.031-.765.097-.25.07-.484.16-.711.278v-.692a5 5 0 0 1 .793-.234 4 4 0 0 1 .758-.082c.656 0 1.148.176 1.472.516q.493.512.493 1.55m0 0"/><path id="at" d="M.781-6.332h.75V0h-.75Zm0 0"/><path id="au" d="M.781-4.555h.75V0h-.75Zm0-1.777h.75v.95h-.75Zm0 0"/><path id="av" d="M4.059-2.273c0-.551-.118-.977-.344-1.293a1.1 1.1 0 0 0-.934-.473q-.596-.001-.933.473c-.23.316-.34.742-.34 1.293s.11.98.34 1.296c.226.32.535.47.933.47.39 0 .7-.15.934-.47.226-.316.344-.746.344-1.296m-2.551-1.59c.148-.27.351-.469.59-.602.242-.133.535-.2.867-.2.55 0 1 .224 1.351.657.34.442.516 1.016.516 1.735 0 .714-.176 1.296-.516 1.73Q3.79.109 2.965.109a1.9 1.9 0 0 1-.867-.191 1.4 1.4 0 0 1-.59-.602V0h-.75v-6.332h.75Zm0 0"/><path id="aw" d="M2.55-4.031a1.12 1.12 0 0 0-.952.472q-.347.474-.348 1.286c0 .55.11.972.34 1.289.234.316.55.468.96.468.4 0 .716-.152.95-.468.23-.317.348-.739.348-1.29 0-.535-.118-.968-.348-1.285a1.12 1.12 0 0 0-.95-.472m0-.633c.65 0 1.157.215 1.532.633.367.426.559 1.008.559 1.758s-.192 1.332-.559 1.75q-.56.632-1.531.632-.991 0-1.543-.632-.55-.626-.551-1.75c0-.75.184-1.332.55-1.758.368-.418.884-.633 1.544-.633m0 0"/><path id="ax" d="M4.574-2.75V0h-.75v-2.723c0-.433-.094-.75-.258-.968q-.252-.324-.75-.325c-.41 0-.726.133-.957.391q-.351.389-.351 1.05V0h-.75v-4.555h.75v.707c.176-.265.383-.476.633-.609.242-.133.523-.207.84-.207.519 0 .917.164 1.183.492.266.324.41.797.41 1.422m0 0"/><path id="ay" d="M-.016-6.074h5.13v.691H2.956V0h-.824v-5.383H-.016Zm0 0"/><path id="az" d="M.816-6.074H2.04l1.55 4.133 1.56-4.133H6.37V0h-.797v-5.332L4.008-1.168h-.824L1.617-5.332V0h-.8Zm0 0"/><path id="aA" d="M.816-6.074h.825v2.492h2.984v-2.492h.824V0h-.824v-2.89H1.641V0H.816Zm0 0"/><path id="aB" d="M.707-1.8v-2.755h.75v2.73c0 .434.086.75.25.966.168.218.418.328.758.328.402 0 .726-.125.957-.387.234-.258.351-.605.351-1.055v-2.582h.75V0h-.75v-.7a1.86 1.86 0 0 1-.632.618 1.8 1.8 0 0 1-.832.191Q1.517.11 1.117-.375C.84-.691.707-1.168.707-1.801M2.59-4.665"/><path id="aC" d="M4.332-3.684c.184-.332.406-.574.664-.738a1.73 1.73 0 0 1 .926-.242c.469 0 .832.164 1.094.5.257.332.39.809.39 1.414V0h-.75v-2.723c0-.433-.082-.757-.234-.976-.156-.207-.39-.317-.707-.317-.39 0-.7.133-.926.391q-.333.389-.332 1.05V0h-.75v-2.723c0-.433-.082-.757-.234-.976-.157-.207-.399-.317-.715-.317-.383 0-.692.133-.918.391q-.333.389-.332 1.05V0h-.75v-4.555h.75v.707q.253-.416.617-.617c.23-.133.516-.2.848-.2.336 0 .609.083.843.25.23.165.399.415.516.731m0 0"/><path id="aD" d="M3.691-4.422v.707a4 4 0 0 0-.66-.242 3.3 3.3 0 0 0-.707-.082c-.375 0-.66.059-.84.176a.56.56 0 0 0-.277.508q0 .258.2.406c.136.101.402.199.8.285l.258.059c.535.113.91.28 1.133.48.218.21.336.5.336.867q-.001.638-.5 1c-.336.25-.801.367-1.383.367-.25 0-.5-.027-.77-.066A5 5 0 0 1 .45-.168v-.773q.418.223.817.324c.265.074.535.11.8.11.348 0 .625-.06.817-.177a.58.58 0 0 0 .281-.515.57.57 0 0 0-.207-.465q-.2-.167-.898-.32L1.8-2.04c-.469-.102-.809-.25-1.008-.453-.211-.2-.309-.473-.309-.832q0-.64.45-.992c.3-.23.73-.348 1.3-.348.274 0 .532.023.782.066.242.043.464.098.675.176m0 0"/><path id="aE" d="M2.582-6.324a8.3 8.3 0 0 0-.809 1.86 6.4 6.4 0 0 0-.265 1.847c0 .633.082 1.25.265 1.86.176.616.442 1.222.809 1.847h-.648c-.41-.64-.72-1.258-.918-1.871q-.3-.924-.301-1.836 0-.898.3-1.824c.2-.614.5-1.239.919-1.883Zm0 0"/><path id="aF" d="M2.848-5.266 1.734-2.242h2.23Zm-.465-.808h.933L5.633 0h-.86l-.55-1.559H1.484L.934 0H.066Zm0 0"/><path id="aG" d="M.25-4.555h.793l1.422 3.82 1.426-3.82h.789L2.973 0H1.957Zm0 0"/><path id="aH" d="M3.781-2.332c0-.535-.117-.957-.332-1.258-.226-.3-.543-.45-.941-.45-.399 0-.719.15-.942.45-.226.3-.332.723-.332 1.258 0 .543.106.957.332 1.258.223.3.543.449.942.449s.715-.148.941-.45c.215-.3.332-.714.332-1.257m.75 1.766c0 .765-.176 1.34-.515 1.722-.352.375-.875.567-1.582.567-.27 0-.508-.024-.743-.059a3.6 3.6 0 0 1-.683-.18V.758c.215.117.433.199.648.258.219.058.434.093.66.093.485 0 .848-.132 1.098-.382.242-.262.367-.645.367-1.16v-.368c-.156.27-.36.469-.597.602Q2.82 0 2.324 0C1.758 0 1.31-.207.964-.633Q.457-1.272.458-2.332.456-3.384.965-4.023c.344-.426.793-.641 1.36-.641q.496 0 .859.2c.238.132.441.331.597.6v-.69h.75Zm0 0"/><path id="aI" d="M.668-6.324h.648c.399.644.707 1.27.907 1.883q.306.926.308 1.824a5.8 5.8 0 0 1-.308 1.836c-.2.613-.508 1.23-.907 1.87H.668c.355-.624.625-1.23.805-1.847.175-.61.27-1.226.27-1.86 0-.624-.095-1.237-.27-1.847a9 9 0 0 0-.805-1.86m0 0"/><path id="aJ" d="M.816-6.074h3.489v.691H1.64v1.793h2.406v.692H1.64V0H.816Zm0 0"/><path id="aK" d="M.816-6.074h.825v5.383h2.957V0H.816Zm0 0"/><path id="aL" d="M4.457-5.871v.797a5.5 5.5 0 0 0-.883-.332 3.6 3.6 0 0 0-.8-.11c-.45 0-.801.094-1.04.258-.242.176-.359.426-.359.742 0 .266.074.477.242.61.156.14.465.25.914.332l.5.101q.914.178 1.352.618c.289.296.441.69.441 1.18 0 .593-.199 1.034-.594 1.335-.398.297-.972.45-1.73.45a5 5 0 0 1-.926-.094 5.5 5.5 0 0 1-1-.282v-.851c.332.191.66.336.977.426.316.101.633.14.949.14q.696 0 1.082-.273c.25-.184.383-.442.383-.793q.001-.446-.274-.7-.275-.245-.902-.374l-.5-.098q-.918-.175-1.332-.578C.684-3.625.551-3.98.551-4.45c0-.531.183-.957.566-1.266q.564-.464 1.567-.465.419 0 .863.075c.293.05.594.132.91.234m0 0"/><clipPath id="a"><path d="M39.012 5.96H40v248.88h-.988Zm0 0"/></clipPath><clipPath id="d"><path d="M86 5.96h2v248.88h-2Zm0 0"/></clipPath><clipPath id="f"><path d="M134 5.96h2v248.88h-2Zm0 0"/></clipPath><clipPath id="h"><path d="M182 5.96h1v248.88h-1Zm0 0"/></clipPath><clipPath id="j"><path d="M229 5.96h2v248.88h-2Zm0 0"/></clipPath><clipPath id="l"><path d="M277 5.96h1.035v248.88H277Zm0 0"/></clipPath><clipPath id="D"><path d="M39.012 254h239.023v.84H39.012Zm0 0"/></clipPath><clipPath id="E"><path d="M39.012 204h239.023v2H39.012Zm0 0"/></clipPath><clipPath id="F"><path d="M39.012 154h239.023v2H39.012Zm0 0"/></clipPath><clipPath id="G"><path d="M39.012 105h239.023v1H39.012Zm0 0"/></clipPath><clipPath id="H"><path d="M39.012 55h239.023v2H39.012Zm0 0"/></clipPath><clipPath id="I"><path d="M39.012 5.96h239.023V7H39.012Zm0 0"/></clipPath><clipPath id="U"><path d="M39.012 5.96h239.023v248.88H39.012Zm0 0"/></clipPath><clipPath id="V"><path d="M62 7h206v247.84H62Zm0 0"/></clipPath><clipPath id="W"><path d="M132 5.96h145V123H132Zm0 0"/></clipPath><clipPath id="X"><path d="M245 5.96h4V9h-4Zm0 0"/></clipPath><clipPath id="Y"><path d="M244 5.96h5V10h-5Zm0 0"/></clipPath><clipPath id="Z"><path d="M259 5.96h4V8h-4Zm0 0"/></clipPath><clipPath id="aa"><path d="M258 5.96h5V9h-5Zm0 0"/></clipPath><clipPath id="ab"><path d="M273 5.96h4V8h-4Zm0 0"/></clipPath><clipPath id="ac"><path d="M273 5.96h5V9h-5Zm0 0"/></clipPath><clipPath id="ad"><path d="M99 20h179v234.84H99Zm0 0"/></clipPath><clipPath id="ae"><path d="M98 253h4v1.84h-4Zm0 0"/></clipPath><clipPath id="af"><path d="M98 252h5v2.84h-5Zm0 0"/></clipPath><clipPath id="ag"><path d="M275 20h3.035v4H275Zm0 0"/></clipPath><clipPath id="ah"><path d="M274 19h4.035v5H274Zm0 0"/></clipPath><clipPath id="ai"><path d="M266 5.96h4V9h-4Zm0 0"/></clipPath><clipPath id="aj"><path d="M266 5.96h5V10h-5Zm0 0"/></clipPath></defs><path fill="#FFF" d="M-28.8-28.8h345.6v345.6H-28.8z"/><path fill="#EAEAF2" d="M39.012 254.84h239.023V5.96H39.012Zm0 0"/><g clip-path="url(#a)"><path fill="none" stroke="#FFF" stroke-linecap="round" stroke-linejoin="round" stroke-miterlimit="10" stroke-width=".8" d="M39.012 254.84V5.96"/></g><g fill="#262626"><use xlink:href="#b" x="31.057" y="269.434"/><use xlink:href="#c" x="37.417" y="269.434"/><use xlink:href="#b" x="40.597" y="269.434"/></g><g clip-path="url(#d)"><path fill="none" stroke="#FFF" stroke-linecap="round" stroke-linejoin="round" stroke-miterlimit="10" stroke-width=".8" d="M86.816 254.84V5.96"/></g><g fill="#262626"><use xlink:href="#b" x="78.862" y="269.434"/><use xlink:href="#c" x="85.222" y="269.434"/><use xlink:href="#e" x="88.402" y="269.434"/></g><g clip-path="url(#f)"><path fill="none" stroke="#FFF" stroke-linecap="round" stroke-linejoin="round" stroke-miterlimit="10" stroke-width=".8" d="M134.621 254.84V5.96"/></g><g fill="#262626"><use xlink:href="#b" x="126.667" y="269.434"/><use xlink:href="#c" x="133.027" y="269.434"/><use xlink:href="#g" x="136.207" y="269.434"/></g><g clip-path="url(#h)"><path fill="none" stroke="#FFF" stroke-linecap="round" stroke-linejoin="round" stroke-miterlimit="10" stroke-width=".8" d="M182.426 254.84V5.96"/></g><g fill="#262626"><use xlink:href="#b" x="174.472" y="269.434"/><use xlink:href="#c" x="180.832" y="269.434"/><use xlink:href="#i" x="184.012" y="269.434"/></g><g clip-path="url(#j)"><path fill="none" stroke="#FFF" stroke-linecap="round" stroke-linejoin="round" stroke-miterlimit="10" stroke-width=".8" d="M230.23 254.84V5.96"/></g><g fill="#262626"><use xlink:href="#b" x="222.277" y="269.434"/><use xlink:href="#c" x="228.637" y="269.434"/><use xlink:href="#k" x="231.817" y="269.434"/></g><g clip-path="url(#l)"><path fill="none" stroke="#FFF" stroke-linecap="round" stroke-linejoin="round" stroke-miterlimit="10" stroke-width=".8" d="M278.035 254.84V5.96"/></g><g fill="#262626"><use xlink:href="#m" x="270.082" y="269.434"/><use xlink:href="#c" x="276.442" y="269.434"/><use xlink:href="#b" x="279.622" y="269.434"/></g><g fill="#262626"><use xlink:href="#n" x="62.202" y="283.106"/><use xlink:href="#o" x="70.832" y="283.106"/><use xlink:href="#p" x="76.982" y="283.106"/><use xlink:href="#q" x="83.112" y="283.106"/><use xlink:href="#r" x="89.452" y="283.106"/><use xlink:href="#s" x="92.632" y="283.106"/><use xlink:href="#t" x="98.982" y="283.106"/></g><g fill="#262626"><use xlink:href="#o" x="102.873" y="283.106"/><use xlink:href="#u" x="109.023" y="283.106"/><use xlink:href="#v" x="115.373" y="283.106"/><use xlink:href="#w" x="118.153" y="283.106"/><use xlink:href="#x" x="123.653" y="283.106"/><use xlink:href="#o" x="127.573" y="283.106"/><use xlink:href="#u" x="133.723" y="283.106"/><use xlink:href="#r" x="140.073" y="283.106"/><use xlink:href="#s" x="143.253" y="283.106"/><use xlink:href="#t" x="149.603" y="283.106"/></g><g fill="#262626"><use xlink:href="#y" x="153.495" y="283.106"/><use xlink:href="#z" x="159.615" y="283.106"/><use xlink:href="#p" x="165.965" y="283.106"/><use xlink:href="#z" x="172.095" y="283.106"/><use xlink:href="#v" x="178.445" y="283.106"/><use xlink:href="#A" x="181.225" y="283.106"/><use xlink:href="#v" x="184.005" y="283.106"/><use xlink:href="#x" x="186.785" y="283.106"/><use xlink:href="#B" x="190.705" y="283.106"/><use xlink:href="#r" x="196.625" y="283.106"/><use xlink:href="#v" x="199.805" y="283.106"/><use xlink:href="#q" x="202.585" y="283.106"/><use xlink:href="#r" x="208.925" y="283.106"/><use xlink:href="#o" x="212.105" y="283.106"/><use xlink:href="#p" x="218.255" y="283.106"/><use xlink:href="#w" x="224.385" y="283.106"/><use xlink:href="#C" x="229.885" y="283.106"/><use xlink:href="#r" x="236.225" y="283.106"/><use xlink:href="#z" x="239.405" y="283.106"/><use xlink:href="#v" x="245.755" y="283.106"/><use xlink:href="#q" x="248.535" y="283.106"/></g><g clip-path="url(#D)"><path fill="none" stroke="#FFF" stroke-linecap="round" stroke-linejoin="round" stroke-miterlimit="10" stroke-width=".8" d="M39.012 254.84h239.023"/></g><g fill="#262626"><use xlink:href="#b" x="16.104" y="258.637"/><use xlink:href="#c" x="22.464" y="258.637"/><use xlink:href="#b" x="25.644" y="258.637"/></g><g clip-path="url(#E)"><path fill="none" stroke="#FFF" stroke-linecap="round" stroke-linejoin="round" stroke-miterlimit="10" stroke-width=".8" d="M39.012 205.063h239.023"/></g><g fill="#262626"><use xlink:href="#b" x="16.104" y="208.861"/><use xlink:href="#c" x="22.464" y="208.861"/><use xlink:href="#e" x="25.644" y="208.861"/></g><g clip-path="url(#F)"><path fill="none" stroke="#FFF" stroke-linecap="round" stroke-linejoin="round" stroke-miterlimit="10" stroke-width=".8" d="M39.012 155.29h239.023"/></g><g fill="#262626"><use xlink:href="#b" x="16.104" y="159.085"/><use xlink:href="#c" x="22.464" y="159.085"/><use xlink:href="#g" x="25.644" y="159.085"/></g><g clip-path="url(#G)"><path fill="none" stroke="#FFF" stroke-linecap="round" stroke-linejoin="round" stroke-miterlimit="10" stroke-width=".8" d="M39.012 105.512h239.023"/></g><g fill="#262626"><use xlink:href="#b" x="16.104" y="109.309"/><use xlink:href="#c" x="22.464" y="109.309"/><use xlink:href="#i" x="25.644" y="109.309"/></g><g clip-path="url(#H)"><path fill="none" stroke="#FFF" stroke-linecap="round" stroke-linejoin="round" stroke-miterlimit="10" stroke-width=".8" d="M39.012 55.734h239.023"/></g><g fill="#262626"><use xlink:href="#b" x="16.104" y="59.533"/><use xlink:href="#c" x="22.464" y="59.533"/><use xlink:href="#k" x="25.644" y="59.533"/></g><g clip-path="url(#I)"><path fill="none" stroke="#FFF" stroke-linecap="round" stroke-linejoin="round" stroke-miterlimit="10" stroke-width=".8" d="M39.012 5.96h239.023"/></g><g fill="#262626"><use xlink:href="#m" x="16.104" y="9.757"/><use xlink:href="#c" x="22.464" y="9.757"/><use xlink:href="#b" x="25.644" y="9.757"/></g><use xlink:href="#J" x="10.026" y="173.47" fill="#262626"/><g fill="#262626"><use xlink:href="#K" x="10.026" y="166.739"/><use xlink:href="#L" x="10.026" y="160.609"/><use xlink:href="#M" x="10.026" y="156.689"/><use xlink:href="#N" x="10.026" y="153.909"/><use xlink:href="#O" x="10.026" y="147.789"/><use xlink:href="#N" x="10.026" y="144.609"/><use xlink:href="#P" x="10.026" y="138.489"/><use xlink:href="#O" x="10.026" y="134.969"/><use xlink:href="#Q" x="10.026" y="131.789"/><use xlink:href="#N" x="10.026" y="125.439"/><use xlink:href="#R" x="10.026" y="119.319"/><use xlink:href="#M" x="10.026" y="114.109"/><use xlink:href="#L" x="10.026" y="111.329"/><use xlink:href="#M" x="10.026" y="107.409"/><use xlink:href="#S" x="10.026" y="104.629"/><use xlink:href="#T" x="10.026" y="98.709"/><use xlink:href="#R" x="10.026" y="92.559"/></g><g clip-path="url(#U)"><path fill="none" stroke="#000" stroke-dasharray="5.55 2.4" stroke-linejoin="round" stroke-miterlimit="10" stroke-width="1.5" d="M39.012 254.84 278.035 5.96"/></g><path fill="none" stroke="#440154" stroke-linecap="round" stroke-linejoin="round" stroke-miterlimit="10" stroke-opacity=".4" stroke-width=".8" d="m78.945 229.152 25.325-53.797 28.148 19.38 26.937 16.745 26.41 26.7 25.016 9.37 25.739-20.312L269.03 36.652"/><path fill="none" stroke="#46085C" stroke-linecap="round" stroke-linejoin="round" stroke-miterlimit="10" stroke-opacity=".4" stroke-width=".8" d="m63.617 171.879 19.559 54.148 22.594-48.656 26.847 10.926 26.063-31.871 23.484-87.73 27.313-49.493 25.8 7.871 36.442-12.96"/><g clip-path="url(#V)"><path fill="none" stroke="#471063" stroke-linecap="round" stroke-linejoin="round" stroke-miterlimit="10" stroke-opacity=".4" stroke-width=".8" d="m62.602 254.84 20.796-52.344 22.196-68.144 25.351-43.282 27.32 39.297 26.563-12.09 26.535-73.148 24.059-36.207 31.95-.547"/></g><path fill="none" stroke="#481769" stroke-linecap="round" stroke-linejoin="round" stroke-miterlimit="10" stroke-opacity=".4" stroke-width=".8" d="m62.965 250.98 19.258-6.664 21.402-58.02 27.953-70.784 26.906-62.59 25.36-5.195L214.59 25.68l21.14-12.852 28.797-5.465"/><path fill="none" stroke="#481D6F" stroke-linecap="round" stroke-linejoin="round" stroke-miterlimit="10" stroke-opacity=".4" stroke-width=".8" d="m62.477 249.762 18.394-25.989 25.465-71.28 25.492-41.423 25.844-55.086 26.71-28.851 27.684-.703 26.77-11.809L262.48 6.93"/><path fill="none" stroke="#482576" stroke-linecap="round" stroke-linejoin="round" stroke-miterlimit="10" stroke-opacity=".4" stroke-width=".8" d="m61.934 252.387 17.007-25.934 26.801-80.586 25.895-52.844 28.136-43.43 25.239-18.425 24.543-7.848 31.12-8.117 20.333-8.137"/><path fill="none" stroke="#472C7A" stroke-linecap="round" stroke-linejoin="round" stroke-miterlimit="10" stroke-opacity=".4" stroke-width=".8" d="m61.23 251.465 16.829-19.102 28.593-95.12 24.692-71.52 27.41-20.582 26.535-14.176 26.172-6.719 29.527-7.7 19.207-8.257"/><path fill="none" stroke="#46327E" stroke-linecap="round" stroke-linejoin="round" stroke-miterlimit="10" stroke-opacity=".4" stroke-width=".8" d="m60.621 251.371 16.184-9.687 28.152-71.27L133 79.051l24.953-35.988 28.625-10.77 26.067-8.242 27.273-7.133 19.914-7.75"/><path fill="none" stroke="#453882" stroke-linecap="round" stroke-linejoin="round" stroke-miterlimit="10" stroke-opacity=".4" stroke-width=".8" d="m60.137 251.098 19.406-13.16 25.707-57.583 27.219-83.41 25.879-46.28 26.285-16.208 26.86-10.2 26.093-7.495 21.996-7.332"/><path fill="none" stroke="#423F85" stroke-linecap="round" stroke-linejoin="round" stroke-miterlimit="10" stroke-opacity=".4" stroke-width=".8" d="m59.453 249.121 20.508-13.785 26.23-69.691 26.621-66.336 26.723-41.348 24.602-23.828 27.957-9.715 25.488-6.328 22.379-8.39"/><path fill="none" stroke="#404588" stroke-linecap="round" stroke-linejoin="round" stroke-miterlimit="10" stroke-opacity=".4" stroke-width=".8" d="m58.594 250.27 19.488-16.137 28.328-73.028 26.57-61.257 26.672-36.657 24.715-27.898 27.922-10.441 25.504-6.145L260.422 10"/><path fill="none" stroke="#3E4A89" stroke-linecap="round" stroke-linejoin="round" stroke-miterlimit="10" stroke-opacity=".4" stroke-width=".8" d="m57.16 250.11 20.336-15.173 29.027-62.996 26.59-62.93 26.485-39.945 26.03-32.3 26.567-13.668 25.868-4.047 22.757-9.016"/><path fill="none" stroke="#3C508B" stroke-linecap="round" stroke-linejoin="round" stroke-miterlimit="10" stroke-opacity=".4" stroke-width=".8" d="m58.719 250.777 18.027-9.023 28.64-49.441 27.22-61.516 26.769-52.875 27.21-36.672 24.126-17.352 27.121-5.765 23.227-8.223"/><path fill="none" stroke="#39558C" stroke-linecap="round" stroke-linejoin="round" stroke-miterlimit="10" stroke-opacity=".4" stroke-width=".8" d="m57.832 251.945 20.719-13.03 26.82-41.255 27.234-56.039 26.778-56.601 27.293-36.989 23.703-24.308 28.191-5.618 22.903-7.968"/><path fill="none" stroke="#365C8D" stroke-linecap="round" stroke-linejoin="round" stroke-miterlimit="10" stroke-opacity=".4" stroke-width=".8" d="m57.012 252.09 21.332-13.258 27.277-44.996 26.61-52.375 27.046-49.941 27.043-39.696 24.305-25.726 28.516-8.075 22.656-7.48"/><path fill="none" stroke="#34618D" stroke-linecap="round" stroke-linejoin="round" stroke-miterlimit="10" stroke-opacity=".4" stroke-width=".8" d="m56.676 251.355 22.55-9.87 26.801-44.641 26.164-54.473 26.957-44.687 27.11-40.793 25.164-29.72 27.976-9.093 22.442-7.246"/><path fill="none" stroke="#31668E" stroke-linecap="round" stroke-linejoin="round" stroke-miterlimit="10" stroke-opacity=".4" stroke-width=".8" d="m56.629 252.45 23.418-9.505 25.824-35.918 26.766-58.543 26.32-44.242 27.188-44.594 26.093-29.714 26.946-11.54 22.468-7.624"/><path fill="none" stroke="#2F6B8E" stroke-linecap="round" stroke-linejoin="round" stroke-miterlimit="10" stroke-opacity=".4" stroke-width=".8" d="m56.496 251.375 23.3-7.973 26.47-27.52 26.492-60.202 26.015-44.23 27.204-47.15 26.898-32.55 25.773-13.273 22.758-7.489"/><path fill="none" stroke="#2D718E" stroke-linecap="round" stroke-linejoin="round" stroke-miterlimit="10" stroke-opacity=".4" stroke-width=".8" d="m55.473 250.172 23.843-10.192 27.403-17.953 25.441-53.937 26.492-51.485 27.164-45.52 27.614-37.382 25.004-15.379 23.12-7.133"/><path fill="none" stroke="#2B758E" stroke-linecap="round" stroke-linejoin="round" stroke-miterlimit="10" stroke-opacity=".4" stroke-width=".8" d="m55.648 250.059 22.954-11.157 28.554-16.449 24.914-43.496 26.668-55.605 27.043-46.25L213.648 35.8l24.41-17.188 23.79-7.082"/><path fill="none" stroke="#297A8E" stroke-linecap="round" stroke-linejoin="round" stroke-miterlimit="10" stroke-opacity=".4" stroke-width=".8" d="m56.242 248.742 21.793-9.172 28.899-16.02 25.382-35.304 26.418-56.039 26.864-51.945 28.027-40.375 24.16-21.711 24.293-5.98"/><path fill="none" stroke="#277F8E" stroke-linecap="round" stroke-linejoin="round" stroke-miterlimit="10" stroke-opacity=".4" stroke-width=".8" d="m56.059 246.566 22.57-6.425 27.82-19.871 26.473-26.723 25.95-52.727 26.683-56.12 27.972-42.677 24.215-23.18 24.485-6.41"/><path fill="none" stroke="#25838E" stroke-linecap="round" stroke-linejoin="round" stroke-miterlimit="10" stroke-opacity=".4" stroke-width=".8" d="m54.137 247.16 25.246-7.45 26.508-21.35 27.37-21.829 25.177-45.828 26.87-59.086 27.973-47.129 24.528-25.043 24.472-6.843"/><path fill="none" stroke="#23898D" stroke-linecap="round" stroke-linejoin="round" stroke-miterlimit="10" stroke-opacity=".4" stroke-width=".8" d="m53.902 250.02 26.48-12.743 25.49-18.507 27.593-24.993 24.773-31.257 27.078-66.84 27.871-49.243 24.801-26.746 24.317-6.875"/><path fill="none" stroke="#218E8D" stroke-linecap="round" stroke-linejoin="round" stroke-miterlimit="10" stroke-opacity=".4" stroke-width=".8" d="m54.066 251.14 26.184-15.347 25.719-16.227 27.332-30.941 25.097-21.012 27.079-69.68 27.687-49.214 24.871-28.215 24.153-7.758"/><path fill="none" stroke="#20928C" stroke-linecap="round" stroke-linejoin="round" stroke-miterlimit="10" stroke-opacity=".4" stroke-width=".8" d="m53.605 251.25 26.708-16.148 25.68-19.032 27.14-31.152 25.738-17.102 26.574-68.28 27.672-49.75 24.746-27.856 24.075-9.516"/><path fill="none" stroke="#1F978B" stroke-linecap="round" stroke-linejoin="round" stroke-miterlimit="10" stroke-opacity=".4" stroke-width=".8" d="m53.102 250.113 26.43-17.12 26.277-15.755 26.988-34.351 26.668-16.883 25.945-62.211 27.602-52.148 25.172-29.329 23.933-10.082"/><path fill="none" stroke="#1E9D89" stroke-linecap="round" stroke-linejoin="round" stroke-miterlimit="10" stroke-opacity=".4" stroke-width=".8" d="m53.195 249.29 26.543-17.868 26.5-11.649 26.227-39.359 27.355-18.937 25.43-49.793 27.656-57.368 25.563-31.882 23.761-10.176"/><path fill="none" stroke="#1FA187" stroke-linecap="round" stroke-linejoin="round" stroke-miterlimit="10" stroke-opacity=".4" stroke-width=".8" d="m53.504 249.027 26.594-17.254 26.359-10.382 25.871-38.258 27.66-25.45 25.348-39.12 27.57-62.555 25.922-33.012 23.496-10.68"/><path fill="none" stroke="#21A685" stroke-linecap="round" stroke-linejoin="round" stroke-miterlimit="10" stroke-opacity=".4" stroke-width=".8" d="m53.18 250.145 26.402-18.727 27.074-10.68 25.903-42.168 27.214-26.43 25.582-27.44 27.606-66.497 26.219-35.055 23.226-10.84"/><path fill="none" stroke="#25AB82" stroke-linecap="round" stroke-linejoin="round" stroke-miterlimit="10" stroke-opacity=".4" stroke-width=".8" d="m52.863 247.906 26.172-13.926 27.57-14.882 26-37.989 26.637-32.996 25.914-19.297 27.461-66.03 26.801-39.294 23.059-11.34"/><path fill="none" stroke="#29AF7F" stroke-linecap="round" stroke-linejoin="round" stroke-miterlimit="10" stroke-opacity=".4" stroke-width=".8" d="m52.648 249.07 26.368-13.293 27.464-19.312 26.137-34.145 26.48-35.96 26.2-14.825 27.312-65.93 27.086-41.71 22.856-11.786"/><path fill="none" stroke="#31B57B" stroke-linecap="round" stroke-linejoin="round" stroke-miterlimit="10" stroke-opacity=".4" stroke-width=".8" d="m52.414 250.379 26.02-14.793 27.875-21.574 26.457-31.899 26.254-36.293 26.39-14.457 27.305-63.547 27.16-43.597 22.684-12.153"/><path fill="none" stroke="#38B977" stroke-linecap="round" stroke-linejoin="round" stroke-miterlimit="10" stroke-opacity=".4" stroke-width=".8" d="m52.336 249.984 25.668-15.957 27.957-22.672 26.824-35.265 26.137-29.621 26.738-17.414 27.242-60.926 27.11-43.113 22.59-12.934"/><path fill="none" stroke="#40BD72" stroke-linecap="round" stroke-linejoin="round" stroke-miterlimit="10" stroke-opacity=".4" stroke-width=".8" d="m51.703 250.727 26.363-17.336 27.922-23.942 26.817-39.558 26.12-21.383 26.684-22.793 27.453-58.902 27.024-41.579 22.476-13.277"/><path fill="none" stroke="#4AC16D" stroke-linecap="round" stroke-linejoin="round" stroke-miterlimit="10" stroke-opacity=".4" stroke-width=".8" d="m51.398 250.945 26.547-15.406 27.871-28.941 26.848-39.32L158.79 148.5l26.82-23.953 27.602-59.059 26.976-39.785 22.34-13.953"/><path fill="none" stroke="#56C667" stroke-linecap="round" stroke-linejoin="round" stroke-miterlimit="10" stroke-opacity=".4" stroke-width=".8" d="m50.848 251.352 27.402-17.864 27.43-33.566 26.652-38.344 26.414-13.281 26.688-27.684L213.254 63l26.93-37.066 22.312-14.254"/><path fill="none" stroke="#60CA60" stroke-linecap="round" stroke-linejoin="round" stroke-miterlimit="10" stroke-opacity=".4" stroke-width=".8" d="m50.473 251.066 27.707-17.699 27.379-38.976 26.89-36.606 26.336-12.55 26.469-28.524 27.95-55.336 26.96-34.957 22.258-14.637"/><path fill="none" stroke="#6CCD5A" stroke-linecap="round" stroke-linejoin="round" stroke-miterlimit="10" stroke-opacity=".4" stroke-width=".8" d="M50.613 250.777 78.43 232.48l27.449-43.835 26.582-36.84 26.281-12.188 26.442-28.289 28.015-51.953 26.899-32.637 22.261-15.008"/><path fill="none" stroke="#77D153" stroke-linecap="round" stroke-linejoin="round" stroke-miterlimit="10" stroke-opacity=".4" stroke-width=".8" d="m50.93 251.559 27.445-23.848 27.785-43.297 26.488-34.285L158.863 134l26.395-26.902 27.96-49.801 26.708-30.856 22.273-14.421"/><path fill="none" stroke="#84D44B" stroke-linecap="round" stroke-linejoin="round" stroke-miterlimit="10" stroke-opacity=".4" stroke-width=".8" d="m50.941 251.96 26.793-21.917 28.32-48.102 26.856-37.062 26.012-19.168 26.426-25.043 27.773-42.93 26.606-30.687 22.285-14.828"/><path fill="none" stroke="#93D741" stroke-linecap="round" stroke-linejoin="round" stroke-miterlimit="10" stroke-opacity=".4" stroke-width=".8" d="m50.512 251.297 26.511-17.395 28.98-44.183 26.86-56.606 26.098-25.187 26.523-15.485 27.508-35.73 26.692-29.352 22.293-15.207"/><path fill="none" stroke="#A0DA39" stroke-linecap="round" stroke-linejoin="round" stroke-miterlimit="10" stroke-opacity=".4" stroke-width=".8" d="m50.281 251.59 26.293-15.68 29.703-46.027 26.657-56.035 26.015-34.953 26.649-12.665 27.437-29.933 26.684-29.379 22.133-14.45"/><path fill="none" stroke="#ADDC30" stroke-linecap="round" stroke-linejoin="round" stroke-miterlimit="10" stroke-opacity=".4" stroke-width=".8" d="M49.223 251.832 77.43 231.34l29.148-60.32 26.063-55.665 26.058-21.906 26.828-12.316L212.93 55.09l26.715-28.168 22.054-14.61"/><path fill="none" stroke="#BADE28" stroke-linecap="round" stroke-linejoin="round" stroke-miterlimit="10" stroke-opacity=".4" stroke-width=".8" d="m48.25 252.293 29.7-26.27 28.405-44.699 26.211-51.332 26.102-34.14 26.766-17.72 27.57-24.394 26.61-27.484 21.933-13.918"/><path fill="none" stroke="#CAE11F" stroke-linecap="round" stroke-linejoin="round" stroke-miterlimit="10" stroke-opacity=".4" stroke-width=".8" d="m49.117 251.61 28.77-25.708 29.101-45.254 25.223-48.832 26.39-30.34 26.778-20.863 27.758-27.09 26.492-26.93 21.809-14.261"/><path fill="none" stroke="#D8E219" stroke-linecap="round" stroke-linejoin="round" stroke-miterlimit="10" stroke-opacity=".4" stroke-width=".8" d="m48.387 249.875 29.039-29.387 29.332-49.336 25.476-45.183 26.352-25.938 26.805-18.59 27.64-27.504 26.617-26.87 21.809-14.993"/><path fill="none" stroke="#E5E419" stroke-linecap="round" stroke-linejoin="round" stroke-miterlimit="10" stroke-opacity=".4" stroke-width=".8" d="m48.45 248.422 28.19-19.504 29.704-44.945 26.035-46.582 26.25-36.543 26.574-23.008 27.817-24.024 26.761-27.023L261.34 11.68"/><path fill="none" stroke="#F1E51D" stroke-linecap="round" stroke-linejoin="round" stroke-miterlimit="10" stroke-opacity=".4" stroke-width=".8" d="m48.348 248.238 28.52-20.687 29.593-45.344 26.164-41.941 26.066-36.88L185.18 76.84l27.984-24.563 26.676-27.363 21.207-13.531"/><path fill="none" stroke="#4050F7" stroke-linecap="round" stroke-linejoin="round" stroke-miterlimit="10" stroke-width="1.5" d="m48.664 249.43 27.621-17.496 30.52-34.602 26.16-50.562 26.101-44.723 26.426-27.492 27.59-25.524 26.598-24.86 21.351-12.694"/><path fill="#4050F7" stroke="#4050F7" stroke-linejoin="round" stroke-miterlimit="10" d="M48.664 250.93a1.5 1.5 0 0 0 1.063-.442 1.502 1.502 0 0 0 0-2.121 1.502 1.502 0 0 0-2.563 1.063c0 .398.16.777.441 1.058.282.285.66.442 1.06.442ZM76.285 233.434c.399 0 .781-.16 1.063-.442a1.502 1.502 0 0 0 0-2.121 1.502 1.502 0 0 0-2.563 1.063c0 .398.16.777.442 1.058.28.281.66.442 1.058.442ZM106.805 198.832c.398 0 .777-.156 1.058-.437s.442-.665.442-1.063-.16-.777-.442-1.059a1.496 1.496 0 0 0-2.558 1.059c0 .398.156.781.437 1.063.281.28.664.437 1.063.437ZM132.965 148.27a1.5 1.5 0 1 0-1.5-1.5c0 .398.156.78.437 1.062.282.281.664.438 1.063.438ZM159.066 103.547c.399 0 .782-.156 1.063-.438a1.502 1.502 0 0 0-1.063-2.562c-.398 0-.777.16-1.058.441a1.496 1.496 0 0 0 1.058 2.559ZM185.492 76.055c.399 0 .781-.157 1.063-.438a1.502 1.502 0 0 0-1.063-2.562 1.503 1.503 0 0 0-1.058 2.562 1.5 1.5 0 0 0 1.058.438ZM213.082 50.531a1.5 1.5 0 1 0-1.5-1.5c0 .399.156.782.438 1.063.28.281.664.437 1.062.437ZM239.68 25.672c.398 0 .78-.156 1.062-.438a1.502 1.502 0 0 0-1.062-2.562 1.503 1.503 0 0 0-1.059 2.562 1.5 1.5 0 0 0 1.059.438ZM261.031 12.977c.399 0 .781-.157 1.063-.438a1.502 1.502 0 0 0-1.063-2.562c-.398 0-.777.16-1.058.441a1.496 1.496 0 0 0 1.058 2.559Zm0 0"/><g clip-path="url(#W)"><path fill="none" stroke="#000" stroke-linecap="round" stroke-linejoin="round" stroke-miterlimit="10" stroke-width="1.5" d="m133.535 122.105 12.73-66.37 12.239 53.925 12.586-57.297 12.613-8.437 12.867-13.617 12.403-10.262 13.16-9.797 12.383-1.93 12.164-1.117 13.941-1 14.758-.18"/></g><path stroke="#000" stroke-linejoin="round" stroke-miterlimit="10" d="M133.535 123.605a1.503 1.503 0 0 0 1.5-1.5c0-.398-.16-.78-.441-1.062a1.502 1.502 0 0 0-2.121 0 1.502 1.502 0 0 0 1.062 2.562ZM146.266 57.234c.398 0 .78-.156 1.062-.437a1.502 1.502 0 0 0-2.125-2.121 1.502 1.502 0 0 0 0 2.121c.285.281.664.437 1.063.437ZM158.504 111.16c.398 0 .777-.16 1.059-.441a1.496 1.496 0 0 0-1.06-2.559c-.398 0-.78.156-1.062.438a1.502 1.502 0 0 0 1.063 2.562ZM171.09 53.863a1.5 1.5 0 0 0 1.5-1.5c0-.398-.156-.781-.438-1.062a1.508 1.508 0 0 0-2.125 0 1.502 1.502 0 0 0 1.063 2.562ZM183.703 45.426c.399 0 .781-.16 1.063-.442a1.502 1.502 0 0 0 0-2.121 1.502 1.502 0 0 0-2.563 1.063c0 .398.16.777.442 1.058.28.282.66.442 1.058.442ZM196.57 31.809c.399 0 .778-.16 1.059-.442.281-.281.441-.664.441-1.058 0-.399-.16-.782-.441-1.063a1.502 1.502 0 0 0-2.121 0 1.502 1.502 0 0 0 1.062 2.563ZM208.973 21.547c.398 0 .78-.156 1.062-.438a1.502 1.502 0 0 0-1.062-2.562c-.399 0-.778.16-1.059.441a1.496 1.496 0 0 0 1.059 2.559ZM222.133 11.75c.398 0 .781-.156 1.062-.437a1.502 1.502 0 0 0-1.062-2.563c-.399 0-.778.16-1.059.441a1.496 1.496 0 0 0 1.059 2.559ZM234.516 9.82c.398 0 .78-.16 1.062-.441a1.502 1.502 0 0 0 0-2.121 1.502 1.502 0 0 0-2.562 1.062c0 .399.16.778.441 1.059s.66.441 1.059.441Zm0 0"/><g clip-path="url(#X)"><path d="M246.68 8.703c.398 0 .78-.156 1.062-.437a1.502 1.502 0 0 0-1.062-2.563c-.399 0-.778.16-1.059.442a1.496 1.496 0 0 0 1.059 2.558m0 0"/></g><g clip-path="url(#Y)"><path fill="none" stroke="#000" stroke-linejoin="round" stroke-miterlimit="10" d="M246.68 8.703c.398 0 .78-.156 1.062-.437a1.502 1.502 0 0 0-1.062-2.563c-.399 0-.778.16-1.059.442a1.496 1.496 0 0 0 1.059 2.558Zm0 0"/></g><g clip-path="url(#Z)"><path d="M260.621 7.703a1.5 1.5 0 0 0 1.5-1.5c0-.398-.156-.781-.437-1.062a1.502 1.502 0 0 0-2.563 1.062 1.503 1.503 0 0 0 1.5 1.5m0 0"/></g><g clip-path="url(#aa)"><path fill="none" stroke="#000" stroke-linejoin="round" stroke-miterlimit="10" d="M260.621 7.703a1.5 1.5 0 0 0 1.5-1.5c0-.398-.156-.781-.437-1.062a1.502 1.502 0 0 0-2.563 1.062 1.503 1.503 0 0 0 1.5 1.5Zm0 0"/></g><g clip-path="url(#ab)"><path d="M275.379 7.523a1.5 1.5 0 1 0-1.5-1.5c0 .399.156.782.437 1.063s.664.437 1.063.437m0 0"/></g><g clip-path="url(#ac)"><path fill="none" stroke="#000" stroke-linejoin="round" stroke-miterlimit="10" d="M275.379 7.523a1.5 1.5 0 1 0-1.5-1.5c0 .399.156.782.437 1.063s.664.437 1.063.437Zm0 0"/></g><g clip-path="url(#ad)"><path fill="none" stroke="gray" stroke-linecap="round" stroke-linejoin="round" stroke-miterlimit="10" stroke-width="1.5" d="m100.113 254.84 7.59-49.777 14.508-12.442 11.723 12.441L146.426 167l13.117-12.926 11.66-5.191 12.168-6.485 12.715-3.285 12.797 2.078 12.492-11.613 12.758-22.273 12.87.093 12.79-16.3 17.2-69.364"/></g><g clip-path="url(#ae)"><path fill="gray" d="M100.113 256.34a1.5 1.5 0 1 0-1.5-1.5c0 .398.157.781.438 1.062s.664.438 1.062.438m0 0"/></g><g clip-path="url(#af)"><path fill="none" stroke="gray" stroke-linejoin="round" stroke-miterlimit="10" d="M100.113 256.34a1.5 1.5 0 1 0-1.5-1.5c0 .398.157.781.438 1.062s.664.438 1.062.438Zm0 0"/></g><path fill="gray" stroke="gray" stroke-linejoin="round" stroke-miterlimit="10" d="M107.703 206.563c.399 0 .781-.157 1.063-.438a1.502 1.502 0 0 0-1.063-2.562 1.503 1.503 0 0 0-1.5 1.5c0 .398.16.78.442 1.062.28.281.66.438 1.058.438ZM122.21 194.121c.4 0 .782-.16 1.063-.441a1.502 1.502 0 0 0 0-2.121 1.502 1.502 0 0 0-2.562 1.062 1.503 1.503 0 0 0 1.5 1.5ZM133.934 206.563c.398 0 .78-.157 1.062-.438a1.502 1.502 0 0 0-1.062-2.562 1.503 1.503 0 0 0-1.5 1.5c0 .398.16.78.441 1.062.281.281.66.438 1.059.438ZM146.426 168.5c.398 0 .781-.156 1.062-.437s.438-.665.438-1.063-.156-.781-.438-1.062a1.502 1.502 0 0 0-2.12 2.125c.28.28.66.437 1.058.437ZM159.543 155.574c.398 0 .777-.16 1.059-.441a1.496 1.496 0 0 0-1.059-2.559c-.398 0-.781.156-1.063.438a1.502 1.502 0 0 0 1.063 2.562ZM171.203 150.383a1.5 1.5 0 0 0 1.5-1.5c0-.399-.156-.781-.437-1.063a1.502 1.502 0 0 0-2.563 1.063 1.503 1.503 0 0 0 1.5 1.5ZM183.371 143.898a1.5 1.5 0 0 0 1.5-1.5c0-.398-.156-.78-.437-1.062a1.502 1.502 0 0 0-2.563 1.062 1.503 1.503 0 0 0 1.5 1.5ZM196.086 140.613c.398 0 .781-.16 1.062-.441s.438-.66.438-1.059-.156-.781-.438-1.062a1.502 1.502 0 0 0-2.562 1.062c0 .399.16.778.441 1.059s.66.441 1.059.441ZM208.883 142.691c.398 0 .781-.156 1.062-.437a1.502 1.502 0 0 0-1.062-2.563 1.503 1.503 0 0 0-1.059 2.563 1.5 1.5 0 0 0 1.059.437ZM221.375 131.078c.398 0 .777-.156 1.059-.437a1.496 1.496 0 0 0 0-2.121 1.496 1.496 0 0 0-2.559 1.058c0 .399.156.781.438 1.063.28.28.664.437 1.062.437ZM234.133 108.805c.398 0 .777-.16 1.058-.442a1.496 1.496 0 0 0-1.058-2.558c-.399 0-.781.156-1.063.437a1.502 1.502 0 0 0 1.063 2.563ZM247.004 108.898a1.5 1.5 0 0 0 1.5-1.5c0-.398-.156-.78-.438-1.062a1.502 1.502 0 0 0-2.562 1.062 1.503 1.503 0 0 0 1.5 1.5ZM259.793 92.598a1.5 1.5 0 1 0-1.5-1.5c0 .398.156.78.437 1.062.282.281.665.438 1.063.438Zm0 0"/><g clip-path="url(#ag)"><path fill="gray" d="M276.992 23.234c.399 0 .781-.16 1.063-.441a1.502 1.502 0 0 0 0-2.121 1.502 1.502 0 0 0-2.563 1.062c0 .399.16.778.442 1.059.28.281.66.441 1.058.441m0 0"/></g><g clip-path="url(#ah)"><path fill="none" stroke="gray" stroke-linejoin="round" stroke-miterlimit="10" d="M276.992 23.234c.399 0 .781-.16 1.063-.441a1.502 1.502 0 0 0 0-2.121 1.502 1.502 0 0 0-2.563 1.062c0 .399.16.778.442 1.059.28.281.66.441 1.058.441Zm0 0"/></g><path fill="none" stroke="red" stroke-linecap="round" stroke-linejoin="round" stroke-miterlimit="10" stroke-width="1.5" d="m75.46 165.953 9.032 40.899 10.844-34.645 13.312-8.125 11.938-48.148 12.762-31.254 12.418-2.032 12.714-20.601 13-19.617 12.051-4.688 12.621 1.746 12.653-2.847 12.75-6.364 12.55-8.082 12.727-9.34 11.7-4.601 9.698-.79"/><path fill="red" stroke="red" stroke-linejoin="round" stroke-miterlimit="10" d="M75.46 167.453c.4 0 .778-.156 1.06-.437a1.496 1.496 0 0 0 0-2.121 1.496 1.496 0 0 0-2.56 1.058c0 .399.157.781.438 1.063.282.28.665.437 1.063.437ZM84.492 208.352c.399 0 .781-.157 1.063-.438a1.502 1.502 0 0 0-1.063-2.562 1.503 1.503 0 0 0-1.058 2.562 1.5 1.5 0 0 0 1.058.438ZM95.336 173.707c.398 0 .781-.16 1.062-.441s.438-.66.438-1.059-.156-.781-.438-1.062a1.502 1.502 0 0 0-2.562 1.062c0 .398.16.777.441 1.059.282.28.66.441 1.059.441ZM108.648 165.582c.399 0 .778-.156 1.059-.437.281-.286.441-.665.441-1.063s-.16-.781-.441-1.062a1.502 1.502 0 0 0-2.121 0 1.508 1.508 0 0 0 0 2.125c.281.28.664.437 1.062.437ZM120.586 117.434a1.505 1.505 0 0 0 1.5-1.5c0-.399-.16-.778-.441-1.059a1.496 1.496 0 0 0-2.56 1.059c0 .398.157.78.438 1.062.282.281.665.438 1.063.438ZM133.348 86.18c.398 0 .78-.16 1.062-.442a1.502 1.502 0 0 0 0-2.121 1.502 1.502 0 0 0-2.562 1.063c0 .398.16.777.441 1.058s.66.442 1.059.442ZM145.766 84.148c.398 0 .777-.156 1.058-.437s.442-.664.442-1.063-.16-.777-.442-1.058a1.496 1.496 0 0 0-2.558 1.058c0 .399.156.782.437 1.063s.664.437 1.063.437ZM158.48 63.547a1.503 1.503 0 0 0 1.06-2.563 1.502 1.502 0 0 0-2.121 0 1.502 1.502 0 0 0 1.061 2.563ZM171.48 43.93a1.5 1.5 0 0 0 1.5-1.5c0-.399-.156-.782-.437-1.063a1.502 1.502 0 0 0-2.563 1.063 1.503 1.503 0 0 0 1.5 1.5ZM183.531 39.242c.399 0 .781-.156 1.063-.437a1.502 1.502 0 0 0-1.063-2.563c-.398 0-.777.16-1.058.442a1.5 1.5 0 0 0-.442 1.058c0 .399.16.781.442 1.063.28.28.66.437 1.058.437ZM196.152 40.988c.399 0 .782-.156 1.063-.437a1.502 1.502 0 0 0-1.063-2.563 1.503 1.503 0 0 0-1.058 2.563 1.5 1.5 0 0 0 1.058.437ZM208.805 38.14a1.503 1.503 0 0 0 1.5-1.5c0-.398-.16-.78-.442-1.062a1.502 1.502 0 0 0-2.121 0 1.502 1.502 0 0 0 1.063 2.563ZM221.555 31.777a1.503 1.503 0 0 0 1.5-1.5c0-.398-.16-.78-.442-1.062a1.502 1.502 0 0 0-2.121 0 1.502 1.502 0 0 0 1.063 2.562ZM234.105 23.695a1.5 1.5 0 0 0 1.5-1.5c0-.398-.156-.78-.437-1.062a1.502 1.502 0 0 0-2.563 1.062 1.503 1.503 0 0 0 1.5 1.5ZM246.832 14.355a1.5 1.5 0 0 0 1.5-1.5c0-.398-.156-.78-.437-1.062a1.502 1.502 0 0 0-2.563 1.062 1.503 1.503 0 0 0 1.5 1.5ZM258.531 9.754c.399 0 .778-.156 1.059-.438.281-.285.441-.664.441-1.062 0-.399-.16-.781-.441-1.063a1.502 1.502 0 0 0-2.121 0 1.508 1.508 0 0 0 0 2.125c.281.282.664.438 1.062.438Zm0 0"/><g clip-path="url(#ai)"><path fill="red" d="M268.23 8.965a1.505 1.505 0 0 0 1.5-1.5c0-.399-.16-.777-.44-1.059a1.496 1.496 0 0 0-2.56 1.059c0 .398.157.781.438 1.062s.664.438 1.062.438m0 0"/></g><g clip-path="url(#aj)"><path fill="none" stroke="red" stroke-linejoin="round" stroke-miterlimit="10" d="M268.23 8.965a1.505 1.505 0 0 0 1.5-1.5c0-.399-.16-.777-.44-1.059a1.496 1.496 0 0 0-2.56 1.059c0 .398.157.781.438 1.062s.664.438 1.062.438Zm0 0"/></g><path fill="none" stroke="#FFF" stroke-linecap="square" stroke-miterlimit="10" stroke-width=".8" d="M39.012 254.84V5.96M278.035 254.84V5.96M39.012 254.84h239.023M39.012 5.96h239.023"/><path fill="#EAEAF2" fill-opacity=".8" stroke="#CCC" stroke-miterlimit="10" stroke-opacity=".8" d="M168.375 250.676h103.828q1.669 0 1.668-1.668v-60.305q0-1.665-1.668-1.664H168.375q-1.665 0-1.664 1.664v60.305q0 1.669 1.664 1.668Zm0 0"/><path fill="none" stroke="#000" stroke-dasharray="5.55 2.4" stroke-linejoin="round" stroke-miterlimit="10" stroke-width="1.5" d="M170.043 193.781h16.66"/><use xlink:href="#ak" x="193.366" y="196.699" fill="#262626"/><g fill="#262626"><use xlink:href="#al" x="198.092" y="196.699"/><use xlink:href="#am" x="203.215" y="196.699"/><use xlink:href="#an" x="206.639" y="196.699"/><use xlink:href="#al" x="209.571" y="196.699"/><use xlink:href="#ao" x="214.694" y="196.699"/><use xlink:href="#ap" x="219.275" y="196.699"/><use xlink:href="#aq" x="222.541" y="196.699"/><use xlink:href="#ar" x="225.19" y="196.699"/><use xlink:href="#as" x="231.004" y="196.699"/><use xlink:href="#at" x="236.11" y="196.699"/><use xlink:href="#au" x="238.426" y="196.699"/><use xlink:href="#av" x="240.742" y="196.699"/><use xlink:href="#am" x="246.031" y="196.699"/><use xlink:href="#as" x="249.455" y="196.699"/><use xlink:href="#ap" x="254.561" y="196.699"/><use xlink:href="#au" x="257.827" y="196.699"/><use xlink:href="#aw" x="260.142" y="196.699"/><use xlink:href="#ax" x="265.24" y="196.699"/></g><path fill="none" stroke="#4050F7" stroke-linecap="round" stroke-linejoin="round" stroke-miterlimit="10" stroke-width="1.5" d="M170.043 206.012h16.66"/><path fill="#4050F7" stroke="#4050F7" stroke-linejoin="round" stroke-miterlimit="10" d="M178.371 207.512c.399 0 .781-.16 1.063-.442a1.502 1.502 0 0 0 0-2.121 1.502 1.502 0 0 0-2.563 1.063c0 .398.16.777.441 1.058s.66.442 1.06.442Zm0 0"/><g fill="#262626"><use xlink:href="#ar" x="193.366" y="208.926"/><use xlink:href="#ay" x="199.18" y="208.926"/><use xlink:href="#az" x="204.27" y="208.926"/></g><path fill="none" stroke="#000" stroke-linecap="round" stroke-linejoin="round" stroke-miterlimit="10" stroke-width="1.5" d="M170.043 218.238h16.66"/><path stroke="#000" stroke-linejoin="round" stroke-miterlimit="10" d="M178.371 219.738c.399 0 .781-.16 1.063-.441a1.502 1.502 0 0 0 0-2.121 1.502 1.502 0 0 0-2.563 1.062c0 .399.16.778.441 1.059s.66.441 1.06.441Zm0 0"/><g fill="#262626"><use xlink:href="#aA" x="193.366" y="221.154"/><use xlink:href="#aB" x="199.63" y="221.154"/><use xlink:href="#aC" x="204.912" y="221.154"/><use xlink:href="#as" x="213.025" y="221.154"/><use xlink:href="#ax" x="218.131" y="221.154"/><use xlink:href="#aD" x="223.412" y="221.154"/><use xlink:href="#aq" x="227.752" y="221.154"/><use xlink:href="#aE" x="230.401" y="221.154"/><use xlink:href="#aF" x="233.65" y="221.154"/></g><g fill="#262626"><use xlink:href="#aG" x="238.863" y="221.154"/><use xlink:href="#aH" x="243.795" y="221.154"/><use xlink:href="#aI" x="249.084" y="221.154"/></g><path fill="none" stroke="gray" stroke-linecap="round" stroke-linejoin="round" stroke-miterlimit="10" stroke-width="1.5" d="M170.043 230.465h16.66"/><path fill="gray" stroke="gray" stroke-linejoin="round" stroke-miterlimit="10" d="M178.371 231.965c.399 0 .781-.156 1.063-.438a1.502 1.502 0 0 0-1.063-2.562c-.398 0-.777.16-1.059.441a1.496 1.496 0 0 0 1.06 2.559Zm0 0"/><g fill="#262626"><use xlink:href="#aJ" x="193.366" y="233.381"/><use xlink:href="#aJ" x="198.156" y="233.381"/></g><path fill="none" stroke="red" stroke-linecap="round" stroke-linejoin="round" stroke-miterlimit="10" stroke-width="1.5" d="M170.043 242.691h16.66"/><path fill="red" stroke="red" stroke-linejoin="round" stroke-miterlimit="10" d="M178.371 244.191c.399 0 .781-.156 1.063-.437a1.502 1.502 0 0 0-1.063-2.563c-.398 0-.777.16-1.059.442a1.5 1.5 0 0 0-.44 1.058c0 .399.16.782.44 1.063.282.281.66.437 1.06.437Zm0 0"/><g fill="#262626"><use xlink:href="#aK" x="193.366" y="245.609"/><use xlink:href="#aL" x="198.006" y="245.609"/><use xlink:href="#ay" x="203.295" y="245.609"/><use xlink:href="#az" x="208.385" y="245.609"/></g></svg>