<svg xmlns="http://www.w3.org/2000/svg" xmlns:xlink="http://www.w3.org/1999/xlink" width="384" height="384" viewBox="0 0 288 288"><defs><path id="b" d="M1.238-.828h1.614v-5.563l-1.75.352v-.902L2.84-7.29h.988v6.46h1.613V0H1.238Zm0 0"/><path id="d" d="M1.922-.828h3.437V0H.73v-.828c.372-.383.88-.902 1.532-1.563A72 72 0 0 0 3.48-3.648q.48-.528.66-.903c.122-.238.188-.488.188-.73 0-.38-.137-.7-.406-.938-.274-.242-.621-.37-1.063-.37-.308 0-.64.058-.98.16q-.51.162-1.098.488v-1q.6-.238 1.11-.36c.34-.078.66-.12.949-.12q1.126 0 1.8.57c.45.382.68.882.68 1.511 0 .3-.058.59-.172.852-.109.27-.308.59-.609.949-.078.098-.34.367-.777.82-.442.45-1.051 1.078-1.84 1.89m0 0"/><path id="f" d="M4.059-3.93c.472.102.84.309 1.101.63.262.32.399.722.399 1.179 0 .723-.25 1.281-.739 1.672-.5.39-1.199.578-2.11.578a5 5 0 0 1-.948-.09c-.32-.05-.66-.14-1-.258v-.953c.27.16.566.281.898.363q.48.118 1.02.118.93.002 1.41-.36c.32-.238.488-.597.488-1.07 0-.418-.148-.758-.45-1-.3-.238-.718-.367-1.257-.367H2.02v-.813h.89c.48 0 .852-.09 1.11-.289q.39-.285.39-.84c0-.37-.14-.66-.398-.86q-.41-.298-1.14-.3-.407 0-.872.09a8 8 0 0 0-1.02.27v-.88c.372-.1.72-.18 1.051-.23.32-.05.63-.082.93-.082q1.107.001 1.77.512.66.51.66 1.379c0 .402-.121.742-.352 1.02-.23.28-.559.48-.98.581m0 0"/><path id="h" d="M3.781-6.43 1.29-2.54h2.492Zm-.261-.86h1.242v4.75H5.8v.821H4.76V0h-.98v-1.719H.488v-.953Zm0 0"/><path id="j" d="M1.078-7.29H4.95v.83H1.98v1.788c.141-.047.29-.09.43-.11.14-.019.29-.038.43-.038.808 0 1.45.23 1.93.672.48.449.718 1.046.718 1.808 0 .79-.25 1.399-.738 1.828-.488.434-1.18.64-2.059.64-.312 0-.62-.026-.941-.07a5.6 5.6 0 0 1-.98-.23v-.988q.432.24.91.36c.308.081.64.109.992.109.558 0 1.008-.137 1.34-.438.316-.3.488-.7.488-1.21 0-.5-.172-.9-.488-1.2-.332-.3-.782-.45-1.34-.45a3.4 3.4 0 0 0-.793.09 4.4 4.4 0 0 0-.8.27Zm0 0"/><path id="l" d="M3.3-4.04c-.44 0-.788.161-1.05.462-.262.297-.39.719-.39 1.238q-.002.798.39 1.25.391.45 1.05.45.658 0 1.052-.45.386-.452.386-1.25c0-.52-.129-.941-.386-1.238-.262-.3-.614-.461-1.051-.461m1.962-3.089v.899a3.441 3.441 0 0 0-1.5-.36q-.99 0-1.5.66c-.34.442-.543 1.11-.582 1.989.191-.278.43-.5.718-.649.293-.148.614-.23.961-.23.73 0 1.313.23 1.73.672.423.437.641 1.046.641 1.808 0 .75-.23 1.352-.671 1.8C4.62-.09 4.03.13 3.3.13c-.84 0-1.492-.32-1.93-.957C.921-1.468.7-2.41.7-3.641c0-1.148.27-2.07.82-2.75.54-.68 1.282-1.03 2.2-1.03.242 0 .492.03.75.07.25.05.511.12.793.222m0 0"/><path id="n" d="M.82-7.29h4.692v.419L2.859 0H1.83L4.32-6.46H.82Zm0 0"/><path id="o" d="M.98-7.29h.989v6.462h3.55V0H.98Zm0 0"/><path id="p" d="M5.621-2.96v.44H1.488c.043.622.223 1.098.563 1.418q.49.48 1.39.48c.34 0 .68-.038 1-.116.32-.082.649-.211.97-.39v.847c-.321.14-.65.25-.99.312a6 6 0 0 1-1.03.098c-.88 0-1.57-.25-2.082-.75C.8-1.121.55-1.81.55-2.68Q.55-4.016 1.27-4.809c.48-.52 1.14-.793 1.96-.793.739 0 1.32.243 1.75.711.418.48.641 1.121.641 1.93M4.72-3.22c-.008-.492-.149-.883-.41-1.18-.27-.292-.63-.44-1.07-.44-.5 0-.9.148-1.2.429s-.48.68-.52 1.191Zm0 0"/><path id="q" d="M.3-5.469h.95l1.71 4.59 1.712-4.59h.95L3.57 0H2.352Zm0 0"/><path id="r" d="M.941-7.602h.899V0H.94Zm0 0"/><path id="t" d="M3.059-4.84q-.72.001-1.137.57-.422.568-.422 1.54c0 .66.129 1.171.41 1.55.281.38.66.559 1.149.559.48 0 .863-.18 1.14-.559.281-.379.422-.89.422-1.55 0-.641-.14-1.16-.422-1.54-.277-.378-.66-.57-1.14-.57m0-.762c.78 0 1.39.262 1.84.762.44.512.671 1.211.671 2.11 0 .902-.23 1.601-.672 2.101C4.45-.12 3.84.13 3.058.13c-.788 0-1.41-.25-1.847-.758Q.55-1.379.55-2.73c0-.899.219-1.598.66-2.11.437-.5 1.059-.762 1.848-.762m0 0"/><path id="u" d="M3.71-7.602v.75h-.858c-.32 0-.551.07-.672.204q-.193.19-.192.699v.48h1.48v.7h-1.48V0H1.09v-4.77H.23v-.699h.86v-.383c0-.597.14-1.046.422-1.328q.416-.421 1.347-.422Zm0 0"/><path id="v" d="M4.54-4.64v-2.962h.901V0H4.54v-.82c-.187.332-.43.57-.719.718-.289.153-.629.23-1.03.23Q1.798.13 1.171-.647C.75-1.172.55-1.871.55-2.73c0-.86.199-1.551.62-2.079.419-.52.958-.793 1.618-.793.402 0 .742.082 1.031.243q.436.239.72.718M1.48-2.73c0 .66.13 1.18.399 1.558.27.383.64.563 1.121.563.48 0 .852-.18 1.129-.563.27-.379.41-.898.41-1.558s-.14-1.168-.41-1.551A1.32 1.32 0 0 0 3-4.851q-.719 0-1.121.57c-.27.383-.399.89-.399 1.55m0 0"/><path id="w" d="M.941-5.469h.899V0H.94Zm0-2.133h.899v1.141H.94Zm0 0"/><path id="x" d="M4.879-5.262v.84a3.6 3.6 0 0 0-.77-.308 2.9 2.9 0 0 0-.77-.11c-.577 0-1.038.192-1.359.559-.32.37-.48.89-.48 1.55q0 1.008.48 1.56c.32.37.782.55 1.36.55.262 0 .512-.027.77-.098.261-.07.511-.18.769-.32v.828c-.258.121-.52.211-.777.262a4.7 4.7 0 0 1-.864.078c-.816 0-1.476-.25-1.957-.77-.492-.507-.73-1.21-.73-2.09 0-.89.238-1.59.73-2.097.489-.512 1.16-.774 2.02-.774.277 0 .55.032.808.09.262.063.52.14.77.25m0 0"/><path id="y" d="M.852-2.16V-5.47h.898v3.278c0 .52.102.902.3 1.16.2.261.5.39.91.39.481 0 .868-.148 1.15-.46.28-.31.421-.727.421-1.27V-5.47h.899V0H4.53v-.84c-.222.34-.48.578-.761.738a2.1 2.1 0 0 1-1 .23c-.63 0-1.11-.187-1.43-.577C1.012-.83.852-1.4.852-2.16m2.257-3.442"/><path id="z" d="M1.828-7.02v1.551H3.68v.7H1.828v2.968c0 .45.063.742.184.86.117.132.367.191.75.191h.918V0h-.918Q1.707 0 1.32-.39C1.06-.649.93-1.122.93-1.8v-2.97H.27v-.699h.66v-1.55Zm0 0"/><path id="A" d="M3.219.5c-.258.64-.508 1.07-.75 1.27q-.36.3-.957.3H.789v-.75h.531q.36.002.57-.18c.141-.12.29-.39.462-.831l.16-.399L.3-5.469h.949L2.96-1.19 4.673-5.47h.95Zm0 0"/><path id="B" d="M3.102-7.59a10 10 0 0 0-.973 2.23 7.7 7.7 0 0 0-.32 2.22c0 .761.101 1.5.32 2.23.21.738.531 1.469.973 2.219H2.32C1.828.539 1.46-.2 1.22-.941a7.1 7.1 0 0 1-.36-2.2q0-1.078.36-2.187A9.6 9.6 0 0 1 2.32-7.59Zm0 0"/><path id="C" d="M4.871-2.73c0-.66-.14-1.168-.41-1.551a1.33 1.33 0 0 0-1.121-.57q-.719 0-1.121.57c-.278.383-.41.89-.41 1.55s.132 1.18.41 1.56c.27.382.64.562 1.12.562.47 0 .84-.18 1.122-.563.27-.379.41-.898.41-1.558M1.81-4.64c.18-.32.421-.56.71-.72.29-.16.641-.242 1.04-.242.66 0 1.203.274 1.62.793.41.528.622 1.22.622 2.079S5.59-1.172 5.18-.648c-.418.52-.961.777-1.621.777-.399 0-.75-.078-1.04-.23a1.7 1.7 0 0 1-.71-.72V0H.91v-7.602h.899Zm0 0"/><path id="D" d="M3.43-2.75c-.73 0-1.23.09-1.508.25-.281.172-.422.45-.422.852 0 .32.102.578.309.757.21.192.5.282.863.282.5 0 .898-.172 1.2-.532.3-.347.448-.82.448-1.41v-.199Zm1.789-.371V0H4.32v-.828c-.21.34-.468.578-.77.726-.3.153-.679.23-1.12.23-.559 0-1.008-.148-1.34-.456C.762-.641.602-1.058.602-1.59c0-.61.199-1.07.617-1.39.41-.31 1.02-.47 1.84-.47H4.32v-.09c0-.41-.14-.73-.41-.96-.27-.219-.648-.34-1.14-.34-.32 0-.622.04-.918.121-.301.078-.582.188-.852.328v-.828c.32-.12.64-.222.95-.281a5 5 0 0 1 .91-.102c.788 0 1.378.211 1.769.622.39.41.59 1.03.59 1.859m0 0"/><path id="E" d="M4.43-5.309v.848a5 5 0 0 0-.79-.289 4 4 0 0 0-.85-.102c-.45 0-.79.07-1.009.211a.67.67 0 0 0-.332.61c0 .21.082.37.242.492.16.117.48.238.957.34l.313.07c.64.14 1.09.34 1.36.578.257.25.398.602.398 1.04q0 .765-.598 1.202c-.402.297-.96.438-1.66.438-.3 0-.602-.027-.922-.078a6 6 0 0 1-1-.25v-.93q.499.27.98.39c.32.09.641.13.961.13.418 0 .75-.07.98-.211a.7.7 0 0 0 .34-.621c0-.239-.09-.43-.25-.559s-.519-.262-1.081-.379l-.309-.07c-.558-.121-.969-.301-1.21-.54-.25-.241-.372-.57-.372-1 0-.511.184-.91.543-1.19q.54-.423 1.559-.423c.332 0 .64.032.941.082q.434.077.809.211m0 0"/><path id="F" d="M5.488-3.3V0H4.59v-3.27c0-.52-.11-.902-.309-1.16-.203-.261-.5-.39-.902-.39-.488 0-.867.16-1.149.468-.28.313-.421.73-.421 1.262V0H.91v-5.469h.899v.848c.21-.32.46-.57.761-.73.29-.16.63-.25 1.008-.25.621 0 1.102.203 1.422.59.32.39.488.96.488 1.71m0 0"/><path id="G" d="M6.441-6.73v1.039a4 4 0 0 0-1.07-.688 3.2 3.2 0 0 0-1.191-.23q-1.26 0-1.918.77c-.442.51-.66 1.237-.66 2.198q-.001 1.443.66 2.211c.437.508 1.078.758 1.918.758.422 0 .808-.066 1.191-.226.379-.153.73-.383 1.07-.692v1.031c-.351.239-.722.41-1.101.52-.38.11-.79.168-1.219.168-1.101 0-1.973-.328-2.61-1C.872-1.54.56-2.461.56-3.641c0-1.168.312-2.09.953-2.77.636-.667 1.508-1.01 2.61-1.01.437 0 .847.062 1.23.171.378.121.75.29 1.09.52m0 0"/><path id="H" d="M.98-7.29h.989V0H.98Zm0 0"/><path id="I" d="M.98-7.29h4.192v.83H1.969v2.151h2.89v.829H1.97V0H.98Zm0 0"/><path id="J" d="M3.422-6.32 2.078-2.691h2.684Zm-.563-.97H3.98L6.762 0H5.73l-.66-1.871H1.781L1.121 0H.078Zm0 0"/><path id="K" d="M4.441-3.422c.207.082.418.23.618.461.203.242.402.563.601.973L6.66 0H5.602l-.93-1.871c-.242-.48-.48-.809-.703-.969q-.345-.239-.93-.238H1.97V0H.98v-7.29h2.23c.83 0 1.45.18 1.86.52.41.348.621.88.621 1.579 0 .46-.113.851-.32 1.152q-.333.452-.93.617M1.97-6.48v2.59H3.21q.705 0 1.07-.329c.239-.222.367-.543.367-.972 0-.418-.128-.739-.367-.957q-.365-.333-1.07-.332Zm0 0"/><path id="L" d="M.488-3.14h2.633v.8H.488Zm0 0"/><path id="M" d="M3.18-6.64q-.761 0-1.149.75c-.261.5-.383 1.25-.383 2.25s.122 1.75.383 2.25q.386.75 1.149.75c.511 0 .89-.25 1.148-.75.25-.5.383-1.25.383-2.25s-.133-1.75-.383-2.25c-.258-.5-.637-.75-1.148-.75m0-.782c.808 0 1.43.332 1.87.973.43.648.65 1.59.65 2.808 0 1.23-.22 2.172-.65 2.813-.44.637-1.062.957-1.878.957Q1.943.129 1.3-.828C.87-1.468.66-2.41.66-3.641c0-1.218.21-2.16.64-2.808.43-.64 1.058-.973 1.879-.973m0 0"/><path id="N" d="M1.969-6.48V-.81H3.16c1 0 1.738-.222 2.211-.68.457-.46.7-1.183.7-2.16 0-.98-.243-1.69-.7-2.152-.473-.449-1.21-.68-2.21-.68ZM.98-7.29h2.032c1.41 0 2.449.302 3.11.88q.989.886.987 2.762c0 1.257-.34 2.18-1 2.77S4.41 0 3.012 0H.98Zm0 0"/><path id="O" d="M.8-7.59h.778c.48.77.852 1.52 1.094 2.262.238.738.367 1.469.367 2.187 0 .73-.129 1.461-.367 2.2-.242.742-.613 1.48-1.094 2.25H.801c.43-.75.75-1.48.969-2.22.21-.73.32-1.468.32-2.23 0-.75-.11-1.488-.32-2.218A11 11 0 0 0 .8-7.59m0 0"/><path id="U" d="M3.18-3.46c-.47 0-.84.132-1.11.382s-.398.59-.398 1.027c0 .442.129.79.398 1.04.27.25.64.37 1.11.37.46 0 .832-.12 1.101-.379.27-.25.41-.59.41-1.03 0-.438-.14-.778-.402-1.028-.27-.25-.64-.383-1.11-.383M2.19-3.88q-.63-.153-.992-.59C.961-4.762.852-5.109.852-5.53c0-.578.199-1.04.617-1.38q.615-.51 1.71-.51 1.08 0 1.712.51c.41.34.62.802.62 1.38 0 .422-.12.77-.363 1.062-.238.29-.558.489-.976.59q.704.166 1.11.649c.257.32.398.718.398 1.18 0 .71-.22 1.25-.649 1.62C4.59-.05 3.97.13 3.171.13c-.8 0-1.421-.18-1.85-.559Q.677-.985.68-2.05c0-.462.129-.86.398-1.18.262-.32.633-.54 1.113-.649M1.828-5.44c0 .382.113.68.352.89.242.211.57.313 1 .313.422 0 .75-.102.992-.313q.359-.316.36-.89c0-.38-.122-.668-.36-.88-.242-.21-.57-.32-.992-.32-.43 0-.758.11-1 .32-.239.212-.352.5-.352.88m0 0"/><path id="av" d="M1.969-3.48V-.81H3.55Q4.34-.81 4.73-1.14c.25-.218.378-.55.378-1.007 0-.454-.129-.782-.379-1q-.39-.333-1.18-.332Zm0-3v2.199h1.46c.481 0 .833-.09 1.071-.27s.36-.449.36-.828c0-.36-.122-.64-.36-.82s-.59-.281-1.07-.281ZM.98-7.29H3.5c.75 0 1.328.161 1.738.47.403.32.614.761.614 1.332 0 .449-.114.808-.32 1.066-.212.262-.512.434-.91.492q.721.163 1.128.66c.262.329.398.739.398 1.23 0 .661-.226 1.161-.668 1.509C5.04-.171 4.41 0 3.602 0H.98Zm0 0"/><path id="aw" d="M5.488-3.3V0H4.59v-3.27c0-.52-.11-.902-.309-1.16-.203-.261-.5-.39-.902-.39-.488 0-.867.16-1.149.468-.28.313-.421.73-.421 1.262V0H.91v-7.602h.899v2.98c.21-.32.46-.57.761-.73.29-.16.63-.25 1.008-.25.621 0 1.102.204 1.422.59.32.39.488.961.488 1.711m0 0"/><path id="ax" d="M5.2-4.422c.222-.398.491-.687.8-.887.309-.191.68-.293 1.11-.293.562 0 1 .204 1.312.602.308.398.469.969.469 1.7V0h-.903v-3.27c0-.52-.097-.91-.277-1.171-.191-.25-.473-.38-.852-.38-.468 0-.84.16-1.109.47-.27.312-.398.73-.398 1.261V0h-.903v-3.27c0-.52-.097-.91-.277-1.171-.192-.25-.48-.38-.863-.38-.457 0-.829.16-1.098.47q-.403.466-.402 1.261V0H.91v-5.469h.899v.848c.203-.328.453-.578.742-.738.277-.16.62-.243 1.02-.243.398 0 .73.102 1.007.301.281.2.48.5.621.88m0 0"/><path id="ay" d="M4.11-4.629a1.2 1.2 0 0 0-.329-.133c-.12-.02-.25-.039-.39-.039-.512 0-.903.172-1.172.5-.278.332-.41.801-.41 1.422V0H.91v-5.469h.899v.848c.18-.328.43-.578.73-.738q.451-.242 1.11-.243c.062 0 .132.012.21.012.07.012.153.02.25.04Zm0 0"/><path id="az" d="M.91-7.602h.899v4.493l2.68-2.36H5.64L2.738-2.91 5.762 0H4.59L1.809-2.672V0H.91Zm0 0"/><path id="aA" d="M.98-7.29h.989v2.99H5.55v-2.99h.988V0h-.988v-3.469H1.969V0H.98Zm0 0"/><path id="aB" d="M4.54-2.8c0-.641-.142-1.15-.4-1.509-.269-.363-.652-.543-1.128-.543-.48 0-.864.18-1.133.543-.27.36-.399.868-.399 1.508 0 .653.13 1.153.399 1.512.27.36.652.539 1.133.539.476 0 .86-.18 1.129-.54.257-.358.398-.858.398-1.51M5.44-.68c0 .918-.21 1.61-.62 2.07-.423.45-1.051.68-1.9.68-.32 0-.612-.03-.89-.07a4.7 4.7 0 0 1-.82-.219v-.87c.258.14.52.237.777.308.262.07.524.11.793.11.578 0 1.02-.157 1.32-.458.29-.312.438-.77.438-1.39v-.442c-.187.32-.43.563-.719.723S3.191 0 2.79 0c-.68 0-1.22-.25-1.63-.762C.75-1.27.55-1.949.55-2.8c0-.84.2-1.52.61-2.027.41-.512.95-.774 1.63-.774.401 0 .741.082 1.03.243q.436.239.72.718v-.828h.901Zm0 0"/><path id="aC" d="M5.352-7.05v.96a6.5 6.5 0 0 0-1.063-.398 4.1 4.1 0 0 0-.96-.133c-.54 0-.958.11-1.25.312-.29.207-.43.508-.43.887 0 .32.09.57.292.73.188.172.559.301 1.098.403l.602.117c.73.14 1.27.39 1.62.742.348.36.528.828.528 1.418 0 .711-.238 1.242-.71 1.602Q4.363.13 3 .129a6.3 6.3 0 0 1-1.11-.11C1.5-.05 1.103-.16.692-.32V-1.34q.6.344 1.168.512c.38.117.762.168 1.141.168.559 0 .988-.11 1.3-.328.302-.223.462-.532.462-.953 0-.36-.114-.637-.332-.84q-.329-.299-1.078-.45l-.602-.12q-1.106-.207-1.602-.688C.82-4.352.66-4.781.66-5.34c0-.641.219-1.15.68-1.52.45-.371 1.082-.563 1.879-.563.34 0 .68.031 1.043.094.347.058.707.156 1.09.277m0 0"/><path id="aD" d="M-.02-7.29h6.16v.83H3.55V0H2.56v-6.46H-.02Zm0 0"/><path id="aE" d="M.98-7.29h1.47l1.859 4.962 1.87-4.961h1.47V0H6.69v-6.398l-1.882 5H3.82l-1.879-5V0h-.96Zm0 0"/><path id="W" d="m-6.32-3.422 3.629 1.344v-2.684Zm-.97.563V-3.98L0-6.762v1.032l-1.871.66v3.289L0-1.121v1.043Zm0 0"/><path id="X" d="M-5.262-4.879h.84a3.6 3.6 0 0 0-.308.77c-.07.257-.11.507-.11.77 0 .577.192 1.038.559 1.359.37.32.89.48 1.55.48q1.008 0 1.56-.48c.37-.32.55-.782.55-1.36 0-.262-.027-.512-.098-.77a3.5 3.5 0 0 0-.32-.769h.828c.121.258.211.52.262.777q.077.412.078.864c0 .816-.25 1.476-.77 1.957-.507.492-1.21.73-2.09.73-.89 0-1.59-.238-2.097-.73-.512-.489-.774-1.16-.774-2.02 0-.277.032-.55.09-.808.063-.262.14-.52.25-.77m0 0"/><path id="Y" d="M-2.16-.852H-5.47v-.898h3.278c.52 0 .902-.102 1.16-.3.261-.2.39-.5.39-.91 0-.481-.148-.868-.46-1.15-.31-.28-.727-.421-1.27-.421H-5.47v-.899H0v.899h-.84c.34.222.578.48.738.761q.23.434.23 1c0 .63-.187 1.11-.577 1.43-.38.328-.95.488-1.711.488m-3.442-2.257"/><path id="Z" d="M-4.629-4.11c-.062.098-.101.212-.133.329-.02.12-.039.25-.039.39 0 .512.172.903.5 1.172.332.278.801.41 1.422.41H0v.899h-5.469v-.899h.848a1.8 1.8 0 0 1-.738-.73q-.242-.451-.243-1.11c0-.062.012-.132.012-.21.012-.07.02-.153.04-.25Zm0 0"/><path id="aa" d="M-2.75-3.43c0 .73.09 1.23.25 1.508.172.281.45.422.852.422.32 0 .578-.102.757-.309.192-.21.282-.5.282-.863 0-.5-.172-.898-.532-1.2-.347-.3-.82-.448-1.41-.448h-.199Zm-.371-1.789H0v.899h-.828c.34.21.578.468.726.77.153.3.23.679.23 1.12 0 .559-.148 1.008-.456 1.34-.313.328-.73.488-1.262.488-.61 0-1.07-.199-1.39-.617-.31-.41-.47-1.02-.47-1.84V-4.32h-.09c-.41 0-.73.14-.96.41-.219.27-.34.648-.34 1.14 0 .32.04.622.121.918.078.301.188.582.328.852h-.828a6 6 0 0 1-.281-.95 5 5 0 0 1-.102-.91c0-.788.211-1.378.622-1.769.41-.39 1.03-.59 1.859-.59m0 0"/><path id="ab" d="M.5-3.219c.64.258 1.07.508 1.27.75q.3.36.3.957v.723h-.75v-.531q.002-.36-.18-.57c-.12-.141-.39-.29-.831-.462l-.399-.16L-5.469-.3v-.949l4.278-1.71-4.278-1.712v-.95Zm0 0"/><path id="ad" d="M-7.59-3.102c.762.442 1.5.762 2.23.973a7.7 7.7 0 0 0 2.22.32c.761 0 1.5-.101 2.23-.32a9.5 9.5 0 0 0 2.219-.973v.782c-.77.492-1.508.86-2.25 1.101a7.1 7.1 0 0 1-2.2.36q-1.078 0-2.187-.36A9.6 9.6 0 0 1-7.59-2.32Zm0 0"/><path id="ae" d="M-3.21-7.27c0 .282.12.508.358.668q.366.242 1.012.243c.418 0 .762-.082 1-.243a.77.77 0 0 0 .36-.668q-.001-.42-.36-.66c-.238-.16-.582-.242-1-.242-.422 0-.762.082-1 .242s-.37.38-.37.66m-.618 0c0-.511.18-.921.539-1.218.36-.301.848-.461 1.45-.461.609 0 1.089.16 1.44.46.36.298.528.708.528 1.22 0 .519-.168.94-.527 1.238q-.527.452-1.442.453c-.61 0-1.09-.152-1.45-.453-.358-.297-.538-.719-.538-1.239m-2.973 5.04c0 .28.13.5.371.66q.36.241.989.242c.441 0 .77-.082 1.011-.242a.76.76 0 0 0 .36-.66.77.77 0 0 0-.36-.668c-.242-.16-.57-.243-1.011-.243-.418 0-.75.09-.989.25-.242.16-.37.38-.37.66m-.62-4.41v-.782l7.55 4.563v.78Zm0 4.41q.002-.762.542-1.23c.36-.302.84-.462 1.438-.462.62 0 1.101.16 1.46.461.36.3.532.711.532 1.23 0 .52-.172.93-.531 1.231-.36.3-.84.45-1.461.45Q-6.34-.55-6.88-1q-.542-.45-.543-1.23m0 0"/><path id="af" d="M-7.59-.8v-.778c.77-.48 1.52-.852 2.262-1.094a7.1 7.1 0 0 1 2.187-.367c.73 0 1.461.129 2.2.367.742.242 1.48.613 2.25 1.094v.777c-.75-.43-1.48-.75-2.22-.969a8 8 0 0 0-2.23-.32c-.75 0-1.488.11-2.218.32-.73.22-1.47.54-2.23.97m0 0"/><clipPath id="a"><path d="M42.25 5.96H43v248.88h-.75Zm0 0"/></clipPath><clipPath id="c"><path d="M81 5.96h2v248.88h-2Zm0 0"/></clipPath><clipPath id="e"><path d="M122 5.96h1v248.88h-1Zm0 0"/></clipPath><clipPath id="g"><path d="M162 5.96h1v248.88h-1Zm0 0"/></clipPath><clipPath id="i"><path d="M202 5.96h2v248.88h-2Zm0 0"/></clipPath><clipPath id="k"><path d="M242 5.96h2v248.88h-2Zm0 0"/></clipPath><clipPath id="m"><path d="M282 5.96h.805v248.88H282Zm0 0"/></clipPath><clipPath id="P"><path d="M42.25 254h240.555v.84H42.25Zm0 0"/></clipPath><clipPath id="Q"><path d="M42.25 204h240.555v2H42.25Zm0 0"/></clipPath><clipPath id="R"><path d="M42.25 154h240.555v2H42.25Zm0 0"/></clipPath><clipPath id="S"><path d="M42.25 105h240.555v1H42.25Zm0 0"/></clipPath><clipPath id="T"><path d="M42.25 55h240.555v2H42.25Zm0 0"/></clipPath><clipPath id="V"><path d="M42.25 5.96h240.555V7H42.25Zm0 0"/></clipPath><clipPath id="ag"><path d="M42.25 5.96h240.555v248.88H42.25Zm0 0"/></clipPath><clipPath id="ah"><path d="M42.25 5.96H46V10h-3.75Zm0 0"/></clipPath><clipPath id="ai"><path d="M279 251h3.805v3.84H279Zm0 0"/></clipPath><clipPath id="aj"><path d="M42.25 12h240.555v115H42.25Zm0 0"/></clipPath><clipPath id="ak"><path d="M42.25 9H46v8h-3.75Zm0 0"/></clipPath><clipPath id="al"><path d="M279 122h3.805v8H279Zm0 0"/></clipPath><clipPath id="am"><path d="M42.25 34h240.555v142H42.25Zm0 0"/></clipPath><clipPath id="an"><path d="M42.25 32H46v8h-3.75Zm0 0"/></clipPath><clipPath id="ao"><path d="M279 171h3.805v8H279Zm0 0"/></clipPath><clipPath id="ap"><path d="M42.25 50h240.555v120H42.25Zm0 0"/></clipPath><clipPath id="aq"><path d="M42.25 47H46v8h-3.75Zm0 0"/></clipPath><clipPath id="ar"><path d="M279 165h3.805v8H279Zm0 0"/></clipPath><clipPath id="as"><path d="M42.25 31h240.555v111H42.25Zm0 0"/></clipPath><clipPath id="at"><path d="M42.25 28H46v8h-3.75Zm0 0"/></clipPath><clipPath id="au"><path d="M279 136h3.805v8H279Zm0 0"/></clipPath></defs><path fill="#FFF" d="M-28.8-28.8h345.6v345.6H-28.8z"/><path fill="#EAEAF2" d="M42.25 254.84h240.555V5.96H42.25Zm0 0"/><g clip-path="url(#a)"><path fill="none" stroke="#FFF" stroke-linecap="round" stroke-linejoin="round" stroke-miterlimit="10" stroke-width=".8" d="M42.25 254.84V5.96"/></g><use xlink:href="#b" x="39.07" y="269.434" fill="#262626"/><g clip-path="url(#c)"><path fill="none" stroke="#FFF" stroke-linecap="round" stroke-linejoin="round" stroke-miterlimit="10" stroke-width=".8" d="M82.344 254.84V5.96"/></g><use xlink:href="#d" x="79.163" y="269.434" fill="#262626"/><g clip-path="url(#e)"><path fill="none" stroke="#FFF" stroke-linecap="round" stroke-linejoin="round" stroke-miterlimit="10" stroke-width=".8" d="M122.434 254.84V5.96"/></g><use xlink:href="#f" x="119.255" y="269.434" fill="#262626"/><g clip-path="url(#g)"><path fill="none" stroke="#FFF" stroke-linecap="round" stroke-linejoin="round" stroke-miterlimit="10" stroke-width=".8" d="M162.527 254.84V5.96"/></g><use xlink:href="#h" x="159.348" y="269.434" fill="#262626"/><g clip-path="url(#i)"><path fill="none" stroke="#FFF" stroke-linecap="round" stroke-linejoin="round" stroke-miterlimit="10" stroke-width=".8" d="M202.621 254.84V5.96"/></g><use xlink:href="#j" x="199.44" y="269.434" fill="#262626"/><g clip-path="url(#k)"><path fill="none" stroke="#FFF" stroke-linecap="round" stroke-linejoin="round" stroke-miterlimit="10" stroke-width=".8" d="M242.71 254.84V5.96"/></g><use xlink:href="#l" x="239.533" y="269.434" fill="#262626"/><g clip-path="url(#m)"><path fill="none" stroke="#FFF" stroke-linecap="round" stroke-linejoin="round" stroke-miterlimit="10" stroke-width=".8" d="M282.805 254.84V5.96"/></g><use xlink:href="#n" x="279.625" y="269.434" fill="#262626"/><use xlink:href="#o" x="63.434" y="283.106" fill="#262626"/><g fill="#262626"><use xlink:href="#p" x="68.832" y="283.106"/><use xlink:href="#q" x="74.982" y="283.106"/><use xlink:href="#p" x="80.902" y="283.106"/><use xlink:href="#r" x="87.052" y="283.106"/><use xlink:href="#s" x="89.832" y="283.106"/><use xlink:href="#t" x="93.012" y="283.106"/><use xlink:href="#u" x="99.132" y="283.106"/><use xlink:href="#s" x="102.652" y="283.106"/><use xlink:href="#v" x="105.832" y="283.106"/><use xlink:href="#w" x="112.182" y="283.106"/><use xlink:href="#u" x="114.962" y="283.106"/><use xlink:href="#u" x="118.482" y="283.106"/><use xlink:href="#w" x="122.002" y="283.106"/><use xlink:href="#x" x="124.782" y="283.106"/><use xlink:href="#y" x="130.282" y="283.106"/><use xlink:href="#r" x="136.622" y="283.106"/><use xlink:href="#z" x="139.402" y="283.106"/><use xlink:href="#A" x="143.322" y="283.106"/><use xlink:href="#s" x="149.242" y="283.106"/><use xlink:href="#B" x="152.422" y="283.106"/><use xlink:href="#C" x="156.322" y="283.106"/><use xlink:href="#D" x="162.672" y="283.106"/><use xlink:href="#E" x="168.802" y="283.106"/><use xlink:href="#p" x="174.012" y="283.106"/><use xlink:href="#v" x="180.162" y="283.106"/><use xlink:href="#s" x="186.512" y="283.106"/><use xlink:href="#t" x="189.692" y="283.106"/><use xlink:href="#F" x="195.812" y="283.106"/><use xlink:href="#s" x="202.152" y="283.106"/><use xlink:href="#G" x="205.332" y="283.106"/><use xlink:href="#H" x="212.312" y="283.106"/><use xlink:href="#I" x="215.262" y="283.106"/></g><g fill="#262626"><use xlink:href="#J" x="220.106" y="283.106"/><use xlink:href="#K" x="226.946" y="283.106"/></g><g fill="#262626"><use xlink:href="#L" x="233.489" y="283.106"/><use xlink:href="#b" x="237.099" y="283.106"/><use xlink:href="#M" x="243.459" y="283.106"/><use xlink:href="#N" x="249.819" y="283.106"/><use xlink:href="#O" x="257.519" y="283.106"/></g><g clip-path="url(#P)"><path fill="none" stroke="#FFF" stroke-linecap="round" stroke-linejoin="round" stroke-miterlimit="10" stroke-width=".8" d="M42.25 254.84h240.555"/></g><use xlink:href="#M" x="28.891" y="258.637" fill="#262626"/><g clip-path="url(#Q)"><path fill="none" stroke="#FFF" stroke-linecap="round" stroke-linejoin="round" stroke-miterlimit="10" stroke-width=".8" d="M42.25 205.063h240.555"/></g><g fill="#262626"><use xlink:href="#d" x="22.531" y="208.861"/><use xlink:href="#M" x="28.891" y="208.861"/></g><g clip-path="url(#R)"><path fill="none" stroke="#FFF" stroke-linecap="round" stroke-linejoin="round" stroke-miterlimit="10" stroke-width=".8" d="M42.25 155.29h240.555"/></g><g fill="#262626"><use xlink:href="#h" x="22.531" y="159.085"/><use xlink:href="#M" x="28.891" y="159.085"/></g><g clip-path="url(#S)"><path fill="none" stroke="#FFF" stroke-linecap="round" stroke-linejoin="round" stroke-miterlimit="10" stroke-width=".8" d="M42.25 105.512h240.555"/></g><g fill="#262626"><use xlink:href="#l" x="22.531" y="109.309"/><use xlink:href="#M" x="28.891" y="109.309"/></g><g clip-path="url(#T)"><path fill="none" stroke="#FFF" stroke-linecap="round" stroke-linejoin="round" stroke-miterlimit="10" stroke-width=".8" d="M42.25 55.734h240.555"/></g><g fill="#262626"><use xlink:href="#U" x="22.531" y="59.533"/><use xlink:href="#M" x="28.891" y="59.533"/></g><g clip-path="url(#V)"><path fill="none" stroke="#FFF" stroke-linecap="round" stroke-linejoin="round" stroke-miterlimit="10" stroke-width=".8" d="M42.25 5.96h240.555"/></g><g fill="#262626"><use xlink:href="#b" x="16.172" y="9.757"/><use xlink:href="#M" x="22.532" y="9.757"/><use xlink:href="#M" x="28.892" y="9.757"/></g><use xlink:href="#W" x="10.094" y="163.509" fill="#262626"/><g fill="#262626"><use xlink:href="#X" x="10.094" y="156.841"/><use xlink:href="#X" x="10.094" y="151.341"/><use xlink:href="#Y" x="10.094" y="145.841"/><use xlink:href="#Z" x="10.094" y="139.501"/><use xlink:href="#aa" x="10.094" y="135.391"/><use xlink:href="#X" x="10.094" y="129.261"/><use xlink:href="#ab" x="10.094" y="123.761"/><use xlink:href="#ac" x="10.094" y="117.841"/><use xlink:href="#ad" x="10.094" y="114.661"/><use xlink:href="#ae" x="10.094" y="110.761"/><use xlink:href="#af" x="10.094" y="101.261"/></g><g clip-path="url(#ag)"><path fill="none" stroke="#000" stroke-linecap="round" stroke-linejoin="round" stroke-miterlimit="10" stroke-width="1.5" d="m42.25 5.96 40.094 41.481 40.09 41.48 40.093 41.477 40.094 41.48 40.09 41.481 40.094 41.48"/></g><g clip-path="url(#ah)"><path fill="none" stroke="#000" stroke-linejoin="round" stroke-miterlimit="10" d="M42.25 8.96a3 3 0 0 0 3-3 3 3 0 0 0-3-3 3 3 0 0 0-3 3 3.005 3.005 0 0 0 3 3Zm0 0"/></g><path fill="none" stroke="#000" stroke-linejoin="round" stroke-miterlimit="10" d="M82.344 50.441a3.005 3.005 0 0 0 3-3 3 3 0 0 0-3-3 3 3 0 0 0-3 3 3.005 3.005 0 0 0 3 3ZM122.434 91.922a3 3 0 0 0 3-3 2.994 2.994 0 0 0-3-3 3 3 0 0 0-2.121.875 3.007 3.007 0 0 0 0 4.246 3 3 0 0 0 2.12.879ZM162.527 133.398a3 3 0 0 0 3-3 3.005 3.005 0 0 0-3-3 3 3 0 0 0-3 3 3 3 0 0 0 3 3ZM202.621 174.879a3.005 3.005 0 0 0 3-3 3.005 3.005 0 0 0-3-3 3 3 0 0 0-3 3 3 3 0 0 0 3 3ZM242.71 216.36a3 3 0 0 0 3-3 3 3 0 0 0-3-3 3.005 3.005 0 0 0-3 3 3 3 0 0 0 3 3Zm0 0"/><g clip-path="url(#ai)"><path fill="none" stroke="#000" stroke-linejoin="round" stroke-miterlimit="10" d="M282.805 257.84a3 3 0 0 0 3-3 3 3 0 0 0-3-3 3 3 0 0 0-3 3 3 3 0 0 0 3 3Zm0 0"/></g><g clip-path="url(#aj)"><path fill="none" stroke="#007F00" stroke-linecap="round" stroke-linejoin="round" stroke-miterlimit="10" stroke-width="1.5" d="m42.25 12.762 40.094 12.691 40.09 22.594 40.093 18.578 40.094 16.223 40.09 32.5 40.094 10.62"/></g><g clip-path="url(#ak)"><path fill="none" stroke="#007F00" stroke-linejoin="round" stroke-miterlimit="10" d="M42.25 15.762a3 3 0 0 0 3-3 3 3 0 0 0-3-3 3 3 0 0 0-3 3 3 3 0 0 0 3 3Zm0 0"/></g><path fill="none" stroke="#007F00" stroke-linejoin="round" stroke-miterlimit="10" d="M82.344 28.453a3.005 3.005 0 0 0 3-3 3 3 0 0 0-3-3 3 3 0 0 0-3 3 3.005 3.005 0 0 0 3 3ZM122.434 51.047a3 3 0 0 0 3-3 3 3 0 0 0-3-3 3.005 3.005 0 0 0-3 3 3 3 0 0 0 3 3ZM162.527 69.625a3 3 0 0 0 3-3 3 3 0 0 0-3-3 3 3 0 0 0-3 3 3 3 0 0 0 3 3ZM202.621 85.848a3.005 3.005 0 0 0 3-3 3 3 0 0 0-3-3 3 3 0 0 0-3 3 3.005 3.005 0 0 0 3 3ZM242.71 118.348a3 3 0 0 0 3-3 3 3 0 0 0-3-3 3.005 3.005 0 0 0-3 3 3.005 3.005 0 0 0 3 3Zm0 0"/><g clip-path="url(#al)"><path fill="none" stroke="#007F00" stroke-linejoin="round" stroke-miterlimit="10" d="M282.805 128.969a2.994 2.994 0 0 0 3-3 3.005 3.005 0 0 0-3-3 3 3 0 0 0-3 3 2.994 2.994 0 0 0 3 3Zm0 0"/></g><g clip-path="url(#am)"><path fill="none" stroke="gray" stroke-linecap="round" stroke-linejoin="round" stroke-miterlimit="10" stroke-width="1.5" d="m42.25 35.664 40.094 28.043 40.09 20.211 40.093 23.785 40.094 10.012 40.09-5.461 40.094 62.488"/></g><g clip-path="url(#an)"><path fill="none" stroke="gray" stroke-linejoin="round" stroke-miterlimit="10" d="M42.25 38.664a3 3 0 0 0 3-3 3 3 0 0 0-3-3 3 3 0 0 0-3 3 3 3 0 0 0 3 3Zm0 0"/></g><path fill="none" stroke="gray" stroke-linejoin="round" stroke-miterlimit="10" d="M82.344 66.707a3.005 3.005 0 0 0 3-3 3 3 0 0 0-3-3 3 3 0 0 0-3 3 3.005 3.005 0 0 0 3 3ZM122.434 86.918a3 3 0 0 0 3-3 3 3 0 0 0-3-3 3.005 3.005 0 0 0-3 3 3 3 0 0 0 3 3ZM162.527 110.703a3 3 0 0 0 3-3 3 3 0 0 0-3-3 3 3 0 0 0-3 3 3 3 0 0 0 3 3ZM202.621 120.715a3.005 3.005 0 0 0 3-3 3.005 3.005 0 0 0-3-3 3 3 0 0 0-3 3 3 3 0 0 0 3 3ZM242.71 115.254a3 3 0 0 0 3-3 3 3 0 0 0-3-3 3.005 3.005 0 0 0-3 3 3.005 3.005 0 0 0 3 3Zm0 0"/><g clip-path="url(#ao)"><path fill="none" stroke="gray" stroke-linejoin="round" stroke-miterlimit="10" d="M282.805 177.742a3 3 0 0 0 3-3 3 3 0 0 0-3-3 3 3 0 0 0-3 3 3.005 3.005 0 0 0 3 3Zm0 0"/></g><g clip-path="url(#ap)"><path fill="none" stroke="red" stroke-linecap="round" stroke-linejoin="round" stroke-miterlimit="10" stroke-width="1.5" d="m42.25 51.348 40.094 31.12 40.09 24.169 40.093 17.11 40.094 24.823 40.09 5.164 40.094 15.286"/></g><g clip-path="url(#aq)"><path fill="none" stroke="red" stroke-linejoin="round" stroke-miterlimit="10" d="M42.25 54.348a3 3 0 0 0 3-3 3 3 0 0 0-3-3 3 3 0 0 0-3 3 3 3 0 0 0 3 3Zm0 0"/></g><path fill="none" stroke="red" stroke-linejoin="round" stroke-miterlimit="10" d="M82.344 85.469a3.005 3.005 0 0 0 3-3c0-.797-.317-1.563-.88-2.125a3 3 0 0 0-2.12-.875 2.994 2.994 0 0 0-3 3 3.005 3.005 0 0 0 3 3ZM122.434 109.637a3 3 0 0 0 3-3 3.005 3.005 0 0 0-3-3 3.005 3.005 0 0 0-3 3 3 3 0 0 0 3 3ZM162.527 126.746a3 3 0 0 0 3-3 3.005 3.005 0 0 0-3-3 3 3 0 0 0-3 3 3 3 0 0 0 3 3ZM202.621 151.57a3.005 3.005 0 0 0 3-3 3 3 0 0 0-3-3 3 3 0 0 0-3 3 3.005 3.005 0 0 0 3 3ZM242.71 156.734a3 3 0 0 0 3-3 2.994 2.994 0 0 0-3-3 3 3 0 0 0-2.12.875 3.007 3.007 0 0 0 0 4.246 3 3 0 0 0 2.12.88Zm0 0"/><g clip-path="url(#ar)"><path fill="none" stroke="red" stroke-linejoin="round" stroke-miterlimit="10" d="M282.805 172.02a3 3 0 0 0 3-3 3 3 0 0 0-3-3 3 3 0 0 0-3 3 3 3 0 0 0 3 3Zm0 0"/></g><g clip-path="url(#as)"><path fill="none" stroke="#00F" stroke-linecap="round" stroke-linejoin="round" stroke-miterlimit="10" stroke-width="1.5" d="m42.25 31.855 40.094 27.528 40.09 21.406 40.093 23.785 40.094 22.055 40.09-7.895 40.094 21.68"/></g><g clip-path="url(#at)"><path fill="none" stroke="#00F" stroke-linejoin="round" stroke-miterlimit="10" d="M42.25 34.855a3 3 0 0 0 3-3 3 3 0 0 0-3-3 3 3 0 0 0-3 3 3 3 0 0 0 3 3Zm0 0"/></g><path fill="none" stroke="#00F" stroke-linejoin="round" stroke-miterlimit="10" d="M82.344 62.383a3.005 3.005 0 0 0 3-3 3 3 0 0 0-3-3 3 3 0 0 0-3 3 3.005 3.005 0 0 0 3 3ZM122.434 83.79c.796 0 1.558-.313 2.12-.88a3 3 0 0 0 0-4.242 3 3 0 0 0-4.242 0 2.998 2.998 0 0 0 2.121 5.121ZM162.527 107.574a3 3 0 0 0 3-3 3 3 0 0 0-3-3 3 3 0 0 0-3 3 3.005 3.005 0 0 0 3 3ZM202.621 129.629a3.005 3.005 0 0 0 3-3 3 3 0 0 0-3-3 3 3 0 0 0-3 3 3 3 0 0 0 3 3ZM242.71 121.734a3 3 0 0 0 3-3 3 3 0 0 0-3-3 3.005 3.005 0 0 0-3 3 3 3 0 0 0 3 3Zm0 0"/><g clip-path="url(#au)"><path fill="none" stroke="#00F" stroke-linejoin="round" stroke-miterlimit="10" d="M282.805 143.414a3 3 0 0 0 3-3 3 3 0 0 0-3-3 2.998 2.998 0 0 0-2.121 5.121 3 3 0 0 0 2.12.88Zm0 0"/></g><path fill="none" stroke="#FFF" stroke-linecap="square" stroke-miterlimit="10" stroke-width=".8" d="M42.25 254.84V5.96M282.805 254.84V5.96M42.25 254.84h240.555M42.25 5.96h240.555"/><path fill="#EAEAF2" fill-opacity=".8" stroke="#CCC" stroke-miterlimit="10" stroke-opacity=".8" d="M49.25 249.84H201.5q1.999-.001 2-2v-72.36q-.001-1.999-2-2H49.25q-1.999.001-2 2v72.36q.001 1.999 2 2Zm0 0"/><path fill="none" stroke="#000" stroke-linecap="round" stroke-linejoin="round" stroke-miterlimit="10" stroke-width="1.5" d="M51.25 181.574h20"/><path fill="none" stroke="#000" stroke-linejoin="round" stroke-miterlimit="10" d="M61.25 184.574a3 3 0 0 0 3-3 3 3 0 0 0-3-3 3 3 0 0 0-3 3 3 3 0 0 0 3 3Zm0 0"/><g fill="#262626"><use xlink:href="#G" x="79.25" y="185.074"/><use xlink:href="#H" x="86.23" y="185.074"/><use xlink:href="#I" x="89.18" y="185.074"/></g><g fill="#262626"><use xlink:href="#J" x="94.024" y="185.074"/><use xlink:href="#K" x="100.864" y="185.074"/></g><g fill="#262626"><use xlink:href="#L" x="107.407" y="185.074"/><use xlink:href="#b" x="111.017" y="185.074"/><use xlink:href="#M" x="117.377" y="185.074"/><use xlink:href="#N" x="123.737" y="185.074"/><use xlink:href="#s" x="131.438" y="185.074"/><use xlink:href="#B" x="134.618" y="185.074"/><use xlink:href="#av" x="138.518" y="185.074"/><use xlink:href="#p" x="145.377" y="185.074"/><use xlink:href="#F" x="151.528" y="185.074"/><use xlink:href="#x" x="157.868" y="185.074"/><use xlink:href="#aw" x="163.368" y="185.074"/><use xlink:href="#ax" x="169.708" y="185.074"/><use xlink:href="#D" x="179.447" y="185.074"/><use xlink:href="#ay" x="185.577" y="185.074"/><use xlink:href="#az" x="189.688" y="185.074"/><use xlink:href="#O" x="195.477" y="185.074"/></g><path fill="none" stroke="#007F00" stroke-linecap="round" stroke-linejoin="round" stroke-miterlimit="10" stroke-width="1.5" d="M51.25 196.246h20"/><path fill="none" stroke="#007F00" stroke-linejoin="round" stroke-miterlimit="10" d="M61.25 199.246a3 3 0 0 0 3-3 3 3 0 0 0-3-3 3 3 0 0 0-3 3 3 3 0 0 0 3 3Zm0 0"/><g fill="#262626"><use xlink:href="#G" x="79.25" y="199.746"/><use xlink:href="#H" x="86.23" y="199.746"/><use xlink:href="#I" x="89.18" y="199.746"/></g><g fill="#262626"><use xlink:href="#J" x="94.024" y="199.746"/><use xlink:href="#K" x="100.864" y="199.746"/></g><g fill="#262626"><use xlink:href="#L" x="107.407" y="199.746"/><use xlink:href="#b" x="111.017" y="199.746"/><use xlink:href="#M" x="117.377" y="199.746"/><use xlink:href="#aA" x="123.737" y="199.746"/><use xlink:href="#s" x="131.257" y="199.746"/><use xlink:href="#B" x="134.438" y="199.746"/><use xlink:href="#aA" x="138.338" y="199.746"/><use xlink:href="#y" x="145.857" y="199.746"/><use xlink:href="#ax" x="152.197" y="199.746"/><use xlink:href="#D" x="161.938" y="199.746"/><use xlink:href="#F" x="168.067" y="199.746"/><use xlink:href="#E" x="174.407" y="199.746"/><use xlink:href="#O" x="179.618" y="199.746"/></g><path fill="none" stroke="gray" stroke-linecap="round" stroke-linejoin="round" stroke-miterlimit="10" stroke-width="1.5" d="M51.25 210.918h20"/><path fill="none" stroke="gray" stroke-linejoin="round" stroke-miterlimit="10" d="M61.25 213.918a3 3 0 0 0 3-3 3 3 0 0 0-3-3 3 3 0 0 0-3 3 3 3 0 0 0 3 3Zm0 0"/><g fill="#262626"><use xlink:href="#I" x="79.25" y="214.418"/><use xlink:href="#I" x="85" y="214.418"/><use xlink:href="#s" x="90.75" y="214.418"/><use xlink:href="#B" x="93.93" y="214.418"/><use xlink:href="#J" x="97.83" y="214.418"/></g><g fill="#262626"><use xlink:href="#q" x="104.092" y="214.418"/><use xlink:href="#aB" x="110.012" y="214.418"/><use xlink:href="#O" x="116.362" y="214.418"/></g><path fill="none" stroke="red" stroke-linecap="round" stroke-linejoin="round" stroke-miterlimit="10" stroke-width="1.5" d="M51.25 225.59h20"/><path fill="none" stroke="red" stroke-linejoin="round" stroke-miterlimit="10" d="M61.25 228.59a3 3 0 0 0 3-3 3 3 0 0 0-3-3 3 3 0 0 0-3 3 3 3 0 0 0 3 3Zm0 0"/><g fill="#262626"><use xlink:href="#o" x="79.25" y="229.09"/><use xlink:href="#aC" x="84.82" y="229.09"/><use xlink:href="#aD" x="91.17" y="229.09"/><use xlink:href="#aE" x="97.28" y="229.09"/><use xlink:href="#s" x="105.91" y="229.09"/><use xlink:href="#B" x="109.09" y="229.09"/><use xlink:href="#J" x="112.99" y="229.09"/></g><g fill="#262626"><use xlink:href="#q" x="119.252" y="229.09"/><use xlink:href="#aB" x="125.172" y="229.09"/><use xlink:href="#O" x="131.522" y="229.09"/></g><path fill="none" stroke="#00F" stroke-linecap="round" stroke-linejoin="round" stroke-miterlimit="10" stroke-width="1.5" d="M51.25 240.262h20"/><path fill="none" stroke="#00F" stroke-linejoin="round" stroke-miterlimit="10" d="M61.25 243.262a3 3 0 0 0 3-3 3 3 0 0 0-3-3 3 3 0 0 0-3 3 3 3 0 0 0 3 3Zm0 0"/><g fill="#262626"><use xlink:href="#G" x="79.25" y="243.762"/><use xlink:href="#aD" x="86.23" y="243.762"/><use xlink:href="#aE" x="92.34" y="243.762"/><use xlink:href="#s" x="100.97" y="243.762"/><use xlink:href="#B" x="104.15" y="243.762"/><use xlink:href="#J" x="108.05" y="243.762"/></g><g fill="#262626"><use xlink:href="#q" x="114.312" y="243.762"/><use xlink:href="#aB" x="120.232" y="243.762"/><use xlink:href="#O" x="126.582" y="243.762"/></g></svg>