<svg xmlns="http://www.w3.org/2000/svg" xmlns:xlink="http://www.w3.org/1999/xlink" width="384" height="384" viewBox="0 0 288 288"><defs><path id="a" d="M1.238-.828h1.614v-5.563l-1.75.352v-.902L2.84-7.29h.988v6.46h1.613V0H1.238Zm0 0"/><path id="b" d="M1.922-.828h3.437V0H.73v-.828c.372-.383.88-.902 1.532-1.563A72 72 0 0 0 3.48-3.648q.48-.528.66-.903c.122-.238.188-.488.188-.73 0-.38-.137-.7-.406-.938-.274-.242-.621-.37-1.063-.37-.308 0-.64.058-.98.16q-.51.162-1.098.488v-1q.6-.238 1.11-.36c.34-.078.66-.12.949-.12q1.126 0 1.8.57c.45.382.68.882.68 1.511 0 .3-.058.59-.172.852-.109.27-.308.59-.609.949-.078.098-.34.367-.777.82-.442.45-1.051 1.078-1.84 1.89m0 0"/><path id="c" d="M4.059-3.93c.472.102.84.309 1.101.63.262.32.399.722.399 1.179 0 .723-.25 1.281-.739 1.672-.5.39-1.199.578-2.11.578a5 5 0 0 1-.948-.09c-.32-.05-.66-.14-1-.258v-.953c.27.16.566.281.898.363q.48.118 1.02.118.93.002 1.41-.36c.32-.238.488-.597.488-1.07 0-.418-.148-.758-.45-1-.3-.238-.718-.367-1.257-.367H2.02v-.813h.89c.48 0 .852-.09 1.11-.289q.39-.285.39-.84c0-.37-.14-.66-.398-.86q-.41-.298-1.14-.3-.407 0-.872.09a8 8 0 0 0-1.02.27v-.88c.372-.1.72-.18 1.051-.23.32-.05.63-.082.93-.082q1.107.001 1.77.512.66.51.66 1.379c0 .402-.121.742-.352 1.02-.23.28-.559.48-.98.581m0 0"/><path id="d" d="M3.781-6.43 1.29-2.54h2.492Zm-.261-.86h1.242v4.75H5.8v.821H4.76V0h-.98v-1.719H.488v-.953Zm0 0"/><path id="e" d="M1.078-7.29H4.95v.83H1.98v1.788c.141-.047.29-.09.43-.11.14-.019.29-.038.43-.038.808 0 1.45.23 1.93.672.48.449.718 1.046.718 1.808 0 .79-.25 1.399-.738 1.828-.488.434-1.18.64-2.059.64-.312 0-.62-.026-.941-.07a5.6 5.6 0 0 1-.98-.23v-.988q.432.24.91.36c.308.081.64.109.992.109.558 0 1.008-.137 1.34-.438.316-.3.488-.7.488-1.21 0-.5-.172-.9-.488-1.2-.332-.3-.782-.45-1.34-.45a3.4 3.4 0 0 0-.793.09 4.4 4.4 0 0 0-.8.27Zm0 0"/><path id="f" d="M3.3-4.04c-.44 0-.788.161-1.05.462-.262.297-.39.719-.39 1.238q-.002.798.39 1.25.391.45 1.05.45.658 0 1.052-.45.386-.452.386-1.25c0-.52-.129-.941-.386-1.238-.262-.3-.614-.461-1.051-.461m1.962-3.089v.899a3.441 3.441 0 0 0-1.5-.36q-.99 0-1.5.66c-.34.442-.543 1.11-.582 1.989.191-.278.43-.5.718-.649.293-.148.614-.23.961-.23.73 0 1.313.23 1.73.672.423.437.641 1.046.641 1.808 0 .75-.23 1.352-.671 1.8C4.62-.09 4.03.13 3.3.13c-.84 0-1.492-.32-1.93-.957C.921-1.468.7-2.41.7-3.641c0-1.148.27-2.07.82-2.75.54-.68 1.282-1.03 2.2-1.03.242 0 .492.03.75.07.25.05.511.12.793.222m0 0"/><path id="g" d="M.82-7.29h4.692v.419L2.859 0H1.83L4.32-6.46H.82Zm0 0"/><path id="h" d="M.98-7.29h.989v6.462h3.55V0H.98Zm0 0"/><path id="i" d="M5.621-2.96v.44H1.488c.043.622.223 1.098.563 1.418q.49.48 1.39.48c.34 0 .68-.038 1-.116.32-.082.649-.211.97-.39v.847c-.321.14-.65.25-.99.312a6 6 0 0 1-1.03.098c-.88 0-1.57-.25-2.082-.75C.8-1.121.55-1.81.55-2.68Q.55-4.016 1.27-4.809c.48-.52 1.14-.793 1.96-.793.739 0 1.32.243 1.75.711.418.48.641 1.121.641 1.93M4.72-3.22c-.008-.492-.149-.883-.41-1.18-.27-.292-.63-.44-1.07-.44-.5 0-.9.148-1.2.429s-.48.68-.52 1.191Zm0 0"/><path id="j" d="M.3-5.469h.95l1.71 4.59 1.712-4.59h.95L3.57 0H2.352Zm0 0"/><path id="k" d="M.941-7.602h.899V0H.94Zm0 0"/><path id="m" d="M3.059-4.84q-.72.001-1.137.57-.422.568-.422 1.54c0 .66.129 1.171.41 1.55.281.38.66.559 1.149.559.48 0 .863-.18 1.14-.559.281-.379.422-.89.422-1.55 0-.641-.14-1.16-.422-1.54-.277-.378-.66-.57-1.14-.57m0-.762c.78 0 1.39.262 1.84.762.44.512.671 1.211.671 2.11 0 .902-.23 1.601-.672 2.101C4.45-.12 3.84.13 3.058.13c-.788 0-1.41-.25-1.847-.758Q.55-1.379.55-2.73c0-.899.219-1.598.66-2.11.437-.5 1.059-.762 1.848-.762m0 0"/><path id="n" d="M3.71-7.602v.75h-.858c-.32 0-.551.07-.672.204q-.193.19-.192.699v.48h1.48v.7h-1.48V0H1.09v-4.77H.23v-.699h.86v-.383c0-.597.14-1.046.422-1.328q.416-.421 1.347-.422Zm0 0"/><path id="o" d="M4.54-4.64v-2.962h.901V0H4.54v-.82c-.187.332-.43.57-.719.718-.289.153-.629.23-1.03.23Q1.798.13 1.171-.647C.75-1.172.55-1.871.55-2.73c0-.86.199-1.551.62-2.079.419-.52.958-.793 1.618-.793.402 0 .742.082 1.031.243q.436.239.72.718M1.48-2.73c0 .66.13 1.18.399 1.558.27.383.64.563 1.121.563.48 0 .852-.18 1.129-.563.27-.379.41-.898.41-1.558s-.14-1.168-.41-1.551A1.32 1.32 0 0 0 3-4.851q-.719 0-1.121.57c-.27.383-.399.89-.399 1.55m0 0"/><path id="p" d="M.941-5.469h.899V0H.94Zm0-2.133h.899v1.141H.94Zm0 0"/><path id="q" d="M4.879-5.262v.84a3.6 3.6 0 0 0-.77-.308 2.9 2.9 0 0 0-.77-.11c-.577 0-1.038.192-1.359.559-.32.37-.48.89-.48 1.55q0 1.008.48 1.56c.32.37.782.55 1.36.55.262 0 .512-.027.77-.098.261-.07.511-.18.769-.32v.828c-.258.121-.52.211-.777.262a4.7 4.7 0 0 1-.864.078c-.816 0-1.476-.25-1.957-.77-.492-.507-.73-1.21-.73-2.09 0-.89.238-1.59.73-2.097.489-.512 1.16-.774 2.02-.774.277 0 .55.032.808.09.262.063.52.14.77.25m0 0"/><path id="r" d="M.852-2.16V-5.47h.898v3.278c0 .52.102.902.3 1.16.2.261.5.39.91.39.481 0 .868-.148 1.15-.46.28-.31.421-.727.421-1.27V-5.47h.899V0H4.53v-.84c-.222.34-.48.578-.761.738a2.1 2.1 0 0 1-1 .23c-.63 0-1.11-.187-1.43-.577C1.012-.83.852-1.4.852-2.16m2.257-3.442"/><path id="s" d="M1.828-7.02v1.551H3.68v.7H1.828v2.968c0 .45.063.742.184.86.117.132.367.191.75.191h.918V0h-.918Q1.707 0 1.32-.39C1.06-.649.93-1.122.93-1.8v-2.97H.27v-.699h.66v-1.55Zm0 0"/><path id="t" d="M3.219.5c-.258.64-.508 1.07-.75 1.27q-.36.3-.957.3H.789v-.75h.531q.36.002.57-.18c.141-.12.29-.39.462-.831l.16-.399L.3-5.469h.949L2.96-1.19 4.673-5.47h.95Zm0 0"/><path id="u" d="M3.18-6.64q-.761 0-1.149.75c-.261.5-.383 1.25-.383 2.25s.122 1.75.383 2.25q.386.75 1.149.75c.511 0 .89-.25 1.148-.75.25-.5.383-1.25.383-2.25s-.133-1.75-.383-2.25c-.258-.5-.637-.75-1.148-.75m0-.782c.808 0 1.43.332 1.87.973.43.648.65 1.59.65 2.808 0 1.23-.22 2.172-.65 2.813-.44.637-1.062.957-1.878.957Q1.943.129 1.3-.828C.87-1.468.66-2.41.66-3.641c0-1.218.21-2.16.64-2.808.43-.64 1.058-.973 1.879-.973m0 0"/><path id="v" d="M3.18-3.46c-.47 0-.84.132-1.11.382s-.398.59-.398 1.027c0 .442.129.79.398 1.04.27.25.64.37 1.11.37.46 0 .832-.12 1.101-.379.27-.25.41-.59.41-1.03 0-.438-.14-.778-.402-1.028-.27-.25-.64-.383-1.11-.383M2.19-3.88q-.63-.153-.992-.59C.961-4.762.852-5.109.852-5.53c0-.578.199-1.04.617-1.38q.615-.51 1.71-.51 1.08 0 1.712.51c.41.34.62.802.62 1.38 0 .422-.12.77-.363 1.062-.238.29-.558.489-.976.59q.704.166 1.11.649c.257.32.398.718.398 1.18 0 .71-.22 1.25-.649 1.62C4.59-.05 3.97.13 3.171.13c-.8 0-1.421-.18-1.85-.559Q.677-.985.68-2.05c0-.462.129-.86.398-1.18.262-.32.633-.54 1.113-.649M1.828-5.44c0 .382.113.68.352.89.242.211.57.313 1 .313.422 0 .75-.102.992-.313q.359-.316.36-.89c0-.38-.122-.668-.36-.88-.242-.21-.57-.32-.992-.32-.43 0-.758.11-1 .32-.239.212-.352.5-.352.88m0 0"/><path id="F" d="M.98-7.29h.989v2.99H5.55v-2.99h.988V0h-.988v-3.469H1.969V0H.98Zm0 0"/><path id="G" d="M5.2-4.422c.222-.398.491-.687.8-.887.309-.191.68-.293 1.11-.293.562 0 1 .204 1.312.602.308.398.469.969.469 1.7V0h-.903v-3.27c0-.52-.097-.91-.277-1.171-.191-.25-.473-.38-.852-.38-.468 0-.84.16-1.109.47-.27.312-.398.73-.398 1.261V0h-.903v-3.27c0-.52-.097-.91-.277-1.171-.192-.25-.48-.38-.863-.38-.457 0-.829.16-1.098.47q-.403.466-.402 1.261V0H.91v-5.469h.899v.848c.203-.328.453-.578.742-.738.277-.16.62-.243 1.02-.243.398 0 .73.102 1.007.301.281.2.48.5.621.88m0 0"/><path id="H" d="M3.43-2.75c-.73 0-1.23.09-1.508.25-.281.172-.422.45-.422.852 0 .32.102.578.309.757.21.192.5.282.863.282.5 0 .898-.172 1.2-.532.3-.347.448-.82.448-1.41v-.199Zm1.789-.371V0H4.32v-.828c-.21.34-.468.578-.77.726-.3.153-.679.23-1.12.23-.559 0-1.008-.148-1.34-.456C.762-.641.602-1.058.602-1.59c0-.61.199-1.07.617-1.39.41-.31 1.02-.47 1.84-.47H4.32v-.09c0-.41-.14-.73-.41-.96-.27-.219-.648-.34-1.14-.34-.32 0-.622.04-.918.121-.301.078-.582.188-.852.328v-.828c.32-.12.64-.222.95-.281a5 5 0 0 1 .91-.102c.788 0 1.378.211 1.769.622.39.41.59 1.03.59 1.859m0 0"/><path id="I" d="M5.488-3.3V0H4.59v-3.27c0-.52-.11-.902-.309-1.16-.203-.261-.5-.39-.902-.39-.488 0-.867.16-1.149.468-.28.313-.421.73-.421 1.262V0H.91v-5.469h.899v.848c.21-.32.46-.57.761-.73.29-.16.63-.25 1.008-.25.621 0 1.102.203 1.422.59.32.39.488.96.488 1.71m0 0"/><path id="J" d="M4.43-5.309v.848a5 5 0 0 0-.79-.289 4 4 0 0 0-.85-.102c-.45 0-.79.07-1.009.211a.67.67 0 0 0-.332.61c0 .21.082.37.242.492.16.117.48.238.957.34l.313.07c.64.14 1.09.34 1.36.578.257.25.398.602.398 1.04q0 .765-.598 1.202c-.402.297-.96.438-1.66.438-.3 0-.602-.027-.922-.078a6 6 0 0 1-1-.25v-.93q.499.27.98.39c.32.09.641.13.961.13.418 0 .75-.07.98-.211a.7.7 0 0 0 .34-.621c0-.239-.09-.43-.25-.559s-.519-.262-1.081-.379l-.309-.07c-.558-.121-.969-.301-1.21-.54-.25-.241-.372-.57-.372-1 0-.511.184-.91.543-1.19q.54-.423 1.559-.423c.332 0 .64.032.941.082q.434.077.809.211m0 0"/><path id="K" d="M6.441-6.73v1.039a4 4 0 0 0-1.07-.688 3.2 3.2 0 0 0-1.191-.23q-1.26 0-1.918.77c-.442.51-.66 1.237-.66 2.198q-.001 1.443.66 2.211c.437.508 1.078.758 1.918.758.422 0 .808-.066 1.191-.226.379-.153.73-.383 1.07-.692v1.031c-.351.239-.722.41-1.101.52-.38.11-.79.168-1.219.168-1.101 0-1.973-.328-2.61-1C.872-1.54.56-2.461.56-3.641c0-1.168.312-2.09.953-2.77.636-.667 1.508-1.01 2.61-1.01.437 0 .847.062 1.23.171.378.121.75.29 1.09.52m0 0"/><path id="L" d="M-.02-7.29h6.16v.83H3.55V0H2.56v-6.46H-.02Zm0 0"/><path id="M" d="M.98-7.29h1.47l1.859 4.962 1.87-4.961h1.47V0H6.69v-6.398l-1.882 5H3.82l-1.879-5V0h-.96Zm0 0"/><path id="N" d="M1.07-1.238h1.032V0H1.07Zm0 0"/><path id="w" d="M-7.29.02v-6.16h.83v2.59H0v.991h-6.46V.02Zm0 0"/><path id="x" d="M-5.469-.941v-.899H0v.899Zm-2.133 0v-.899h1.141v.899Zm0 0"/><path id="y" d="M-4.422-5.2c-.398-.222-.687-.491-.887-.8a2.07 2.07 0 0 1-.293-1.11c0-.562.204-1 .602-1.312.398-.308.969-.469 1.7-.469H0v.903h-3.27c-.52 0-.91.097-1.171.277-.25.191-.38.473-.38.852 0 .468.16.84.47 1.109.312.27.73.398 1.261.398H0v.903h-3.27c-.52 0-.91.097-1.171.277-.25.192-.38.48-.38.863 0 .457.16.829.47 1.098q.466.403 1.261.402H0v.899h-5.469v-.899h.848a2.06 2.06 0 0 1-.738-.742c-.16-.277-.243-.62-.243-1.02 0-.398.102-.73.301-1.007.2-.281.5-.48.88-.621m0 0"/><path id="z" d="M-2.96-5.621h.44v4.133c.622-.043 1.098-.223 1.418-.563q.48-.49.48-1.39c0-.34-.038-.68-.116-1a4 4 0 0 0-.39-.97h.847c.14.321.25.65.312.99.059.343.098.69.098 1.03 0 .88-.25 1.57-.75 2.082-.5.508-1.188.758-2.059.758q-1.336.001-2.129-.719c-.52-.48-.793-1.14-.793-1.96 0-.739.243-1.32.711-1.75.48-.418 1.121-.641 1.93-.641m-.259.902c-.492.008-.883.149-1.18.41-.292.27-.44.63-.44 1.07 0 .5.148.9.429 1.2s.68.48 1.191.52Zm0 0"/><path id="B" d="M-7.59-3.102c.762.442 1.5.762 2.23.973a7.7 7.7 0 0 0 2.22.32c.761 0 1.5-.101 2.23-.32a9.5 9.5 0 0 0 2.219-.973v.782c-.77.492-1.508.86-2.25 1.101a7.1 7.1 0 0 1-2.2.36q-1.078 0-2.187-.36A9.6 9.6 0 0 1-7.59-2.32Zm0 0"/><path id="C" d="M-5.309-4.43h.848c-.117.258-.219.52-.289.79a4 4 0 0 0-.102.85c0 .45.07.79.211 1.009.141.222.34.332.61.332.21 0 .37-.082.492-.242.117-.16.238-.48.34-.957l.07-.313c.14-.64.34-1.09.578-1.36.25-.257.602-.398 1.04-.398q.765 0 1.202.598c.297.402.438.96.438 1.66 0 .3-.027.602-.078.922s-.13.648-.25 1h-.93q.27-.499.39-.98c.09-.32.13-.641.13-.961 0-.418-.07-.75-.211-.98a.7.7 0 0 0-.621-.34c-.239 0-.43.09-.559.25s-.262.519-.379 1.081l-.07.309c-.121.558-.301.969-.54 1.21-.241.25-.57.372-1 .372-.511 0-.91-.184-1.19-.543q-.423-.54-.423-1.559c0-.332.032-.64.082-.941q.077-.434.211-.809m0 0"/><path id="D" d="M-7.59-.8v-.778c.77-.48 1.52-.852 2.262-1.094a7.1 7.1 0 0 1 2.187-.367c.73 0 1.461.129 2.2.367.742.242 1.48.613 2.25 1.094v.777c-.75-.43-1.48-.75-2.22-.969a8 8 0 0 0-2.23-.32c-.75 0-1.488.11-2.218.32-.73.22-1.47.54-2.23.97m0 0"/><path id="O" d="M-7.29-.871v-.988h4.43c.782 0 1.348-.141 1.688-.422.344-.278.512-.739.512-1.38 0-.628-.168-1.089-.512-1.37-.34-.278-.906-.43-1.687-.43h-4.43v-.988h4.55c.958 0 1.669.238 2.15.71.48.47.718 1.16.718 2.079Q.13-2.276-.59-1.57c-.48.468-1.191.699-2.148.699Zm0 0"/><path id="P" d="M-3.3-5.488H0v.898h-3.27c-.52 0-.902.11-1.16.309-.261.203-.39.5-.39.902 0 .488.16.867.468 1.149.313.28.73.421 1.262.421H0v.899h-5.469v-.899h.848c-.32-.21-.57-.46-.73-.761a2.06 2.06 0 0 1-.25-1.008c0-.621.203-1.102.59-1.422.39-.32.96-.488 1.71-.488m0 0"/><path id="Q" d="M-5.262-4.879h.84a3.6 3.6 0 0 0-.308.77c-.07.257-.11.507-.11.77 0 .577.192 1.038.559 1.359.37.32.89.48 1.55.48q1.008 0 1.56-.48c.37-.32.55-.782.55-1.36 0-.262-.027-.512-.098-.77a3.5 3.5 0 0 0-.32-.769h.828c.121.258.211.52.262.777q.077.412.078.864c0 .816-.25 1.476-.77 1.957-.507.492-1.21.73-2.09.73-.89 0-1.59-.238-2.097-.73-.512-.489-.774-1.16-.774-2.02 0-.277.032-.55.09-.808.063-.262.14-.52.25-.77m0 0"/><path id="R" d="M-4.629-4.11c-.062.098-.101.212-.133.329-.02.12-.039.25-.039.39 0 .512.172.903.5 1.172.332.278.801.41 1.422.41H0v.899h-5.469v-.899h.848a1.8 1.8 0 0 1-.738-.73q-.242-.451-.243-1.11c0-.062.012-.132.012-.21.012-.07.02-.153.04-.25Zm0 0"/><path id="S" d="M-7.02-1.828h1.551V-3.68h.7v1.852h2.968c.45 0 .742-.063.86-.184.132-.117.191-.367.191-.75v-.918H0v.918Q0-1.707-.39-1.32c-.258.261-.731.39-1.41.39h-2.97v.66h-.699v-.66h-1.55Zm0 0"/><path id="T" d="M-2.75-3.43c0 .73.09 1.23.25 1.508.172.281.45.422.852.422.32 0 .578-.102.757-.309.192-.21.282-.5.282-.863 0-.5-.172-.898-.532-1.2-.347-.3-.82-.448-1.41-.448h-.199Zm-.371-1.789H0v.899h-.828c.34.21.578.468.726.77.153.3.23.679.23 1.12 0 .559-.148 1.008-.456 1.34-.313.328-.73.488-1.262.488-.61 0-1.07-.199-1.39-.617-.31-.41-.47-1.02-.47-1.84V-4.32h-.09c-.41 0-.73.14-.96.41-.219.27-.34.648-.34 1.14 0 .32.04.622.121.918.078.301.188.582.328.852h-.828a6 6 0 0 1-.281-.95 5 5 0 0 1-.102-.91c0-.788.211-1.378.622-1.769.41-.39 1.03-.59 1.859-.59m0 0"/><path id="U" d="M.5-3.219c.64.258 1.07.508 1.27.75q.3.36.3.957v.723h-.75v-.531q.002-.36-.18-.57c-.12-.141-.39-.29-.831-.462l-.399-.16L-5.469-.3v-.949l4.278-1.71-4.278-1.712v-.95Zm0 0"/><path id="V" d="M-.828-1.238v-1.614h-5.563l.352 1.75h-.902L-7.29-2.84v-.988h6.46v-1.613H0v4.203Zm0 0"/><path id="W" d="M-3.14-.488v-2.633h.8v2.633Zm0 0"/><path id="X" d="M-4.84-3.059q.001.72.57 1.137.568.422 1.54.422c.66 0 1.171-.129 1.55-.41.38-.281.559-.66.559-1.149 0-.48-.18-.863-.559-1.14-.379-.281-.89-.422-1.55-.422-.641 0-1.16.14-1.54.422-.378.277-.57.66-.57 1.14m-.762 0c0-.78.262-1.39.762-1.84.512-.44 1.211-.671 2.11-.671.902 0 1.601.23 2.101.672.508.449.758 1.058.758 1.84 0 .788-.25 1.41-.758 1.847q-.75.66-2.101.66c-.899 0-1.598-.219-2.11-.66-.5-.437-.762-1.059-.762-1.848m0 0"/><path id="Y" d="M-7.602-.941v-.899H0v.899Zm0 0"/><path id="Z" d="M-4.64-4.54h-2.962v-.901H0v.902h-.82c.332.187.57.43.718.719.153.289.23.629.23 1.03q.001.991-.776 1.618c-.524.422-1.223.621-2.082.621-.86 0-1.551-.199-2.079-.62-.52-.419-.793-.958-.793-1.618 0-.402.082-.742.243-1.031q.239-.436.718-.72m1.91 3.06c.66 0 1.18-.13 1.558-.399.383-.27.563-.64.563-1.121 0-.48-.18-.852-.563-1.129-.379-.27-.898-.41-1.558-.41s-1.168.14-1.551.41c-.38.277-.57.649-.57 1.129q0 .719.57 1.121c.383.27.89.399 1.55.399m0 0"/><path id="aa" d="M-.82-1.809h2.89v.899h-7.539v-.899h.828a1.8 1.8 0 0 1-.718-.71c-.16-.29-.243-.641-.243-1.04 0-.66.274-1.203.793-1.62.528-.41 1.22-.622 2.079-.622s1.558.211 2.082.621c.52.418.777.961.777 1.621 0 .399-.078.75-.23 1.04-.149.289-.387.53-.72.71M-2.73-4.87c-.66 0-1.168.14-1.551.41q-.57.42-.57 1.121 0 .719.57 1.121c.383.278.89.41 1.55.41s1.18-.132 1.56-.41c.382-.27.562-.64.562-1.12 0-.47-.18-.84-.563-1.122-.379-.27-.898-.41-1.558-.41m0 0"/><clipPath id="E"><path d="M48.64 12h193.962v233H48.64Zm0 0"/></clipPath><clipPath id="ab"><path d="M48.64 12h193.962v233H48.64Zm0 0"/></clipPath></defs><path fill="#FFF" d="M-28.8-28.8h345.6v345.6H-28.8z"/><path fill="#EAEAF2" d="M48.64 254.84h193.962V2H48.64Zm0 0"/><use xlink:href="#a" x="45.46" y="269.434" fill="#262626"/><use xlink:href="#b" x="77.787" y="269.434" fill="#262626"/><use xlink:href="#c" x="110.114" y="269.434" fill="#262626"/><use xlink:href="#d" x="142.44" y="269.434" fill="#262626"/><use xlink:href="#e" x="174.767" y="269.434" fill="#262626"/><use xlink:href="#f" x="207.094" y="269.434" fill="#262626"/><use xlink:href="#g" x="239.42" y="269.434" fill="#262626"/><use xlink:href="#h" x="102.675" y="283.106" fill="#262626"/><g fill="#262626"><use xlink:href="#i" x="108.073" y="283.106"/><use xlink:href="#j" x="114.223" y="283.106"/><use xlink:href="#i" x="120.143" y="283.106"/><use xlink:href="#k" x="126.293" y="283.106"/><use xlink:href="#l" x="129.073" y="283.106"/><use xlink:href="#m" x="132.253" y="283.106"/><use xlink:href="#n" x="138.373" y="283.106"/><use xlink:href="#l" x="141.893" y="283.106"/><use xlink:href="#o" x="145.073" y="283.106"/><use xlink:href="#p" x="151.423" y="283.106"/><use xlink:href="#n" x="154.203" y="283.106"/><use xlink:href="#n" x="157.723" y="283.106"/><use xlink:href="#p" x="161.243" y="283.106"/><use xlink:href="#q" x="164.023" y="283.106"/><use xlink:href="#r" x="169.523" y="283.106"/><use xlink:href="#k" x="175.863" y="283.106"/><use xlink:href="#s" x="178.643" y="283.106"/><use xlink:href="#t" x="182.563" y="283.106"/></g><path fill="none" stroke="#262626" stroke-linejoin="round" stroke-miterlimit="10" stroke-width=".8" d="M48.64 218.707h-3.5"/><g fill="#262626"><use xlink:href="#a" x="16.203" y="222.505"/><use xlink:href="#f" x="22.563" y="222.505"/><use xlink:href="#u" x="28.922" y="222.505"/><use xlink:href="#u" x="35.282" y="222.505"/></g><path fill="none" stroke="#262626" stroke-linejoin="round" stroke-miterlimit="10" stroke-width=".8" d="M48.64 166.73h-3.5"/><g fill="#262626"><use xlink:href="#a" x="16.203" y="170.527"/><use xlink:href="#v" x="22.563" y="170.527"/><use xlink:href="#u" x="28.922" y="170.527"/><use xlink:href="#u" x="35.282" y="170.527"/></g><path fill="none" stroke="#262626" stroke-linejoin="round" stroke-miterlimit="10" stroke-width=".8" d="M48.64 114.75h-3.5"/><g fill="#262626"><use xlink:href="#b" x="16.203" y="118.548"/><use xlink:href="#u" x="22.563" y="118.548"/><use xlink:href="#u" x="28.922" y="118.548"/><use xlink:href="#u" x="35.282" y="118.548"/></g><path fill="none" stroke="#262626" stroke-linejoin="round" stroke-miterlimit="10" stroke-width=".8" d="M48.64 62.773h-3.5"/><g fill="#262626"><use xlink:href="#b" x="16.203" y="66.57"/><use xlink:href="#b" x="22.563" y="66.57"/><use xlink:href="#u" x="28.922" y="66.57"/><use xlink:href="#u" x="35.282" y="66.57"/></g><path fill="none" stroke="#262626" stroke-linejoin="round" stroke-miterlimit="10" stroke-width=".8" d="M48.64 10.793h-3.5"/><g fill="#262626"><use xlink:href="#b" x="16.203" y="14.591"/><use xlink:href="#d" x="22.563" y="14.591"/><use xlink:href="#u" x="28.922" y="14.591"/><use xlink:href="#u" x="35.282" y="14.591"/></g><use xlink:href="#w" x="10.124" y="153.678" fill="#262626"/><g fill="#262626"><use xlink:href="#x" x="10.124" y="147.865"/><use xlink:href="#y" x="10.124" y="145.085"/><use xlink:href="#z" x="10.124" y="135.345"/><use xlink:href="#A" x="10.124" y="129.195"/><use xlink:href="#B" x="10.124" y="126.015"/><use xlink:href="#y" x="10.124" y="122.115"/><use xlink:href="#C" x="10.124" y="112.375"/><use xlink:href="#D" x="10.124" y="107.165"/></g><g clip-path="url(#E)"><path fill="none" stroke="#000" stroke-linecap="round" stroke-linejoin="round" stroke-miterlimit="10" stroke-width="1.5" d="m48.64 243.348 32.325-49.891 32.328-73.297 32.328-59.25 32.324-28.078 32.328-19.34 32.329 29.422"/></g><path fill="none" stroke="#FFF" stroke-linecap="square" stroke-miterlimit="10" stroke-width=".8" d="M48.64 254.84V2M242.602 254.84V2M48.64 254.84h193.962M48.64 2h193.962"/><path fill="#EAEAF2" fill-opacity=".8" stroke="#CCC" stroke-miterlimit="10" stroke-opacity=".8" d="M162.305 249.84h73.297q1.999-.001 2-2v-28.344q-.001-1.999-2-2h-73.297c-1.336 0-2 .668-2 2v28.344c0 1.332.664 2 2 2Zm0 0"/><path fill="none" stroke="#000" stroke-linecap="round" stroke-linejoin="round" stroke-miterlimit="10" stroke-width="1.5" d="M164.305 225.59h20"/><g fill="#262626"><use xlink:href="#F" x="192.303" y="229.09"/><use xlink:href="#r" x="199.823" y="229.09"/><use xlink:href="#G" x="206.163" y="229.09"/><use xlink:href="#H" x="215.903" y="229.09"/><use xlink:href="#I" x="222.033" y="229.09"/><use xlink:href="#J" x="228.373" y="229.09"/></g><path fill="none" stroke="#00F" stroke-linecap="round" stroke-linejoin="round" stroke-miterlimit="10" stroke-width="1.5" d="M164.305 240.262h20"/><g fill="#262626"><use xlink:href="#K" x="192.303" y="243.762"/><use xlink:href="#L" x="199.283" y="243.762"/><use xlink:href="#M" x="205.393" y="243.762"/></g><path fill="none" stroke="#262626" stroke-linejoin="round" stroke-miterlimit="10" stroke-width=".8" d="M242.602 238.2h3.5"/><g fill="#262626"><use xlink:href="#u" x="249.6" y="241.995"/><use xlink:href="#N" x="255.96" y="241.995"/><use xlink:href="#a" x="259.14" y="241.995"/><use xlink:href="#f" x="265.5" y="241.995"/></g><path fill="none" stroke="#262626" stroke-linejoin="round" stroke-miterlimit="10" stroke-width=".8" d="M242.602 183.105h3.5"/><g fill="#262626"><use xlink:href="#u" x="249.6" y="186.904"/><use xlink:href="#N" x="255.96" y="186.904"/><use xlink:href="#a" x="259.14" y="186.904"/><use xlink:href="#v" x="265.5" y="186.904"/></g><path fill="none" stroke="#262626" stroke-linejoin="round" stroke-miterlimit="10" stroke-width=".8" d="M242.602 128.016h3.5"/><g fill="#262626"><use xlink:href="#u" x="249.6" y="131.813"/><use xlink:href="#N" x="255.96" y="131.813"/><use xlink:href="#b" x="259.14" y="131.813"/><use xlink:href="#u" x="265.5" y="131.813"/></g><path fill="none" stroke="#262626" stroke-linejoin="round" stroke-miterlimit="10" stroke-width=".8" d="M242.602 72.926h3.5"/><g fill="#262626"><use xlink:href="#u" x="249.6" y="76.721"/><use xlink:href="#N" x="255.96" y="76.721"/><use xlink:href="#b" x="259.14" y="76.721"/><use xlink:href="#b" x="265.5" y="76.721"/></g><path fill="none" stroke="#262626" stroke-linejoin="round" stroke-miterlimit="10" stroke-width=".8" d="M242.602 17.832h3.5"/><g fill="#262626"><use xlink:href="#u" x="249.6" y="21.63"/><use xlink:href="#N" x="255.96" y="21.63"/><use xlink:href="#b" x="259.14" y="21.63"/><use xlink:href="#d" x="265.5" y="21.63"/></g><g fill="#262626"><use xlink:href="#O" x="283.459" y="220.053"/><use xlink:href="#P" x="283.459" y="212.733"/><use xlink:href="#Q" x="283.459" y="206.393"/><use xlink:href="#z" x="283.459" y="200.893"/><use xlink:href="#R" x="283.459" y="194.743"/><use xlink:href="#S" x="283.459" y="190.633"/><use xlink:href="#T" x="283.459" y="186.713"/><use xlink:href="#x" x="283.459" y="180.583"/><use xlink:href="#P" x="283.459" y="177.803"/><use xlink:href="#S" x="283.459" y="171.463"/><use xlink:href="#U" x="283.459" y="167.543"/><use xlink:href="#A" x="283.459" y="161.623"/><use xlink:href="#B" x="283.459" y="158.443"/><use xlink:href="#V" x="283.459" y="154.543"/><use xlink:href="#A" x="283.459" y="148.183"/><use xlink:href="#W" x="283.459" y="145.003"/><use xlink:href="#A" x="283.459" y="141.393"/><use xlink:href="#P" x="283.459" y="138.213"/><use xlink:href="#X" x="283.459" y="131.873"/><use xlink:href="#R" x="283.459" y="125.753"/></g><g fill="#262626"><use xlink:href="#y" x="283.459" y="121.815"/><use xlink:href="#T" x="283.459" y="112.075"/><use xlink:href="#Y" x="283.459" y="105.945"/><use xlink:href="#x" x="283.459" y="103.165"/><use xlink:href="#C" x="283.459" y="100.385"/><use xlink:href="#z" x="283.459" y="95.175"/><use xlink:href="#Z" x="283.459" y="89.025"/><use xlink:href="#A" x="283.459" y="82.675"/><use xlink:href="#z" x="283.459" y="79.495"/><use xlink:href="#P" x="283.459" y="73.345"/><use xlink:href="#S" x="283.459" y="67.005"/><use xlink:href="#R" x="283.459" y="63.085"/></g><g fill="#262626"><use xlink:href="#X" x="283.459" y="59.193"/><use xlink:href="#aa" x="283.459" y="53.073"/><use xlink:href="#U" x="283.459" y="46.723"/><use xlink:href="#D" x="283.459" y="40.803"/></g><g clip-path="url(#ab)"><path fill="none" stroke="#00F" stroke-linecap="round" stroke-linejoin="round" stroke-miterlimit="10" stroke-width="1.5" d="m48.64 243.348 32.325-96.735 32.328-53.59 32.328-66.593 32.324-12.938 32.328 29.696 32.329 28.69"/></g><path fill="none" stroke="#FFF" stroke-linecap="square" stroke-miterlimit="10" stroke-width=".8" d="M48.64 254.84V2M242.602 254.84V2M48.64 254.84h193.962M48.64 2h193.962"/></svg>