<svg xmlns="http://www.w3.org/2000/svg" xmlns:xlink="http://www.w3.org/1999/xlink" width="768" height="384" viewBox="0 0 576 288"><defs><path id="b" d="M3.18-6.64q-.761 0-1.149.75c-.261.5-.383 1.25-.383 2.25s.122 1.75.383 2.25q.386.75 1.149.75c.511 0 .89-.25 1.148-.75.25-.5.383-1.25.383-2.25s-.133-1.75-.383-2.25c-.258-.5-.637-.75-1.148-.75m0-.782c.808 0 1.43.332 1.87.973.43.648.65 1.59.65 2.808 0 1.23-.22 2.172-.65 2.813-.44.637-1.062.957-1.878.957Q1.943.129 1.3-.828C.87-1.468.66-2.41.66-3.641c0-1.218.21-2.16.64-2.808.43-.64 1.058-.973 1.879-.973m0 0"/><path id="d" d="M1.238-.828h1.614v-5.563l-1.75.352v-.902L2.84-7.29h.988v6.46h1.613V0H1.238Zm0 0"/><path id="f" d="M1.922-.828h3.437V0H.73v-.828c.372-.383.88-.902 1.532-1.563A72 72 0 0 0 3.48-3.648q.48-.528.66-.903c.122-.238.188-.488.188-.73 0-.38-.137-.7-.406-.938-.274-.242-.621-.37-1.063-.37-.308 0-.64.058-.98.16q-.51.162-1.098.488v-1q.6-.238 1.11-.36c.34-.078.66-.12.949-.12q1.126 0 1.8.57c.45.382.68.882.68 1.511 0 .3-.058.59-.172.852-.109.27-.308.59-.609.949-.078.098-.34.367-.777.82-.442.45-1.051 1.078-1.84 1.89m0 0"/><path id="h" d="M4.059-3.93c.472.102.84.309 1.101.63.262.32.399.722.399 1.179 0 .723-.25 1.281-.739 1.672-.5.39-1.199.578-2.11.578a5 5 0 0 1-.948-.09c-.32-.05-.66-.14-1-.258v-.953c.27.16.566.281.898.363q.48.118 1.02.118.93.002 1.41-.36c.32-.238.488-.597.488-1.07 0-.418-.148-.758-.45-1-.3-.238-.718-.367-1.257-.367H2.02v-.813h.89c.48 0 .852-.09 1.11-.289q.39-.285.39-.84c0-.37-.14-.66-.398-.86q-.41-.298-1.14-.3-.407 0-.872.09a8 8 0 0 0-1.02.27v-.88c.372-.1.72-.18 1.051-.23.32-.05.63-.082.93-.082q1.107.001 1.77.512.66.51.66 1.379c0 .402-.121.742-.352 1.02-.23.28-.559.48-.98.581m0 0"/><path id="j" d="M3.781-6.43 1.29-2.54h2.492Zm-.261-.86h1.242v4.75H5.8v.821H4.76V0h-.98v-1.719H.488v-.953Zm0 0"/><path id="l" d="M1.078-7.29H4.95v.83H1.98v1.788c.141-.047.29-.09.43-.11.14-.019.29-.038.43-.038.808 0 1.45.23 1.93.672.48.449.718 1.046.718 1.808 0 .79-.25 1.399-.738 1.828-.488.434-1.18.64-2.059.64-.312 0-.62-.026-.941-.07a5.6 5.6 0 0 1-.98-.23v-.988q.432.24.91.36c.308.081.64.109.992.109.558 0 1.008-.137 1.34-.438.316-.3.488-.7.488-1.21 0-.5-.172-.9-.488-1.2-.332-.3-.782-.45-1.34-.45a3.4 3.4 0 0 0-.793.09 4.4 4.4 0 0 0-.8.27Zm0 0"/><path id="n" d="M3.3-4.04c-.44 0-.788.161-1.05.462-.262.297-.39.719-.39 1.238q-.002.798.39 1.25.391.45 1.05.45.658 0 1.052-.45.386-.452.386-1.25c0-.52-.129-.941-.386-1.238-.262-.3-.614-.461-1.051-.461m1.962-3.089v.899a3.441 3.441 0 0 0-1.5-.36q-.99 0-1.5.66c-.34.442-.543 1.11-.582 1.989.191-.278.43-.5.718-.649.293-.148.614-.23.961-.23.73 0 1.313.23 1.73.672.423.437.641 1.046.641 1.808 0 .75-.23 1.352-.671 1.8C4.62-.09 4.03.13 3.3.13c-.84 0-1.492-.32-1.93-.957C.921-1.468.7-2.41.7-3.641c0-1.148.27-2.07.82-2.75.54-.68 1.282-1.03 2.2-1.03.242 0 .492.03.75.07.25.05.511.12.793.222m0 0"/><path id="o" d="M-.02-7.29h6.16v.83H3.55V0H2.56v-6.46H-.02Zm0 0"/><path id="p" d="M4.11-4.629a1.2 1.2 0 0 0-.329-.133c-.12-.02-.25-.039-.39-.039-.512 0-.903.172-1.172.5-.278.332-.41.801-.41 1.422V0H.91v-5.469h.899v.848c.18-.328.43-.578.73-.738q.451-.242 1.11-.243c.062 0 .132.012.21.012.07.012.153.02.25.04Zm0 0"/><path id="q" d="M3.43-2.75c-.73 0-1.23.09-1.508.25-.281.172-.422.45-.422.852 0 .32.102.578.309.757.21.192.5.282.863.282.5 0 .898-.172 1.2-.532.3-.347.448-.82.448-1.41v-.199Zm1.789-.371V0H4.32v-.828c-.21.34-.468.578-.77.726-.3.153-.679.23-1.12.23-.559 0-1.008-.148-1.34-.456C.762-.641.602-1.058.602-1.59c0-.61.199-1.07.617-1.39.41-.31 1.02-.47 1.84-.47H4.32v-.09c0-.41-.14-.73-.41-.96-.27-.219-.648-.34-1.14-.34-.32 0-.622.04-.918.121-.301.078-.582.188-.852.328v-.828c.32-.12.64-.222.95-.281a5 5 0 0 1 .91-.102c.788 0 1.378.211 1.769.622.39.41.59 1.03.59 1.859m0 0"/><path id="r" d="M.941-5.469h.899V0H.94Zm0-2.133h.899v1.141H.94Zm0 0"/><path id="s" d="M5.488-3.3V0H4.59v-3.27c0-.52-.11-.902-.309-1.16-.203-.261-.5-.39-.902-.39-.488 0-.867.16-1.149.468-.28.313-.421.73-.421 1.262V0H.91v-5.469h.899v.848c.21-.32.46-.57.761-.73.29-.16.63-.25 1.008-.25.621 0 1.102.203 1.422.59.32.39.488.96.488 1.71m0 0"/><path id="t" d="M4.54-2.8c0-.641-.142-1.15-.4-1.509-.269-.363-.652-.543-1.128-.543-.48 0-.864.18-1.133.543-.27.36-.399.868-.399 1.508 0 .653.13 1.153.399 1.512.27.36.652.539 1.133.539.476 0 .86-.18 1.129-.54.257-.358.398-.858.398-1.51M5.44-.68c0 .918-.21 1.61-.62 2.07-.423.45-1.051.68-1.9.68-.32 0-.612-.03-.89-.07a4.7 4.7 0 0 1-.82-.219v-.87c.258.14.52.237.777.308.262.07.524.11.793.11.578 0 1.02-.157 1.32-.458.29-.312.438-.77.438-1.39v-.442c-.187.32-.43.563-.719.723S3.191 0 2.79 0c-.68 0-1.22-.25-1.63-.762C.75-1.27.55-1.949.55-2.8c0-.84.2-1.52.61-2.027.41-.512.95-.774 1.63-.774.401 0 .741.082 1.03.243q.436.239.72.718v-.828h.901Zm0 0"/><path id="v" d="M1.828-7.02v1.551H3.68v.7H1.828v2.968c0 .45.063.742.184.86.117.132.367.191.75.191h.918V0h-.918Q1.707 0 1.32-.39C1.06-.649.93-1.122.93-1.8v-2.97H.27v-.699h.66v-1.55Zm0 0"/><path id="w" d="M5.621-2.96v.44H1.488c.043.622.223 1.098.563 1.418q.49.48 1.39.48c.34 0 .68-.038 1-.116.32-.082.649-.211.97-.39v.847c-.321.14-.65.25-.99.312a6 6 0 0 1-1.03.098c-.88 0-1.57-.25-2.082-.75C.8-1.121.55-1.81.55-2.68Q.55-4.016 1.27-4.809c.48-.52 1.14-.793 1.96-.793.739 0 1.32.243 1.75.711.418.48.641 1.121.641 1.93M4.72-3.22c-.008-.492-.149-.883-.41-1.18-.27-.292-.63-.44-1.07-.44-.5 0-.9.148-1.2.429s-.48.68-.52 1.191Zm0 0"/><path id="x" d="M3.059-4.84q-.72.001-1.137.57-.422.568-.422 1.54c0 .66.129 1.171.41 1.55.281.38.66.559 1.149.559.48 0 .863-.18 1.14-.559.281-.379.422-.89.422-1.55 0-.641-.14-1.16-.422-1.54-.277-.378-.66-.57-1.14-.57m0-.762c.78 0 1.39.262 1.84.762.44.512.671 1.211.671 2.11 0 .902-.23 1.601-.672 2.101C4.45-.12 3.84.13 3.058.13c-.788 0-1.41-.25-1.847-.758Q.55-1.379.55-2.73c0-.899.219-1.598.66-2.11.437-.5 1.059-.762 1.848-.762m0 0"/><path id="y" d="M4.43-5.309v.848a5 5 0 0 0-.79-.289 4 4 0 0 0-.85-.102c-.45 0-.79.07-1.009.211a.67.67 0 0 0-.332.61c0 .21.082.37.242.492.16.117.48.238.957.34l.313.07c.64.14 1.09.34 1.36.578.257.25.398.602.398 1.04q0 .765-.598 1.202c-.402.297-.96.438-1.66.438-.3 0-.602-.027-.922-.078a6 6 0 0 1-1-.25v-.93q.499.27.98.39c.32.09.641.13.961.13.418 0 .75-.07.98-.211a.7.7 0 0 0 .34-.621c0-.239-.09-.43-.25-.559s-.519-.262-1.081-.379l-.309-.07c-.558-.121-.969-.301-1.21-.54-.25-.241-.372-.57-.372-1 0-.511.184-.91.543-1.19q.54-.423 1.559-.423c.332 0 .64.032.941.082q.434.077.809.211m0 0"/><path id="A" d="M.82-7.29h4.692v.419L2.859 0H1.83L4.32-6.46H.82Zm0 0"/><path id="B" d="M1.07-1.238h1.032V0H1.07Zm0 0"/><path id="E" d="M3.18-3.46c-.47 0-.84.132-1.11.382s-.398.59-.398 1.027c0 .442.129.79.398 1.04.27.25.64.37 1.11.37.46 0 .832-.12 1.101-.379.27-.25.41-.59.41-1.03 0-.438-.14-.778-.402-1.028-.27-.25-.64-.383-1.11-.383M2.19-3.88q-.63-.153-.992-.59C.961-4.762.852-5.109.852-5.53c0-.578.199-1.04.617-1.38q.615-.51 1.71-.51 1.08 0 1.712.51c.41.34.62.802.62 1.38 0 .422-.12.77-.363 1.062-.238.29-.558.489-.976.59q.704.166 1.11.649c.257.32.398.718.398 1.18 0 .71-.22 1.25-.649 1.62C4.59-.05 3.97.13 3.171.13c-.8 0-1.421-.18-1.85-.559Q.677-.985.68-2.05c0-.462.129-.86.398-1.18.262-.32.633-.54 1.113-.649M1.828-5.44c0 .382.113.68.352.89.242.211.57.313 1 .313.422 0 .75-.102.992-.313q.359-.316.36-.89c0-.38-.122-.668-.36-.88-.242-.21-.57-.32-.992-.32-.43 0-.758.11-1 .32-.239.212-.352.5-.352.88m0 0"/><path id="J" d="M1.102-.148v-.903q.357.182.75.27.375.092.75.09c.636 0 1.136-.207 1.476-.649.344-.441.543-1.101.602-2q-.301.424-.72.649c-.288.152-.608.222-.96.222q-1.109-.002-1.738-.66-.633-.66-.633-1.812c0-.739.223-1.34.66-1.797.441-.453 1.031-.684 1.77-.684.84 0 1.492.332 1.93.973.44.648.671 1.59.671 2.808 0 1.16-.281 2.07-.82 2.75Q4.017.13 2.64.13c-.25 0-.5-.027-.75-.07-.261-.04-.519-.11-.788-.207m1.957-3.09q.663-.002 1.05-.453c.262-.297.391-.72.391-1.25 0-.52-.129-.938-.39-1.239-.258-.3-.61-.46-1.051-.46-.438 0-.79.16-1.047.46-.262.301-.39.72-.39 1.239 0 .53.128.953.39 1.25.258.3.61.453 1.047.453m0 0"/><path id="ab" d="M.98-7.29h4.192v.83H1.969v2.151h2.89v.829H1.97V0H.98Zm0 0"/><path id="ac" d="M1.172-1.238h1.027v.84l-.8 1.546h-.63l.403-1.546Zm0 0"/><path id="ad" d="M.98-7.29h.989v6.462h3.55V0H.98Zm0 0"/><path id="ae" d="M5.352-7.05v.96a6.5 6.5 0 0 0-1.063-.398 4.1 4.1 0 0 0-.96-.133c-.54 0-.958.11-1.25.312-.29.207-.43.508-.43.887 0 .32.09.57.292.73.188.172.559.301 1.098.403l.602.117c.73.14 1.27.39 1.62.742.348.36.528.828.528 1.418 0 .711-.238 1.242-.71 1.602Q4.363.13 3 .129a6.3 6.3 0 0 1-1.11-.11C1.5-.05 1.103-.16.692-.32V-1.34q.6.344 1.168.512c.38.117.762.168 1.141.168.559 0 .988-.11 1.3-.328.302-.223.462-.532.462-.953 0-.36-.114-.637-.332-.84q-.329-.299-1.078-.45l-.602-.12q-1.106-.207-1.602-.688C.82-4.352.66-4.781.66-5.34c0-.641.219-1.15.68-1.52.45-.371 1.082-.563 1.879-.563.34 0 .68.031 1.043.094.347.058.707.156 1.09.277m0 0"/><path id="af" d="M.98-7.29h1.47l1.859 4.962 1.87-4.961h1.47V0H6.69v-6.398l-1.882 5H3.82l-1.879-5V0h-.96Zm0 0"/><path id="ag" d="M6.441-6.73v1.039a4 4 0 0 0-1.07-.688 3.2 3.2 0 0 0-1.191-.23q-1.26 0-1.918.77c-.442.51-.66 1.237-.66 2.198q-.001 1.443.66 2.211c.437.508 1.078.758 1.918.758.422 0 .808-.066 1.191-.226.379-.153.73-.383 1.07-.692v1.031c-.351.239-.722.41-1.101.52-.38.11-.79.168-1.219.168-1.101 0-1.973-.328-2.61-1C.872-1.54.56-2.461.56-3.641c0-1.168.312-2.09.953-2.77.636-.667 1.508-1.01 2.61-1.01.437 0 .847.062 1.23.171.378.121.75.29 1.09.52m0 0"/><path id="ah" d="M1.172-1.238h1.027V0H1.172Zm0-3.934h1.027v1.242H1.172Zm0 0"/><path id="ai" d="M7.27-3.21a.77.77 0 0 0-.668.358q-.242.366-.243 1.012c0 .418.082.762.243 1s.386.36.668.36q.42-.001.66-.36c.16-.238.242-.582.242-1 0-.422-.082-.762-.242-1s-.38-.37-.66-.37m0-.618c.511 0 .921.18 1.218.539.301.36.461.848.461 1.45 0 .609-.16 1.089-.46 1.44-.298.36-.708.528-1.22.528-.519 0-.94-.168-1.238-.527Q5.58-.925 5.578-1.84c0-.61.152-1.09.453-1.45.297-.358.719-.538 1.239-.538M2.23-6.801c-.28 0-.5.13-.66.371q-.241.36-.242.989c0 .441.082.77.242 1.011q.24.36.66.36a.77.77 0 0 0 .668-.36c.16-.242.243-.57.243-1.011 0-.418-.09-.75-.25-.989-.16-.242-.38-.37-.66-.37m4.41-.62h.782L2.859.128h-.78Zm-4.41 0q.762.002 1.23.542c.302.36.462.84.462 1.438 0 .62-.16 1.101-.461 1.46-.3.36-.711.532-1.23.532-.52 0-.93-.172-1.231-.531-.3-.36-.45-.84-.45-1.461q0-.898.45-1.438.45-.542 1.23-.543m0 0"/><path id="M" d="m-6.32-3.422 3.629 1.344v-2.684Zm-.97.563V-3.98L0-6.762v1.032l-1.871.66v3.289L0-1.121v1.043Zm0 0"/><path id="N" d="M-5.262-4.879h.84a3.6 3.6 0 0 0-.308.77c-.07.257-.11.507-.11.77 0 .577.192 1.038.559 1.359.37.32.89.48 1.55.48q1.008 0 1.56-.48c.37-.32.55-.782.55-1.36 0-.262-.027-.512-.098-.77a3.5 3.5 0 0 0-.32-.769h.828c.121.258.211.52.262.777q.077.412.078.864c0 .816-.25 1.476-.77 1.957-.507.492-1.21.73-2.09.73-.89 0-1.59-.238-2.097-.73-.512-.489-.774-1.16-.774-2.02 0-.277.032-.55.09-.808.063-.262.14-.52.25-.77m0 0"/><path id="O" d="M-2.16-.852H-5.47v-.898h3.278c.52 0 .902-.102 1.16-.3.261-.2.39-.5.39-.91 0-.481-.148-.868-.46-1.15-.31-.28-.727-.421-1.27-.421H-5.47v-.899H0v.899h-.84c.34.222.578.48.738.761q.23.434.23 1c0 .63-.187 1.11-.577 1.43-.38.328-.95.488-1.711.488m-3.442-2.257"/><path id="P" d="M-4.629-4.11c-.062.098-.101.212-.133.329-.02.12-.039.25-.039.39 0 .512.172.903.5 1.172.332.278.801.41 1.422.41H0v.899h-5.469v-.899h.848a1.8 1.8 0 0 1-.738-.73q-.242-.451-.243-1.11c0-.062.012-.132.012-.21.012-.07.02-.153.04-.25Zm0 0"/><path id="Q" d="M-2.75-3.43c0 .73.09 1.23.25 1.508.172.281.45.422.852.422.32 0 .578-.102.757-.309.192-.21.282-.5.282-.863 0-.5-.172-.898-.532-1.2-.347-.3-.82-.448-1.41-.448h-.199Zm-.371-1.789H0v.899h-.828c.34.21.578.468.726.77.153.3.23.679.23 1.12 0 .559-.148 1.008-.456 1.34-.313.328-.73.488-1.262.488-.61 0-1.07-.199-1.39-.617-.31-.41-.47-1.02-.47-1.84V-4.32h-.09c-.41 0-.73.14-.96.41-.219.27-.34.648-.34 1.14 0 .32.04.622.121.918.078.301.188.582.328.852h-.828a6 6 0 0 1-.281-.95 5 5 0 0 1-.102-.91c0-.788.211-1.378.622-1.769.41-.39 1.03-.59 1.859-.59m0 0"/><path id="R" d="M.5-3.219c.64.258 1.07.508 1.27.75q.3.36.3.957v.723h-.75v-.531q.002-.36-.18-.57c-.12-.141-.39-.29-.831-.462l-.399-.16L-5.469-.3v-.949l4.278-1.71-4.278-1.712v-.95Zm0 0"/><clipPath id="a"><path d="M45.398 2H46v252.84h-.602Zm0 0"/></clipPath><clipPath id="c"><path d="M129 2h2v252.84h-2Zm0 0"/></clipPath><clipPath id="e"><path d="M214 2h2v252.84h-2Zm0 0"/></clipPath><clipPath id="g"><path d="M299 2h2v252.84h-2Zm0 0"/></clipPath><clipPath id="i"><path d="M384 2h2v252.84h-2Zm0 0"/></clipPath><clipPath id="k"><path d="M469 2h2v252.84h-2Zm0 0"/></clipPath><clipPath id="m"><path d="M554 2h.832v252.84H554Zm0 0"/></clipPath><clipPath id="z"><path d="M45.398 254h509.434v.84H45.398Zm0 0"/></clipPath><clipPath id="C"><path d="M45.398 223h509.434v2H45.398Zm0 0"/></clipPath><clipPath id="D"><path d="M45.398 192h509.434v2H45.398Zm0 0"/></clipPath><clipPath id="F"><path d="M45.398 161h509.434v2H45.398Zm0 0"/></clipPath><clipPath id="G"><path d="M45.398 131h509.434v1H45.398Zm0 0"/></clipPath><clipPath id="H"><path d="M45.398 100h509.434v2H45.398Zm0 0"/></clipPath><clipPath id="I"><path d="M45.398 69h509.434v2H45.398Zm0 0"/></clipPath><clipPath id="K"><path d="M45.398 38h509.434v2H45.398Zm0 0"/></clipPath><clipPath id="L"><path d="M45.398 7h509.434v2H45.398Zm0 0"/></clipPath><clipPath id="S"><path d="M46 128h508v126.84H46Zm0 0"/></clipPath><clipPath id="T"><path d="M46 113h506v141.84H46Zm0 0"/></clipPath><clipPath id="U"><path d="M46 114h508v140.84H46Zm0 0"/></clipPath><clipPath id="V"><path d="M50 5h504v249.84H50Zm0 0"/></clipPath><clipPath id="W"><path d="M59 23h494v231.84H59Zm0 0"/></clipPath><clipPath id="X"><path d="M57 17h497v237.84H57Zm0 0"/></clipPath><clipPath id="Y"><path d="M48 136h506v118.84H48Zm0 0"/></clipPath><clipPath id="Z"><path d="M53 123h500v131.84H53Zm0 0"/></clipPath><clipPath id="aa"><path d="M51 116h503v138.84H51Zm0 0"/></clipPath></defs><path fill="#FFF" d="M-57.6-28.8h691.2v345.6H-57.6z"/><path fill="#EAEAF2" d="M45.398 254.84h509.434V2H45.398Zm0 0"/><g clip-path="url(#a)"><path fill="none" stroke="#FFF" stroke-linecap="round" stroke-linejoin="round" stroke-miterlimit="10" stroke-width=".8" d="M45.398 254.84V2"/></g><use xlink:href="#b" x="42.22" y="269.434" fill="#262626"/><g clip-path="url(#c)"><path fill="none" stroke="#FFF" stroke-linecap="round" stroke-linejoin="round" stroke-miterlimit="10" stroke-width=".8" d="M130.305 254.84V2"/></g><g fill="#262626"><use xlink:href="#d" x="111.227" y="269.434"/><use xlink:href="#b" x="117.587" y="269.434"/><use xlink:href="#b" x="123.947" y="269.434"/><use xlink:href="#b" x="130.307" y="269.434"/><use xlink:href="#b" x="136.667" y="269.434"/><use xlink:href="#b" x="143.027" y="269.434"/></g><g clip-path="url(#e)"><path fill="none" stroke="#FFF" stroke-linecap="round" stroke-linejoin="round" stroke-miterlimit="10" stroke-width=".8" d="M215.21 254.84V2"/></g><g fill="#262626"><use xlink:href="#f" x="196.132" y="269.434"/><use xlink:href="#b" x="202.492" y="269.434"/><use xlink:href="#b" x="208.852" y="269.434"/><use xlink:href="#b" x="215.212" y="269.434"/><use xlink:href="#b" x="221.572" y="269.434"/><use xlink:href="#b" x="227.932" y="269.434"/></g><g clip-path="url(#g)"><path fill="none" stroke="#FFF" stroke-linecap="round" stroke-linejoin="round" stroke-miterlimit="10" stroke-width=".8" d="M300.113 254.84V2"/></g><g fill="#262626"><use xlink:href="#h" x="281.037" y="269.434"/><use xlink:href="#b" x="287.397" y="269.434"/><use xlink:href="#b" x="293.757" y="269.434"/><use xlink:href="#b" x="300.117" y="269.434"/><use xlink:href="#b" x="306.477" y="269.434"/><use xlink:href="#b" x="312.837" y="269.434"/></g><g clip-path="url(#i)"><path fill="none" stroke="#FFF" stroke-linecap="round" stroke-linejoin="round" stroke-miterlimit="10" stroke-width=".8" d="M385.02 254.84V2"/></g><g fill="#262626"><use xlink:href="#j" x="365.942" y="269.434"/><use xlink:href="#b" x="372.302" y="269.434"/><use xlink:href="#b" x="378.662" y="269.434"/><use xlink:href="#b" x="385.022" y="269.434"/><use xlink:href="#b" x="391.382" y="269.434"/><use xlink:href="#b" x="397.742" y="269.434"/></g><g clip-path="url(#k)"><path fill="none" stroke="#FFF" stroke-linecap="round" stroke-linejoin="round" stroke-miterlimit="10" stroke-width=".8" d="M469.926 254.84V2"/></g><g fill="#262626"><use xlink:href="#l" x="450.847" y="269.434"/><use xlink:href="#b" x="457.207" y="269.434"/><use xlink:href="#b" x="463.567" y="269.434"/><use xlink:href="#b" x="469.927" y="269.434"/><use xlink:href="#b" x="476.287" y="269.434"/><use xlink:href="#b" x="482.647" y="269.434"/></g><g clip-path="url(#m)"><path fill="none" stroke="#FFF" stroke-linecap="round" stroke-linejoin="round" stroke-miterlimit="10" stroke-width=".8" d="M554.828 254.84V2"/></g><g fill="#262626"><use xlink:href="#n" x="535.752" y="269.434"/><use xlink:href="#b" x="542.112" y="269.434"/><use xlink:href="#b" x="548.472" y="269.434"/><use xlink:href="#b" x="554.832" y="269.434"/><use xlink:href="#b" x="561.192" y="269.434"/><use xlink:href="#b" x="567.552" y="269.434"/></g><use xlink:href="#o" x="255.061" y="283.106" fill="#262626"/><g fill="#262626"><use xlink:href="#p" x="259.702" y="283.106"/><use xlink:href="#q" x="263.812" y="283.106"/><use xlink:href="#r" x="269.942" y="283.106"/><use xlink:href="#s" x="272.722" y="283.106"/><use xlink:href="#r" x="279.062" y="283.106"/><use xlink:href="#s" x="281.842" y="283.106"/><use xlink:href="#t" x="288.182" y="283.106"/><use xlink:href="#u" x="294.532" y="283.106"/><use xlink:href="#r" x="297.712" y="283.106"/><use xlink:href="#v" x="300.492" y="283.106"/><use xlink:href="#w" x="304.412" y="283.106"/><use xlink:href="#p" x="310.562" y="283.106"/><use xlink:href="#q" x="314.672" y="283.106"/><use xlink:href="#v" x="320.802" y="283.106"/><use xlink:href="#r" x="324.722" y="283.106"/><use xlink:href="#x" x="327.502" y="283.106"/><use xlink:href="#s" x="333.622" y="283.106"/><use xlink:href="#y" x="339.962" y="283.106"/></g><g clip-path="url(#z)"><path fill="none" stroke="#FFF" stroke-linecap="round" stroke-linejoin="round" stroke-miterlimit="10" stroke-width=".8" d="M45.398 254.84h509.434"/></g><g fill="#262626"><use xlink:href="#A" x="16.134" y="258.637"/><use xlink:href="#l" x="22.494" y="258.637"/><use xlink:href="#B" x="28.854" y="258.637"/><use xlink:href="#b" x="32.034" y="258.637"/></g><g clip-path="url(#C)"><path fill="none" stroke="#FFF" stroke-linecap="round" stroke-linejoin="round" stroke-miterlimit="10" stroke-width=".8" d="M45.398 224.004h509.434"/></g><g fill="#262626"><use xlink:href="#A" x="16.134" y="227.803"/><use xlink:href="#A" x="22.494" y="227.803"/><use xlink:href="#B" x="28.854" y="227.803"/><use xlink:href="#l" x="32.034" y="227.803"/></g><g clip-path="url(#D)"><path fill="none" stroke="#FFF" stroke-linecap="round" stroke-linejoin="round" stroke-miterlimit="10" stroke-width=".8" d="M45.398 193.172h509.434"/></g><g fill="#262626"><use xlink:href="#E" x="16.134" y="196.969"/><use xlink:href="#b" x="22.494" y="196.969"/><use xlink:href="#B" x="28.854" y="196.969"/><use xlink:href="#b" x="32.034" y="196.969"/></g><g clip-path="url(#F)"><path fill="none" stroke="#FFF" stroke-linecap="round" stroke-linejoin="round" stroke-miterlimit="10" stroke-width=".8" d="M45.398 162.336h509.434"/></g><g fill="#262626"><use xlink:href="#E" x="16.134" y="166.134"/><use xlink:href="#f" x="22.494" y="166.134"/><use xlink:href="#B" x="28.854" y="166.134"/><use xlink:href="#l" x="32.034" y="166.134"/></g><g clip-path="url(#G)"><path fill="none" stroke="#FFF" stroke-linecap="round" stroke-linejoin="round" stroke-miterlimit="10" stroke-width=".8" d="M45.398 131.504h509.434"/></g><g fill="#262626"><use xlink:href="#E" x="16.134" y="135.3"/><use xlink:href="#l" x="22.494" y="135.3"/><use xlink:href="#B" x="28.854" y="135.3"/><use xlink:href="#b" x="32.034" y="135.3"/></g><g clip-path="url(#H)"><path fill="none" stroke="#FFF" stroke-linecap="round" stroke-linejoin="round" stroke-miterlimit="10" stroke-width=".8" d="M45.398 100.668h509.434"/></g><g fill="#262626"><use xlink:href="#E" x="16.134" y="104.466"/><use xlink:href="#A" x="22.494" y="104.466"/><use xlink:href="#B" x="28.854" y="104.466"/><use xlink:href="#l" x="32.034" y="104.466"/></g><g clip-path="url(#I)"><path fill="none" stroke="#FFF" stroke-linecap="round" stroke-linejoin="round" stroke-miterlimit="10" stroke-width=".8" d="M45.398 69.836h509.434"/></g><g fill="#262626"><use xlink:href="#J" x="16.134" y="73.632"/><use xlink:href="#b" x="22.494" y="73.632"/><use xlink:href="#B" x="28.854" y="73.632"/><use xlink:href="#b" x="32.034" y="73.632"/></g><g clip-path="url(#K)"><path fill="none" stroke="#FFF" stroke-linecap="round" stroke-linejoin="round" stroke-miterlimit="10" stroke-width=".8" d="M45.398 39h509.434"/></g><g fill="#262626"><use xlink:href="#J" x="16.134" y="42.798"/><use xlink:href="#f" x="22.494" y="42.798"/><use xlink:href="#B" x="28.854" y="42.798"/><use xlink:href="#l" x="32.034" y="42.798"/></g><g clip-path="url(#L)"><path fill="none" stroke="#FFF" stroke-linecap="round" stroke-linejoin="round" stroke-miterlimit="10" stroke-width=".8" d="M45.398 8.168h509.434"/></g><g fill="#262626"><use xlink:href="#J" x="16.134" y="11.964"/><use xlink:href="#l" x="22.494" y="11.964"/><use xlink:href="#B" x="28.854" y="11.964"/><use xlink:href="#b" x="32.034" y="11.964"/></g><use xlink:href="#M" x="10.056" y="151.279" fill="#262626"/><g fill="#262626"><use xlink:href="#N" x="10.056" y="144.611"/><use xlink:href="#N" x="10.056" y="139.111"/><use xlink:href="#O" x="10.056" y="133.611"/><use xlink:href="#P" x="10.056" y="127.271"/><use xlink:href="#Q" x="10.056" y="123.161"/><use xlink:href="#N" x="10.056" y="117.031"/><use xlink:href="#R" x="10.056" y="111.531"/></g><g clip-path="url(#S)"><path fill="gray" fill-opacity=".2" d="M46.25 505.914v32.313l.848-113.012 1.699-112.485 1.7-32.242 1.694-29.441 1.7-20.82 1.699-22.754 1.695-.02 1.7-14.89 1.699-.024 1.699-6.871 1.695-6.953 1.7-.172 1.699-8.672 1.695 7.246 1.7-4.23 1.698 3.39 1.7-4.117 1.695-3.039 1.7.137 1.698-3.446 1.696 5.946 1.699-10.004 1.699 1.7 1.7-1.087 1.695 1.274 1.699-3.477 1.699 3.988 1.695 3.082 1.7-2.398 1.699-.371 1.699-6.633 1.695 5.254 1.7-.5 1.699-4.008 1.695 5.2 1.7-2.223 1.698-4.43 1.7 3.906 1.695-4.054 1.7-.375 1.698 6.843 1.696-7.914 1.699 4.914 1.7-6.355 1.698 1.445 1.696 1.79 1.699 2.488 1.7-1.711 1.694.304 1.7-3.508 1.699-1.164 1.7.286 1.694-.301 1.7-1.067 1.699 5.77 1.695-2.711 1.7-3.649 1.699-.785 1.695 1.067 1.7-1.61 1.698 4.297 1.7-5.535 1.695 1.43 1.7 1.957 1.698 2.215 1.696-4.953 1.699.59 1.7-.536 1.698-1.238 1.696 3.625 1.699.184 1.7-4.91 1.694 2.726 1.7-2.188 1.699 2.926 1.699-1.453 1.695 1.672 1.7-3.766 1.699 1.47 1.695-.446 1.7 3.449 1.699-2.562 1.699-.5 1.695 1.539 1.7-3.305 1.698.91 1.696 1.621 1.699 2.211 1.7-2.906 1.698-1.703 1.696.441 1.699 1.145 1.7-.356 1.695-.039 1.699.035 1.699-2.625 1.7 3.184 1.695 1.457 1.699-3.742 1.699-1.938 1.695 1.508 1.7.57 1.699-1.875 1.699.547 1.695 2.406 1.7.66 1.699-3.945 1.695 3.2 1.7-1.946 1.698 3.082 1.7-.73 1.695-2.414 1.7.972 1.698-.664 1.696-.738 1.699 5.027 1.7-2 1.698-3.195 1.696 3.387 1.699-1.399 1.7-.25 1.694 1.618h1.7l1.699-3.438 1.7 3.309 1.694-2.696 1.7-.527 1.699-1.36 1.695 3.79 1.7-.047 1.699-2.125 1.699 2.285 1.695-.102 1.7.88 1.699-3.321 1.695 2.68 1.7.382 1.698-2.168 1.7-.808 1.695.273 1.699 1.516 1.7.945 1.695-3.25 1.699 3.227 1.699-.664 1.7.144 1.695-1.988 1.699 1.992 1.699-1.8 1.695 3.593 1.7-2.883 1.699-1.578 1.699 7.004 1.695-4.266 1.7-1.964 1.699 3.015 1.695-5.414 1.7.453 1.698 3.516 1.7 1.34 1.695-2.442 1.7-3.55 1.698 2.03 1.696.173 1.699.508 1.7.906 1.698-.399 1.696 1.993 1.699-5.477 1.7.324 1.694 3.52 1.7-1.555 1.699 1.965 1.7-.777 1.694.492 1.7-.235 1.699-.289 1.695-.113 1.7-3.207 1.699 2.746 1.699.867 1.695 1.973 1.7-3.207 1.699-1.52 1.695 2.922 1.7-3.136 1.698 2.054v1.024l1.7-.13 1.695-2.323 1.7 2.226 1.698-.027 1.696-1.38 1.699.927 1.699-1.012 1.7 2.043 1.695-2.254 1.699-.547 1.699 1.012 1.695 1.469 1.7.128 1.699.508 1.699-2.777 1.695-.191 1.7 1.972 1.699.192 1.695-3.973 1.7.832 1.698 2.477 1.7.53 1.695-2.554 1.7 2.809 1.698-3.422 1.696 4.289 1.699-.547 1.7-1.324 1.698-.602 1.696-.648 1.699 1.68 1.7-1.81 1.694 1.227 1.7-.332 1.699-.238 1.7 1.465 1.694-1.29 1.7.15 1.699-.454 1.695 1.68 1.7-.89 1.699 1.234 1.699-1.11 1.695-1.14 1.7 1.703 1.699-1.711 1.695-1.371 1.7.742 1.698 1.164 1.7-1.031 1.695 1.758 1.7-.09 1.698.691 1.696-1.105 1.699.882 1.7.45 1.694-.856 1.7-1.05 1.699 2.046 1.699.434 1.695-1.336 1.7-1.219 1.699 1.39 1.695-1.5 1.7 1.005h1.699l1.699.191 1.695-.773 1.7.773 1.699-2.078 1.695 1.43 1.699-.25 1.7-.453 1.698.562 1.696 2.418 1.699-2.36 1.7.723 1.695-.914 1.699-.894 1.699 1.11 1.7.093 1.695.101 1.699-.511 1.699-.38 1.695.93 1.7-.636 1.699.238 1.699 1.387 1.695-1.625 1.7-.078 1.699-.344 1.695.07 1.7-.304 1.698 1.71 1.7-.125 1.695.356 1.7-.574 1.698.597 1.696-.535 1.699-.21 1.7 2.05 1.698-2.723 1.696 1.176 1.699-.629 1.7-.398 1.694 1.48 1.7-.343 1.699-.98 1.7.753 1.694-.18 1.7-.523 1.699.457V131.69l-1.7.13-1.699-.114-1.695.645-1.7-.235-1.698.254-1.7.149-1.695-.575-1.7.914-1.698-1.203-1.696 1.016-1.699-1-1.7.488-1.698-.867-1.696 1.273-1.699.184-1.7-.652-1.694-.465-1.7.285-1.699.23-1.699-.636-1.695.398-1.7.153-1.699-.079-1.695.68-1.7-.754-1.699.074-1.699.102-1.695-.055-1.7.36-1.699-.102-1.695.266-1.699.257-1.7-.367-1.698.176-1.696-1.984-1.699 3.351-1.7-2.687-1.695.277-1.699.567-1.699 1.355-1.7-2.387-1.695.114-1.699.796-1.699-.867-1.695-.117-1.7.027-1.699 1.891-1.699-1.215-1.695.469-1.7-.91-1.699 2.398-1.695-.512-1.7-1.292-1.698-.09-1.7 1.168-1.695-.446-1.7-.289-1.698.883-1.696-.445-1.699-1.121-1.7.16-1.694 1.426-1.7-.457-1.699-.23-1.7-1.395-1.694 1.421-1.7-.48-1.699-.352-1.695.094-1.7.7-1.699-2.547-1.699 6.183-1.695-2.433-1.7-.704-1.699 1.47-1.695-2.114-1.7 1.797-1.698-1.309-1.7 1.063-1.695-4.282-1.7 1.895-1.698 1.02-1.696-1.555-1.699.96-1.699 1.555-1.7-4.492-1.695 3.301-1.699 1.266-1.699-1.059-1.695-.992-1.7.781-1.699.176-1.699-.238-1.695-.93-1.7-.965-1.699 2.387-1.695-.602-1.7.02-1.698 3.547-1.7-4.067-1.695 2.54-1.7-3.84-1.698 5.374-1.696-3.488-1.699 1.715-1.7-1.75-1.698.844-1.696.265-1.699-2.164-1.7 2.063-1.694.304-1.7-.542v1.847l-1.699-2.14-1.7 2.375-1.694-3.082-1.7 2.835-1.699-3.125-1.695 1.73-1.7.868-1.699-2.105-1.699 1.558-1.695-.765-1.7 3.82-1.699-3.852-1.695 2.051-1.7-2.172-1.698.895-1.7-.485-1.695.891-1.7 1.965-1.698-1.363-1.696-2.696-1.699 1-1.7 3.864-1.698-1.051-1.696-1.145-1.699-.765-1.699-.672-1.695 2.082-1.7-1.461-1.699 1.957-1.699-2.426-1.695 1.574-1.7-1.59-1.699 3.051-1.695-.48-1.7-4.016-1.699-.097-1.699 3.777-1.695-1.34-1.7 3.543-1.698-3.68-1.696 1.051-1.699-.43-1.7-.906-1.698 1.66-1.696.782-1.699-.454-1.7-2.675-1.695-.223-1.699-1.3-1.699 6.546-1.7-2.246-1.694 1.527-1.7-2.582-1.699 3.922-1.695-5.199-1.7.805-1.699 2.644-1.699-1.031-1.695-1.559-1.7 1.684-1.699 2.926-1.695-4.75-1.7.758-1.698 1.414-1.7-.739-1.695-.523-1.7 2.137-1.698-3.786-1.696 4.786-1.699-3.032-1.7-1.18-1.698-.558-1.696 5.016-1.699 1.472-1.7-3.632-1.694 1.367-1.7.668-1.699 2.754-1.699-.711-1.695-3.457-1.7 1.886-1.699.004-1.695-2.523-1.7 3.586-1.699-.64-1.699-3.294-1.695 1.422-1.7 2.668-1.698 5.879-1.696-2.16-1.699-7.75-1.7 4.199-1.698-1.941-1.696.046-1.699.711-1.7-2.804-1.695 1.511-1.699 5.121-1.699-1.835-1.7-2.149-1.695.965-1.699.664-1.699.64-1.695-.847-1.7 1.477-1.699-1.329-1.699.32-1.695 1.778-1.7-1.82-1.699-2.203-1.695 1.097-1.7 3.067-1.698-1.516-1.7-.047-1.695 4.29-1.7.019-1.698-1.867-1.696.418-1.699 1.23-1.7-2.676-1.698-.234-1.696-.676-1.699 3.613-1.7-.101-1.694-1.281-1.7-3.149-1.699 4.375-1.7 1.356-1.694 3.695-1.7-2.922-1.699 2.438-1.695-4.602-1.7 3.379-1.699-1.145-1.695 3.727-1.7-8.184-1.698 5.332-1.7 1.59-1.695-3.152-1.7-1.625-1.698-1.129-1.696 3.352-1.699.867-1.699-.844-1.7-1.664-1.695 3.598-1.699-4.094-1.699-2.266-1.695 4.824-1.7-.453-1.699-2.781-1.699 4.273-1.695 4.208-1.7-1.125-1.699.074-1.695.074-1.7-2.852-1.698 3.743-1.7-.508-1.695.945-1.7-1.937-1.698 1.707-1.696 1.77-1.699-.595-1.7-1.757-1.698 5.62-1.696-3.343-1.699-1.555-1.7 3.344-1.694 6.906-1.7-2.14-1.699.18-1.7.292-1.694 2.313-1.7 4.402-1.699-3.789-1.695 7.11-1.7 3.57-1.699 11.734-1.699-1.898-1.695 7.214-1.7 15.481-1.699 22.348-1.695 19.726-1.7 35.43-1.698 80.336Zm0 0"/></g><g clip-path="url(#T)"><path fill="red" fill-opacity=".2" d="M46.25 635.781v80.176l.848-169.555 1.699-103.511 1.7-80.774 1.694 18.258 1.7-52.672 1.699-26.867 1.695.664 1.7-27.465 1.699-11.95 1.699-11.667 1.695-8.434 1.7 27.86 1.699-32.133 1.695-18.527 1.7-2.684 1.698 11.363 1.7-10.05 1.695-19.547 1.7 23.476 1.698-24.469 1.696-7.687 1.699 11.957 1.699 2.25 1.7-17.121 1.695-5.106 1.699-.59 1.699.626 1.695 2.855 1.7 12.082 1.699-18.066 1.699 10.187 1.695-2.265 1.7-13.786 1.699 5.067 1.695 2.855 1.7-11.86 1.698 24.65 1.7-12.977 1.695 4.242 1.7-20.031 1.698 10.804 1.696-16.613 1.699 7.008 1.7-1.594 1.698-.652 1.696 45.191 1.699-44.922 1.7-3.867 1.694 22.406 1.7-6.21 1.699 66.023 1.7-77.535L135.397 190l1.7-33.117 1.699-1.051 1.695 19.324 1.7-19.297 1.699-4.601 1.695 10.054 1.7 5.95 1.698-14.555 1.7 18.816 1.695-17.464 1.7 71.437 1.698-73.348 1.696 5.274 1.699-4.14 1.7.8 1.698.824 1.696 1.309 1.699 3.492 1.7-4.66 1.694-9.918 1.7 39.629 1.699-24.406 1.699 5.257 1.695-19.117 1.7 30.578 1.699-14.535 1.695-16.758 1.7 14.942 1.699-10.188 1.699-5.125 1.695 2.442 1.7-2.22 1.698 233.806 1.696-224.848 1.699-1.184 1.7-6.91 1.698 16.38 1.696-15.95 1.699-3.184 1.7 20.508 1.695-18.07 1.699 10.207 1.699-13.125 1.7-.192 1.695 11.625 1.699 18.512 1.699-28.558 1.695 2.457 1.7 9.343 1.699-15.183 1.699 14.789 1.695 13.652 1.7 16.016 1.699-42.211 1.695-3.281 1.7 7.585 1.698 12.204 1.7 10.39 1.695-2.715 1.7-19.195 1.698-1.95 1.696-10.921 1.699 1.098 1.7 5.207 1.698 4.879 1.696 6.879 1.699-12.481 1.7-2 1.694 2.078 1.7 1.074 1.699-4.382 1.7 9.812 1.694-7.594 1.7 3.668 1.699-9.37 1.695 6.448 1.7-6.117 1.699 2.88 1.699 40.1 1.695-33.23 1.7-6.594 1.699.485 1.695-5.309 1.7 17.52 1.698-12.578 1.7 3.082 1.695-2.895 1.699-2.379 1.7-2.05 1.695 3.55 1.699 2.473 1.699-4.836 1.7-.375 1.695.582 1.699 12.645 1.699-7.098 1.695-3.856 1.7 1.266 1.699-5.637 1.699 15.762 1.695-5.14 1.7-3.598 1.699-7.203 1.695.375 1.7 6.48 1.698-3.84 1.7-1.129 1.695 1.813 1.7 4.187 1.698-5.754 1.696 1.598 1.699-2.539 1.7.824 1.698 5.395 1.696-5.996 1.699 9.632 1.7-5.394 1.694-5.91 1.7 1.09 1.699 2.859 1.7-4.426 1.694 6.965 1.7-5.07 1.699 2.015 1.695-1.93 1.7-.64 1.699 4.203 1.699-3.722 1.695 5.68 1.7-3.86 1.699-4.867 1.695 3.34 1.7-2.063 1.698 2.727v-2.938l1.7 3.04 1.695-6.083 1.7 6.297 1.698-1.352 1.696-1.8 1.699 1.504 1.699-1.59 1.7 5.246 1.695-1.594 1.699-1.734 1.699-.743 1.695 3.504 1.7-3.468 1.699 2.257 1.699-.949 1.695-1.308 1.7-.828 1.699-.5 1.695 1.867 1.7-.762 1.698-1.035 1.7 3.676 1.695.187 1.7-.851 1.698-5.582 1.696 4.082 1.699-1.32 1.7-.145 1.698.793 1.696 3.172 1.699-1.22 1.7.583 1.694-5.125 1.7 6.46 1.699-2.34 1.7 11.79 1.694-13.602 1.7-.804 1.699.949 1.695 1.016 1.7-1.844 1.699.238 1.699 1.324 1.695.844 1.7-2.05 1.699.718 1.695-2.168 1.7 1.719 1.698-.242 1.7-.438 1.695 1.778 1.7-2.84 1.698-.946 1.696 1.735 1.699-.59 1.7-.742 1.694 4.011 1.7-2.144 1.699 1.52 1.699-4.13 1.695 3.036 1.7 2.98 1.699-4.945 1.695.68 1.7.777 1.699-.992 1.699 1.609 1.695-1.219 1.7-1.441 1.699 2.21 1.695-.87 1.699-1.75 1.7 2.187 1.698-1.96 1.696.632 1.699-3.14 1.7 4.69 1.695-2.413 1.699-.719 1.699-.297 1.7 1.492 1.695.645 1.699.86 1.699-.29 1.695-.988 1.7-.383 1.699.617 1.699.672 1.695-2.574 1.7 1.309 1.699.02 1.695-.653 1.7 1.562 1.698-.707 1.7-.031 1.695-.387 1.7-.383 1.698.348 1.696-.355 1.699-.22 1.7-.417 1.698 1.398 1.696-1.054 1.699.125 1.7.332 1.694-.727 1.7 1.176 1.699-.434 1.7.625 1.694-.918 1.7-.328v-7.047l-1.7-.164-1.695-.011-1.7.214-1.698-.843-1.7-.059-1.695.754-1.7-.488-1.698.78-1.696-.394-1.699.243-1.7-.664-1.698.687-1.696-.191-1.699.593-1.7-1.449-1.694-.469-1.7.871-1.699.446-1.699 1.234-1.695-1.23-1.7-.309-1.699.73-1.695 1.704-1.7-1.133-1.699-1.77-1.699.192-1.695.656-1.7-.289-1.699.777-1.695-1.988-1.699 3.55-1.7-.87-1.698-.887-1.696.957-1.699-.488-1.7-1.004-1.695 2.031-1.699-.316-1.699-2.086-1.7.8-1.695.77-1.699 1.39-1.699.45-1.695-.152-1.7-1.348-1.699.156-1.699.285-1.695-1.047-1.7.48-1.699-.14-1.695 1.39-1.7 1.954-1.698-2.262-1.7 1.473-1.695-2.648-1.7 3.367-1.698-1.657-1.696-.976-1.699-.703-1.7 2.668-1.694-1.426-1.7-.356-1.699 1.649-1.7-2.8-1.694 3.339-1.7-2.078-1.699 1.566-1.695-.14-1.7.914-1.699 1.3-1.699-.773-1.695.031-1.7-2.011-1.699-.641-1.695.047-1.7.195-1.698.867-1.7.543-1.695-1.015-1.7-.157-1.698 1.825-1.696-.614-1.699.301-1.699-.144-1.7-.664-1.695 2.195-1.699-3.777-1.699 2.277-1.695-1.79-1.7 2.36-1.699-4.816-1.699 4.254-1.695 1.21-1.7 2.458-1.699-3.621-1.695-2.872-1.7 2.915-1.698 3.164-1.7-2.32-1.695-1.016-1.7-.168-1.698 1.062-1.696 3.258-1.699.309-1.7-4.957-1.698.105-1.696 2.8-1.699-2.663-1.7 1.691-1.694 3.125-1.7-5.265v.355l-1.699 4.613-1.7-2.14-1.694-3.735-1.7.645-1.699.906-1.695 1.652-1.7.141-1.699-.973-1.699 2.317-1.695-1.766-1.7 5.8-1.699-4.003-1.695-2.57-1.7 4.453-1.698-1.996-1.7-2.031-1.695.667-1.7-.546-1.698 1.25-1.696-.735-1.699 1.035-1.7.414-1.698 2.149-1.696 1.187-1.699-4.355-1.699.652-1.695 3.043-1.7 2.324-1.699-5.73-1.699 2.289-1.695-1.273-1.7-.13-1.699-3.023-1.695 1.438-1.7 1.453-1.699.945-1.699 3.73-1.695-2.62-1.7-4.137-1.698.887-1.696.746-1.699.445-1.7.18-1.698-.239-1.696-.89-1.699 5.347-1.7-2.953-1.695.063-1.699 2.754-1.699-4.274-1.7 2.555-1.694 1.93-1.7-2.313-1.699-1.492-1.695-2.813-1.7 4.91-1.699-.738-1.699 2.598-1.695-1.852-1.7.082-1.699-2.91-1.695-.437-1.7 2.656-1.698 4.25-1.7 1.402-1.695-5.238-1.7-.437-1.698 5.937-1.696-7.59-1.699 8.574-1.7-4.656-1.698.602-1.696 4.949-1.699-4.828-1.7 3.172-1.694 1.722-1.7 1.02-1.699-.379-1.699-2.363-1.695.336-1.7-10.801-1.699 4.176-1.695 11.02-1.7-6.18-1.699-2.024-1.699 7.7-1.695-1.243-1.7-11.789-1.698 4.04-1.696 5.296-1.699-1.754-1.7 4.555-1.698-2.703-1.696-2.368-1.699 3.407-1.7.187-1.695 3.621-1.699-3.93-1.699 1.723-1.7-1.925-1.695-24.055-1.699 27.918-1.699-.328-1.695-3.48-1.7 1.78-1.699.586-1.699-1.093-1.695 5.933-1.7-5.488-1.699 1.14-1.695 4.317-1.7.574-1.698-1.222-1.7-1.48-1.695.855-1.7-2.36-1.698 4.395-1.696-.5-1.699.496-1.7 3.101-1.698-.933-1.696-1.14-1.699-14.063-1.7 16.101-1.694-1.84-1.7 4.258-1.699-1.394-1.7 1.093-1.694-4.91-1.7.664-1.699 4.219-1.695 3.535-1.7-5.82-1.699 5.035-1.695-5.84-1.7-9.863-1.698 25.242-1.7-15.668-1.695 9.988-1.7-4.191-1.698 7.125-1.696-6.117-1.699-.324-1.699 5.23-1.7-3.684-1.695-.41-1.699-2.683-1.699 13.273-1.695-9.246-1.7 4.047-1.699 1.539-1.699 9.11-1.695-7.919-1.7-.441-1.699 3.074-1.695-2.351-1.7 2.293-1.698-6.305-1.7 11.508-1.695 5.648-1.7-3.734-1.698 3.191-1.696-3.047-1.699.23-1.7 3.81-1.698-6.872-1.696 13.282-1.699.773-1.7 4.402-1.694 5.2-1.7-12.106-1.699 4.375-1.7 11.457-1.694 5.234-1.7-7.789-1.699 15.36-1.695-1.856-1.7 14.399-1.699 2.687-1.699 16.442-1.695 17.601-1.7 4.297-1.699 51.75-1.695 28.54-1.7 25.128-1.698 74.176Zm0 0"/></g><g clip-path="url(#U)"><path fill="#00F" fill-opacity=".2" d="M46.25 543.863v14.707l.848-77.222 1.699-102.586 1.7-37.782 1.694-48.546 1.7 14.09 1.699-48.563 1.695 50.812 1.7-55.597 1.699-9.727 1.699-1.867 1.695.914 1.7-7.687 1.699 43.546 1.695-37.472 1.7-21.207 1.698 16.105 1.7-28.043 1.695 9.985 1.7 131.699 1.698-121.047 1.696-23.316 1.699 83.082 1.699-79.102 1.7-14.668 1.695 36.492 1.699-50.316 1.699 26.02 1.695 10.359 1.7-21.856 1.699 87.184 1.699-92 1.695-8.91 1.7 5.683 1.699 8.891 1.695-13.934 1.7-2.5 1.698 7.543 1.7-2.804 1.695 13.64 1.7-26.554 1.698-2.633 1.696 16 1.699 5.644 1.7-2.785 1.698 1.735 1.696 15.968 1.699 22.172 1.7-17.539 1.694-25.402 1.7-9.578 1.699-3.23 1.7-2.52 1.694 29.507 1.7-.168 1.699-10.425 1.695 4.691 1.7-5.695 1.699-19.219 1.695 60.742 1.7-57.347 1.698-8.696 1.7-5.457 1.695 33.934 1.7-15.754 1.698 15.547 1.696 15.293 1.699-18 1.7-1.653 1.698-4.953 1.696-23.324 1.699 65.941 1.7-43.878 1.694 36.972 1.7-34.98 1.699-17.934 1.699 24.133 1.695-15.207 1.7-7.64 1.699 8.144 1.695 12.863 1.7.762 1.699-15.672 1.699 14.902 1.695.27 1.7-24.48 1.698 6.718 1.696 40.899 1.699-56.028 1.7 8.094 1.698 1.043 1.696 9.945 1.699 10.723 1.7-18.39 1.695 2.566 1.699.035 1.699 12.457 1.7-14.875 1.695-12.363 1.699-.164 1.699-9.395 1.695 5.656 1.7 4.367 1.699-12.34 1.699 4.47 1.695-4.844 1.7 15.363 1.699 23.676 1.695-30.754 1.7-8.344 1.698-4.434 1.7 83.899 1.695-77.383 1.7-2.316 1.698 5.73 1.696-7.36 1.699-4.609 1.7-1.457 1.698 10.922 1.696-9.203 1.699 11.973 1.7 4.398 1.694-4.543 1.7-7.203 1.699 6.918 1.7-13.55 1.694 3.753 1.7 5.3 1.699-4.12 1.695.5 1.7 45.937 1.699-48.945 1.699 8.797 1.695-1.172 1.7-5.52 1.699 2.88 1.695-.575 1.7 15.098 1.698 10.137 1.7-28.235 1.695-5.062 1.699 4.535 1.7 10.777 1.695-16.765 1.699 14.168 1.699-10.516 1.7-1.535 1.695 3.449 1.699 33.027 1.699-32.406 1.695 1.094 1.7-6.84 1.699 5.707 1.699-1.316 1.695 46.843 1.7-29.847 1.699-10.72 1.695-6.6 1.7.847 1.698-5.074 1.7 1.8 1.695 35.622 1.7-23.621 1.698-12.832 1.696-4.286 1.699 5.383 1.7-1.457 1.698 18.094 1.696-15.356 1.699-5.242 1.7-.246 1.694 8.625 1.7-5.148 1.699-3.215 1.7 18.148 1.694-12.316 1.7-2.66 1.699.597 1.695-1.753 1.7 1.199 1.699 14.265 1.699-19.636 1.695 5.59 1.7-1.293 1.699.835 1.695-1.78 1.7.738 1.698-3.114v4.324l1.7 3.438 1.695-5.836 1.7-.223 1.698 14.743 1.696-5.907 1.699-4.082 1.699-4.035 1.7-4.879 1.695 9.801 1.699 13.266 1.699-18.403 1.695 1.38 1.7-4.595 1.699.918 1.699 2.141 1.695-2.496 1.7-.656 1.699 2.136 1.695-1.89 1.7 1.332 1.698-1.946 1.7 1.028 1.695.605 1.7-1.199 1.698-1.156 1.696-2.121 1.699 1.925 1.7 1.13 1.698-1.403 1.696 16.5 1.699-13.41 1.7-4.176 1.694-1.476 1.7 1.984 1.699.637 1.7.53 1.694 1.177 1.7-2.75 1.699 4.441 1.695-2.855 1.7-.52 1.699-.726 1.699-1.137 1.695 1.203 1.7 2.371 1.699-2.07 1.695-.774 1.7 1.305 1.698 10.676 1.7-9.715 1.695-1.86 1.7-.222 1.698.844 1.696-2.668 1.699 1.117 1.7 1.012 1.694.125 1.7-3.063 1.699 2.965 1.699-1.285 1.695 2.172 1.7.367 1.699-1.52 1.695.54 1.7-2.653 1.699 1.316 1.699-.859 1.695-.043 1.7-.547 1.699 1.637 1.695.082 1.699-1.918 1.7 1.082 1.698-2.078 1.696 1.52 1.699-.797 1.7-.582 1.695 2.312 1.699.25 1.699-1.164 1.7-1.375 1.695 1.996 1.699-.875 1.699-.824 1.695.965 1.7-.008 1.699-.84 1.699.57 1.695-.363 1.7.758 1.699.207 1.695.27 1.7-1.422 1.698 1.312 1.7-.707 1.695 1.059 1.7-.614 1.698-.582 1.696-.078 1.699-.043 1.7.746 1.698.305 1.696-.703 1.699.125 1.7-.774 1.694.954 1.7-.707 1.699.394 1.7-.309 1.694.676 1.7-.652 1.699.305v-5.524l-1.7-.351-1.699.414-1.695.183-1.7.68-1.698-.43-1.7-.047-1.695.13-1.7.132-1.698-.039-1.696-1.36-1.699 1.29-1.7-.157-1.698-.293-1.696-.238-1.699.485-1.7.867-1.694-.258-1.7-1.527-1.699.652-1.699.637-1.695-.227-1.7-1.023-1.699.922-1.695.375-1.7-.25-1.699-.106-1.699.078-1.695-.023-1.7-.574-1.699.523-1.695-.637-1.699-.226-1.7-.258-1.698-.324-1.696.09-1.699 1.558-1.7.352-1.695-.043-1.699-.516-1.699-.398-1.7-.11-1.695 1.317-1.699-.336-1.699.277-1.695-3.172-1.7 1.774-1.699-.246-1.699.226-1.695-.035-1.7 3-1.699-3.332-1.695 1.183-1.7-1.039-1.698-1.226-1.7 1.46-1.695-1.19-1.7 2.41-1.698.214-1.696-.367-1.699-1.133-1.7-.386-1.694 1.27-1.7 2.042-1.699-1.004-1.7.649-1.694-.282-1.7-3.55-1.699 3.195-1.695-.937-1.7-.067-1.699-.973-1.699-.105-1.695.266-1.7-1.149-1.699 2.43-1.695-.961-1.7 1.187-1.698-2.816-1.7 4.121-1.695-.078-1.7-.145-1.698-2.148-1.696.71-1.699.165-1.699 1.621-1.7-1.523-1.695-2.371-1.699 3.53L402 119.61l-1.695-.546-1.7-3.497-1.699 2.168-1.699.426-1.695 1.809-1.7-1.477-1.699-2.137-1.695 3.094-1.7-.328-1.698.672-1.7.59-1.695-2.488-1.7-2.368-1.698 2.082-1.696-2.039-1.699 2.934-1.7 1.062-1.698-2.027-1.696 1.164-1.699-1.539-1.7 1.34-1.694.992-1.7-1.578v.05l-1.699 2.313-1.7-2.058-1.694-1.29-1.7 5.114-1.699-4.172-1.695-1.727-1.7 1.657-1.699 2.097-1.699.13-1.695.878-1.7-1.047-1.699 1.45-1.695-4.34-1.7 2.445-1.698 2.539-1.7-1.203-1.695-.664-1.7-2.383-1.698 1.418-1.696 1.664-1.699-.734-1.7 3.312-1.698-3.172-1.696-2.558-1.699 6.82-1.699-8.984-1.695 8.156-1.7-.418-1.699 1.504-1.699-3.922-1.695.55-1.7.466-1.699-4.52-1.695 4.578-1.7-.328-1.699-.219-1.699-.093-1.695.847-1.7-4.12-1.698 3.917-1.696-3.453-1.699 6.934-1.7-.57-1.698 2.82-1.696-1.141-1.699-2.047-1.7-1.14-1.695 3.57-1.699 3.586-1.699-4.746-1.7.46-1.694-.488-1.7 2.055-1.699 2.539-1.695-3.805-1.7-.988-1.699-1.172-1.699.797-1.695 6.418-1.7-1.57-1.699-1.856-1.695 2.606-1.7.015-1.698-.976-1.7.937-1.695-4.543-1.7 1.028-1.698 2.765-1.696.004-1.699-1.328-1.7-.059-1.698-1.32-1.696 2.426-1.699 3.18-1.7-.508-1.694-15.715-1.7 10.39-1.699 6.504-1.699 7.028-1.695-12.578-1.7 2.789-1.699 3.36-1.695 1.405-1.7 2-1.699-1.98-1.699 3.133-1.695 3.273-1.7-8.16-1.698 2.465-1.696 1.125-1.699 5.597-1.7-13.937-1.698 2.172-1.696 14.656-1.699-19.379-1.7 5.38-1.695 8.136-1.699-2.906-1.699 4.562-1.7 11.23-1.695-17.812-1.699-.434-1.699 1.34-1.695-1.047-1.7 13.012-1.699-1.531-1.699-11.738-1.695 6.125-1.7-1.23-1.699 10.202-1.695-13.644-1.7 1.765-1.698 23.59-1.7-15-1.695 3.918-1.7-9.262-1.698 7.07-1.696 7.84-1.699-14-1.7 12.817-1.698-16.355-1.696 1.316-1.699 9.465-1.7-.625-1.694.058-1.7 2.106-1.699.762-1.7 16.488-1.694-18.356-1.7-.226-1.699 8.941-1.695-8.879-1.7 17.778-1.699-23.848-1.695 12.078-1.7 2.496-1.698-5.039-1.7 14.84-1.695-21.289-1.7-4.387-1.698 7.703-1.696 8.489-1.699 5.351-1.699.254-1.7-11.621-1.695 3.664-1.699-.82-1.699-2.133-1.695 14.953-1.7-2.473-1.699-4.957-1.699 3.504-1.695 12.211-1.7-2.699-1.699-2.375-1.695-2.582-1.7-9.777-1.698 12.609-1.7-.477-1.695.575-1.7 5.71-1.698 13.243-1.696-16.79-1.699 2.438-1.7-10.281-1.698 19.602-1.696-2.348-1.699-13.496-1.7 23.16-1.694 3.738-1.7-4.86-1.699.49-1.7 15.296-1.694 6.52-1.7-13.356-1.699 12.297-1.695 19.168-1.7-8.367-1.699-5.531-1.699 18.98-1.695 11.59-1.7 10.226-1.699 15.82-1.695 23.563-1.7 43.375-1.698 100.836Zm0 0"/></g><g clip-path="url(#V)"><path fill="none" stroke="gray" stroke-linecap="round" stroke-linejoin="round" stroke-miterlimit="10" stroke-opacity=".6" stroke-width="1.5" d="m51.453 289 .738-14.102 1.7-26.03 1.699-22.805 1.695-11.965 3.399-27.301 5.093-36.024 1.7-3.34 1.695-4.64 1.7-9.441 1.698-5.637 3.395-13.477 1.7-1.59 1.698-4.914 1.696-1.25 3.398-10.777 1.7-2.777 1.695-3.743 1.699.047 1.699.77 1.695-6.793 1.7-5.203 1.699.805 1.699-3.262 1.695-1.395 1.7-.66 1.699-1.766 1.695-.898 1.7-3.758 1.698-.629 1.7.594 1.695-3.324 1.7 1.48 1.698-1.847 1.696.64 1.699.242 1.7-6.503 1.698 2.457 1.696-.082 1.699-2.618 1.7.95 1.694-3.086 1.7-1.942 1.699.547 1.7-1.816 1.694.258 1.7.996 1.699-2.715 1.695 2.344 1.7-3.66 1.699.64 1.695-1.316 1.7-1.653 1.698 2.73 1.7-2.265 1.695 2.04 1.7-3.005 1.698.82 1.696-1.831 1.699-1.122 1.7.032 1.698.996 1.696.851 1.699-4.609 1.7.11 1.694.402 1.7-1.973 1.699-.516 1.699-1.796 1.695 2.535 1.7-.29 1.699-1.187 1.695-.707 1.7.547 1.699-2.184 1.699-3.148 1.695 6.504 1.7-3.516 1.698.305 1.696-.371 1.699-.547 1.7-.688 1.698-1.32 1.696-3.016 1.699 2.665 1.7-2.664 1.695 3.273 1.699.16 1.699-2.89 1.7 3.953 1.695-.614 1.699-2.761 1.699-.946 1.695 5.028 1.7-5.368 1.699 1.157 1.699-2.457 1.695 2.09 1.7-2.473 1.699.402 1.695-.34 1.7-.015 1.698.258 1.7-1.961 1.695.851 1.7-.785 1.698.113 1.696 2.39 1.699-1.507 1.7-2.601 1.698.96 1.696.196 1.699-1.61 1.7 2.668 1.694.707 1.7-2.074 1.699 1.414 1.7-3.87 1.694 4.175 1.7-2.55 3.394-1.993 1.7.434 1.699-.676 1.699 2.008 3.394-1.637 1.7.723 1.695-1.43 1.7 1.719 1.698-.868 1.7-1.992 5.093.883 1.696-.047 1.699 1.508 1.699-.113 1.7-2.04 1.695.356 1.699-1.512 1.699.418 1.695-1.027 1.7-.656 1.699-1.192 1.699 3.809 1.695-2.941 1.7 1.59 1.699-.93L312 21.945l1.7-4.93 1.698 2.938 1.7-.273 1.695-.625 1.7 1.058 1.698-.64 1.696-1.075 3.398-1.175 1.7.5 1.695 1.894 1.699-3.55 1.7 3.324 1.694-2.778 1.7 1.93 1.699-1.832 1.7.336 1.694-.305 1.7 1.059 1.699-1.59 1.695-.64 1.7 1.093 3.398-.258 1.695-.933 1.7-1.075 1.699 1.254 1.695 1.926 1.7-2.09 1.698.067v-.305l1.7.547 1.695 1.219 1.7-1.766 1.698-1.27 1.696-.32 1.699.383 3.398 1.816 1.696-3.261 1.699 1.27 1.699-.45 1.695-1.11 1.7 1.192 1.699.977 1.699-.079 1.695-.98 1.7-.047 1.699 1.106 1.695-1.75 1.7 1.496 1.698-2.891L402 13.484l1.7-.675 3.394-2.024 1.699 1.38 1.7.163 1.698-.02 1.696 2.22 1.699-1.688 1.7.242 1.694-2.055 1.7 2.246 1.699-2.328 1.7-.226 1.694 1.14 1.7.16 1.699-1.652 1.695-.113 1.7 1.879 1.699-1.172 1.699 1.187 1.695-1.234 1.7-.21 1.699-1.22 1.695.723 1.7 1.43 1.698.836 1.7-3.407 1.695 1.414 1.7.852 1.698-.324 1.696-2.297 1.699 1.062 1.7.45 1.694 1.687 1.7-1.527 1.699-.29 1.699-.882 1.695 1.059 1.7-.32 1.699.546 1.695-1.027 1.7 2.344 1.699-3.356 1.699 2.793 1.695-1.059 1.7-3.39 1.699 3.613 1.695.402 1.699-1.27 1.7.966 1.698-.32 1.696-1.012L492 10.383l1.7-2.442 1.695 1.239 1.699-1.239 1.699.868 1.7.402 1.695 2.184 1.699-3.696 1.699 2.09 1.695-.516 1.7 1.559 1.699-3.742 1.699 2.25 1.695-.274 1.7-1.187 1.699 1.973 3.394-1.989 1.7.16 1.699.786 1.695-1.524 1.7-.598 1.698 2.22 1.696-1.575 1.699 2.04 1.7-1.833 1.698.758 1.696-.902 1.699.546 1.7 1.172 1.694-1.14 1.7.882 1.699-.753 1.7-1.043 1.694.77 1.7-.657 1.699 2.23"/></g><g clip-path="url(#W)"><path fill="none" stroke="red" stroke-linecap="round" stroke-linejoin="round" stroke-miterlimit="10" stroke-opacity=".6" stroke-width="1.5" d="m60.133 289 .55-9.75 1.7.434 1.695-23.641 1.7 7.246 1.699-17.137 1.695-14.648 1.7-12.445 1.698 13.859 1.7-9.313 1.695-15.69 1.7 8.284 1.698-15.883 1.696-12.523 1.699 10.887 1.699-14.614 1.7-5.445 1.695-1.957 1.699-7.969 1.699 10.184 1.695-8.063 1.7-1.78 1.699-5.044 1.699 1.75 1.695-1.527 1.7-18.95 1.699 10.102 1.695 8.848 1.7-25.5 1.698 20.265 1.7-16.718 1.695 19.242 1.7-36.586 1.698 10.535 1.696-13.52 1.699 2.856 1.7-1.492 1.698 1.797 1.696 55.457 1.699-48.485 1.7-19.191 1.694 18.758 1.7 12.734 1.699 13.7 1.7-40.489 1.694 30.836 1.7-38.816 1.699-7.516 1.695 28.106 1.7-27.461 1.699-1.352 1.695 6.41 1.7 4.785 1.698-12.976 1.7 22.418 1.695-20.461 1.7 42.945 1.698-48.309 1.696 4.692 1.699-7.309 1.7 5.766 1.698-4.61 1.696-2.007 1.699 12.336 1.7-1.688 1.694-14.453 1.7 41.465 1.699-21.262 1.699-4.402 1.695-23.254 1.7 26.867 1.699-1.43 1.695-27.425 1.7 23.074 1.699-17.086 1.699-7.484 1.695 5.43 1.7-1.688 1.698 154.492 1.696-145.61 1.699 2.278 1.7-13.39 1.698-.532 1.696 1.766 1.699-1.54 1.7 22.739 1.695-23.8 1.699 21.585 1.699-29.262 1.7.16 1.695 21.008 1.699 17.375 1.699-26.386 1.695.578 1.7-9.059 1.699 1.8 1.699 20.7 1.695-1.844 1.7 17.438 1.699-40.856 1.695-1.218 1.7.402 1.698 21.887 1.7 15.465 1.695-15.125 1.7-30.66 1.698 2.828 1.696.046 1.699-4.14 1.7 9.922 1.698 1.93 1.696 18.484 1.699-28.989 1.7-4.078 1.694 10.227 1.7-8.719 1.699 3.535 1.7 4.11 1.694-1.172 1.7 4.191 1.699-12.77 1.695 2.348 1.7-.066 1.699-5.973 1.699 38.028 1.695-32.536 1.7.965 1.699-3.23 1.695-6.664 1.7 20.523 1.698-14.644 1.7.289 1.695-5.735 1.699 10.89 1.7-11.019 1.695 2.618 1.699 3.742 1.699-7.16 1.7 1.172 1.695-.356 1.699 8.078 1.699-4.8 1.695-.883 1.7 4.238 1.699-10.598 1.699 17.024 1.695-5.477 3.399-8.078L312 43.785l1.7 1.48 1.698 12.59 1.7-12.14 1.695 4.207 1.7.016 1.698-3.372 1.696-.593 1.699-4.067 1.7 1.383 1.698.883 1.696 3.164 1.699 10.68 1.7-4.563 1.694-8.781 1.7 1.879 1.699 2.101 1.7-6.808 1.694 4.707 1.7 2.906 1.699-2.348 1.695-6.68 1.7-.769 1.699 5.203 1.699-3.066 1.695 11.914 1.7-8.207 1.699-.832 1.695-.707 1.7-4.067 1.698 4.098v-1.543l1.7-1.14 1.695 2.074 1.7-1.817 1.698 1.239 1.696-4.836h1.699l1.699 4.93 1.7-3.098 1.695 3.293 1.699-8.16 1.699-.047 1.695 1.414 1.7 4.703 1.699-2.68 1.699-1.625 1.695 2.442 1.7-1.606 1.699-1.14 1.695 5.253 1.7-7.695 1.698.645 1.7 1.62L402 40.606l1.7-5.363 1.698-.77 1.696-.609 1.699-3.582 1.7.145 1.698 4.238 1.696.676 1.699-2.41 1.7 2.25 1.694-1.317 1.7 2.086 1.699-4.511 1.7 9.218 1.694-8.898 1.7.144 1.699 2.86 1.695 4.738 1.7-3.004 1.699-1.414 1.699-3.789 1.695-1.316 1.7 3.5 1.699-.372 1.695-3.996 1.7 4.352 1.698-1.477 1.7-2.12 1.695.675 1.7-.883 1.698-.515 1.696-.707 1.699 2.617 1.7-1.574 1.694 4.289 1.7-5.926 1.699 3.933 1.699-2.312 1.695.465 1.7.804 1.699-5.894 1.695 4.898 1.7-1.687 1.699-.723 1.699 1.512 1.695-1.59 1.7 1.781 1.699.403 1.695-3.371 1.699 2.617 1.7.367 1.698-3.035 1.696.676L492 28.418l1.7-3.984 1.695 2.347 1.699.578 1.699-1.336 1.7-.562 1.695 1.352 1.699-1.188 1.699.238 1.695 2.059 1.7-1.656 1.699 1.316 1.699-1.09 1.695.465 1.7.129 1.699-.34 1.695 1.977 1.7-1.524 1.698-.582 1.7-.992 1.695.414 1.7-.64 3.394.53 1.699.16 1.7 1.544 1.698.336 1.696-2.395 1.699 1.895 1.7-1.797 1.694-.418 1.7 1.527 1.699 1.235 1.7-3.711 1.694 3.117 1.7-1.848"/></g><g clip-path="url(#X)"><path fill="none" stroke="#00F" stroke-linecap="round" stroke-linejoin="round" stroke-miterlimit="10" stroke-opacity=".6" stroke-width="1.5" d="m58.695 289 .29-5.945 1.699-2.535 1.699.69 1.695-4.995 1.7-7.742L67.39 289m.152 0 1.629-26.258 1.7-22.37 1.698 7.257 1.7-14.211 1.695 2.762 1.59 52.82m.222 0 1.586-51.328 1.696-18.035 1.699 36.312 1.699-40.68 1.7-19.207 1.695 42.461 1.699-38.992 1.699 5.606 1.695.015 1.7-20.3 1.699 61.285 1.699-64.61 1.695-8.382 1.7 16.703 1.699 1.43 1.695-21.794 1.7-.402 1.698 1.383 1.7 10.086 1.695-8.367 1.7-14.422 1.698-7.805 1.696 14.469 1.699 11.754 1.7-4.688 1.698.078 1.696 6.38 1.699 3.85 1.7-4.495 1.694-5.54 1.7-22.484 1.699 8.672 1.7 5.606 1.694-11.903 1.7 27.703 1.699-28.375 1.695 20.875 1.7-4.03 1.699-27.446 1.695 56.851 1.7-50.136 1.698-4.578 1.7-10.903 1.695 22.61 1.7-11.114 1.698 5.895 1.696 8.062 1.699-.433 1.7-14.774 1.698 19.012 1.696-33.16 1.699 41.558 1.7-21.566 1.694 36.922 1.7-11.79 1.699-47.456 1.699 18.101 1.695 3.856 1.7-8.996 1.699.918 1.695 5.699 1.7-.031 1.699-1.43 1.699-7.934 1.695 8.207 1.7-23.32 1.698 8.336 1.696 41.402 1.699-59.386 1.7 11.996 1.698-4.805 1.696 17.555 1.699-3.758 1.7 5.75 1.695-11.805 1.699-6.695 1.699 20.219 1.7-17.426 1.695-15.95 1.699 6.571 1.699-6.117 1.695.047 1.7 10.52 1.699-16.962 1.699-.144 1.695-2.153 1.7 18.391 1.699 13.746 1.695-18.293 1.7-14.277 1.698-5.426 1.7 61.137 1.695-55.403 1.7-13.972 1.698 1.172 1.696-7.676 1.699-7.067 1.7 2.649 1.698 9.844 1.696-15.254 1.699 17.101 1.7-8.093 1.694 1.574 1.7-9.508 1.699 9.074 1.7-18.582 1.694 4.563 1.7 7.902 1.699-4.867 1.695.82 1.7 23.574 1.699-30.738 1.699 12.094 1.695 3.37 1.7-14.788 1.699 12.234 1.695-11.672 1.7 25.743 1.698 12.703 1.7-40.2 1.695-6.23 1.699-3.5 1.7 24.973 1.695-22.614 1.699 8.094 1.699-5.812 1.7-1.399 1.695 2.621 1.699 29.114 1.699-34.59 1.695 5.008 1.7-4.93 1.699-.594 1.699-4.672 1.695 47.985 1.7-19.063 1.699-14.277 1.695-5.88 1.7-1.78 1.698-10.489 1.7 2.043 1.695 28.117 1.7-10.406 1.698-18.836 1.696-2.039 1.699 6.004 1.7-2.89 1.698 27.93 1.696-28.009 1.699-.851 1.7-3.63 1.694 12.235 1.7-10.804 1.699-.918 1.7 15.37 1.694-8.562 1.7-5.601 1.699 1.765 1.695-.465 1.7 4.48 1.699 8.575 1.699-18.566 1.695 8.61 1.7-4.466 1.699-2.969 1.695 2.762 1.7 1.317 1.698-6.055v.723l1.7 9.796 1.695-9.605 1.7.16 1.698 18.375 1.696-9.285 1.699-8.223 1.699-1.574 1.7-.336 1.695 11.63 1.699 6.116 1.699-17.312 1.695-5.121 1.7 1.445 1.699-.852 1.699 2.375 1.695-1.91 1.7-.207 1.699 3.242 1.695-1.3 1.7 1.027 1.698-3.324 1.7-2.36L402 30.38l1.7-1.688 1.698 4.497 1.696-3.934 1.699-1.621 1.7 3.613 1.698-.918 1.696 12.945 1.699-14.855 1.7-.563 1.694-1.171 1.7 1.847 1.699-1.718 1.7-1.11 1.694 2.844 1.7-2.906 1.699 2.07 1.695 1.043 1.7-3.004 1.699 1.848 1.699-.754 1.695 3.566 1.7-1.367 1.699-5.297 1.695.578 1.7 1.57 1.698 1.079 1.7.191 1.695-1.75 1.7-.062 1.698 2.921 1.696-4.511 1.699 1.187 1.7-1.27 1.694-2.038 1.7 2.953 1.699-.434 1.699.723 1.695-2.84 1.7-1.207 1.699 2.746 1.695.355 1.7-2.234 1.699-1.46 1.699 2.667 3.394-1.027 1.7-.692 1.695 1.27 1.699.047 1.7-.66 1.698 1.367 1.696.418L492 21.367l1.7-.738 1.695-1.074 1.699 1.843 1.699-.671 1.7.046 1.695.739 1.699-1.125 1.699.433 1.695-.015 1.7.465 1.699-.832 1.699-.098 1.695 1.492 1.7-1.844 1.699-.164 1.695.387 1.7-1.797 1.698 2.504 1.7-.191 1.695-1.223 1.7.691 1.698-2.328 1.696 2.36 1.699-1.204 3.398 1.11 1.696-1.285 1.699-.16 1.7 2.183 1.694-2.57 1.7 2.554 1.699-.289 1.7-1.285 1.694-.691 1.7 1.187 1.699-.175"/></g><g clip-path="url(#Y)"><path fill="none" stroke="gray" stroke-dasharray="5.55 2.4" stroke-linejoin="round" stroke-miterlimit="10" stroke-opacity=".8" stroke-width="1.5" d="m49.3 289 1.196-23.758 1.695-24.586 1.7-21.582 1.699-19.117 1.695-3.621 1.7-6.496 1.699-5.88 1.699-5.218 1.695-7.031 1.7 1.809 1.699-6.536 1.695 2.465 1.7-2.262 1.698 1.606 1.7-.988 1.695-4.973 1.7-1.605 1.698-.946 1.696 4.645 1.699-7.809 1.699 1.727 3.395-.492 1.699-2.594 1.699 2.96 1.695 1.071 1.7-.945 3.398-3.95 1.695 2.59 1.7-.285 1.699-1.441 1.695.496 1.7-3.25 1.698-.82 1.7 2.18 1.695-4.442 1.7.945 1.698 5.469 1.696-5.758 1.699 3.29 1.7-2.755 1.698.29 1.696-.782 1.699 1.809 1.7-.043 1.694 1.726 1.7-2.547 1.699-3.25 1.7 4.239 1.694-2.016 1.7.04 1.699 1.194 1.695.946 1.7-3.043 1.699 1.066 1.695-1.312 1.7-1.48 1.698-.044 1.7-1.191 1.695 1.355 1.7 1.028 1.698-.696 1.696-2.14 1.699.41 1.7 1.07 1.698-1.234 1.696 1.605 1.699 1.028 1.7-2.47 1.694-.776 1.7-1.07 1.699 2.218 1.699-2.262 1.695.29 1.7-.782 1.699 1.645 1.695-1.11 1.7 1.563 1.699-.617 1.699-.989 1.695 1.196 1.7-1.977 1.698.125 1.696.328 1.699 2.18 1.7-.535 1.698-3.41 1.696-.536 1.699 1.973 1.7-.535 1.695-.04 1.699.985 1.699-3.41 1.7 5.465 1.695 1.812 1.699-4.812 1.699-2.3 1.695.038 1.7 1.934 1.699-.617 1.699-1.52 1.695 2.465 1.7.328 1.699-2.918 1.695 3.332 1.7-.617 1.698.164 1.7-.7 1.695-1.89 1.7 2.3 1.698-1.07 1.696-2.874 1.699 2.792 1.7-.41 1.698-.082 1.696-.699 1.699 1.191 1.7-1.19 1.694 1.07 1.7.37 1.699-2.425 1.7 1.273 1.694 1.028 1.7-1.727 1.699-1.52 1.695 2.672 1.7.492 1.699-2.382 1.699.738 1.695 2.55 1.7-1.523 1.699-.37 1.695.577 1.7 1.317 1.698-4.36 3.395.493 1.699 2.097 1.7.7 1.695-2.016 1.699.781 1.699.125 1.7.285 1.695-1.52 1.699 2.837 1.699-2.672 1.695 2.468 1.7-3.332 1.699-.738 1.699 5.508 1.695-1.89 1.7-2.508 1.699 2.3 1.695-3.492 1.7 1.438 1.698.78 1.7 1.4 1.695-2.262 1.7-1.438 1.698 1.395 1.696.66 1.699.781 1.7-1.48 1.698-.7 1.696 2.344 1.699-2.055 1.7-.824 1.694 1.317 1.7-.536 1.699.536 1.7.699 1.694-.781 1.7 1.808 1.699-2.055 1.695.329 1.7-2.387 1.699 2.426h1.699l1.695.125 1.7-.043 1.699-2.176 1.695 3 1.7-2.754 1.698 2.098v-.414l1.7.207 1.695-1.317 1.7.082 1.698 1.07 1.696-.824 1.699.043 1.699.371 1.7.164 1.695.618 1.699-2.961 1.699 2.425 1.695-.535 1.7 2.098 3.398-2.922 1.695.207 1.7-.207 1.699.578 1.695-1.523 1.7.535 1.698 1.152 1.7-.125 1.695-.78 1.7 1.933 1.698-2.344 1.696.492 1.699 1.977 1.7-1.442 1.698-.781 1.696.453 1.699.328 1.7-1.847 1.694 2.754 1.7-.7 1.699.535 1.7-.164 1.694.41 1.7-.66 1.699.125 1.695 2.055 1.7-3.535 1.699 1.89 1.699-.902 1.695-.617 1.7 1.027 1.699-.617 1.695-1.398 1.7 1.07 1.698.7 1.7-.29 1.695.164 1.7-.12 1.698.901 1.696-.328h1.699l1.7.371 1.694-.207 1.7-1.109 1.699 1.07 1.699.864 1.695-.414 1.7-1.809 1.699 1.152 1.695-.988 1.7 1.11 1.699-.946 1.699.082 1.695-.328 1.7.824 1.699-1.441 1.695.66 1.699 1.066 1.7-.902h1.698l1.696 1.07 1.699.164 1.7-1.316 1.695.535 1.699-.535 1.699.738 3.394-.164 1.7-.203 1.699-.371 1.695.492 1.7-.37 1.699.081 1.699 1.07 1.695-1.152h1.7l3.394-.41 1.7.164 1.698.742 1.7-.207 1.695.41 1.7.043 1.698.203 1.696-.902 1.699.328 1.7.781 1.698-.863 1.696.082 1.699.29 1.7-.66 1.694 1.03 1.7-.25 1.699-.613 1.7.492 1.694-.41 1.7-.207 1.699.164"/></g><g clip-path="url(#Z)"><path fill="none" stroke="red" stroke-dasharray="5.55 2.4" stroke-linejoin="round" stroke-miterlimit="10" stroke-opacity=".8" stroke-width="1.5" d="m54.648 289 .942-8.629 1.695-8.469 1.7-21.953 1.699-7.32 1.699-13.031 1.695-3.29 1.7 6.25 3.394-24.05 1.7-7.074 1.698 3.496 1.7 1.027 1.695-12.375 1.7 9.54 1.698-12.622 1.696-10.484 1.699 9.414 1.699-.782 1.7-8.671 1.695-1.032 1.699-1.89 1.699 2.18 1.695-1.4 1.7.29 1.699-5.879 1.699 3.945 1.695.043 1.7-8.43 1.699 2.755 1.695 5.386 1.7-10.484 1.698 11.555 1.7-8.512 1.695 6.742 1.7-16.648 1.698 6.742 1.696-8.102 1.699 5.348 1.7-3.414 1.698-.164 1.696 25.652 1.699-26.023 1.7.164 1.694 6.21 1.7 4.727 1.699 20.39 1.7-33.835 1.694 15.625 1.7-19.078 1.699 2.387 1.695 7.89 1.7-11.758 1.699-2.629 1.695 7.48 1.7 2.427 1.698-6.578 1.7 7.277 1.695-7.813 1.7 27.672 1.698-29.644 1.696 3.207 1.699-1.602 1.7-1.152 1.698.164 1.696.906 1.699-.453 1.7-1.152 1.694-5.387 1.7 20.559 1.699-11.594 1.699 2.344 1.695-11.72 1.7 14.72 1.699-4.524 1.695-11.347 1.7 8.02 1.699-5.388 1.699-3.453 1.695 2.961 1.7-.945 1.698 102.945 1.696-100.398 1.699.37 1.7-4.316 1.698 10.153 1.696-9.781 1.699-1.688 1.7 8.55 1.695-7.85 1.699 6.452 1.699-8.836 1.7.782 1.695 3.164 1.699 7.234 1.699-8.387 1.695 1.852 1.7.82 1.699-6.578 1.699 10.484 1.695 1.317 1.7 5.922 1.699-15.707 1.695-1.809 1.7 4.977 1.698 6.289 1.7 4.687 1.695-2.222 1.7-11.18 1.698 1.437 1.696-7.933 1.699.246 1.7 4.934 1.698-1.852 1.696 7.238 1.699-9.21 1.7-.782 1.694 3.66 1.7-.164 1.699-4.316 1.7 3.574 1.694-3.574 1.7 3.285 1.699-4.727 1.695 4.153 1.7-4.356 1.699 1.809 1.699 17.594 1.695-15.211 1.7-2.547 1.699 1.394 1.695-3.617 1.7 7.484 1.698-4.152 1.7.164 1.695-1.48 1.699.289 1.7-3.703 1.695 2.222 1.699 1.356 1.699-2.508 1.7-.41 1.695-.082 1.699 5.879 1.699-1.48 1.695-.618 1.7-1.234 1.699-3.29 1.699 7.157 1.695-3.29 1.7-.288 1.699-3.535 1.695.82 1.7 2.098 1.698.945 1.7-1.727 1.695-.617 1.7 1.77 1.698-.7 1.696.204 1.699-2.34 1.7.203 1.698 2.18 1.696-2.633 1.699 4.195 1.7-2.426 1.694-3.289 1.7 1.563 1.699 2.425 1.7-4.441 1.694 4.77 1.7-.536 1.699-1.89 1.695-.082 1.7-1.48 1.699 2.59 1.699-1.93 1.695 2.011 1.7-2.383 1.699-2.754 1.695 3.536 1.7.039 1.698-.946v-1.644l1.7 4.152 1.695-4.601 1.7 2.3 1.698.657 1.696-2.301 1.699.7 1.699 1.683 1.7 2.468 1.695-2.425 1.699-1.399 1.699-.289 1.695 2.262 1.7-.574 1.699-.453 1.699-1.934 1.695.781 1.7 1.399 1.699-1.48 1.695.331 1.7-2.508 1.698 1.891 1.7.656 1.695.988 1.7-1.562 1.698-.906 1.696.945 1.699-.328h1.7l1.698.246 1.696 1.89 1.699-1.519 1.7.371 1.694-2.058 1.7 2.96 1.699-1.601 1.7 5.797 1.694-6.824 1.7-.082 1.699 1.476 1.695.496 3.399-1.07 1.699.207 1.695.492 1.7-1.808 1.699 1.398 1.695-2.754 1.7 2.258 1.698-.945 1.7-.04 1.695 1.602 1.7-2.754 1.698-.12 1.696 1.355 1.699.535 1.7-2.055 1.694 3.328 1.7-1.808 1.699 1.89 1.699-3.043 1.695.824 1.7 1.563 1.699-2.715 1.695.863 1.7.246 1.699-.574 1.699 1.48 1.695-.534 1.7-.946 1.699.41 1.695-.82 1.699-1.277 1.7 2.14 5.093-2.59 1.7 2.59 1.695-1.687 1.699.082 1.699.289 1.7-1.027 1.695 1.316 3.398.04 1.695-.821 1.7-.29 1.699 1.192 1.699.906 1.695-2.14 1.7.289 1.699.164 1.695.289 1.7.164 1.698-.574 1.7-.453 1.695.039 1.7.535 3.394-.207 1.699-.45 1.7.122 1.698.578 3.395-.66 1.7.41 1.694-.738 1.7.617 3.398.41 1.695-.453 1.7-.082"/></g><g clip-path="url(#aa)"><path fill="none" stroke="#00F" stroke-dasharray="5.55 2.4" stroke-linejoin="round" stroke-miterlimit="10" stroke-opacity=".8" stroke-width="1.5" d="m51.938 289 .253-5.383 1.7-.863 1.699-29.395 1.695 19.61 1.7-37.285 1.699-2.098 1.699 3.246 1.695-9.125 1.7-9.992 1.699 28.45 1.695-21.993 1.7-18.254 1.698 7.809 1.7-11.594 1.695 3.125 1.7 54.27 1.698-53.774 1.696-10.484 1.699 31.738 1.699-34.41 1.7-8.555 1.695 26.64 1.699-31.777 1.699 10.153 1.695 4.894 1.7-10.691 1.699 37.289 1.699-41.11 1.695-3.168 1.7 4.032 1.699 5.797 1.695-13.075 1.7-3 1.698 6.246 1.7-.164 1.695-.656 1.7-12.21 1.698-.907 1.696 6.168 1.699 8.633 1.7-1.52 1.698-1.808 1.696 3.742 1.699 7.234 1.7-6.578 1.694-2.055 1.7-12.21 1.699.902 1.7-2.508 1.694 8.719 1.7 11.84 1.699-14.102 1.695 6.781 1.7-7.316 1.699-9.496 1.695 39.55 1.7-36.921 1.698-4.727 1.7-3.781 1.695 16.937 1.7-7.566 1.698 3.043 1.696 6.988 1.699-.82 1.7-7.235 1.698 4.52 1.696-15.582 1.699 29.437 1.7-17.308 1.694 16.527 1.7-9.988 1.699-20.762 1.699 11.18 1.695-.781 1.7-8.918 1.699 4.683 1.695 3.371 1.7 6.25 1.699-7.07 1.699.945 1.695.657 1.7-12.907 1.698 3.575 1.696 29.355 1.699-33.629 1.7 1.766 1.698 1.972 1.696.907 1.699 2.672 1.7.492 1.695-6.043 1.699-1.067 1.699 13.196 1.7-10.239 1.695-6.742 1.699-1.312 1.699-.617 1.695 1.19 1.7.618 1.699-5.18 1.699 1.23 1.695-3.124 1.7 6.004 1.699 10.441 1.695-9.086 1.7-7.687 1.698-5.469 1.7 36.758 1.695-30.836 1.7-.902 1.698 1.273 1.696-4.895 1.699-1.644 1.7-.7 1.698 6.13 1.696-4.606 1.699 4.606 1.7 1.683h1.694l1.7-4.07 1.699 3.95 1.7-6.786 1.694.574 1.7 3.578 1.699-1.273 1.695-2.961 1.7 22.57 1.699-23.886 1.699 4.894 1.695 1.313 1.7-4.028 1.699.41 1.695-.039 3.398 14.758 1.7-15.91 1.695-4.316 1.699 2.835 1.7 6.415 1.695-7.813 1.699 5.676 1.699-4.977 1.7-4.234 1.695 3.453 1.699 14.555 1.699-14.145 1.695.125 1.7-3.37 1.699 2.96 1.699-.496 1.695 21.133 1.7-12.66 1.699-5.594L312 127.64l1.7 2.382 1.698-3.289 1.7 1.11 1.695 13.73 1.7-7.316 1.698-9.824 1.696-.864 1.699 4.274 1.7-2.383 1.698 9.414 1.696-8.512 1.699-3.328 1.7 1.067 1.694 4.648 1.7-1.973 1.699-2.879 1.7 7.852 1.694-3.988 1.7-2.055 1.699.82 1.695-1.312 1.7.531 1.699 6.086 1.699-10.648 1.695 3.66 1.7 1.437 1.699-2.136 1.695-.247 1.7 1.399 1.698-2.715v2.137l1.7 2.508 1.695-3.41 1.7-.782 1.698 8.14 1.696-3.534 1.699-1.032 1.699-2.546 1.7-3.907 3.394 11.512 1.699-8.016 1.695 1.93 1.7-2.59 1.699.125 1.699 1.235 1.695-2.797 1.7.738 1.699 1.809 1.695-1.848 1.7.453 1.698-2.059 1.7 2.262 1.695.578 1.7-1.152 1.698-2.344 1.696.125 1.699 1.727 1.7-.25 1.698-.781 1.696 7.894 1.699-5.633 1.7-2.011 1.694-.7 1.7-1.07 1.699 1.727 1.7-.329 1.694 1.07 1.7-2.593 1.699 2.797 1.695-1.563 1.7-.203 1.699.121 1.699-.535 1.695 1.07 1.7-.41 1.699.739 1.695-.246 1.7.328 1.698 5.84 1.7-5.88 1.695-1.562 1.7.082 1.698.984 1.696-1.148 1.699.45 1.7-.696 1.694.656 1.7-2.262 1.699 2.098 1.699-.125 1.695.496 1.7 1.848 1.699-2.262 1.695.29 1.7-1.438 1.699.781 1.699-1.316 1.695 1.562 1.7-.41 1.699.984 1.695-.617 1.699-.902 1.7.738 1.698-.781 1.696.781 1.699-.574 1.7-1.07 1.695 1.109 1.699.289 1.699-.453 1.7-.574 1.695 1.316 1.699-.7 1.699-.124 1.695.492 1.7-.04 1.699-.37 1.699.41 1.695-.367 1.7-.082 1.699.617 1.695.246 1.7-1.027 3.398.738 1.695.656 1.7-.738 1.698-.535 3.395.207 1.7.453 1.698-.496 1.696.328 1.699.086 1.7-.453 1.694.41 1.7-.328 1.699.41 1.7-.492 1.694.246 1.7-.535 1.699.328"/></g><path fill="none" stroke="#FFF" stroke-linecap="square" stroke-miterlimit="10" stroke-width=".8" d="M45.398 254.84V2M554.832 254.84V2M45.398 254.84h509.434M45.398 2h509.434"/><path fill="#EAEAF2" fill-opacity=".8" stroke="#CCC" stroke-miterlimit="10" stroke-opacity=".8" d="M418.895 249.84h128.937q1.999-.001 2-2v-87.031q-.001-1.999-2-2H418.895c-1.336 0-2 .668-2 2v87.03c0 1.333.664 2 2 2Zm0 0"/><path fill="none" stroke="gray" stroke-linecap="round" stroke-linejoin="round" stroke-miterlimit="10" stroke-opacity=".6" stroke-width="1.5" d="M420.895 166.902h20"/><g fill="#262626"><use xlink:href="#ab" x="448.893" y="170.403"/><use xlink:href="#ab" x="454.643" y="170.403"/><use xlink:href="#ac" x="460.393" y="170.403"/><use xlink:href="#u" x="463.573" y="170.403"/><use xlink:href="#v" x="466.753" y="170.403"/><use xlink:href="#p" x="470.673" y="170.403"/><use xlink:href="#q" x="474.783" y="170.403"/><use xlink:href="#r" x="480.913" y="170.403"/><use xlink:href="#s" x="483.693" y="170.403"/></g><path fill="none" stroke="red" stroke-linecap="round" stroke-linejoin="round" stroke-miterlimit="10" stroke-opacity=".6" stroke-width="1.5" d="M420.895 181.574h20"/><g fill="#262626"><use xlink:href="#ad" x="448.893" y="185.074"/><use xlink:href="#ae" x="454.463" y="185.074"/><use xlink:href="#o" x="460.813" y="185.074"/><use xlink:href="#af" x="466.923" y="185.074"/><use xlink:href="#ac" x="475.553" y="185.074"/><use xlink:href="#u" x="478.733" y="185.074"/><use xlink:href="#v" x="481.913" y="185.074"/><use xlink:href="#p" x="485.833" y="185.074"/><use xlink:href="#q" x="489.943" y="185.074"/><use xlink:href="#r" x="496.073" y="185.074"/><use xlink:href="#s" x="498.853" y="185.074"/></g><path fill="none" stroke="#00F" stroke-linecap="round" stroke-linejoin="round" stroke-miterlimit="10" stroke-opacity=".6" stroke-width="1.5" d="M420.895 196.246h20"/><g fill="#262626"><use xlink:href="#ag" x="448.893" y="199.746"/><use xlink:href="#o" x="455.873" y="199.746"/><use xlink:href="#af" x="461.983" y="199.746"/><use xlink:href="#ac" x="470.613" y="199.746"/><use xlink:href="#u" x="473.793" y="199.746"/><use xlink:href="#v" x="476.973" y="199.746"/><use xlink:href="#p" x="480.893" y="199.746"/><use xlink:href="#q" x="485.003" y="199.746"/><use xlink:href="#r" x="491.133" y="199.746"/><use xlink:href="#s" x="493.913" y="199.746"/></g><path fill="none" stroke="gray" stroke-dasharray="5.55 2.4" stroke-linejoin="round" stroke-miterlimit="10" stroke-opacity=".8" stroke-width="1.5" d="M420.895 210.918h20"/><g fill="#262626"><use xlink:href="#ab" x="448.893" y="214.418"/><use xlink:href="#ab" x="454.643" y="214.418"/><use xlink:href="#ac" x="460.393" y="214.418"/><use xlink:href="#u" x="463.573" y="214.418"/><use xlink:href="#v" x="466.753" y="214.418"/><use xlink:href="#w" x="470.673" y="214.418"/><use xlink:href="#y" x="476.823" y="214.418"/><use xlink:href="#v" x="482.033" y="214.418"/><use xlink:href="#ah" x="485.953" y="214.418"/><use xlink:href="#u" x="489.323" y="214.418"/><use xlink:href="#E" x="492.503" y="214.418"/><use xlink:href="#j" x="498.863" y="214.418"/><use xlink:href="#B" x="505.223" y="214.418"/><use xlink:href="#j" x="508.403" y="214.418"/><use xlink:href="#j" x="514.763" y="214.418"/><use xlink:href="#ai" x="521.123" y="214.418"/></g><path fill="none" stroke="red" stroke-dasharray="5.55 2.4" stroke-linejoin="round" stroke-miterlimit="10" stroke-opacity=".8" stroke-width="1.5" d="M420.895 225.59h20"/><g fill="#262626"><use xlink:href="#ad" x="448.893" y="229.09"/><use xlink:href="#ae" x="454.463" y="229.09"/><use xlink:href="#o" x="460.813" y="229.09"/><use xlink:href="#af" x="466.923" y="229.09"/><use xlink:href="#ac" x="475.553" y="229.09"/><use xlink:href="#u" x="478.733" y="229.09"/><use xlink:href="#v" x="481.913" y="229.09"/><use xlink:href="#w" x="485.833" y="229.09"/><use xlink:href="#y" x="491.983" y="229.09"/><use xlink:href="#v" x="497.193" y="229.09"/><use xlink:href="#ah" x="501.113" y="229.09"/><use xlink:href="#u" x="504.483" y="229.09"/><use xlink:href="#E" x="507.663" y="229.09"/><use xlink:href="#l" x="514.023" y="229.09"/><use xlink:href="#B" x="520.383" y="229.09"/><use xlink:href="#l" x="523.563" y="229.09"/><use xlink:href="#j" x="529.923" y="229.09"/><use xlink:href="#ai" x="536.283" y="229.09"/></g><path fill="none" stroke="#00F" stroke-dasharray="5.55 2.4" stroke-linejoin="round" stroke-miterlimit="10" stroke-opacity=".8" stroke-width="1.5" d="M420.895 240.262h20"/><g fill="#262626"><use xlink:href="#ag" x="448.893" y="243.762"/><use xlink:href="#o" x="455.873" y="243.762"/><use xlink:href="#af" x="461.983" y="243.762"/><use xlink:href="#ac" x="470.613" y="243.762"/><use xlink:href="#u" x="473.793" y="243.762"/><use xlink:href="#v" x="476.973" y="243.762"/><use xlink:href="#w" x="480.893" y="243.762"/><use xlink:href="#y" x="487.043" y="243.762"/><use xlink:href="#v" x="492.253" y="243.762"/><use xlink:href="#ah" x="496.173" y="243.762"/><use xlink:href="#u" x="499.543" y="243.762"/><use xlink:href="#E" x="502.723" y="243.762"/><use xlink:href="#n" x="509.083" y="243.762"/><use xlink:href="#B" x="515.443" y="243.762"/><use xlink:href="#b" x="518.623" y="243.762"/><use xlink:href="#h" x="524.983" y="243.762"/><use xlink:href="#ai" x="531.343" y="243.762"/></g></svg>