<svg xmlns="http://www.w3.org/2000/svg" xmlns:xlink="http://www.w3.org/1999/xlink" width="998.4" height="307.2" viewBox="0 0 748.8 230.4"><defs><clipPath id="a"><path d="M0 0h748.8v230.398H0Zm0 0"/></clipPath><clipPath id="b"><path d="M97 1.5h2v196.238h-2Zm0 0"/></clipPath><clipPath id="f"><path d="M182 1.5h2v196.238h-2Zm0 0"/></clipPath><clipPath id="h"><path d="M268 1.5h1v196.238h-1Zm0 0"/></clipPath><clipPath id="i"><path d="M353 1.5h2v196.238h-2Zm0 0"/></clipPath><clipPath id="j"><path d="M438 1.5h2v196.238h-2Zm0 0"/></clipPath><clipPath id="k"><path d="M523 1.5h2v196.238h-2Zm0 0"/></clipPath><clipPath id="l"><path d="M608 1.5h2v196.238h-2Zm0 0"/></clipPath><clipPath id="m"><path d="M694 1.5h1v196.238h-1Zm0 0"/></clipPath><clipPath id="u"><path d="M37.34 183H747.3v2H37.34Zm0 0"/></clipPath><clipPath id="v"><path d="M37.34 140H747.3v2H37.34Zm0 0"/></clipPath><clipPath id="w"><path d="M37.34 97H747.3v1H37.34Zm0 0"/></clipPath><clipPath id="x"><path d="M37.34 53H747.3v2H37.34Zm0 0"/></clipPath><clipPath id="z"><path d="M37.34 10H747.3v2H37.34Zm0 0"/></clipPath><clipPath id="P"><path d="M184 1.5h2v196.238h-2Zm0 0"/></clipPath><clipPath id="Q"><path d="M532 1.5h1v196.238h-1Zm0 0"/></clipPath><clipPath id="R"><path d="M363 1.5h2v196.238h-2Zm0 0"/></clipPath><clipPath id="S"><path d="M309 1.5h1v196.238h-1Zm0 0"/></clipPath><clipPath id="T"><path d="M242 1.5h2v196.238h-2Zm0 0"/></clipPath><clipPath id="U"><path d="M351 1.5h2v196.238h-2Zm0 0"/></clipPath><clipPath id="V"><path d="M592 1.5h2v196.238h-2Zm0 0"/></clipPath><clipPath id="W"><path d="M295 1.5h2v196.238h-2Zm0 0"/></clipPath><clipPath id="X"><path d="M333 1.5h2v196.238h-2Zm0 0"/></clipPath><clipPath id="Y"><path d="M312 1.5h2v196.238h-2Zm0 0"/></clipPath><clipPath id="Z"><path d="M115 1.5h2v196.238h-2Zm0 0"/></clipPath><clipPath id="aa"><path d="M493 1.5h1v196.238h-1Zm0 0"/></clipPath><clipPath id="ab"><path d="M138 1.5h2v196.238h-2Zm0 0"/></clipPath><clipPath id="ac"><path d="M497 1.5h2v196.238h-2Zm0 0"/></clipPath><clipPath id="ad"><path d="M501 1.5h1v196.238h-1Zm0 0"/></clipPath><clipPath id="ae"><path d="M202 1.5h2v196.238h-2Zm0 0"/></clipPath><clipPath id="af"><path d="M631 1.5h2v196.238h-2Zm0 0"/></clipPath><clipPath id="ag"><path d="M344 1.5h2v196.238h-2Zm0 0"/></clipPath><clipPath id="ah"><path d="M266 1.5h2v196.238h-2Zm0 0"/></clipPath><clipPath id="ai"><path d="M411 1.5h1v196.238h-1Zm0 0"/></clipPath><clipPath id="aj"><path d="M255 1.5h2v196.238h-2Zm0 0"/></clipPath><clipPath id="ak"><path d="M182 1.5h2v196.238h-2Zm0 0"/></clipPath><clipPath id="al"><path d="M355 1.5h2v196.238h-2Zm0 0"/></clipPath><clipPath id="am"><path d="M129 1.5h2v196.238h-2Zm0 0"/></clipPath><clipPath id="an"><path d="M309 1.5h2v196.238h-2Zm0 0"/></clipPath><clipPath id="ao"><path d="M530 1.5h2v196.238h-2Zm0 0"/></clipPath><clipPath id="ap"><path d="M44 1.5h1v196.238h-1Zm0 0"/></clipPath><clipPath id="aq"><path d="M636 1.5h2v196.238h-2Zm0 0"/></clipPath><clipPath id="ar"><path d="M739 1.5h2v196.238h-2Zm0 0"/></clipPath><clipPath id="as"><path d="M314 1.5h2v196.238h-2Zm0 0"/></clipPath><clipPath id="at"><path d="M37.34 103H45v38h-7.66Zm0 0"/></clipPath><clipPath id="au"><path d="M37.34 103H45v39h-7.66Zm0 0"/></clipPath><path id="c" d="M1.238-.828h1.614v-5.563l-1.75.352v-.902L2.84-7.29h.988v6.46h1.613V0H1.238Zm0 0"/><path id="d" d="M1.07-1.238h1.032V0H1.07Zm0 0"/><path id="e" d="M1.078-7.29H4.95v.83H1.98v1.788c.141-.047.29-.09.43-.11.14-.019.29-.038.43-.038.808 0 1.45.23 1.93.672.48.449.718 1.046.718 1.808 0 .79-.25 1.399-.738 1.828-.488.434-1.18.64-2.059.64-.312 0-.62-.026-.941-.07a5.6 5.6 0 0 1-.98-.23v-.988q.432.24.91.36c.308.081.64.109.992.109.558 0 1.008-.137 1.34-.438.316-.3.488-.7.488-1.21 0-.5-.172-.9-.488-1.2-.332-.3-.782-.45-1.34-.45a3.4 3.4 0 0 0-.793.09 4.4 4.4 0 0 0-.8.27Zm0 0"/><path id="g" d="M3.18-6.64q-.761 0-1.149.75c-.261.5-.383 1.25-.383 2.25s.122 1.75.383 2.25q.386.75 1.149.75c.511 0 .89-.25 1.148-.75.25-.5.383-1.25.383-2.25s-.133-1.75-.383-2.25c-.258-.5-.637-.75-1.148-.75m0-.782c.808 0 1.43.332 1.87.973.43.648.65 1.59.65 2.808 0 1.23-.22 2.172-.65 2.813-.44.637-1.062.957-1.878.957Q1.943.129 1.3-.828C.87-1.468.66-2.41.66-3.641c0-1.218.21-2.16.64-2.808.43-.64 1.058-.973 1.879-.973m0 0"/><path id="n" d="M1.922-.828h3.437V0H.73v-.828c.372-.383.88-.902 1.532-1.563A72 72 0 0 0 3.48-3.648q.48-.528.66-.903c.122-.238.188-.488.188-.73 0-.38-.137-.7-.406-.938-.274-.242-.621-.37-1.063-.37-.308 0-.64.058-.98.16q-.51.162-1.098.488v-1q.6-.238 1.11-.36c.34-.078.66-.12.949-.12q1.126 0 1.8.57c.45.382.68.882.68 1.511 0 .3-.058.59-.172.852-.109.27-.308.59-.609.949-.078.098-.34.367-.777.82-.442.45-1.051 1.078-1.84 1.89m0 0"/><path id="o" d="M.98-7.29H2.31l3.23 6.099V-7.29H6.5V0H5.172l-3.23-6.102V0H.98Zm0 0"/><path id="p" d="M.852-2.16V-5.47h.898v3.278c0 .52.102.902.3 1.16.2.261.5.39.91.39.481 0 .868-.148 1.15-.46.28-.31.421-.727.421-1.27V-5.47h.899V0H4.53v-.84c-.222.34-.48.578-.761.738a2.1 2.1 0 0 1-1 .23c-.63 0-1.11-.187-1.43-.577C1.012-.83.852-1.4.852-2.16m2.257-3.442"/><path id="q" d="M5.2-4.422c.222-.398.491-.687.8-.887.309-.191.68-.293 1.11-.293.562 0 1 .204 1.312.602.308.398.469.969.469 1.7V0h-.903v-3.27c0-.52-.097-.91-.277-1.171-.191-.25-.473-.38-.852-.38-.468 0-.84.16-1.109.47-.27.312-.398.73-.398 1.261V0h-.903v-3.27c0-.52-.097-.91-.277-1.171-.192-.25-.48-.38-.863-.38-.457 0-.829.16-1.098.47q-.403.466-.402 1.261V0H.91v-5.469h.899v.848c.203-.328.453-.578.742-.738.277-.16.62-.243 1.02-.243.398 0 .73.102 1.007.301.281.2.48.5.621.88m0 0"/><path id="r" d="M4.871-2.73c0-.66-.14-1.168-.41-1.551a1.33 1.33 0 0 0-1.121-.57q-.719 0-1.121.57c-.278.383-.41.89-.41 1.55s.132 1.18.41 1.56c.27.382.64.562 1.12.562.47 0 .84-.18 1.122-.563.27-.379.41-.898.41-1.558M1.81-4.64c.18-.32.421-.56.71-.72.29-.16.641-.242 1.04-.242.66 0 1.203.274 1.62.793.41.528.622 1.22.622 2.079S5.59-1.172 5.18-.648c-.418.52-.961.777-1.621.777-.399 0-.75-.078-1.04-.23a1.7 1.7 0 0 1-.71-.72V0H.91v-7.602h.899Zm0 0"/><path id="s" d="M5.621-2.96v.44H1.488c.043.622.223 1.098.563 1.418q.49.48 1.39.48c.34 0 .68-.038 1-.116.32-.082.649-.211.97-.39v.847c-.321.14-.65.25-.99.312a6 6 0 0 1-1.03.098c-.88 0-1.57-.25-2.082-.75C.8-1.121.55-1.81.55-2.68Q.55-4.016 1.27-4.809c.48-.52 1.14-.793 1.96-.793.739 0 1.32.243 1.75.711.418.48.641 1.121.641 1.93M4.72-3.22c-.008-.492-.149-.883-.41-1.18-.27-.292-.63-.44-1.07-.44-.5 0-.9.148-1.2.429s-.48.68-.52 1.191Zm0 0"/><path id="t" d="M4.11-4.629a1.2 1.2 0 0 0-.329-.133c-.12-.02-.25-.039-.39-.039-.512 0-.903.172-1.172.5-.278.332-.41.801-.41 1.422V0H.91v-5.469h.899v.848c.18-.328.43-.578.73-.738q.451-.242 1.11-.243c.062 0 .132.012.21.012.07.012.153.02.25.04Zm0 0"/><path id="y" d="M3.781-6.43 1.29-2.54h2.492Zm-.261-.86h1.242v4.75H5.8v.821H4.76V0h-.98v-1.719H.488v-.953Zm0 0"/><path id="A" d="M3.3-4.04c-.44 0-.788.161-1.05.462-.262.297-.39.719-.39 1.238q-.002.798.39 1.25.391.45 1.05.45.658 0 1.052-.45.386-.452.386-1.25c0-.52-.129-.941-.386-1.238-.262-.3-.614-.461-1.051-.461m1.962-3.089v.899a3.441 3.441 0 0 0-1.5-.36q-.99 0-1.5.66c-.34.442-.543 1.11-.582 1.989.191-.278.43-.5.718-.649.293-.148.614-.23.961-.23.73 0 1.313.23 1.73.672.423.437.641 1.046.641 1.808 0 .75-.23 1.352-.671 1.8C4.62-.09 4.03.13 3.3.13c-.84 0-1.492-.32-1.93-.957C.921-1.468.7-2.41.7-3.641c0-1.148.27-2.07.82-2.75.54-.68 1.282-1.03 2.2-1.03.242 0 .492.03.75.07.25.05.511.12.793.222m0 0"/><path id="B" d="M-7.29-.328v-1l6.161-1.531-6.16-1.532V-5.5l6.16-1.531-6.16-1.528v-1L0-7.73v1.242L-6.328-4.95 0-3.4v1.239Zm0 0"/><path id="C" d="M-2.75-3.43c0 .73.09 1.23.25 1.508.172.281.45.422.852.422.32 0 .578-.102.757-.309.192-.21.282-.5.282-.863 0-.5-.172-.898-.532-1.2-.347-.3-.82-.448-1.41-.448h-.199Zm-.371-1.789H0v.899h-.828c.34.21.578.468.726.77.153.3.23.679.23 1.12 0 .559-.148 1.008-.456 1.34-.313.328-.73.488-1.262.488-.61 0-1.07-.199-1.39-.617-.31-.41-.47-1.02-.47-1.84V-4.32h-.09c-.41 0-.73.14-.96.41-.219.27-.34.648-.34 1.14 0 .32.04.622.121.918.078.301.188.582.328.852h-.828a6 6 0 0 1-.281-.95 5 5 0 0 1-.102-.91c0-.788.211-1.378.622-1.769.41-.39 1.03-.59 1.859-.59m0 0"/><path id="D" d="M-5.469-.941v-.899H0v.899Zm-2.133 0v-.899h1.141v.899Zm0 0"/><path id="E" d="M-7.02-1.828h1.551V-3.68h.7v1.852h2.968c.45 0 .742-.063.86-.184.132-.117.191-.367.191-.75v-.918H0v.918Q0-1.707-.39-1.32c-.258.261-.731.39-1.41.39h-2.97v.66h-.699v-.66h-1.55Zm0 0"/><path id="G" d="M-4.422-5.2c-.398-.222-.687-.491-.887-.8a2.07 2.07 0 0 1-.293-1.11c0-.562.204-1 .602-1.312.398-.308.969-.469 1.7-.469H0v.903h-3.27c-.52 0-.91.097-1.171.277-.25.191-.38.473-.38.852 0 .468.16.84.47 1.109.312.27.73.398 1.261.398H0v.903h-3.27c-.52 0-.91.097-1.171.277-.25.192-.38.48-.38.863 0 .457.16.829.47 1.098q.466.403 1.261.402H0v.899h-5.469v-.899h.848a2.06 2.06 0 0 1-.738-.742c-.16-.277-.243-.62-.243-1.02 0-.398.102-.73.301-1.007.2-.281.5-.48.88-.621m0 0"/><path id="H" d="M-2.96-5.621h.44v4.133c.622-.043 1.098-.223 1.418-.563q.48-.49.48-1.39c0-.34-.038-.68-.116-1a4 4 0 0 0-.39-.97h.847c.14.321.25.65.312.99.059.343.098.69.098 1.03 0 .88-.25 1.57-.75 2.082-.5.508-1.188.758-2.059.758q-1.336.001-2.129-.719c-.52-.48-.793-1.14-.793-1.96 0-.739.243-1.32.711-1.75.48-.418 1.121-.641 1.93-.641m-.259.902c-.492.008-.883.149-1.18.41-.292.27-.44.63-.44 1.07 0 .5.148.9.429 1.2s.68.48 1.191.52Zm0 0"/><path id="I" d="M-1.238-1.172v-1.027h.84l1.546.8v.63l-1.546-.403Zm0 0"/><path id="J" d="M-4.64-4.54h-2.962v-.901H0v.902h-.82c.332.187.57.43.718.719.153.289.23.629.23 1.03q.001.991-.776 1.618c-.524.422-1.223.621-2.082.621-.86 0-1.551-.199-2.079-.62-.52-.419-.793-.958-.793-1.618 0-.402.082-.742.243-1.031q.239-.436.718-.72m1.91 3.06c.66 0 1.18-.13 1.558-.399.383-.27.563-.64.563-1.121 0-.48-.18-.852-.563-1.129-.379-.27-.898-.41-1.558-.41s-1.168.14-1.551.41c-.38.277-.57.649-.57 1.129q0 .719.57 1.121c.383.27.89.399 1.55.399m0 0"/><path id="K" d="M-7.602-.941v-.899H0v.899Zm0 0"/><path id="L" d="M-7.602-3.71h.75v.858c0 .32.07.551.204.672q.19.193.699.192h.48v-1.48h.7v1.48H0v.898h-4.77v.86h-.699v-.86h-.383c-.597 0-1.046-.14-1.328-.422q-.421-.415-.422-1.347Zm0 0"/><path id="M" d="M-4.629-4.11c-.062.098-.101.212-.133.329-.02.12-.039.25-.039.39 0 .512.172.903.5 1.172.332.278.801.41 1.422.41H0v.899h-5.469v-.899h.848a1.8 1.8 0 0 1-.738-.73q-.242-.451-.243-1.11c0-.062.012-.132.012-.21.012-.07.02-.153.04-.25Zm0 0"/><path id="N" d="M-4.84-3.059q.001.72.57 1.137.568.422 1.54.422c.66 0 1.171-.129 1.55-.41.38-.281.559-.66.559-1.149 0-.48-.18-.863-.559-1.14-.379-.281-.89-.422-1.55-.422-.641 0-1.16.14-1.54.422-.378.277-.57.66-.57 1.14m-.762 0c0-.78.262-1.39.762-1.84.512-.44 1.211-.671 2.11-.671.902 0 1.601.23 2.101.672.508.449.758 1.058.758 1.84 0 .788-.25 1.41-.758 1.847q-.75.66-2.101.66c-.899 0-1.598-.219-2.11-.66-.5-.437-.762-1.059-.762-1.848m0 0"/><path id="O" d="M-3.3-5.488H0v.898h-3.27c-.52 0-.902.11-1.16.309-.261.203-.39.5-.39.902 0 .488.16.867.468 1.149.313.28.73.421 1.262.421H0v.899h-5.469v-.899h.848c-.32-.21-.57-.46-.73-.761a2.06 2.06 0 0 1-.25-1.008c0-.621.203-1.102.59-1.422.39-.32.96-.488 1.71-.488m0 0"/></defs><g clip-path="url(#a)"><path fill="#FFF" d="M0 230.398h748.8V0H0Zm0 0"/></g><path fill="#EAEAF2" d="M37.34 197.738H747.3V1.5H37.34Zm0 0"/><g clip-path="url(#b)"><path fill="none" stroke="#FFF" stroke-linecap="round" stroke-linejoin="round" stroke-miterlimit="10" stroke-width=".8" d="M98.031 197.738V1.5"/></g><g fill="#262626"><use xlink:href="#c" x="94.27" y="212.334"/><use xlink:href="#d" x="100.63" y="212.334"/><use xlink:href="#e" x="103.81" y="212.334"/></g><path fill="#262626" d="M86.953 208.785h6.258v.828h-6.258Zm0 0"/><g clip-path="url(#f)"><path fill="none" stroke="#FFF" stroke-linecap="round" stroke-linejoin="round" stroke-miterlimit="10" stroke-width=".8" d="M183.246 197.738V1.5"/></g><g fill="#262626"><use xlink:href="#c" x="179.485" y="212.334"/><use xlink:href="#d" x="185.845" y="212.334"/><use xlink:href="#g" x="189.025" y="212.334"/></g><path fill="#262626" d="M172.164 208.785h6.262v.828h-6.262Zm0 0"/><g clip-path="url(#h)"><path fill="none" stroke="#FFF" stroke-linecap="round" stroke-linejoin="round" stroke-miterlimit="10" stroke-width=".8" d="M268.46 197.738V1.5"/></g><g fill="#262626"><use xlink:href="#g" x="264.699" y="212.334"/><use xlink:href="#d" x="271.059" y="212.334"/><use xlink:href="#e" x="274.239" y="212.334"/></g><path fill="#262626" d="M257.379 208.785h6.262v.828h-6.262Zm0 0"/><g clip-path="url(#i)"><path fill="none" stroke="#FFF" stroke-linecap="round" stroke-linejoin="round" stroke-miterlimit="10" stroke-width=".8" d="M353.676 197.738V1.5"/></g><g fill="#262626"><use xlink:href="#g" x="345.722" y="212.334"/><use xlink:href="#d" x="352.082" y="212.334"/><use xlink:href="#g" x="355.262" y="212.334"/></g><g clip-path="url(#j)"><path fill="none" stroke="#FFF" stroke-linecap="round" stroke-linejoin="round" stroke-miterlimit="10" stroke-width=".8" d="M438.89 197.738V1.5"/></g><g fill="#262626"><use xlink:href="#g" x="430.937" y="212.334"/><use xlink:href="#d" x="437.297" y="212.334"/><use xlink:href="#e" x="440.477" y="212.334"/></g><g clip-path="url(#k)"><path fill="none" stroke="#FFF" stroke-linecap="round" stroke-linejoin="round" stroke-miterlimit="10" stroke-width=".8" d="M524.105 197.738V1.5"/></g><g fill="#262626"><use xlink:href="#c" x="516.151" y="212.334"/><use xlink:href="#d" x="522.511" y="212.334"/><use xlink:href="#g" x="525.691" y="212.334"/></g><g clip-path="url(#l)"><path fill="none" stroke="#FFF" stroke-linecap="round" stroke-linejoin="round" stroke-miterlimit="10" stroke-width=".8" d="M609.32 197.738V1.5"/></g><g fill="#262626"><use xlink:href="#c" x="601.366" y="212.334"/><use xlink:href="#d" x="607.726" y="212.334"/><use xlink:href="#e" x="610.906" y="212.334"/></g><g clip-path="url(#m)"><path fill="none" stroke="#FFF" stroke-linecap="round" stroke-linejoin="round" stroke-miterlimit="10" stroke-width=".8" d="M694.535 197.738V1.5"/></g><g fill="#262626"><use xlink:href="#n" x="686.58" y="212.334"/><use xlink:href="#d" x="692.94" y="212.334"/><use xlink:href="#g" x="696.12" y="212.334"/></g><g fill="#262626"><use xlink:href="#o" x="372.226" y="226.006"/><use xlink:href="#p" x="379.706" y="226.006"/><use xlink:href="#q" x="386.046" y="226.006"/><use xlink:href="#r" x="395.786" y="226.006"/><use xlink:href="#s" x="402.136" y="226.006"/><use xlink:href="#t" x="408.286" y="226.006"/></g><g clip-path="url(#u)"><path fill="none" stroke="#FFF" stroke-linecap="round" stroke-linejoin="round" stroke-miterlimit="10" stroke-width=".8" d="M37.34 184.094H747.3"/></g><use xlink:href="#n" x="23.985" y="187.892" fill="#262626"/><path fill="#262626" d="M16.664 184.344h6.262v.828h-6.262Zm0 0"/><g clip-path="url(#v)"><path fill="none" stroke="#FFF" stroke-linecap="round" stroke-linejoin="round" stroke-miterlimit="10" stroke-width=".8" d="M37.34 140.773H747.3"/></g><use xlink:href="#g" x="23.981" y="144.571" fill="#262626"/><g clip-path="url(#w)"><path fill="none" stroke="#FFF" stroke-linecap="round" stroke-linejoin="round" stroke-miterlimit="10" stroke-width=".8" d="M37.34 97.453H747.3"/></g><use xlink:href="#n" x="23.981" y="101.25" fill="#262626"/><g clip-path="url(#x)"><path fill="none" stroke="#FFF" stroke-linecap="round" stroke-linejoin="round" stroke-miterlimit="10" stroke-width=".8" d="M37.34 54.133H747.3"/></g><use xlink:href="#y" x="23.981" y="57.929" fill="#262626"/><g clip-path="url(#z)"><path fill="none" stroke="#FFF" stroke-linecap="round" stroke-linejoin="round" stroke-miterlimit="10" stroke-width=".8" d="M37.34 10.813H747.3"/></g><use xlink:href="#A" x="23.981" y="14.608" fill="#262626"/><use xlink:href="#B" x="9.527" y="168.417" fill="#262626"/><g fill="#262626"><use xlink:href="#C" x="9.527" y="159.167"/><use xlink:href="#D" x="9.527" y="153.037"/><use xlink:href="#E" x="9.527" y="150.257"/><use xlink:href="#F" x="9.527" y="146.338"/><use xlink:href="#E" x="9.527" y="143.157"/><use xlink:href="#D" x="9.527" y="139.238"/><use xlink:href="#G" x="9.527" y="136.458"/><use xlink:href="#H" x="9.527" y="126.718"/><use xlink:href="#I" x="9.527" y="120.567"/><use xlink:href="#F" x="9.527" y="117.388"/><use xlink:href="#J" x="9.527" y="114.207"/><use xlink:href="#H" x="9.527" y="107.858"/><use xlink:href="#K" x="9.527" y="101.707"/><use xlink:href="#E" x="9.527" y="98.927"/><use xlink:href="#C" x="9.527" y="95.007"/><use xlink:href="#F" x="9.527" y="88.877"/><use xlink:href="#L" x="9.527" y="85.698"/><use xlink:href="#M" x="9.527" y="82.177"/></g><g fill="#262626"><use xlink:href="#N" x="9.527" y="78.286"/><use xlink:href="#G" x="9.527" y="72.166"/><use xlink:href="#F" x="9.527" y="62.426"/><use xlink:href="#G" x="9.527" y="59.246"/><use xlink:href="#H" x="9.527" y="49.506"/><use xlink:href="#C" x="9.527" y="43.356"/><use xlink:href="#O" x="9.527" y="37.226"/></g><g clip-path="url(#P)"><path fill="#FF0029" d="M184.797 197.738h.719V1.5h-.72Zm0 0"/></g><g clip-path="url(#Q)"><path fill="#FF0200" d="M532.203 197.738h.719V1.5h-.719Zm0 0"/></g><g clip-path="url(#R)"><path fill="#F30" d="M363.953 197.738h.719V1.5h-.719Zm0 0"/></g><g clip-path="url(#S)"><path fill="#FF6300" d="M309.102 197.738h.718V1.5h-.718Zm0 0"/></g><g clip-path="url(#T)"><path fill="#FF9400" d="M242.93 197.738h.718V1.5h-.718Zm0 0"/></g><g clip-path="url(#U)"><path fill="#FFC400" d="M351.969 197.738h.719V1.5h-.72Zm0 0"/></g><g clip-path="url(#V)"><path fill="#FFF000" d="M592.348 197.738h.718V1.5h-.718Zm0 0"/></g><g clip-path="url(#W)"><path fill="#DEFF00" d="M295.64 197.738h.723V1.5h-.722Zm0 0"/></g><g clip-path="url(#X)"><path fill="#ADFF00" d="M333.738 197.738h.719V1.5h-.719Zm0 0"/></g><g clip-path="url(#Y)"><path fill="#7CFF00" d="M312.82 197.738h.72V1.5h-.72Zm0 0"/></g><g clip-path="url(#Z)"><path fill="#4CFF00" d="M115.918 197.738h.719V1.5h-.719Zm0 0"/></g><g clip-path="url(#aa)"><path fill="#1BFF00" d="M493.098 197.738h.718V1.5h-.718Zm0 0"/></g><g clip-path="url(#ab)"><path fill="#00FF10" d="M138.883 197.738h.719V1.5h-.72Zm0 0"/></g><g clip-path="url(#ac)"><path fill="#00FF41" d="M497.574 197.738h.719V1.5h-.719Zm0 0"/></g><g clip-path="url(#ad)"><path fill="#00FF71" d="M501.156 197.738h.719V1.5h-.719Zm0 0"/></g><g clip-path="url(#ae)"><path fill="#00FFA1" d="M202.367 197.738h.723V1.5h-.723Zm0 0"/></g><g clip-path="url(#af)"><path fill="#00FFD2" d="M631.297 197.738h.719V1.5h-.72Zm0 0"/></g><g clip-path="url(#ag)"><path fill="#00FCFF" d="M344.414 197.738h.723V1.5h-.723Zm0 0"/></g><g clip-path="url(#ah)"><path fill="#00D0FF" d="M266.402 197.738h.72V1.5h-.72Zm0 0"/></g><g clip-path="url(#ai)"><path fill="#00A0FF" d="M411.242 197.738h.719V1.5h-.719Zm0 0"/></g><g clip-path="url(#aj)"><path fill="#006FFF" d="M255.762 197.738h.718V1.5h-.718Zm0 0"/></g><g clip-path="url(#ak)"><path fill="#003EFF" d="M182.555 197.738h.718V1.5h-.718Zm0 0"/></g><g clip-path="url(#al)"><path fill="#000DFF" d="M355.727 197.738h.718V1.5h-.718Zm0 0"/></g><g clip-path="url(#am)"><path fill="#2400FF" d="M129.598 197.738h.718V1.5h-.718Zm0 0"/></g><g clip-path="url(#an)"><path fill="#5000FF" d="M309.7 197.738h.718V1.5h-.719Zm0 0"/></g><g clip-path="url(#ao)"><path fill="#8100FF" d="M530.973 197.738h.718V1.5h-.718Zm0 0"/></g><g clip-path="url(#ap)"><path fill="#B100FF" d="M44.176 197.738h.719V1.5h-.72Zm0 0"/></g><g clip-path="url(#aq)"><path fill="#E200FF" d="M636.332 197.738h.719V1.5h-.719Zm0 0"/></g><g clip-path="url(#ar)"><path fill="#FF00EB" d="M739.746 197.738h.719V1.5h-.719Zm0 0"/></g><g clip-path="url(#as)"><path fill="#FF00BF" d="M314.598 197.738h.718V1.5h-.718Zm0 0"/></g><path fill="#F77189" stroke="#FFF" stroke-miterlimit="10" stroke-width=".6" d="M177.96 140.773h7.196v-15.187h-7.195ZM525.367 140.773h7.196v-16.335h-7.196Zm0 0"/><path fill="#32B166" stroke="#FFF" stroke-miterlimit="10" stroke-width=".6" d="M357.117 140.773h7.195v29.579h-7.195ZM302.266 140.773h7.195v28.91h-7.195Zm0 0"/><path fill="#F77189" stroke="#FFF" stroke-miterlimit="10" stroke-width=".6" d="M236.094 140.773h7.195V79.102h-7.195Zm0 0"/><path fill="#32B166" stroke="#FFF" stroke-miterlimit="10" stroke-width=".6" d="M345.133 140.773h7.195v44.11h-7.195ZM585.512 140.773h7.195v21.059h-7.195Zm0 0"/><path fill="#F77189" stroke="#FFF" stroke-miterlimit="10" stroke-width=".6" d="M288.805 140.773H296V73.47h-7.195Zm0 0"/><path fill="#32B166" stroke="#FFF" stroke-miterlimit="10" stroke-width=".6" d="M326.902 140.773h7.196v19.196h-7.196ZM305.984 140.773h7.196v18.844h-7.196Zm0 0"/><path fill="#F77189" stroke="#FFF" stroke-miterlimit="10" stroke-width=".6" d="M109.082 140.773h7.195V94.027h-7.195ZM486.262 140.773h7.195v-24.425h-7.195Zm0 0"/><path fill="#32B166" stroke="#FFF" stroke-miterlimit="10" stroke-width=".6" d="M132.047 140.773h7.195V158.7h-7.195ZM490.738 140.773h7.196v40.055h-7.196Zm0 0"/><path fill="#32B166" stroke="#FFF" stroke-miterlimit="10" stroke-width=".6" d="M494.32 140.773h7.196v18.004h-7.196ZM195.535 140.773h7.195v17.73h-7.195ZM624.46 140.773h7.196v17.895h-7.195ZM337.578 140.773h7.2v18.895h-7.2ZM259.566 140.773h7.196v19.434h-7.196ZM404.406 140.773h7.196v41.61h-7.196Zm0 0"/><path fill="#F77189" stroke="#FFF" stroke-miterlimit="10" stroke-width=".6" d="M248.926 140.773h7.195V74.016h-7.195ZM175.719 140.773h7.195V10.422h-7.195Zm0 0"/><path fill="#32B166" stroke="#FFF" stroke-miterlimit="10" stroke-width=".6" d="M348.89 140.773h7.196v21.707h-7.195ZM122.762 140.773h7.195v45.082h-7.195Zm0 0"/><path fill="#F77189" stroke="#FFF" stroke-miterlimit="10" stroke-width=".6" d="M302.863 140.773h7.196v-19.082h-7.196Zm0 0"/><path fill="#32B166" stroke="#FFF" stroke-miterlimit="10" stroke-width=".6" d="M524.137 140.773h7.195v48.047h-7.195Zm0 0"/><g clip-path="url(#at)"><path fill="#F77189" d="M37.34 140.773h7.195v-36.808H37.34Zm0 0"/></g><g clip-path="url(#au)"><path fill="none" stroke="#FFF" stroke-miterlimit="10" stroke-width=".6" d="M37.34 140.773h7.195v-36.808H37.34Zm0 0"/></g><path fill="#F77189" stroke="#FFF" stroke-miterlimit="10" stroke-width=".6" d="M629.496 140.773h7.195v-14.238h-7.195Zm0 0"/><path fill="#32B166" stroke="#FFF" stroke-miterlimit="10" stroke-width=".6" d="M732.91 140.773h7.195v25.293h-7.195ZM307.762 140.773h7.195v7.512h-7.195Zm0 0"/><path fill="none" stroke="#FFF" stroke-linecap="square" stroke-miterlimit="10" stroke-width=".8" d="M37.34 197.738V1.5M747.3 197.738V1.5M37.34 197.738H747.3M37.34 1.5H747.3"/></svg>