<svg xmlns="http://www.w3.org/2000/svg" xmlns:xlink="http://www.w3.org/1999/xlink" width="288" height="288" viewBox="0 0 216 216"><defs><path id="b" d="M3.18-6.64q-.761 0-1.149.75c-.261.5-.383 1.25-.383 2.25s.122 1.75.383 2.25q.386.75 1.149.75c.511 0 .89-.25 1.148-.75.25-.5.383-1.25.383-2.25s-.133-1.75-.383-2.25c-.258-.5-.637-.75-1.148-.75m0-.782c.808 0 1.43.332 1.87.973.43.648.65 1.59.65 2.808 0 1.23-.22 2.172-.65 2.813-.44.637-1.062.957-1.878.957Q1.943.129 1.3-.828C.87-1.468.66-2.41.66-3.641c0-1.218.21-2.16.64-2.808.43-.64 1.058-.973 1.879-.973m0 0"/><path id="d" d="M1.922-.828h3.437V0H.73v-.828c.372-.383.88-.902 1.532-1.563A72 72 0 0 0 3.48-3.648q.48-.528.66-.903c.122-.238.188-.488.188-.73 0-.38-.137-.7-.406-.938-.274-.242-.621-.37-1.063-.37-.308 0-.64.058-.98.16q-.51.162-1.098.488v-1q.6-.238 1.11-.36c.34-.078.66-.12.949-.12q1.126 0 1.8.57c.45.382.68.882.68 1.511 0 .3-.058.59-.172.852-.109.27-.308.59-.609.949-.078.098-.34.367-.777.82-.442.45-1.051 1.078-1.84 1.89m0 0"/><path id="e" d="M1.078-7.29H4.95v.83H1.98v1.788c.141-.047.29-.09.43-.11.14-.019.29-.038.43-.038.808 0 1.45.23 1.93.672.48.449.718 1.046.718 1.808 0 .79-.25 1.399-.738 1.828-.488.434-1.18.64-2.059.64-.312 0-.62-.026-.941-.07a5.6 5.6 0 0 1-.98-.23v-.988q.432.24.91.36c.308.081.64.109.992.109.558 0 1.008-.137 1.34-.438.316-.3.488-.7.488-1.21 0-.5-.172-.9-.488-1.2-.332-.3-.782-.45-1.34-.45a3.4 3.4 0 0 0-.793.09 4.4 4.4 0 0 0-.8.27Zm0 0"/><path id="h" d="M.82-7.29h4.692v.419L2.859 0H1.83L4.32-6.46H.82Zm0 0"/><path id="j" d="M1.238-.828h1.614v-5.563l-1.75.352v-.902L2.84-7.29h.988v6.46h1.613V0H1.238Zm0 0"/><path id="k" d="M.98-7.29h.989V0H.98Zm0 0"/><path id="l" d="M5.488-3.3V0H4.59v-3.27c0-.52-.11-.902-.309-1.16-.203-.261-.5-.39-.902-.39-.488 0-.867.16-1.149.468-.28.313-.421.73-.421 1.262V0H.91v-5.469h.899v.848c.21-.32.46-.57.761-.73.29-.16.63-.25 1.008-.25.621 0 1.102.203 1.422.59.32.39.488.96.488 1.71m0 0"/><path id="m" d="M1.828-7.02v1.551H3.68v.7H1.828v2.968c0 .45.063.742.184.86.117.132.367.191.75.191h.918V0h-.918Q1.707 0 1.32-.39C1.06-.649.93-1.122.93-1.8v-2.97H.27v-.699h.66v-1.55Zm0 0"/><path id="n" d="M5.621-2.96v.44H1.488c.043.622.223 1.098.563 1.418q.49.48 1.39.48c.34 0 .68-.038 1-.116.32-.082.649-.211.97-.39v.847c-.321.14-.65.25-.99.312a6 6 0 0 1-1.03.098c-.88 0-1.57-.25-2.082-.75C.8-1.121.55-1.81.55-2.68Q.55-4.016 1.27-4.809c.48-.52 1.14-.793 1.96-.793.739 0 1.32.243 1.75.711.418.48.641 1.121.641 1.93M4.72-3.22c-.008-.492-.149-.883-.41-1.18-.27-.292-.63-.44-1.07-.44-.5 0-.9.148-1.2.429s-.48.68-.52 1.191Zm0 0"/><path id="o" d="M4.11-4.629a1.2 1.2 0 0 0-.329-.133c-.12-.02-.25-.039-.39-.039-.512 0-.903.172-1.172.5-.278.332-.41.801-.41 1.422V0H.91v-5.469h.899v.848c.18-.328.43-.578.73-.738q.451-.242 1.11-.243c.062 0 .132.012.21.012.07.012.153.02.25.04Zm0 0"/><path id="p" d="M3.43-2.75c-.73 0-1.23.09-1.508.25-.281.172-.422.45-.422.852 0 .32.102.578.309.757.21.192.5.282.863.282.5 0 .898-.172 1.2-.532.3-.347.448-.82.448-1.41v-.199Zm1.789-.371V0H4.32v-.828c-.21.34-.468.578-.77.726-.3.153-.679.23-1.12.23-.559 0-1.008-.148-1.34-.456C.762-.641.602-1.058.602-1.59c0-.61.199-1.07.617-1.39.41-.31 1.02-.47 1.84-.47H4.32v-.09c0-.41-.14-.73-.41-.96-.27-.219-.648-.34-1.14-.34-.32 0-.622.04-.918.121-.301.078-.582.188-.852.328v-.828c.32-.12.64-.222.95-.281a5 5 0 0 1 .91-.102c.788 0 1.378.211 1.769.622.39.41.59 1.03.59 1.859m0 0"/><path id="q" d="M.941-7.602h.899V0H.94Zm0 0"/><path id="s" d="M-.02-7.29h6.16v.83H3.55V0H2.56v-6.46H-.02Zm0 0"/><path id="t" d="M.941-5.469h.899V0H.94Zm0-2.133h.899v1.141H.94Zm0 0"/><path id="u" d="M4.879-5.262v.84a3.6 3.6 0 0 0-.77-.308 2.9 2.9 0 0 0-.77-.11c-.577 0-1.038.192-1.359.559-.32.37-.48.89-.48 1.55q0 1.008.48 1.56c.32.37.782.55 1.36.55.262 0 .512-.027.77-.098.261-.07.511-.18.769-.32v.828c-.258.121-.52.211-.777.262a4.7 4.7 0 0 1-.864.078c-.816 0-1.476-.25-1.957-.77-.492-.507-.73-1.21-.73-2.09 0-.89.238-1.59.73-2.097.489-.512 1.16-.774 2.02-.774.277 0 .55.032.808.09.262.063.52.14.77.25m0 0"/><path id="v" d="M.91-7.602h.899v4.493l2.68-2.36H5.64L2.738-2.91 5.762 0H4.59L1.809-2.672V0H.91Zm0 0"/><path id="w" d="M4.43-5.309v.848a5 5 0 0 0-.79-.289 4 4 0 0 0-.85-.102c-.45 0-.79.07-1.009.211a.67.67 0 0 0-.332.61c0 .21.082.37.242.492.16.117.48.238.957.34l.313.07c.64.14 1.09.34 1.36.578.257.25.398.602.398 1.04q0 .765-.598 1.202c-.402.297-.96.438-1.66.438-.3 0-.602-.027-.922-.078a6 6 0 0 1-1-.25v-.93q.499.27.98.39c.32.09.641.13.961.13.418 0 .75-.07.98-.211a.7.7 0 0 0 .34-.621c0-.239-.09-.43-.25-.559s-.519-.262-1.081-.379l-.309-.07c-.558-.121-.969-.301-1.21-.54-.25-.241-.372-.57-.372-1 0-.511.184-.91.543-1.19q.54-.423 1.559-.423c.332 0 .64.032.941.082q.434.077.809.211m0 0"/><path id="z" d="M3.3-4.04c-.44 0-.788.161-1.05.462-.262.297-.39.719-.39 1.238q-.002.798.39 1.25.391.45 1.05.45.658 0 1.052-.45.386-.452.386-1.25c0-.52-.129-.941-.386-1.238-.262-.3-.614-.461-1.051-.461m1.962-3.089v.899a3.441 3.441 0 0 0-1.5-.36q-.99 0-1.5.66c-.34.442-.543 1.11-.582 1.989.191-.278.43-.5.718-.649.293-.148.614-.23.961-.23.73 0 1.313.23 1.73.672.423.437.641 1.046.641 1.808 0 .75-.23 1.352-.671 1.8C4.62-.09 4.03.13 3.3.13c-.84 0-1.492-.32-1.93-.957C.921-1.468.7-2.41.7-3.641c0-1.148.27-2.07.82-2.75.54-.68 1.282-1.03 2.2-1.03.242 0 .492.03.75.07.25.05.511.12.793.222m0 0"/><path id="C" d="M3.18-3.46c-.47 0-.84.132-1.11.382s-.398.59-.398 1.027c0 .442.129.79.398 1.04.27.25.64.37 1.11.37.46 0 .832-.12 1.101-.379.27-.25.41-.59.41-1.03 0-.438-.14-.778-.402-1.028-.27-.25-.64-.383-1.11-.383M2.19-3.88q-.63-.153-.992-.59C.961-4.762.852-5.109.852-5.53c0-.578.199-1.04.617-1.38q.615-.51 1.71-.51 1.08 0 1.712.51c.41.34.62.802.62 1.38 0 .422-.12.77-.363 1.062-.238.29-.558.489-.976.59q.704.166 1.11.649c.257.32.398.718.398 1.18 0 .71-.22 1.25-.649 1.62C4.59-.05 3.97.13 3.171.13c-.8 0-1.421-.18-1.85-.559Q.677-.985.68-2.05c0-.462.129-.86.398-1.18.262-.32.633-.54 1.113-.649M1.828-5.44c0 .382.113.68.352.89.242.211.57.313 1 .313.422 0 .75-.102.992-.313q.359-.316.36-.89c0-.38-.122-.668-.36-.88-.242-.21-.57-.32-.992-.32-.43 0-.758.11-1 .32-.239.212-.352.5-.352.88m0 0"/><path id="E" d="M1.102-.148v-.903q.357.182.75.27.375.092.75.09c.636 0 1.136-.207 1.476-.649.344-.441.543-1.101.602-2q-.301.424-.72.649c-.288.152-.608.222-.96.222q-1.109-.002-1.738-.66-.633-.66-.633-1.812c0-.739.223-1.34.66-1.797.441-.453 1.031-.684 1.77-.684.84 0 1.492.332 1.93.973.44.648.671 1.59.671 2.808 0 1.16-.281 2.07-.82 2.75Q4.017.13 2.64.13c-.25 0-.5-.027-.75-.07-.261-.04-.519-.11-.788-.207m1.957-3.09q.663-.002 1.05-.453c.262-.297.391-.72.391-1.25 0-.52-.129-.938-.39-1.239-.258-.3-.61-.46-1.051-.46-.438 0-.79.16-1.047.46-.262.301-.39.72-.39 1.239 0 .53.128.953.39 1.25.258.3.61.453 1.047.453m0 0"/><path id="P" d="M6.441-6.73v1.039a4 4 0 0 0-1.07-.688 3.2 3.2 0 0 0-1.191-.23q-1.26 0-1.918.77c-.442.51-.66 1.237-.66 2.198q-.001 1.443.66 2.211c.437.508 1.078.758 1.918.758.422 0 .808-.066 1.191-.226.379-.153.73-.383 1.07-.692v1.031c-.351.239-.722.41-1.101.52-.38.11-.79.168-1.219.168-1.101 0-1.973-.328-2.61-1C.872-1.54.56-2.461.56-3.641c0-1.168.312-2.09.953-2.77.636-.667 1.508-1.01 2.61-1.01.437 0 .847.062 1.23.171.378.121.75.29 1.09.52m0 0"/><path id="Q" d="M.98-7.29h1.47l1.859 4.962 1.87-4.961h1.47V0H6.69v-6.398l-1.882 5H3.82l-1.879-5V0h-.96Zm0 0"/><path id="R" d="M.98-7.29h.989v6.462h3.55V0H.98Zm0 0"/><path id="S" d="M5.352-7.05v.96a6.5 6.5 0 0 0-1.063-.398 4.1 4.1 0 0 0-.96-.133c-.54 0-.958.11-1.25.312-.29.207-.43.508-.43.887 0 .32.09.57.292.73.188.172.559.301 1.098.403l.602.117c.73.14 1.27.39 1.62.742.348.36.528.828.528 1.418 0 .711-.238 1.242-.71 1.602Q4.363.13 3 .129a6.3 6.3 0 0 1-1.11-.11C1.5-.05 1.103-.16.692-.32V-1.34q.6.344 1.168.512c.38.117.762.168 1.141.168.559 0 .988-.11 1.3-.328.302-.223.462-.532.462-.953 0-.36-.114-.637-.332-.84q-.329-.299-1.078-.45l-.602-.12q-1.106-.207-1.602-.688C.82-4.352.66-4.781.66-5.34c0-.641.219-1.15.68-1.52.45-.371 1.082-.563 1.879-.563.34 0 .68.031 1.043.094.347.058.707.156 1.09.277m0 0"/><path id="F" d="m-6.32-3.422 3.629 1.344v-2.684Zm-.97.563V-3.98L0-6.762v1.032l-1.871.66v3.289L0-1.121v1.043Zm0 0"/><path id="G" d="M-5.262-4.879h.84a3.6 3.6 0 0 0-.308.77c-.07.257-.11.507-.11.77 0 .577.192 1.038.559 1.359.37.32.89.48 1.55.48q1.008 0 1.56-.48c.37-.32.55-.782.55-1.36 0-.262-.027-.512-.098-.77a3.5 3.5 0 0 0-.32-.769h.828c.121.258.211.52.262.777q.077.412.078.864c0 .816-.25 1.476-.77 1.957-.507.492-1.21.73-2.09.73-.89 0-1.59-.238-2.097-.73-.512-.489-.774-1.16-.774-2.02 0-.277.032-.55.09-.808.063-.262.14-.52.25-.77m0 0"/><path id="H" d="M-2.16-.852H-5.47v-.898h3.278c.52 0 .902-.102 1.16-.3.261-.2.39-.5.39-.91 0-.481-.148-.868-.46-1.15-.31-.28-.727-.421-1.27-.421H-5.47v-.899H0v.899h-.84c.34.222.578.48.738.761q.23.434.23 1c0 .63-.187 1.11-.577 1.43-.38.328-.95.488-1.711.488m-3.442-2.257"/><path id="I" d="M-4.629-4.11c-.062.098-.101.212-.133.329-.02.12-.039.25-.039.39 0 .512.172.903.5 1.172.332.278.801.41 1.422.41H0v.899h-5.469v-.899h.848a1.8 1.8 0 0 1-.738-.73q-.242-.451-.243-1.11c0-.062.012-.132.012-.21.012-.07.02-.153.04-.25Zm0 0"/><path id="J" d="M-2.75-3.43c0 .73.09 1.23.25 1.508.172.281.45.422.852.422.32 0 .578-.102.757-.309.192-.21.282-.5.282-.863 0-.5-.172-.898-.532-1.2-.347-.3-.82-.448-1.41-.448h-.199Zm-.371-1.789H0v.899h-.828c.34.21.578.468.726.77.153.3.23.679.23 1.12 0 .559-.148 1.008-.456 1.34-.313.328-.73.488-1.262.488-.61 0-1.07-.199-1.39-.617-.31-.41-.47-1.02-.47-1.84V-4.32h-.09c-.41 0-.73.14-.96.41-.219.27-.34.648-.34 1.14 0 .32.04.622.121.918.078.301.188.582.328.852h-.828a6 6 0 0 1-.281-.95 5 5 0 0 1-.102-.91c0-.788.211-1.378.622-1.769.41-.39 1.03-.59 1.859-.59m0 0"/><path id="K" d="M.5-3.219c.64.258 1.07.508 1.27.75q.3.36.3.957v.723h-.75v-.531q.002-.36-.18-.57c-.12-.141-.39-.29-.831-.462l-.399-.16L-5.469-.3v-.949l4.278-1.71-4.278-1.712v-.95Zm0 0"/><path id="M" d="M-7.59-3.102c.762.442 1.5.762 2.23.973a7.7 7.7 0 0 0 2.22.32c.761 0 1.5-.101 2.23-.32a9.5 9.5 0 0 0 2.219-.973v.782c-.77.492-1.508.86-2.25 1.101a7.1 7.1 0 0 1-2.2.36q-1.078 0-2.187-.36A9.6 9.6 0 0 1-7.59-2.32Zm0 0"/><path id="N" d="M-3.21-7.27c0 .282.12.508.358.668q.366.242 1.012.243c.418 0 .762-.082 1-.243a.77.77 0 0 0 .36-.668q-.001-.42-.36-.66c-.238-.16-.582-.242-1-.242-.422 0-.762.082-1 .242s-.37.38-.37.66m-.618 0c0-.511.18-.921.539-1.218.36-.301.848-.461 1.45-.461.609 0 1.089.16 1.44.46.36.298.528.708.528 1.22 0 .519-.168.94-.527 1.238q-.527.452-1.442.453c-.61 0-1.09-.152-1.45-.453-.358-.297-.538-.719-.538-1.239m-2.973 5.04c0 .28.13.5.371.66q.36.241.989.242c.441 0 .77-.082 1.011-.242a.76.76 0 0 0 .36-.66.77.77 0 0 0-.36-.668c-.242-.16-.57-.243-1.011-.243-.418 0-.75.09-.989.25-.242.16-.37.38-.37.66m-.62-4.41v-.782l7.55 4.563v.78Zm0 4.41q.002-.762.542-1.23c.36-.302.84-.462 1.438-.462.62 0 1.101.16 1.46.461.36.3.532.711.532 1.23 0 .52-.172.93-.531 1.231-.36.3-.84.45-1.461.45Q-6.34-.55-6.88-1q-.542-.45-.543-1.23m0 0"/><path id="O" d="M-7.59-.8v-.778c.77-.48 1.52-.852 2.262-1.094a7.1 7.1 0 0 1 2.187-.367c.73 0 1.461.129 2.2.367.742.242 1.48.613 2.25 1.094v.777c-.75-.43-1.48-.75-2.22-.969a8 8 0 0 0-2.23-.32c-.75 0-1.488.11-2.218.32-.73.22-1.47.54-2.23.97m0 0"/><clipPath id="a"><path d="M40 1h2v182.84h-2Zm0 0"/></clipPath><clipPath id="c"><path d="M81 1h2v182.84h-2Zm0 0"/></clipPath><clipPath id="f"><path d="M122 1h2v182.84h-2Zm0 0"/></clipPath><clipPath id="g"><path d="M163 1h2v182.84h-2Zm0 0"/></clipPath><clipPath id="i"><path d="M204 1h2v182.84h-2Zm0 0"/></clipPath><clipPath id="x"><path d="M34.77 161h178.343v2H34.77Zm0 0"/></clipPath><clipPath id="y"><path d="M34.77 128h178.343v1H34.77Zm0 0"/></clipPath><clipPath id="A"><path d="M34.77 94h178.343v2H34.77Zm0 0"/></clipPath><clipPath id="B"><path d="M34.77 61h178.343v2H34.77Zm0 0"/></clipPath><clipPath id="D"><path d="M34.77 28h178.343v2H34.77Zm0 0"/></clipPath></defs><path fill="#FFF" d="M-21.6-21.6h259.2v259.2H-21.6z"/><path fill="#EAEAF2" d="M34.77 183.84h178.343V1H34.77Zm0 0"/><g clip-path="url(#a)"><path fill="none" stroke="#FFF" stroke-linecap="round" stroke-linejoin="round" stroke-miterlimit="10" stroke-opacity=".5" stroke-width=".8" d="M41.238 183.84V1"/></g><use xlink:href="#b" x="38.059" y="198.434" fill="#262626"/><g clip-path="url(#c)"><path fill="none" stroke="#FFF" stroke-linecap="round" stroke-linejoin="round" stroke-miterlimit="10" stroke-opacity=".5" stroke-width=".8" d="M82.18 183.84V1"/></g><g fill="#262626"><use xlink:href="#d" x="75.822" y="198.434"/><use xlink:href="#e" x="82.182" y="198.434"/></g><g clip-path="url(#f)"><path fill="none" stroke="#FFF" stroke-linecap="round" stroke-linejoin="round" stroke-miterlimit="10" stroke-opacity=".5" stroke-width=".8" d="M123.125 183.84V1"/></g><g fill="#262626"><use xlink:href="#e" x="116.764" y="198.434"/><use xlink:href="#b" x="123.124" y="198.434"/></g><g clip-path="url(#g)"><path fill="none" stroke="#FFF" stroke-linecap="round" stroke-linejoin="round" stroke-miterlimit="10" stroke-opacity=".5" stroke-width=".8" d="M164.066 183.84V1"/></g><g fill="#262626"><use xlink:href="#h" x="157.706" y="198.434"/><use xlink:href="#e" x="164.066" y="198.434"/></g><g clip-path="url(#i)"><path fill="none" stroke="#FFF" stroke-linecap="round" stroke-linejoin="round" stroke-miterlimit="10" stroke-opacity=".5" stroke-width=".8" d="M205.008 183.84V1"/></g><g fill="#262626"><use xlink:href="#j" x="195.468" y="198.434"/><use xlink:href="#b" x="201.828" y="198.434"/><use xlink:href="#b" x="208.188" y="198.434"/></g><g fill="#262626"><use xlink:href="#k" x="90.465" y="212.106"/><use xlink:href="#l" x="93.415" y="212.106"/><use xlink:href="#m" x="99.755" y="212.106"/><use xlink:href="#n" x="103.675" y="212.106"/><use xlink:href="#o" x="109.825" y="212.106"/></g><g fill="#262626"><use xlink:href="#l" x="113.764" y="212.106"/><use xlink:href="#p" x="120.104" y="212.106"/><use xlink:href="#q" x="126.234" y="212.106"/><use xlink:href="#r" x="129.014" y="212.106"/><use xlink:href="#s" x="132.194" y="212.106"/></g><g fill="#262626"><use xlink:href="#t" x="138.007" y="212.106"/><use xlink:href="#u" x="140.787" y="212.106"/><use xlink:href="#v" x="146.287" y="212.106"/><use xlink:href="#w" x="152.077" y="212.106"/></g><g clip-path="url(#x)"><path fill="none" stroke="#FFF" stroke-linecap="round" stroke-linejoin="round" stroke-miterlimit="10" stroke-opacity=".5" stroke-width=".8" d="M34.77 161.813h178.343"/></g><g fill="#262626"><use xlink:href="#e" x="15.051" y="165.608"/><use xlink:href="#b" x="21.411" y="165.608"/></g><g clip-path="url(#y)"><path fill="none" stroke="#FFF" stroke-linecap="round" stroke-linejoin="round" stroke-miterlimit="10" stroke-opacity=".5" stroke-width=".8" d="M34.77 128.59h178.343"/></g><g fill="#262626"><use xlink:href="#z" x="15.051" y="132.386"/><use xlink:href="#b" x="21.411" y="132.386"/></g><g clip-path="url(#A)"><path fill="none" stroke="#FFF" stroke-linecap="round" stroke-linejoin="round" stroke-miterlimit="10" stroke-opacity=".5" stroke-width=".8" d="M34.77 95.367h178.343"/></g><g fill="#262626"><use xlink:href="#h" x="15.051" y="99.164"/><use xlink:href="#b" x="21.411" y="99.164"/></g><g clip-path="url(#B)"><path fill="none" stroke="#FFF" stroke-linecap="round" stroke-linejoin="round" stroke-miterlimit="10" stroke-opacity=".5" stroke-width=".8" d="M34.77 62.145h178.343"/></g><g fill="#262626"><use xlink:href="#C" x="15.051" y="65.942"/><use xlink:href="#b" x="21.411" y="65.942"/></g><g clip-path="url(#D)"><path fill="none" stroke="#FFF" stroke-linecap="round" stroke-linejoin="round" stroke-miterlimit="10" stroke-opacity=".5" stroke-width=".8" d="M34.77 28.922h178.343"/></g><g fill="#262626"><use xlink:href="#E" x="15.051" y="32.72"/><use xlink:href="#b" x="21.411" y="32.72"/></g><use xlink:href="#F" x="8.973" y="125.529" fill="#262626"/><g fill="#262626"><use xlink:href="#G" x="8.973" y="118.861"/><use xlink:href="#G" x="8.973" y="113.361"/><use xlink:href="#H" x="8.973" y="107.861"/><use xlink:href="#I" x="8.973" y="101.521"/><use xlink:href="#J" x="8.973" y="97.411"/><use xlink:href="#G" x="8.973" y="91.281"/><use xlink:href="#K" x="8.973" y="85.781"/><use xlink:href="#L" x="8.973" y="79.861"/><use xlink:href="#M" x="8.973" y="76.681"/><use xlink:href="#N" x="8.973" y="72.781"/><use xlink:href="#O" x="8.973" y="63.281"/></g><path fill="none" stroke="#000" stroke-linejoin="round" stroke-miterlimit="10" d="M42.875 130.691V95.707M57.617 90.16V60.855M82.18 51.086V27.813M123.125 40.316V20.852M164.066 26.43V9.313M205.008 39.586V13.102M45.875 130.691h-6M60.617 90.16h-6M85.18 51.086h-6M126.125 40.316h-6M167.066 26.43h-6M208.008 39.586h-6M45.875 95.707h-6M60.617 60.855h-6M85.18 27.813h-6M126.125 20.852h-6M167.066 9.313h-6M208.008 13.102h-6M42.875 135.273V99.586M57.617 155.852v-39.02M82.18 175.527v-41.843M123.125 158.29v-40.216M164.066 167.918V127.07M205.008 169.32v-40.86M45.875 135.273h-6M60.617 155.852h-6M85.18 175.527h-6M126.125 158.29h-6M167.066 167.918h-6M208.008 169.32h-6M45.875 99.586h-6M60.617 116.832h-6M85.18 133.684h-6M126.125 118.074h-6M167.066 127.07h-6M208.008 128.46h-6"/><path fill="none" stroke="#000" stroke-linecap="round" stroke-linejoin="round" stroke-miterlimit="10" stroke-width="1.5" d="m42.875 113.2 14.742-37.692L82.18 39.449l40.945-8.863 40.941-12.715 40.942 8.473"/><path stroke="#000" stroke-linejoin="round" stroke-miterlimit="10" d="M42.875 114.7c.398 0 .781-.16 1.063-.442a1.502 1.502 0 0 0 0-2.121 1.502 1.502 0 0 0-2.563 1.062 1.503 1.503 0 0 0 1.5 1.5ZM57.617 77.008a1.503 1.503 0 0 0 1.059-2.563 1.502 1.502 0 0 0-2.121 0 1.502 1.502 0 0 0 1.062 2.563ZM82.18 40.95c.398 0 .78-.16 1.062-.442a1.502 1.502 0 0 0 0-2.121 1.502 1.502 0 0 0-2.562 1.062 1.503 1.503 0 0 0 1.5 1.5ZM123.125 32.086a1.503 1.503 0 0 0 1.059-2.563 1.502 1.502 0 0 0-2.121 0 1.502 1.502 0 0 0 1.062 2.563ZM164.066 19.371c.399 0 .778-.16 1.059-.441a1.496 1.496 0 0 0-1.059-2.559c-.398 0-.78.156-1.062.438a1.502 1.502 0 0 0 1.062 2.562ZM205.008 27.844a1.505 1.505 0 0 0 1.5-1.5c0-.399-.16-.778-.442-1.059a1.496 1.496 0 0 0-2.558 1.059c0 .398.156.781.437 1.062s.664.438 1.063.438Zm0 0"/><path fill="none" stroke="#000" stroke-dasharray="5.55 2.4" stroke-linejoin="round" stroke-miterlimit="10" stroke-width="1.5" d="m42.875 117.43 14.742 18.91 24.563 18.265 40.945-16.425 40.941 9.312 40.942 1.399"/><path stroke="#000" stroke-linejoin="round" stroke-miterlimit="10" d="M42.875 118.93c.398 0 .781-.16 1.063-.442a1.502 1.502 0 0 0 0-2.121 1.502 1.502 0 0 0-2.563 1.063 1.503 1.503 0 0 0 1.5 1.5ZM57.617 137.84a1.5 1.5 0 1 0-1.5-1.5c0 .398.156.781.438 1.062.28.282.664.438 1.062.438ZM82.18 156.105c.398 0 .78-.156 1.062-.437a1.508 1.508 0 0 0 0-2.125 1.502 1.502 0 0 0-2.12 2.125 1.5 1.5 0 0 0 1.058.437ZM123.125 139.68a1.5 1.5 0 1 0-1.5-1.5c0 .398.156.78.438 1.062.28.281.664.438 1.062.438ZM164.066 148.992c.399 0 .778-.156 1.059-.437s.441-.664.441-1.063a1.503 1.503 0 0 0-2.562-1.058 1.502 1.502 0 0 0 0 2.121c.281.28.664.437 1.062.437ZM205.008 150.39c.398 0 .777-.156 1.058-.437s.442-.664.442-1.062c0-.399-.16-.782-.442-1.063a1.502 1.502 0 0 0-2.121 0 1.5 1.5 0 0 0-.437 1.063c0 .398.156.78.437 1.062.282.281.664.438 1.063.438Zm0 0"/><path fill="none" stroke="#FFF" stroke-linecap="square" stroke-miterlimit="10" stroke-width=".8" d="M34.77 183.84V1M213.113 183.84V1M34.77 183.84h178.343M34.77 1h178.343"/><path fill="#EAEAF2" fill-opacity=".8" stroke="#CCC" stroke-miterlimit="10" stroke-opacity=".8" d="M147.457 178.84h58.656c1.336 0 2-.668 2-2v-28.344c0-1.332-.664-2-2-2h-58.656q-1.999.001-2 2v28.344q.001 1.999 2 2Zm0 0"/><path fill="none" stroke="#000" stroke-linecap="round" stroke-linejoin="round" stroke-miterlimit="10" stroke-width="1.5" d="M149.457 154.59h20"/><g fill="#262626"><use xlink:href="#P" x="177.458" y="158.09"/><use xlink:href="#s" x="184.438" y="158.09"/><use xlink:href="#Q" x="190.548" y="158.09"/></g><path fill="none" stroke="#000" stroke-dasharray="5.55 2.4" stroke-linejoin="round" stroke-miterlimit="10" stroke-width="1.5" d="M149.457 169.262h20"/><g fill="#262626"><use xlink:href="#R" x="177.458" y="172.762"/><use xlink:href="#S" x="183.028" y="172.762"/><use xlink:href="#s" x="189.378" y="172.762"/><use xlink:href="#Q" x="195.488" y="172.762"/></g></svg>