<svg xmlns="http://www.w3.org/2000/svg" xmlns:xlink="http://www.w3.org/1999/xlink" width="672" height="268.8" viewBox="0 0 504 201.6"><defs><path id="b" d="M3.18-6.64q-.761 0-1.149.75c-.261.5-.383 1.25-.383 2.25s.122 1.75.383 2.25q.386.75 1.149.75c.511 0 .89-.25 1.148-.75.25-.5.383-1.25.383-2.25s-.133-1.75-.383-2.25c-.258-.5-.637-.75-1.148-.75m0-.782c.808 0 1.43.332 1.87.973.43.648.65 1.59.65 2.808 0 1.23-.22 2.172-.65 2.813-.44.637-1.062.957-1.878.957Q1.943.129 1.3-.828C.87-1.468.66-2.41.66-3.641c0-1.218.21-2.16.64-2.808.43-.64 1.058-.973 1.879-.973m0 0"/><path id="d" d="M1.238-.828h1.614v-5.563l-1.75.352v-.902L2.84-7.29h.988v6.46h1.613V0H1.238Zm0 0"/><path id="f" d="M1.922-.828h3.437V0H.73v-.828c.372-.383.88-.902 1.532-1.563A72 72 0 0 0 3.48-3.648q.48-.528.66-.903c.122-.238.188-.488.188-.73 0-.38-.137-.7-.406-.938-.274-.242-.621-.37-1.063-.37-.308 0-.64.058-.98.16q-.51.162-1.098.488v-1q.6-.238 1.11-.36c.34-.078.66-.12.949-.12q1.126 0 1.8.57c.45.382.68.882.68 1.511 0 .3-.058.59-.172.852-.109.27-.308.59-.609.949-.078.098-.34.367-.777.82-.442.45-1.051 1.078-1.84 1.89m0 0"/><path id="h" d="M4.059-3.93c.472.102.84.309 1.101.63.262.32.399.722.399 1.179 0 .723-.25 1.281-.739 1.672-.5.39-1.199.578-2.11.578a5 5 0 0 1-.948-.09c-.32-.05-.66-.14-1-.258v-.953c.27.16.566.281.898.363q.48.118 1.02.118.93.002 1.41-.36c.32-.238.488-.597.488-1.07 0-.418-.148-.758-.45-1-.3-.238-.718-.367-1.257-.367H2.02v-.813h.89c.48 0 .852-.09 1.11-.289q.39-.285.39-.84c0-.37-.14-.66-.398-.86q-.41-.298-1.14-.3-.407 0-.872.09a8 8 0 0 0-1.02.27v-.88c.372-.1.72-.18 1.051-.23.32-.05.63-.082.93-.082q1.107.001 1.77.512.66.51.66 1.379c0 .402-.121.742-.352 1.02-.23.28-.559.48-.98.581m0 0"/><path id="j" d="M3.781-6.43 1.29-2.54h2.492Zm-.261-.86h1.242v4.75H5.8v.821H4.76V0h-.98v-1.719H.488v-.953Zm0 0"/><path id="l" d="M1.078-7.29H4.95v.83H1.98v1.788c.141-.047.29-.09.43-.11.14-.019.29-.038.43-.038.808 0 1.45.23 1.93.672.48.449.718 1.046.718 1.808 0 .79-.25 1.399-.738 1.828-.488.434-1.18.64-2.059.64-.312 0-.62-.026-.941-.07a5.6 5.6 0 0 1-.98-.23v-.988q.432.24.91.36c.308.081.64.109.992.109.558 0 1.008-.137 1.34-.438.316-.3.488-.7.488-1.21 0-.5-.172-.9-.488-1.2-.332-.3-.782-.45-1.34-.45a3.4 3.4 0 0 0-.793.09 4.4 4.4 0 0 0-.8.27Zm0 0"/><path id="m" d="M.98-7.29h.989V0H.98Zm0 0"/><path id="n" d="M5.488-3.3V0H4.59v-3.27c0-.52-.11-.902-.309-1.16-.203-.261-.5-.39-.902-.39-.488 0-.867.16-1.149.468-.28.313-.421.73-.421 1.262V0H.91v-5.469h.899v.848c.21-.32.46-.57.761-.73.29-.16.63-.25 1.008-.25.621 0 1.102.203 1.422.59.32.39.488.96.488 1.71m0 0"/><path id="o" d="M1.828-7.02v1.551H3.68v.7H1.828v2.968c0 .45.063.742.184.86.117.132.367.191.75.191h.918V0h-.918Q1.707 0 1.32-.39C1.06-.649.93-1.122.93-1.8v-2.97H.27v-.699h.66v-1.55Zm0 0"/><path id="p" d="M5.621-2.96v.44H1.488c.043.622.223 1.098.563 1.418q.49.48 1.39.48c.34 0 .68-.038 1-.116.32-.082.649-.211.97-.39v.847c-.321.14-.65.25-.99.312a6 6 0 0 1-1.03.098c-.88 0-1.57-.25-2.082-.75C.8-1.121.55-1.81.55-2.68Q.55-4.016 1.27-4.809c.48-.52 1.14-.793 1.96-.793.739 0 1.32.243 1.75.711.418.48.641 1.121.641 1.93M4.72-3.22c-.008-.492-.149-.883-.41-1.18-.27-.292-.63-.44-1.07-.44-.5 0-.9.148-1.2.429s-.48.68-.52 1.191Zm0 0"/><path id="q" d="M4.11-4.629a1.2 1.2 0 0 0-.329-.133c-.12-.02-.25-.039-.39-.039-.512 0-.903.172-1.172.5-.278.332-.41.801-.41 1.422V0H.91v-5.469h.899v.848c.18-.328.43-.578.73-.738q.451-.242 1.11-.243c.062 0 .132.012.21.012.07.012.153.02.25.04Zm0 0"/><path id="r" d="M3.43-2.75c-.73 0-1.23.09-1.508.25-.281.172-.422.45-.422.852 0 .32.102.578.309.757.21.192.5.282.863.282.5 0 .898-.172 1.2-.532.3-.347.448-.82.448-1.41v-.199Zm1.789-.371V0H4.32v-.828c-.21.34-.468.578-.77.726-.3.153-.679.23-1.12.23-.559 0-1.008-.148-1.34-.456C.762-.641.602-1.058.602-1.59c0-.61.199-1.07.617-1.39.41-.31 1.02-.47 1.84-.47H4.32v-.09c0-.41-.14-.73-.41-.96-.27-.219-.648-.34-1.14-.34-.32 0-.622.04-.918.121-.301.078-.582.188-.852.328v-.828c.32-.12.64-.222.95-.281a5 5 0 0 1 .91-.102c.788 0 1.378.211 1.769.622.39.41.59 1.03.59 1.859m0 0"/><path id="s" d="M.941-7.602h.899V0H.94Zm0 0"/><path id="u" d="M.941-5.469h.899V0H.94Zm0-2.133h.899v1.141H.94Zm0 0"/><path id="v" d="M4.879-5.262v.84a3.6 3.6 0 0 0-.77-.308 2.9 2.9 0 0 0-.77-.11c-.577 0-1.038.192-1.359.559-.32.37-.48.89-.48 1.55q0 1.008.48 1.56c.32.37.782.55 1.36.55.262 0 .512-.027.77-.098.261-.07.511-.18.769-.32v.828c-.258.121-.52.211-.777.262a4.7 4.7 0 0 1-.864.078c-.816 0-1.476-.25-1.957-.77-.492-.507-.73-1.21-.73-2.09 0-.89.238-1.59.73-2.097.489-.512 1.16-.774 2.02-.774.277 0 .55.032.808.09.262.063.52.14.77.25m0 0"/><path id="w" d="M.91-7.602h.899v4.493l2.68-2.36H5.64L2.738-2.91 5.762 0H4.59L1.809-2.672V0H.91Zm0 0"/><path id="x" d="M4.43-5.309v.848a5 5 0 0 0-.79-.289 4 4 0 0 0-.85-.102c-.45 0-.79.07-1.009.211a.67.67 0 0 0-.332.61c0 .21.082.37.242.492.16.117.48.238.957.34l.313.07c.64.14 1.09.34 1.36.578.257.25.398.602.398 1.04q0 .765-.598 1.202c-.402.297-.96.438-1.66.438-.3 0-.602-.027-.922-.078a6 6 0 0 1-1-.25v-.93q.499.27.98.39c.32.09.641.13.961.13.418 0 .75-.07.98-.211a.7.7 0 0 0 .34-.621c0-.239-.09-.43-.25-.559s-.519-.262-1.081-.379l-.309-.07c-.558-.121-.969-.301-1.21-.54-.25-.241-.372-.57-.372-1 0-.511.184-.91.543-1.19q.54-.423 1.559-.423c.332 0 .64.032.941.082q.434.077.809.211m0 0"/><path id="z" d="M.82-7.29h4.692v.419L2.859 0H1.83L4.32-6.46H.82Zm0 0"/><path id="A" d="M1.07-1.238h1.032V0H1.07Zm0 0"/><path id="D" d="M3.18-3.46c-.47 0-.84.132-1.11.382s-.398.59-.398 1.027c0 .442.129.79.398 1.04.27.25.64.37 1.11.37.46 0 .832-.12 1.101-.379.27-.25.41-.59.41-1.03 0-.438-.14-.778-.402-1.028-.27-.25-.64-.383-1.11-.383M2.19-3.88q-.63-.153-.992-.59C.961-4.762.852-5.109.852-5.53c0-.578.199-1.04.617-1.38q.615-.51 1.71-.51 1.08 0 1.712.51c.41.34.62.802.62 1.38 0 .422-.12.77-.363 1.062-.238.29-.558.489-.976.59q.704.166 1.11.649c.257.32.398.718.398 1.18 0 .71-.22 1.25-.649 1.62C4.59-.05 3.97.13 3.171.13c-.8 0-1.421-.18-1.85-.559Q.677-.985.68-2.05c0-.462.129-.86.398-1.18.262-.32.633-.54 1.113-.649M1.828-5.44c0 .382.113.68.352.89.242.211.57.313 1 .313.422 0 .75-.102.992-.313q.359-.316.36-.89c0-.38-.122-.668-.36-.88-.242-.21-.57-.32-.992-.32-.43 0-.758.11-1 .32-.239.212-.352.5-.352.88m0 0"/><path id="I" d="M1.102-.148v-.903q.357.182.75.27.375.092.75.09c.636 0 1.136-.207 1.476-.649.344-.441.543-1.101.602-2q-.301.424-.72.649c-.288.152-.608.222-.96.222q-1.109-.002-1.738-.66-.633-.66-.633-1.812c0-.739.223-1.34.66-1.797.441-.453 1.031-.684 1.77-.684.84 0 1.492.332 1.93.973.44.648.671 1.59.671 2.808 0 1.16-.281 2.07-.82 2.75Q4.017.13 2.64.13c-.25 0-.5-.027-.75-.07-.261-.04-.519-.11-.788-.207m1.957-3.09q.663-.002 1.05-.453c.262-.297.391-.72.391-1.25 0-.52-.129-.938-.39-1.239-.258-.3-.61-.46-1.051-.46-.438 0-.79.16-1.047.46-.262.301-.39.72-.39 1.239 0 .53.128.953.39 1.25.258.3.61.453 1.047.453m0 0"/><path id="aa" d="M.98-7.29h1.47l1.859 4.962 1.87-4.961h1.47V0H6.69v-6.398l-1.882 5H3.82l-1.879-5V0h-.96Zm0 0"/><path id="ab" d="M3.059-4.84q-.72.001-1.137.57-.422.568-.422 1.54c0 .66.129 1.171.41 1.55.281.38.66.559 1.149.559.48 0 .863-.18 1.14-.559.281-.379.422-.89.422-1.55 0-.641-.14-1.16-.422-1.54-.277-.378-.66-.57-1.14-.57m0-.762c.78 0 1.39.262 1.84.762.44.512.671 1.211.671 2.11 0 .902-.23 1.601-.672 2.101C4.45-.12 3.84.13 3.058.13c-.788 0-1.41-.25-1.847-.758Q.55-1.379.55-2.73c0-.899.219-1.598.66-2.11.437-.5 1.059-.762 1.848-.762m0 0"/><path id="ac" d="M3.422-6.32 2.078-2.691h2.684Zm-.563-.97H3.98L6.762 0H5.73l-.66-1.871H1.781L1.121 0H.078Zm0 0"/><path id="ad" d="M.3-5.469h.95l1.71 4.59 1.712-4.59h.95L3.57 0H2.352Zm0 0"/><path id="ae" d="M4.54-2.8c0-.641-.142-1.15-.4-1.509-.269-.363-.652-.543-1.128-.543-.48 0-.864.18-1.133.543-.27.36-.399.868-.399 1.508 0 .653.13 1.153.399 1.512.27.36.652.539 1.133.539.476 0 .86-.18 1.129-.54.257-.358.398-.858.398-1.51M5.44-.68c0 .918-.21 1.61-.62 2.07-.423.45-1.051.68-1.9.68-.32 0-.612-.03-.89-.07a4.7 4.7 0 0 1-.82-.219v-.87c.258.14.52.237.777.308.262.07.524.11.793.11.578 0 1.02-.157 1.32-.458.29-.312.438-.77.438-1.39v-.442c-.187.32-.43.563-.719.723S3.191 0 2.79 0c-.68 0-1.22-.25-1.63-.762C.75-1.27.55-1.949.55-2.8c0-.84.2-1.52.61-2.027.41-.512.95-.774 1.63-.774.401 0 .741.082 1.03.243q.436.239.72.718v-.828h.901Zm0 0"/><path id="af" d="M.98-7.29h.989v6.462h3.55V0H.98Zm0 0"/><path id="ag" d="M.422-5.469h.898l1.121 4.27L3.56-5.47H4.62l1.117 4.27L6.86-5.47h.903L6.328 0H5.27L4.09-4.48 2.91 0H1.852Zm0 0"/><path id="ah" d="M5.488-3.3V0H4.59v-3.27c0-.52-.11-.902-.309-1.16-.203-.261-.5-.39-.902-.39-.488 0-.867.16-1.149.468-.28.313-.421.73-.421 1.262V0H.91v-7.602h.899v2.98c.21-.32.46-.57.761-.73.29-.16.63-.25 1.008-.25.621 0 1.102.204 1.422.59.32.39.488.961.488 1.711m0 0"/><path id="ai" d="M4.54-4.64v-2.962h.901V0H4.54v-.82c-.187.332-.43.57-.719.718-.289.153-.629.23-1.03.23Q1.798.13 1.171-.647C.75-1.172.55-1.871.55-2.73c0-.86.199-1.551.62-2.079.419-.52.958-.793 1.618-.793.402 0 .742.082 1.031.243q.436.239.72.718M1.48-2.73c0 .66.13 1.18.399 1.558.27.383.64.563 1.121.563.48 0 .852-.18 1.129-.563.27-.379.41-.898.41-1.558s-.14-1.168-.41-1.551A1.32 1.32 0 0 0 3-4.851q-.719 0-1.121.57c-.27.383-.399.89-.399 1.55m0 0"/><path id="aj" d="M4.871-2.73c0-.66-.14-1.168-.41-1.551a1.33 1.33 0 0 0-1.121-.57q-.719 0-1.121.57c-.278.383-.41.89-.41 1.55s.132 1.18.41 1.56c.27.382.64.562 1.12.562.47 0 .84-.18 1.122-.563.27-.379.41-.898.41-1.558M1.81-4.64c.18-.32.421-.56.71-.72.29-.16.641-.242 1.04-.242.66 0 1.203.274 1.62.793.41.528.622 1.22.622 2.079S5.59-1.172 5.18-.648c-.418.52-.961.777-1.621.777-.399 0-.75-.078-1.04-.23a1.7 1.7 0 0 1-.71-.72V0H.91v-7.602h.899Zm0 0"/><path id="ak" d="M3.219.5c-.258.64-.508 1.07-.75 1.27q-.36.3-.957.3H.789v-.75h.531q.36.002.57-.18c.141-.12.29-.39.462-.831l.16-.399L.3-5.469h.949L2.96-1.19 4.673-5.47h.95Zm0 0"/><path id="J" d="M-7.29.02v-6.16h.83v2.59H0v.991h-6.46V.02Zm0 0"/><path id="K" d="M-4.84-3.059q.001.72.57 1.137.568.422 1.54.422c.66 0 1.171-.129 1.55-.41.38-.281.559-.66.559-1.149 0-.48-.18-.863-.559-1.14-.379-.281-.89-.422-1.55-.422-.641 0-1.16.14-1.54.422-.378.277-.57.66-.57 1.14m-.762 0c0-.78.262-1.39.762-1.84.512-.44 1.211-.671 2.11-.671.902 0 1.601.23 2.101.672.508.449.758 1.058.758 1.84 0 .788-.25 1.41-.758 1.847q-.75.66-2.101.66c-.899 0-1.598-.219-2.11-.66-.5-.437-.762-1.059-.762-1.848m0 0"/><path id="L" d="M-.82-1.809h2.89v.899h-7.539v-.899h.828a1.8 1.8 0 0 1-.718-.71c-.16-.29-.243-.641-.243-1.04 0-.66.274-1.203.793-1.62.528-.41 1.22-.622 2.079-.622s1.558.211 2.082.621c.52.418.777.961.777 1.621 0 .399-.078.75-.23 1.04-.149.289-.387.53-.72.71M-2.73-4.87c-.66 0-1.168.14-1.551.41q-.57.42-.57 1.121 0 .719.57 1.121c.383.278.89.41 1.55.41s1.18-.132 1.56-.41c.382-.27.562-.64.562-1.12 0-.47-.18-.84-.563-1.122-.379-.27-.898-.41-1.558-.41m0 0"/><path id="M" d="M-3.14-.488v-2.633h.8v2.633Zm0 0"/><path id="N" d="M-7.602-.91v-.899h4.493l-2.36-2.68V-5.64l2.559 2.903L0-5.762v1.172l-2.672 2.781H0v.899Zm0 0"/><path id="O" d="M-4.54-1.059V-7.32h.821v6.261Zm1.99 0V-7.32h.831v6.261Zm0 0"/><path id="P" d="M-7.29-1.078V-4.95h.83v2.969h1.788c-.047-.141-.09-.29-.11-.43-.019-.14-.038-.29-.038-.43 0-.808.23-1.45.672-1.93.449-.48 1.046-.718 1.808-.718.79 0 1.399.25 1.828.738.434.488.64 1.18.64 2.059 0 .312-.026.62-.07.941-.046.32-.117.64-.23.98h-.988q.24-.432.36-.91c.081-.308.109-.64.109-.992 0-.558-.137-1.008-.438-1.34-.3-.316-.7-.488-1.21-.488-.5 0-.9.172-1.2.488-.3.332-.45.782-.45 1.34 0 .262.028.531.09.793q.09.389.27.8Zm0 0"/><path id="R" d="M-2.75-3.43c0 .73.09 1.23.25 1.508.172.281.45.422.852.422.32 0 .578-.102.757-.309.192-.21.282-.5.282-.863 0-.5-.172-.898-.532-1.2-.347-.3-.82-.448-1.41-.448h-.199Zm-.371-1.789H0v.899h-.828c.34.21.578.468.726.77.153.3.23.679.23 1.12 0 .559-.148 1.008-.456 1.34-.313.328-.73.488-1.262.488-.61 0-1.07-.199-1.39-.617-.31-.41-.47-1.02-.47-1.84V-4.32h-.09c-.41 0-.73.14-.96.41-.219.27-.34.648-.34 1.14 0 .32.04.622.121.918.078.301.188.582.328.852h-.828a6 6 0 0 1-.281-.95 5 5 0 0 1-.102-.91c0-.788.211-1.378.622-1.769.41-.39 1.03-.59 1.859-.59m0 0"/><path id="S" d="M-5.262-4.879h.84a3.6 3.6 0 0 0-.308.77c-.07.257-.11.507-.11.77 0 .577.192 1.038.559 1.359.37.32.89.48 1.55.48q1.008 0 1.56-.48c.37-.32.55-.782.55-1.36 0-.262-.027-.512-.098-.77a3.5 3.5 0 0 0-.32-.769h.828c.121.258.211.52.262.777q.077.412.078.864c0 .816-.25 1.476-.77 1.957-.507.492-1.21.73-2.09.73-.89 0-1.59-.238-2.097-.73-.512-.489-.774-1.16-.774-2.02 0-.277.032-.55.09-.808.063-.262.14-.52.25-.77m0 0"/><path id="T" d="M-2.16-.852H-5.47v-.898h3.278c.52 0 .902-.102 1.16-.3.261-.2.39-.5.39-.91 0-.481-.148-.868-.46-1.15-.31-.28-.727-.421-1.27-.421H-5.47v-.899H0v.899h-.84c.34.222.578.48.738.761q.23.434.23 1c0 .63-.187 1.11-.577 1.43-.38.328-.95.488-1.711.488m-3.442-2.257"/><path id="U" d="M-4.629-4.11c-.062.098-.101.212-.133.329-.02.12-.039.25-.039.39 0 .512.172.903.5 1.172.332.278.801.41 1.422.41H0v.899h-5.469v-.899h.848a1.8 1.8 0 0 1-.738-.73q-.242-.451-.243-1.11c0-.062.012-.132.012-.21.012-.07.02-.153.04-.25Zm0 0"/><path id="V" d="M.5-3.219c.64.258 1.07.508 1.27.75q.3.36.3.957v.723h-.75v-.531q.002-.36-.18-.57c-.12-.141-.39-.29-.831-.462l-.399-.16L-5.469-.3v-.949l4.278-1.71-4.278-1.712v-.95Zm0 0"/><clipPath id="a"><path d="M44.398 1H45v168.441h-.602Zm0 0"/></clipPath><clipPath id="c"><path d="M133 1h2v168.441h-2Zm0 0"/></clipPath><clipPath id="e"><path d="M223 1h2v168.441h-2Zm0 0"/></clipPath><clipPath id="g"><path d="M313 1h2v168.441h-2Zm0 0"/></clipPath><clipPath id="i"><path d="M403 1h2v168.441h-2Zm0 0"/></clipPath><clipPath id="k"><path d="M493 1h2v168.441h-2Zm0 0"/></clipPath><clipPath id="y"><path d="M44.398 169H503v.441H44.398Zm0 0"/></clipPath><clipPath id="B"><path d="M44.398 144H503v2H44.398Zm0 0"/></clipPath><clipPath id="C"><path d="M44.398 119H503v2H44.398Zm0 0"/></clipPath><clipPath id="E"><path d="M44.398 94H503v2H44.398Zm0 0"/></clipPath><clipPath id="F"><path d="M44.398 69H503v2H44.398Zm0 0"/></clipPath><clipPath id="G"><path d="M44.398 45H503v1H44.398Zm0 0"/></clipPath><clipPath id="H"><path d="M44.398 20H503v2H44.398Zm0 0"/></clipPath><clipPath id="W"><path d="M68 22h427v147.441H68Zm0 0"/></clipPath><clipPath id="X"><path d="M68 21h427v148.441H68Zm0 0"/></clipPath><clipPath id="Y"><path d="M77 29h418v140.441H77Zm0 0"/></clipPath><clipPath id="Z"><path d="M68 20h427v149.441H68Zm0 0"/></clipPath></defs><path fill="#FFF" d="M0 201.602h504V0H0Zm0 0"/><path fill="#EAEAF2" d="M44.398 169.441H503V1H44.398Zm0 0"/><g clip-path="url(#a)"><path fill="none" stroke="#FFF" stroke-linecap="round" stroke-linejoin="round" stroke-miterlimit="10" stroke-width=".8" d="M44.398 169.441V1"/></g><use xlink:href="#b" x="41.22" y="184.034" fill="#262626"/><g clip-path="url(#c)"><path fill="none" stroke="#FFF" stroke-linecap="round" stroke-linejoin="round" stroke-miterlimit="10" stroke-width=".8" d="M134.32 169.441V1"/></g><g fill="#262626"><use xlink:href="#d" x="127.962" y="184.034"/><use xlink:href="#b" x="134.322" y="184.034"/></g><g clip-path="url(#e)"><path fill="none" stroke="#FFF" stroke-linecap="round" stroke-linejoin="round" stroke-miterlimit="10" stroke-width=".8" d="M224.242 169.441V1"/></g><g fill="#262626"><use xlink:href="#f" x="217.884" y="184.034"/><use xlink:href="#b" x="224.244" y="184.034"/></g><g clip-path="url(#g)"><path fill="none" stroke="#FFF" stroke-linecap="round" stroke-linejoin="round" stroke-miterlimit="10" stroke-width=".8" d="M314.164 169.441V1"/></g><g fill="#262626"><use xlink:href="#h" x="307.805" y="184.034"/><use xlink:href="#b" x="314.165" y="184.034"/></g><g clip-path="url(#i)"><path fill="none" stroke="#FFF" stroke-linecap="round" stroke-linejoin="round" stroke-miterlimit="10" stroke-width=".8" d="M404.086 169.441V1"/></g><g fill="#262626"><use xlink:href="#j" x="397.727" y="184.034"/><use xlink:href="#b" x="404.087" y="184.034"/></g><g clip-path="url(#k)"><path fill="none" stroke="#FFF" stroke-linecap="round" stroke-linejoin="round" stroke-miterlimit="10" stroke-width=".8" d="M494.008 169.441V1"/></g><g fill="#262626"><use xlink:href="#l" x="487.648" y="184.034"/><use xlink:href="#b" x="494.008" y="184.034"/></g><g fill="#262626"><use xlink:href="#m" x="241.192" y="197.706"/><use xlink:href="#n" x="244.142" y="197.706"/><use xlink:href="#o" x="250.482" y="197.706"/><use xlink:href="#p" x="254.402" y="197.706"/><use xlink:href="#q" x="260.552" y="197.706"/></g><g fill="#262626"><use xlink:href="#n" x="264.49" y="197.706"/><use xlink:href="#r" x="270.83" y="197.706"/><use xlink:href="#s" x="276.96" y="197.706"/><use xlink:href="#t" x="279.74" y="197.706"/><use xlink:href="#o" x="282.92" y="197.706"/><use xlink:href="#u" x="286.84" y="197.706"/><use xlink:href="#v" x="289.62" y="197.706"/><use xlink:href="#w" x="295.12" y="197.706"/><use xlink:href="#x" x="300.91" y="197.706"/></g><g clip-path="url(#y)"><path fill="none" stroke="#FFF" stroke-linecap="round" stroke-linejoin="round" stroke-miterlimit="10" stroke-width=".8" d="M44.398 169.441H503"/></g><g fill="#262626"><use xlink:href="#z" x="15.134" y="173.237"/><use xlink:href="#l" x="21.494" y="173.237"/><use xlink:href="#A" x="27.854" y="173.237"/><use xlink:href="#b" x="31.034" y="173.237"/></g><g clip-path="url(#B)"><path fill="none" stroke="#FFF" stroke-linecap="round" stroke-linejoin="round" stroke-miterlimit="10" stroke-width=".8" d="M44.398 144.668H503"/></g><g fill="#262626"><use xlink:href="#z" x="15.134" y="148.466"/><use xlink:href="#z" x="21.494" y="148.466"/><use xlink:href="#A" x="27.854" y="148.466"/><use xlink:href="#l" x="31.034" y="148.466"/></g><g clip-path="url(#C)"><path fill="none" stroke="#FFF" stroke-linecap="round" stroke-linejoin="round" stroke-miterlimit="10" stroke-width=".8" d="M44.398 119.898H503"/></g><g fill="#262626"><use xlink:href="#D" x="15.134" y="123.696"/><use xlink:href="#b" x="21.494" y="123.696"/><use xlink:href="#A" x="27.854" y="123.696"/><use xlink:href="#b" x="31.034" y="123.696"/></g><g clip-path="url(#E)"><path fill="none" stroke="#FFF" stroke-linecap="round" stroke-linejoin="round" stroke-miterlimit="10" stroke-width=".8" d="M44.398 95.129H503"/></g><g fill="#262626"><use xlink:href="#D" x="15.134" y="98.925"/><use xlink:href="#f" x="21.494" y="98.925"/><use xlink:href="#A" x="27.854" y="98.925"/><use xlink:href="#l" x="31.034" y="98.925"/></g><g clip-path="url(#F)"><path fill="none" stroke="#FFF" stroke-linecap="round" stroke-linejoin="round" stroke-miterlimit="10" stroke-width=".8" d="M44.398 70.36H503"/></g><g fill="#262626"><use xlink:href="#D" x="15.134" y="74.155"/><use xlink:href="#l" x="21.494" y="74.155"/><use xlink:href="#A" x="27.854" y="74.155"/><use xlink:href="#b" x="31.034" y="74.155"/></g><g clip-path="url(#G)"><path fill="none" stroke="#FFF" stroke-linecap="round" stroke-linejoin="round" stroke-miterlimit="10" stroke-width=".8" d="M44.398 45.586H503"/></g><g fill="#262626"><use xlink:href="#D" x="15.134" y="49.384"/><use xlink:href="#z" x="21.494" y="49.384"/><use xlink:href="#A" x="27.854" y="49.384"/><use xlink:href="#l" x="31.034" y="49.384"/></g><g clip-path="url(#H)"><path fill="none" stroke="#FFF" stroke-linecap="round" stroke-linejoin="round" stroke-miterlimit="10" stroke-width=".8" d="M44.398 20.816H503"/></g><g fill="#262626"><use xlink:href="#I" x="15.134" y="24.613"/><use xlink:href="#b" x="21.494" y="24.613"/><use xlink:href="#A" x="27.854" y="24.613"/><use xlink:href="#b" x="31.034" y="24.613"/></g><use xlink:href="#J" x="9.056" y="129.861" fill="#262626"/><g fill="#262626"><use xlink:href="#K" x="9.056" y="125.438"/><use xlink:href="#L" x="9.056" y="119.318"/><use xlink:href="#M" x="9.056" y="112.968"/><use xlink:href="#N" x="9.056" y="109.358"/><use xlink:href="#O" x="9.056" y="103.568"/><use xlink:href="#P" x="9.056" y="95.188"/><use xlink:href="#Q" x="9.056" y="88.828"/><use xlink:href="#R" x="9.056" y="85.648"/><use xlink:href="#S" x="9.056" y="79.518"/><use xlink:href="#S" x="9.056" y="74.018"/><use xlink:href="#T" x="9.056" y="68.518"/><use xlink:href="#U" x="9.056" y="62.178"/><use xlink:href="#R" x="9.056" y="58.068"/><use xlink:href="#S" x="9.056" y="51.938"/><use xlink:href="#V" x="9.056" y="46.438"/></g><g clip-path="url(#W)"><path fill="none" stroke="#023EFF" stroke-linecap="round" stroke-linejoin="round" stroke-miterlimit="10" stroke-width="1.5" d="m69.066 202.602 2.309-32.309 8.992-57.012 8.992-33.273 8.993-24.77 8.992-11.949 8.992-5.531 8.992-3.387 8.992-3.031 8.993-.832 8.992-1.09 8.992-1.688 8.992 1.114 8.992-.121 8.992.715 8.993-.438 8.992-.078 8.992-.574 8.992-.871 8.992.394 8.993-.418 8.992-.555 8.992.438 8.992-2.02 8.992.297 8.993-.894 8.992.18 8.992-1.348 8.992.297 8.992-.555 8.992.16 8.993.652 8.992-.793 8.992.497 8.992.695 8.992-.297 8.993 1.344 8.992.219 8.992.496 8.992-.555 8.992.078 8.993.438 8.992.515 8.992-.16 8.992.277 8.992.239 8.992.355 8.993-.531 8.992.234"/></g><g clip-path="url(#X)"><path fill="none" stroke="#1AC938" stroke-dasharray="1.5 2.475" stroke-linejoin="round" stroke-miterlimit="10" stroke-width="1.5" d="m69.188 202.602 2.187-20.997 8.992-45.535 8.992-30.3 8.993-23.622 8.992-15.296 8.992-11.356 8.992-7.074 8.992-5.984 8.993-3.965 8.992-3.47 8.992-1.8 8.992-1.844 8.992-1.109 8.992-.812 8.993-.594 8.992-.973 8.992-.95 8.992-.812 8.992-.3 8.993-.454 8.992-.457 8.992.059 8.992-.453 8.992-.438 8.993-.117 8.992-.3 8.992-.176h8.992l8.992-.297 8.992-.082 8.993-.297 8.992-.04 8.992-.058 8.992-.02 8.992-.058 8.993-.14 8.992-.2 8.992-.078 8.992-.117 8.992-.063 8.993.082 8.992-.02 8.992.08 8.992.16 8.992-.044 8.992-.258 8.993.063 8.992-.14"/></g><g clip-path="url(#Y)"><path fill="none" stroke="#E8000B" stroke-dasharray="9.6 2.4 1.5 2.4" stroke-linejoin="round" stroke-miterlimit="10" stroke-width="1.5" d="m78.07 202.602 2.297-19.348 8.992-45.777 8.993-31.528 8.992-18.765 8.992-12.051 8.992-8.5 8.992-6.262 8.993-4.578 8.992-2.953 8.992-2.934 8.992-2.316 8.992-2.043 8.992-1.762 8.993-1.45 8.992-1.839 8.992-1.133 8.992-.633 8.992-.832 8.993-.675 8.992-.375 8.992-.555 8.992-.695 8.992-.813 8.993-.277 8.992-.434 8.992-.379 8.992-.375 8.992-.414 8.992-.14 8.993-.297 8.992-.219 8.992-.238 8.992-.196 8.992-.3 8.993-.235 8.992-.101 8.992-.117 8.992-.102 8.992-.137 8.993-.02 8.992-.077 8.992-.122 8.992-.257 8.992-.098h8.992l8.993-.082 8.992.16"/></g><g clip-path="url(#Z)"><path fill="none" stroke="#8B2BE2" stroke-dasharray="5.55 2.4" stroke-linejoin="round" stroke-miterlimit="10" stroke-width="1.5" d="m69.078 202.602 2.297-22.66 8.992-47.419 8.992-30.378 8.993-23.622 8.992-15.32 8.992-10.64 8.992-7.196 8.992-5.012 8.993-4.042 8.992-2.497 8.992-1.722 8.992-1.07 8.992-1.41 8.992-.77 8.993-.793 8.992-.735 8.992-.632 8.992-.856 8.992-.414 8.993-.238 8.992-.297 8.992-.14 8.992-.157 8.992-.238 8.993-.219 8.992-.453 8.992-.3 8.992-.06 8.992-.156 17.985-.398 8.992-.02 8.992-.18 8.992.083 8.992-.239 8.993-.12 8.992-.196 8.992.02 8.992-.239 8.992.078 8.993-.117 8.992.176 8.992-.137 8.992.02 8.992.078 17.985-.117 8.992-.18"/></g><path fill="none" stroke="#FFF" stroke-linecap="square" stroke-miterlimit="10" stroke-width=".8" d="M44.398 169.441V1M503 169.441V1M44.398 169.441H503M44.398 1H503"/><path fill="#EAEAF2" fill-opacity=".8" stroke="#CCC" stroke-miterlimit="10" stroke-opacity=".8" d="M321.313 164.441H496q1.999-.001 2-2v-57.687q-.001-2.002-2-2H321.313q-2-.002-2 2v57.687q0 1.999 2 2Zm0 0"/><path fill="none" stroke="#023EFF" stroke-linecap="round" stroke-linejoin="round" stroke-miterlimit="10" stroke-width="1.5" d="M323.313 110.848h20"/><g fill="#262626"><use xlink:href="#m" x="351.313" y="114.346"/><use xlink:href="#n" x="354.262" y="114.346"/><use xlink:href="#x" x="360.603" y="114.346"/><use xlink:href="#o" x="365.813" y="114.346"/><use xlink:href="#r" x="369.733" y="114.346"/><use xlink:href="#n" x="375.863" y="114.346"/><use xlink:href="#o" x="382.202" y="114.346"/></g><path fill="none" stroke="#1AC938" stroke-dasharray="1.5 2.475" stroke-linejoin="round" stroke-miterlimit="10" stroke-width="1.5" d="M323.313 125.52h20"/><g fill="#262626"><use xlink:href="#aa" x="351.313" y="129.018"/><use xlink:href="#ab" x="359.942" y="129.018"/><use xlink:href="#x" x="366.063" y="129.018"/><use xlink:href="#o" x="371.272" y="129.018"/><use xlink:href="#t" x="375.192" y="129.018"/><use xlink:href="#v" x="378.373" y="129.018"/><use xlink:href="#p" x="383.873" y="129.018"/><use xlink:href="#q" x="390.022" y="129.018"/><use xlink:href="#o" x="394.132" y="129.018"/><use xlink:href="#r" x="398.053" y="129.018"/><use xlink:href="#u" x="404.183" y="129.018"/><use xlink:href="#n" x="406.962" y="129.018"/></g><path fill="none" stroke="#E8000B" stroke-dasharray="9.6 2.4 1.5 2.4" stroke-linejoin="round" stroke-miterlimit="10" stroke-width="1.5" d="M323.313 140.191h20"/><use xlink:href="#ac" x="351.313" y="143.69" fill="#262626"/><g fill="#262626"><use xlink:href="#ad" x="357.574" y="143.69"/><use xlink:href="#p" x="363.494" y="143.69"/><use xlink:href="#q" x="369.644" y="143.69"/><use xlink:href="#r" x="373.754" y="143.69"/><use xlink:href="#ae" x="379.884" y="143.69"/><use xlink:href="#p" x="386.234" y="143.69"/><use xlink:href="#t" x="392.384" y="143.69"/><use xlink:href="#s" x="395.564" y="143.69"/><use xlink:href="#ab" x="398.344" y="143.69"/><use xlink:href="#ae" x="404.464" y="143.69"/><use xlink:href="#u" x="410.814" y="143.69"/><use xlink:href="#o" x="413.594" y="143.69"/><use xlink:href="#x" x="417.514" y="143.69"/></g><path fill="none" stroke="#8B2BE2" stroke-dasharray="5.55 2.4" stroke-linejoin="round" stroke-miterlimit="10" stroke-width="1.5" d="M323.313 154.863h20"/><use xlink:href="#af" x="351.313" y="158.362" fill="#262626"/><g fill="#262626"><use xlink:href="#ab" x="356.711" y="158.362"/><use xlink:href="#ae" x="362.831" y="158.362"/><use xlink:href="#u" x="369.181" y="158.362"/><use xlink:href="#o" x="371.961" y="158.362"/><use xlink:href="#x" x="375.881" y="158.362"/><use xlink:href="#t" x="381.091" y="158.362"/><use xlink:href="#ag" x="384.271" y="158.362"/><use xlink:href="#p" x="392.451" y="158.362"/><use xlink:href="#u" x="398.601" y="158.362"/><use xlink:href="#ae" x="401.381" y="158.362"/><use xlink:href="#ah" x="407.731" y="158.362"/><use xlink:href="#o" x="414.071" y="158.362"/><use xlink:href="#p" x="417.991" y="158.362"/><use xlink:href="#ai" x="424.141" y="158.362"/><use xlink:href="#t" x="430.491" y="158.362"/><use xlink:href="#aj" x="433.671" y="158.362"/><use xlink:href="#ak" x="440.021" y="158.362"/><use xlink:href="#t" x="445.941" y="158.362"/><use xlink:href="#v" x="449.121" y="158.362"/><use xlink:href="#p" x="454.621" y="158.362"/><use xlink:href="#q" x="460.771" y="158.362"/><use xlink:href="#o" x="464.881" y="158.362"/><use xlink:href="#r" x="468.801" y="158.362"/><use xlink:href="#u" x="474.931" y="158.362"/><use xlink:href="#n" x="477.711" y="158.362"/><use xlink:href="#o" x="484.051" y="158.362"/><use xlink:href="#ak" x="487.971" y="158.362"/></g></svg>