<svg xmlns="http://www.w3.org/2000/svg" xmlns:xlink="http://www.w3.org/1999/xlink" width="384" height="307.2" viewBox="0 0 288 230.4"><defs><path id="c" d="M3.18-6.64q-.761 0-1.149.75c-.261.5-.383 1.25-.383 2.25s.122 1.75.383 2.25q.386.75 1.149.75c.511 0 .89-.25 1.148-.75.25-.5.383-1.25.383-2.25s-.133-1.75-.383-2.25c-.258-.5-.637-.75-1.148-.75m0-.782c.808 0 1.43.332 1.87.973.43.648.65 1.59.65 2.808 0 1.23-.22 2.172-.65 2.813-.44.637-1.062.957-1.878.957Q1.943.129 1.3-.828C.87-1.468.66-2.41.66-3.641c0-1.218.21-2.16.64-2.808.43-.64 1.058-.973 1.879-.973m0 0"/><path id="e" d="M1.078-7.29H4.95v.83H1.98v1.788c.141-.047.29-.09.43-.11.14-.019.29-.038.43-.038.808 0 1.45.23 1.93.672.48.449.718 1.046.718 1.808 0 .79-.25 1.399-.738 1.828-.488.434-1.18.64-2.059.64-.312 0-.62-.026-.941-.07a5.6 5.6 0 0 1-.98-.23v-.988q.432.24.91.36c.308.081.64.109.992.109.558 0 1.008-.137 1.34-.438.316-.3.488-.7.488-1.21 0-.5-.172-.9-.488-1.2-.332-.3-.782-.45-1.34-.45a3.4 3.4 0 0 0-.793.09 4.4 4.4 0 0 0-.8.27Zm0 0"/><path id="g" d="M1.238-.828h1.614v-5.563l-1.75.352v-.902L2.84-7.29h.988v6.46h1.613V0H1.238Zm0 0"/><path id="j" d="M1.922-.828h3.437V0H.73v-.828c.372-.383.88-.902 1.532-1.563A72 72 0 0 0 3.48-3.648q.48-.528.66-.903c.122-.238.188-.488.188-.73 0-.38-.137-.7-.406-.938-.274-.242-.621-.37-1.063-.37-.308 0-.64.058-.98.16q-.51.162-1.098.488v-1q.6-.238 1.11-.36c.34-.078.66-.12.949-.12q1.126 0 1.8.57c.45.382.68.882.68 1.511 0 .3-.058.59-.172.852-.109.27-.308.59-.609.949-.078.098-.34.367-.777.82-.442.45-1.051 1.078-1.84 1.89m0 0"/><path id="m" d="M4.059-3.93c.472.102.84.309 1.101.63.262.32.399.722.399 1.179 0 .723-.25 1.281-.739 1.672-.5.39-1.199.578-2.11.578a5 5 0 0 1-.948-.09c-.32-.05-.66-.14-1-.258v-.953c.27.16.566.281.898.363q.48.118 1.02.118.93.002 1.41-.36c.32-.238.488-.597.488-1.07 0-.418-.148-.758-.45-1-.3-.238-.718-.367-1.257-.367H2.02v-.813h.89c.48 0 .852-.09 1.11-.289q.39-.285.39-.84c0-.37-.14-.66-.398-.86q-.41-.298-1.14-.3-.407 0-.872.09a8 8 0 0 0-1.02.27v-.88c.372-.1.72-.18 1.051-.23.32-.05.63-.082.93-.082q1.107.001 1.77.512.66.51.66 1.379c0 .402-.121.742-.352 1.02-.23.28-.559.48-.98.581m0 0"/><path id="n" d="M.98-7.29h.989V0H.98Zm0 0"/><path id="o" d="M5.488-3.3V0H4.59v-3.27c0-.52-.11-.902-.309-1.16-.203-.261-.5-.39-.902-.39-.488 0-.867.16-1.149.468-.28.313-.421.73-.421 1.262V0H.91v-5.469h.899v.848c.21-.32.46-.57.761-.73.29-.16.63-.25 1.008-.25.621 0 1.102.203 1.422.59.32.39.488.96.488 1.71m0 0"/><path id="p" d="M4.54-4.64v-2.962h.901V0H4.54v-.82c-.187.332-.43.57-.719.718-.289.153-.629.23-1.03.23Q1.798.13 1.171-.647C.75-1.172.55-1.871.55-2.73c0-.86.199-1.551.62-2.079.419-.52.958-.793 1.618-.793.402 0 .742.082 1.031.243q.436.239.72.718M1.48-2.73c0 .66.13 1.18.399 1.558.27.383.64.563 1.121.563.48 0 .852-.18 1.129-.563.27-.379.41-.898.41-1.558s-.14-1.168-.41-1.551A1.32 1.32 0 0 0 3-4.851q-.719 0-1.121.57c-.27.383-.399.89-.399 1.55m0 0"/><path id="q" d="M5.621-2.96v.44H1.488c.043.622.223 1.098.563 1.418q.49.48 1.39.48c.34 0 .68-.038 1-.116.32-.082.649-.211.97-.39v.847c-.321.14-.65.25-.99.312a6 6 0 0 1-1.03.098c-.88 0-1.57-.25-2.082-.75C.8-1.121.55-1.81.55-2.68Q.55-4.016 1.27-4.809c.48-.52 1.14-.793 1.96-.793.739 0 1.32.243 1.75.711.418.48.641 1.121.641 1.93M4.72-3.22c-.008-.492-.149-.883-.41-1.18-.27-.292-.63-.44-1.07-.44-.5 0-.9.148-1.2.429s-.48.68-.52 1.191Zm0 0"/><path id="r" d="m5.488-5.469-1.976 2.66L5.59 0H4.53l-1.59-2.148L1.351 0H.29L2.41-2.86.47-5.468H1.53l1.45 1.95L4.43-5.47Zm0 0"/><path id="t" d="M.941-5.469h.899V0H.94Zm0-2.133h.899v1.141H.94Zm0 0"/><path id="u" d="M4.43-5.309v.848a5 5 0 0 0-.79-.289 4 4 0 0 0-.85-.102c-.45 0-.79.07-1.009.211a.67.67 0 0 0-.332.61c0 .21.082.37.242.492.16.117.48.238.957.34l.313.07c.64.14 1.09.34 1.36.578.257.25.398.602.398 1.04q0 .765-.598 1.202c-.402.297-.96.438-1.66.438-.3 0-.602-.027-.922-.078a6 6 0 0 1-1-.25v-.93q.499.27.98.39c.32.09.641.13.961.13.418 0 .75-.07.98-.211a.7.7 0 0 0 .34-.621c0-.239-.09-.43-.25-.559s-.519-.262-1.081-.379l-.309-.07c-.558-.121-.969-.301-1.21-.54-.25-.241-.372-.57-.372-1 0-.511.184-.91.543-1.19q.54-.423 1.559-.423c.332 0 .64.032.941.082q.434.077.809.211m0 0"/><path id="v" d="M1.48-2.73c0 .66.13 1.18.399 1.558.27.383.64.563 1.121.563.48 0 .852-.18 1.129-.563.27-.379.41-.898.41-1.558s-.14-1.168-.41-1.551A1.32 1.32 0 0 0 3-4.851q-.719 0-1.121.57c-.27.383-.399.89-.399 1.55M4.54-.82q-.283.497-.72.718c-.289.153-.629.23-1.03.23Q1.798.13 1.171-.647C.75-1.172.55-1.871.55-2.73c0-.86.199-1.551.62-2.079.419-.52.958-.793 1.618-.793.402 0 .742.082 1.031.243q.436.239.72.718v-.828h.901v7.54H4.54Zm0 0"/><path id="w" d="M.852-2.16V-5.47h.898v3.278c0 .52.102.902.3 1.16.2.261.5.39.91.39.481 0 .868-.148 1.15-.46.28-.31.421-.727.421-1.27V-5.47h.899V0H4.53v-.84c-.222.34-.48.578-.761.738a2.1 2.1 0 0 1-1 .23c-.63 0-1.11-.187-1.43-.577C1.012-.83.852-1.4.852-2.16m2.257-3.442"/><path id="x" d="M4.879-5.262v.84a3.6 3.6 0 0 0-.77-.308 2.9 2.9 0 0 0-.77-.11c-.577 0-1.038.192-1.359.559-.32.37-.48.89-.48 1.55q0 1.008.48 1.56c.32.37.782.55 1.36.55.262 0 .512-.027.77-.098.261-.07.511-.18.769-.32v.828c-.258.121-.52.211-.777.262a4.7 4.7 0 0 1-.864.078c-.816 0-1.476-.25-1.957-.77-.492-.507-.73-1.21-.73-2.09 0-.89.238-1.59.73-2.097.489-.512 1.16-.774 2.02-.774.277 0 .55.032.808.09.262.063.52.14.77.25m0 0"/><path id="B" d="M3.781-6.43 1.29-2.54h2.492Zm-.261-.86h1.242v4.75H5.8v.821H4.76V0h-.98v-1.719H.488v-.953Zm0 0"/><path id="D" d="M3.3-4.04c-.44 0-.788.161-1.05.462-.262.297-.39.719-.39 1.238q-.002.798.39 1.25.391.45 1.05.45.658 0 1.052-.45.386-.452.386-1.25c0-.52-.129-.941-.386-1.238-.262-.3-.614-.461-1.051-.461m1.962-3.089v.899a3.441 3.441 0 0 0-1.5-.36q-.99 0-1.5.66c-.34.442-.543 1.11-.582 1.989.191-.278.43-.5.718-.649.293-.148.614-.23.961-.23.73 0 1.313.23 1.73.672.423.437.641 1.046.641 1.808 0 .75-.23 1.352-.671 1.8C4.62-.09 4.03.13 3.3.13c-.84 0-1.492-.32-1.93-.957C.921-1.468.7-2.41.7-3.641c0-1.148.27-2.07.82-2.75.54-.68 1.282-1.03 2.2-1.03.242 0 .492.03.75.07.25.05.511.12.793.222m0 0"/><path id="F" d="M3.18-3.46c-.47 0-.84.132-1.11.382s-.398.59-.398 1.027c0 .442.129.79.398 1.04.27.25.64.37 1.11.37.46 0 .832-.12 1.101-.379.27-.25.41-.59.41-1.03 0-.438-.14-.778-.402-1.028-.27-.25-.64-.383-1.11-.383M2.19-3.88q-.63-.153-.992-.59C.961-4.762.852-5.109.852-5.53c0-.578.199-1.04.617-1.38q.615-.51 1.71-.51 1.08 0 1.712.51c.41.34.62.802.62 1.38 0 .422-.12.77-.363 1.062-.238.29-.558.489-.976.59q.704.166 1.11.649c.257.32.398.718.398 1.18 0 .71-.22 1.25-.649 1.62C4.59-.05 3.97.13 3.171.13c-.8 0-1.421-.18-1.85-.559Q.677-.985.68-2.05c0-.462.129-.86.398-1.18.262-.32.633-.54 1.113-.649M1.828-5.44c0 .382.113.68.352.89.242.211.57.313 1 .313.422 0 .75-.102.992-.313q.359-.316.36-.89c0-.38-.122-.668-.36-.88-.242-.21-.57-.32-.992-.32-.43 0-.758.11-1 .32-.239.212-.352.5-.352.88m0 0"/><path id="J" d="M-7.29-.328v-1l6.161-1.531-6.16-1.532V-5.5l6.16-1.531-6.16-1.528v-1L0-7.73v1.242L-6.328-4.95 0-3.4v1.239Zm0 0"/><path id="K" d="M-2.75-3.43c0 .73.09 1.23.25 1.508.172.281.45.422.852.422.32 0 .578-.102.757-.309.192-.21.282-.5.282-.863 0-.5-.172-.898-.532-1.2-.347-.3-.82-.448-1.41-.448h-.199Zm-.371-1.789H0v.899h-.828c.34.21.578.468.726.77.153.3.23.679.23 1.12 0 .559-.148 1.008-.456 1.34-.313.328-.73.488-1.262.488-.61 0-1.07-.199-1.39-.617-.31-.41-.47-1.02-.47-1.84V-4.32h-.09c-.41 0-.73.14-.96.41-.219.27-.34.648-.34 1.14 0 .32.04.622.121.918.078.301.188.582.328.852h-.828a6 6 0 0 1-.281-.95 5 5 0 0 1-.102-.91c0-.788.211-1.378.622-1.769.41-.39 1.03-.59 1.859-.59m0 0"/><path id="L" d="M-5.469-.941v-.899H0v.899Zm-2.133 0v-.899h1.141v.899Zm0 0"/><path id="M" d="M-7.02-1.828h1.551V-3.68h.7v1.852h2.968c.45 0 .742-.063.86-.184.132-.117.191-.367.191-.75v-.918H0v.918Q0-1.707-.39-1.32c-.258.261-.731.39-1.41.39h-2.97v.66h-.699v-.66h-1.55Zm0 0"/><path id="O" d="M-4.422-5.2c-.398-.222-.687-.491-.887-.8a2.07 2.07 0 0 1-.293-1.11c0-.562.204-1 .602-1.312.398-.308.969-.469 1.7-.469H0v.903h-3.27c-.52 0-.91.097-1.171.277-.25.191-.38.473-.38.852 0 .468.16.84.47 1.109.312.27.73.398 1.261.398H0v.903h-3.27c-.52 0-.91.097-1.171.277-.25.192-.38.48-.38.863 0 .457.16.829.47 1.098q.466.403 1.261.402H0v.899h-5.469v-.899h.848a2.06 2.06 0 0 1-.738-.742c-.16-.277-.243-.62-.243-1.02 0-.398.102-.73.301-1.007.2-.281.5-.48.88-.621m0 0"/><path id="P" d="M-2.96-5.621h.44v4.133c.622-.043 1.098-.223 1.418-.563q.48-.49.48-1.39c0-.34-.038-.68-.116-1a4 4 0 0 0-.39-.97h.847c.14.321.25.65.312.99.059.343.098.69.098 1.03 0 .88-.25 1.57-.75 2.082-.5.508-1.188.758-2.059.758q-1.336.001-2.129-.719c-.52-.48-.793-1.14-.793-1.96 0-.739.243-1.32.711-1.75.48-.418 1.121-.641 1.93-.641m-.259.902c-.492.008-.883.149-1.18.41-.292.27-.44.63-.44 1.07 0 .5.148.9.429 1.2s.68.48 1.191.52Zm0 0"/><clipPath id="a"><path d="M0 0h288v230.398H0Zm0 0"/></clipPath><clipPath id="b"><path d="M45 .5h2v198.238h-2Zm0 0"/></clipPath><clipPath id="d"><path d="M84 .5h2v198.238h-2Zm0 0"/></clipPath><clipPath id="f"><path d="M123 .5h2v198.238h-2Zm0 0"/></clipPath><clipPath id="h"><path d="M162 .5h2v198.238h-2Zm0 0"/></clipPath><clipPath id="i"><path d="M201 .5h2v198.238h-2Zm0 0"/></clipPath><clipPath id="k"><path d="M241 .5h1v198.238h-1Zm0 0"/></clipPath><clipPath id="l"><path d="M280 .5h2v198.238h-2Zm0 0"/></clipPath><clipPath id="y"><path d="M34.36 191h249.898v2H34.359Zm0 0"/></clipPath><clipPath id="z"><path d="M34.36 166h249.898v1H34.359Zm0 0"/></clipPath><clipPath id="A"><path d="M34.36 140h249.898v2H34.359Zm0 0"/></clipPath><clipPath id="C"><path d="M34.36 114h249.898v2H34.359Zm0 0"/></clipPath><clipPath id="E"><path d="M34.36 89h249.898v1H34.359Zm0 0"/></clipPath><clipPath id="G"><path d="M34.36 63h249.898v2H34.359Zm0 0"/></clipPath><clipPath id="H"><path d="M34.36 37h249.898v2H34.359Zm0 0"/></clipPath><clipPath id="I"><path d="M34.36 11h249.898v2H34.359Zm0 0"/></clipPath></defs><g clip-path="url(#a)"><path fill="#FFF" d="M0 230.398h288V0H0Zm0 0"/></g><path fill="#EAEAF2" d="M34.36 198.738h249.898V.5H34.359Zm0 0"/><g clip-path="url(#b)"><path fill="none" stroke="#FFF" stroke-linecap="round" stroke-linejoin="round" stroke-miterlimit="10" stroke-width=".8" d="M45.719 198.738V.5"/></g><use xlink:href="#c" x="42.539" y="213.334" fill="#262626"/><g clip-path="url(#d)"><path fill="none" stroke="#FFF" stroke-linecap="round" stroke-linejoin="round" stroke-miterlimit="10" stroke-width=".8" d="M84.887 198.738V.5"/></g><use xlink:href="#e" x="81.708" y="213.334" fill="#262626"/><g clip-path="url(#f)"><path fill="none" stroke="#FFF" stroke-linecap="round" stroke-linejoin="round" stroke-miterlimit="10" stroke-width=".8" d="M124.059 198.738V.5"/></g><g fill="#262626"><use xlink:href="#g" x="117.698" y="213.334"/><use xlink:href="#c" x="124.058" y="213.334"/></g><g clip-path="url(#h)"><path fill="none" stroke="#FFF" stroke-linecap="round" stroke-linejoin="round" stroke-miterlimit="10" stroke-width=".8" d="M163.227 198.738V.5"/></g><g fill="#262626"><use xlink:href="#g" x="156.867" y="213.334"/><use xlink:href="#e" x="163.227" y="213.334"/></g><g clip-path="url(#i)"><path fill="none" stroke="#FFF" stroke-linecap="round" stroke-linejoin="round" stroke-miterlimit="10" stroke-width=".8" d="M202.395 198.738V.5"/></g><g fill="#262626"><use xlink:href="#j" x="196.036" y="213.334"/><use xlink:href="#c" x="202.396" y="213.334"/></g><g clip-path="url(#k)"><path fill="none" stroke="#FFF" stroke-linecap="round" stroke-linejoin="round" stroke-miterlimit="10" stroke-width=".8" d="M241.563 198.738V.5"/></g><g fill="#262626"><use xlink:href="#j" x="235.205" y="213.334"/><use xlink:href="#e" x="241.565" y="213.334"/></g><g clip-path="url(#l)"><path fill="none" stroke="#FFF" stroke-linecap="round" stroke-linejoin="round" stroke-miterlimit="10" stroke-width=".8" d="M280.734 198.738V.5"/></g><g fill="#262626"><use xlink:href="#m" x="274.374" y="213.334"/><use xlink:href="#c" x="280.734" y="213.334"/></g><g fill="#262626"><use xlink:href="#n" x="113.653" y="227.006"/><use xlink:href="#o" x="116.603" y="227.006"/><use xlink:href="#p" x="122.943" y="227.006"/><use xlink:href="#q" x="129.293" y="227.006"/></g><g fill="#262626"><use xlink:href="#r" x="135.271" y="227.006"/><use xlink:href="#s" x="141.191" y="227.006"/><use xlink:href="#t" x="144.371" y="227.006"/><use xlink:href="#o" x="147.151" y="227.006"/><use xlink:href="#s" x="153.491" y="227.006"/><use xlink:href="#u" x="156.671" y="227.006"/><use xlink:href="#q" x="161.881" y="227.006"/><use xlink:href="#v" x="168.031" y="227.006"/><use xlink:href="#w" x="174.381" y="227.006"/><use xlink:href="#q" x="180.721" y="227.006"/><use xlink:href="#o" x="186.871" y="227.006"/><use xlink:href="#x" x="193.211" y="227.006"/><use xlink:href="#q" x="198.711" y="227.006"/></g><g clip-path="url(#y)"><path fill="none" stroke="#FFF" stroke-linecap="round" stroke-linejoin="round" stroke-miterlimit="10" stroke-width=".8" d="M34.36 192.18h249.898"/></g><use xlink:href="#c" x="21.001" y="195.976" fill="#262626"/><g clip-path="url(#z)"><path fill="none" stroke="#FFF" stroke-linecap="round" stroke-linejoin="round" stroke-miterlimit="10" stroke-width=".8" d="M34.36 166.496h249.898"/></g><use xlink:href="#j" x="21.001" y="170.291" fill="#262626"/><g clip-path="url(#A)"><path fill="none" stroke="#FFF" stroke-linecap="round" stroke-linejoin="round" stroke-miterlimit="10" stroke-width=".8" d="M34.36 140.809h249.898"/></g><use xlink:href="#B" x="21.001" y="144.606" fill="#262626"/><g clip-path="url(#C)"><path fill="none" stroke="#FFF" stroke-linecap="round" stroke-linejoin="round" stroke-miterlimit="10" stroke-width=".8" d="M34.36 115.125h249.898"/></g><use xlink:href="#D" x="21.001" y="118.92" fill="#262626"/><g clip-path="url(#E)"><path fill="none" stroke="#FFF" stroke-linecap="round" stroke-linejoin="round" stroke-miterlimit="10" stroke-width=".8" d="M34.36 89.438h249.898"/></g><use xlink:href="#F" x="21.001" y="93.235" fill="#262626"/><g clip-path="url(#G)"><path fill="none" stroke="#FFF" stroke-linecap="round" stroke-linejoin="round" stroke-miterlimit="10" stroke-width=".8" d="M34.36 63.754h249.898"/></g><g fill="#262626"><use xlink:href="#g" x="14.641" y="67.549"/><use xlink:href="#c" x="21.001" y="67.549"/></g><g clip-path="url(#H)"><path fill="none" stroke="#FFF" stroke-linecap="round" stroke-linejoin="round" stroke-miterlimit="10" stroke-width=".8" d="M34.36 38.066h249.898"/></g><g fill="#262626"><use xlink:href="#g" x="14.641" y="41.864"/><use xlink:href="#j" x="21.001" y="41.864"/></g><g clip-path="url(#I)"><path fill="none" stroke="#FFF" stroke-linecap="round" stroke-linejoin="round" stroke-miterlimit="10" stroke-width=".8" d="M34.36 12.383h249.898"/></g><g fill="#262626"><use xlink:href="#g" x="14.641" y="16.178"/><use xlink:href="#B" x="21.001" y="16.178"/></g><use xlink:href="#J" x="8.563" y="123.565" fill="#262626"/><g fill="#262626"><use xlink:href="#K" x="8.563" y="114.316"/><use xlink:href="#L" x="8.563" y="108.186"/><use xlink:href="#M" x="8.563" y="105.406"/><use xlink:href="#N" x="8.563" y="101.486"/><use xlink:href="#M" x="8.563" y="98.306"/><use xlink:href="#L" x="8.563" y="94.386"/><use xlink:href="#O" x="8.563" y="91.606"/><use xlink:href="#P" x="8.563" y="81.866"/></g><path fill="none" stroke="#36ADA4" stroke-linejoin="round" stroke-miterlimit="10" stroke-width=".6" d="M45.719 58.855V9.512M53.555 188.145v-50.043M61.387 188.313v-52.63M69.219 187.824v-51.277M77.055 188.422v-47.567M84.887 188.543v-43.988M92.723 188.902v-43.457M100.555 189.063v-43.055M108.39 189.375V146.68M116.223 189.496v-42.305M124.059 189.59v-42.43M131.89 189.684v-42.559M139.727 189.43v-42.356M147.559 189.73v-41.796M155.39 189.324V147.52M163.227 189.602v-42.13M171.059 189.395v-41.297M178.895 189.152V147.63M186.727 189.152v-41.554M194.563 189.254v-43.262M202.395 188.887v-43.649M210.23 188.473v-43M218.063 188.316v-43.644M225.898 188.465v-45.809M233.73 187.941v-46.753M241.563 187.43v-47.07M249.398 186.672v-48.324M257.23 185.352v-47.497M265.066 185.406V143.13M272.898 189.441V159.77"/><path fill="none" stroke="#32B166" stroke-linecap="round" stroke-linejoin="round" stroke-miterlimit="10" stroke-width="1.5" d="m45.719 34.184 7.836 128.937 7.832-1.125 7.832.191 7.836 2.454 7.832 1.906 7.836.625 7.832.363 7.836.492 7.832.317 7.836.031 7.832.027 7.836-.148 7.832.578 7.832-.41 7.836.117 7.832.207 7.836-.355 7.832-.016 7.835-.75 7.833-.562 7.835-.09 7.833-.477 7.835-.937 7.832-.996 7.833-.668 7.835-1.383 7.832-.91 7.836 2.668 7.832 10.335"/><path fill="none" stroke="#FFF" stroke-linecap="square" stroke-miterlimit="10" stroke-width=".8" d="M34.36 198.738V.5M284.258 198.738V.5M34.36 198.738h249.898M34.36.5h249.898"/></svg>