<?xml version="1.0" encoding="UTF-8"?><svg id="a" xmlns="http://www.w3.org/2000/svg" viewBox="0 0 200 200"><defs><style>.c{fill:#f7931e;}.d{fill:#fff;}.e{fill:#ed1c24;}.f{fill:#fcd521;}.g{fill:#ff4e4b;}.h{fill:#9d9fa2;}.i,.j{fill:#e0e0e0;}.k{fill:#29abe2;}.l{fill:#39b54a;}.j{stroke:#000;stroke-miterlimit:10;stroke-width:4px;}</style></defs><g><circle class="j" cx="104.55" cy="93.77" r="45.89"/><g><path d="M147.57,85.28c-.77-4.29-1.56-8.59-2.28-12.89-.12-.69-.07-1.45,.08-2.14,.15-.7,1.06-1.17,1.78-1.13,1.54,.07,3.08,.21,4.62,.15,2.65-.11,4.57,1.05,5.97,3.18,.34,.52,.53,1.19,.64,1.82,1.05,5.76,2.05,11.53,3.12,17.28,.44,2.37-.23,4.34-1.91,5.98-.53,.52-1.2,.95-1.88,1.24-1.54,.65-3.13,1.19-4.7,1.77-1.63,.6-2.7,0-3.01-1.73-.48-2.61-.94-5.23-1.41-7.84-.34-1.89-.68-3.79-1.02-5.68h0Z"/><path d="M60.08,104.37c.75,3.11,1.5,6.21,2.23,9.32,.29,1.23-.16,1.86-1.43,1.95-1.21,.09-2.42,.19-3.64,.18-1.81,0-3.77-1.29-4.2-3.08-1.01-4.23-2.04-8.47-3.05-12.7-.45-1.87,.95-4.21,2.83-4.83,.97-.32,1.86-.84,2.78-1.29,1.07-.52,1.91-.15,2.19,1.01,.77,3.14,1.51,6.29,2.27,9.43Z"/></g><g><path d="M97.38,73.98c5.43-.53,10.84-.31,16.21,2.17,4.52,2.09,8.5,5.42,10.75,11.68,2.57,7.17,.51,14.57-4.9,16.84-2.36,.99-5.06,1.48-7.58,1.04-11.94-2.07-23.27-.04-34.27,4.7-1.13,.49-2.33,.78-3.53,.88-4.74,.4-7.83-3.96-6.71-10.27,.71-3.98,2.19-7.91,4.05-11,4.65-7.72,11.2-11.58,18.26-14.03,2.53-.88,5.15-1.36,7.73-2.03Z"/><path class="d" d="M108.59,86.56c3.2-.18,5.8,2.49,5.77,5.51-.03,3.06-2.05,5.56-5.36,5.73-3.2,.16-5.78-2.16-5.94-5.52-.13-2.79,2.3-5.81,5.52-5.72Z"/><path class="d" d="M78.38,95.36c2.12-.6,4.12-.3,5.95,.89,.82,.54,1.59,1.21,1.79,2.29,.13,.67-.29,1.48-.94,1.69-.1,.03-.2,.05-.3,.09-.97,.48-1.7,.14-2.35-.64-.73-.86-2.85-1.12-3.8-.33-.83,.68-1.27,1.48-1.46,2.44-.22,1.09-1.09,1.41-2.09,1.45-.78,.03-1.5-.85-1.55-1.72-.09-1.42,.47-2.62,1.28-3.72,.88-1.18,2.02-2.02,3.45-2.46Z"/></g><path d="M80.9,53.69c.91-3.1,3.36-5.27,6.03-7.1,1.24-.85,3.31-.81,3.04-3.31-.24-2.27-1.98-2.28-3.41-2.96-4.24-2.02-6.07-6.07-4.75-10.27,1.24-3.94,5.26-6.42,9.33-5.77,4.24,.68,7.21,4.49,7.02,8.93-.09,2.12-.99,3.86-2.44,5.31-1.06,1.06-2.2,1.83-1.64,3.72,.61,2.06,2.06,1.69,3.54,1.81,2.51,.22,5.38,.58,6.94,2.42l-23.67,7.22Z"/><path class="g" d="M92.03,31.92c.22,1.3-.17,2.7-1.26,3.6-.48,.4-1.06,.64-1.67,.77-2.53,.55-4.32-.74-4.75-3.17-.4-2.27,1.01-3.97,3.2-4.31,1.04-.16,2.12,0,2.98,.63,.83,.6,1.34,1.51,1.5,2.48Z"/></g><g id="b"><g><path d="M64.07,168.95c-1.15,.62-2.31,.62-3.51,.27-1.97-.57-3.95-1.08-5.92-1.62-2.44-.67-3.96-2.67-3.96-5.2,0-1.84,.03-3.67,0-5.51-.02-1.34,.09-2.61,1.12-3.63-.94-1.19-1.14-2.54-1.11-3.97,.04-1.84-.05-3.67,.04-5.51,.09-1.86,.59-3.61,1.94-5.01,.06-.06,.12-.14,.21-.25-.24-.12-.45-.21-.66-.33-1.93-1.03-3.02-2.58-3-4.83,.02-1.74,.02-3.49,0-5.23,0-.91,.28-1.69,.88-2.37,.58-.66,1.13-1.35,1.74-1.97,.36-.36,.77-.72,1.23-.92,1.92-.85,3.84-1.72,5.93-2.08,.76-.13,1.53-.15,2.3-.24,.14-.02,.33-.11,.4-.22,.36-.59,.83-1.06,1.45-1.33,2.14-.94,4.28-1.91,6.62-2.27,.56-.09,1.14-.08,1.71-.15,.14-.02,.33-.11,.4-.22,.36-.57,.83-1.02,1.44-1.28,2.06-.89,4.11-1.83,6.35-2.2,1.72-.28,3.41-.19,5.05,.5,1.44,.61,2.92,1.15,4.38,1.71,.76,.3,1.45,.68,1.75,1.51,.03,.07,.19,.13,.28,.13,1.4-.1,2.72,.17,4.01,.71,1.44,.6,2.89,1.14,4.34,1.7,.71,.27,1.29,.68,1.59,1.41,.04,.09,.23,.17,.34,.16,1.26-.09,2.46,.11,3.63,.58,1.49,.6,2.99,1.19,4.5,1.75,.84,.31,1.47,.81,1.87,1.62,.38,.76,.86,1.47,1.21,2.24,.22,.48,.37,1.04,.38,1.56,.05,1.77,.02,3.54,.02,5.31,0,1.99-.94,3.45-2.62,4.45-.4,.24-.83,.42-1.26,.61-.22,.09-.29,.22-.29,.45,.01,1.06-.02,2.13,.01,3.19,.03,1.02-.17,1.98-.57,2.91-.05,.12,0,.31,.05,.45,.15,.43,.46,.85,.47,1.28,.05,1.82,.12,3.65-.02,5.46-.16,1.98-1.08,3.71-2.33,5.24-.49,.61-1.05,1.16-1.61,1.72-.49,.5-1.08,.86-1.76,1.06-.12,.04-.25,.19-.3,.31-.86,2.31-2.4,4.12-4.21,5.73-.34,.31-.83,.46-1.24,.7-.11,.07-.25,.16-.3,.27-1.13,2.63-2.99,4.69-5.04,6.62-.46,.43-.99,.74-1.6,.94-.56,.18-1.09,.49-1.63,.74-.88,.41-1.8,.46-2.73,.21-2.26-.6-4.52-1.21-6.77-1.83-.99-.27-1.83-.8-2.48-1.59-.18-.22-.31-.24-.57-.14-.94,.4-1.92,.38-2.89,.12-2.16-.58-4.31-1.17-6.47-1.75-1.16-.31-2.09-.97-2.81-1.98Zm14.29-2.87c0,.56,0,1.12,0,1.67,0,.57,0,1.14,0,1.71,.02,1.06,.57,1.83,1.6,2.12,2.26,.63,4.53,1.25,6.8,1.85,.86,.23,1.26-.1,1.26-.99,0-2.15,0-4.31,0-6.46,0-1.29-.95-2.47-2.22-2.76-2.07-.47-4.14-.94-6.22-1.41-.83-.19-1.23,.12-1.24,.96,0,1.1,0,2.21,0,3.31Zm-12.45-3.56c0,1.12-.01,2.23,0,3.35,.02,1.07,.7,2.09,1.61,2.34,2.21,.62,4.43,1.22,6.66,1.8,.32,.08,.68,.02,1.02-.03,.26-.04,.39-.24,.39-.52,0-2.29,.01-4.57-.01-6.86-.01-1.08-.93-2.28-1.93-2.56-2.18-.6-4.36-1.18-6.54-1.75-.78-.2-1.18,.11-1.18,.92,0,1.1,0,2.21,0,3.31Zm-2.78-.05h0c0-1.05,0-2.1,0-3.15,0-1.15-.89-2.3-2.01-2.58-2.14-.54-4.28-1.07-6.42-1.6-.89-.22-1.23,.05-1.24,.95,0,2.09,0,4.17,0,6.26,0,1.17,.85,2.29,1.98,2.6,1.09,.3,2.18,.59,3.27,.89,1.03,.28,2.05,.57,3.08,.82,.83,.2,1.33-.21,1.33-1.04,0-1.05,0-2.1,0-3.15Zm0-12.55h.01c0-.96,0-1.91,0-2.87,0-1.4-.82-2.47-2.18-2.81-2.07-.52-4.15-1.03-6.23-1.54-.88-.22-1.22,.05-1.26,.95,0,.09,0,.19,0,.28,0,2.02,0,4.04,0,6.06,0,1.06,.86,2.2,1.89,2.46,2.2,.56,4.41,1.11,6.61,1.65,.77,.19,1.15-.11,1.15-.9,0-1.09,0-2.18,0-3.27Zm2.78-.03h0c0,1.13,0,2.26,0,3.39,0,.27,.05,.56,.16,.81,.36,.79,.96,1.33,1.81,1.55,2.09,.56,4.18,1.12,6.28,1.67,.2,.05,.41,.1,.62,.12,.53,.05,.77-.18,.79-.7,0-.24,0-.48,0-.72,0-1.96,0-3.91,0-5.87,0-.74-.25-1.29-1.01-1.63-1.14-.5-2.23-1.12-3.34-1.69-.07-.04-.14-.07-.22-.09-1.42-.36-2.83-.72-4.26-1.06-.53-.13-.85,.15-.85,.7,0,1.17,0,2.34,0,3.51Zm12.49,.37c-.04,.09-.05,.12-.05,.14,0,2.13-.03,4.26,.01,6.38,.02,1.11,.94,2.12,2.04,2.37,1.39,.32,2.77,.63,4.16,.95,.78,.18,1.55,.37,2.33,.53,.69,.14,1.13-.19,1.14-.85,.01-2.33,.02-4.65,0-6.98,0-.98-.78-1.88-1.73-2.12-.59-.15-1.18-.32-1.78-.45-.19-.04-.42-.03-.61,.03-.68,.24-1.35,.49-2,.78-.54,.24-1.04,.24-1.57,0-.63-.28-1.27-.52-1.93-.78Zm1.33-2.68v-.57c0-2.09-.02-4.17,0-6.26,0-.72-.23-1.32-.68-1.86-.5-.61-1.12-1.05-1.85-1.34-1.55-.6-3.09-1.21-4.64-1.8-.22-.08-.46-.13-.69-.17-.32-.05-.47,.06-.47,.43,.02,2.03,0,4.07,.01,6.1,0,.22,.03,.46,.12,.66,.43,.94,1.05,1.74,1.99,2.21,1.65,.81,3.31,1.57,4.98,2.32,.35,.16,.76,.18,1.22,.28Zm2.78-3.84c0,1.13,.01,2.26,0,3.39,0,.31,.12,.43,.39,.37,.36-.07,.74-.14,1.07-.28,1.46-.63,2.91-1.3,4.38-1.93,1.03-.44,1.75-1.19,2.26-2.16,.13-.24,.21-.53,.22-.79,.02-2.06,0-4.12,.02-6.18,0-.3-.15-.4-.38-.37-.34,.04-.68,.11-1,.23-1.46,.54-2.89,1.14-4.37,1.63-.87,.28-1.53,.77-2.07,1.47-.35,.46-.53,.96-.51,1.56,.03,1.02,0,2.05,0,3.07Zm-13.92-1.22c.02-.14,.04-.21,.04-.27,0-2.11,0-4.23,0-6.34,0-.13-.02-.27-.07-.39-.4-.95-1.02-1.73-2-2.12-1.82-.72-3.64-1.41-5.47-2.1-.22-.08-.47-.1-.74-.15-.01,.16-.03,.23-.03,.31,0,1.97,0,3.94,0,5.9,0,.14,.02,.3,.07,.43,.38,.91,.95,1.67,1.87,2.08,1.82,.82,3.64,1.62,5.47,2.42,.26,.11,.55,.15,.85,.22Zm25.01,.21c.42-.13,.76-.19,1.06-.33,1.81-.83,3.63-1.64,5.42-2.52,1-.49,1.76-1.31,1.81-2.45,.09-1.9,.02-3.8,.03-5.7,0-.32-.13-.41-.41-.35-.1,.02-.21,.05-.31,.09-1.91,.76-3.85,1.46-5.72,2.32-1.16,.53-1.93,1.45-1.9,2.88,.04,1.83,0,3.67,0,5.5v.57Zm-36.06-5.11c0-.22,0-.36,0-.51,0-1.78,0-3.56,0-5.34,0-1.01-.74-2.12-1.68-2.5-1.12-.46-2.24-.9-3.37-1.35-.14-.06-.29-.08-.49-.13,0,.2,0,.35,0,.49,0,1.62,.02,3.24,0,4.87-.02,1.25,.62,2.1,1.64,2.66,1.05,.57,2.14,1.06,3.22,1.57,.2,.09,.41,.15,.68,.24Zm52.69-9.42c-.13,.02-.22,.01-.29,.04-1.24,.45-2.51,.82-3.69,1.37-.94,.43-1.55,1.22-1.55,2.36,.01,1.75,0,3.51,0,5.26v.47c.19-.05,.33-.06,.44-.11,1.24-.55,2.5-1.05,3.69-1.7,.86-.46,1.41-1.24,1.39-2.3,0-.65,0-1.3,0-1.95,0-1.13,0-2.26,0-3.43Zm-19.39,31.09c1.6-1.07,2.8-2.42,3.6-4.12,.38-.8,.58-1.63,.56-2.54-.04-1.45-.01-2.9-.01-4.34v-.49c-.29,.14-.55,.21-.74,.36-.68,.51-1.38,1-1.99,1.59-.83,.8-1.37,1.8-1.4,2.96-.06,2.18-.02,4.36-.02,6.59Zm4.14,.4l-.11-.06c-.58,.48-1.19,.93-1.75,1.44-1.34,1.22-2.22,2.7-2.28,4.54-.06,1.83-.01,3.67-.01,5.5,0,.1,0,.2,.02,.33,.06-.03,.1-.04,.13-.06,1.37-1.33,2.58-2.79,3.38-4.55,.35-.77,.66-1.56,.63-2.44-.03-1.09,0-2.18,0-3.27,0-.47,0-.95,0-1.42Zm-27.56-34.42c-.14-.06-.24-.11-.35-.15-1.01-.4-2.05-.74-3.04-1.2-1.41-.65-2.86-.64-4.34-.42-1.69,.25-3.21,1.01-4.79,1.6-.08,.03-.15,.1-.24,.17,.08,.04,.14,.08,.2,.11,1.37,.54,2.75,1.07,4.12,1.6,.22,.08,.46,.16,.7,.16,.98-.02,1.97,0,2.93-.13,1.61-.22,3.05-.99,4.55-1.55,.08-.03,.15-.1,.25-.18Zm-2.3,4.06c.08,.05,.14,.09,.2,.11,1.36,.53,2.72,1.07,4.08,1.59,.24,.09,.52,.17,.78,.16,.88-.01,1.75-.03,2.62-.11,1.71-.17,3.22-.97,4.79-1.57,.08-.03,.15-.1,.25-.18-.14-.06-.24-.12-.35-.16-1.25-.49-2.5-.99-3.75-1.45-.36-.13-.75-.24-1.12-.24-.98,.02-1.97,.06-2.94,.19-1.53,.21-2.89,.95-4.32,1.48-.08,.03-.15,.11-.24,.17Zm23.2,4.08c-.17-.09-.22-.12-.28-.14-1.36-.53-2.72-1.06-4.08-1.58-.24-.09-.52-.17-.77-.16-1.05,.04-2.13-.03-3.13,.22-1.46,.37-2.86,.97-4.28,1.48-.07,.02-.12,.09-.22,.17,.15,.07,.27,.12,.39,.17,1.11,.43,2.24,.84,3.34,1.31,1.6,.67,3.22,.48,4.81,.08,1.17-.3,2.28-.78,3.42-1.19,.25-.09,.48-.21,.81-.35Zm9.93-4c-.18-.09-.24-.13-.31-.16-1.35-.53-2.7-1.06-4.05-1.57-.21-.08-.44-.14-.66-.14-.89,.01-1.78,0-2.67,.1-1.67,.17-3.14,.96-4.67,1.56-.06,.02-.11,.09-.18,.16,.09,.04,.13,.07,.18,.09,1.36,.53,2.72,1.07,4.09,1.58,.28,.11,.59,.15,.89,.17,2,.12,3.91-.26,5.73-1.11,.5-.24,1.03-.43,1.65-.68Zm-22.9-4.08c.09,.05,.16,.09,.23,.11,1.34,.52,2.67,1.04,4.01,1.55,.21,.08,.44,.12,.66,.14,1.13,.13,2.28,.09,3.36-.22,1.36-.38,2.68-.93,4.01-1.42,.07-.02,.12-.09,.2-.16-.08-.05-.14-.08-.2-.11-1.35-.53-2.7-1.05-4.05-1.57-.17-.07-.36-.1-.54-.13-2.73-.32-5.18,.59-7.6,1.68-.02,0-.03,.04-.09,.1Zm-10.4-4.03c.99,.38,1.92,.76,2.86,1.11,.62,.23,1.23,.52,1.88,.64,1.11,.21,2.22,.06,3.33-.11,1.53-.24,2.9-.95,4.32-1.49,.05-.02,.09-.07,.15-.13-.08-.04-.12-.07-.17-.09-1.34-.52-2.67-1.04-4.01-1.56-.17-.07-.36-.13-.54-.13-1.09,.03-2.18,0-3.25,.13-1.53,.18-2.9,.92-4.33,1.45-.07,.02-.12,.09-.23,.17Zm30.72,4.07c.15,.07,.27,.13,.39,.17,1.16,.45,2.32,.93,3.49,1.35,.52,.18,1.08,.28,1.62,.32,2.38,.16,4.5-.72,6.61-1.66,.04-.02,.08-.06,.16-.13-.16-.07-.29-.13-.42-.18-1.08-.42-2.16-.81-3.23-1.27-.77-.33-1.56-.38-2.37-.39-2.18-.02-4.11,.84-6.06,1.65-.06,.02-.1,.07-.19,.14Zm-10.28-4c.14,.06,.24,.12,.35,.16,1.19,.46,2.37,.93,3.57,1.38,.28,.11,.58,.24,.88,.24,1.03-.01,2.07-.01,3.09-.13,1.51-.18,2.85-.92,4.24-1.46,.05-.02,.09-.08,.17-.15-1.14-.44-2.26-.82-3.33-1.31-1.22-.56-2.47-.53-3.75-.43-1.8,.14-3.39,.93-5.04,1.56-.05,.02-.1,.07-.18,.14Zm-10.29-4.01c.08,.05,.13,.09,.18,.11,1.34,.52,2.67,1.04,4.01,1.55,.2,.07,.41,.14,.62,.13,1.01-.03,2.02-.02,3.02-.13,1.52-.17,2.88-.91,4.29-1.44,.06-.02,.11-.09,.19-.16-1.36-.53-2.68-1.06-4.01-1.55-.33-.12-.69-.19-1.04-.22-2.55-.23-4.86,.64-7.14,1.63-.04,.02-.06,.05-.11,.09Zm25.34,25.54c-.46,.38-.92,.72-1.33,1.11-.89,.84-1.35,1.88-1.35,3.12,0,1.67,0,3.35,0,5.02,0,.12,.01,.23,.02,.4,.14-.08,.25-.12,.33-.19,1.39-1.08,2.18-2.56,2.36-4.24,.17-1.68,.04-3.4,.04-5.1,0-.02-.02-.04-.08-.13Zm.09,11.09c-.2,.16-.31,.23-.4,.33-.75,.74-1.37,1.59-1.85,2.54-.36,.73-.56,1.5-.54,2.34,.04,1.3,.01,2.61,.01,3.91,0,.13,.01,.25,.02,.44,.79-.76,1.41-1.56,1.89-2.47,.56-1.05,.92-2.14,.86-3.35-.05-1.06,0-2.13,0-3.19v-.53Zm5.61-5.4l-.15-.04c-1.1,.68-1.81,1.69-2.31,2.85-.2,.47-.34,.99-.37,1.49-.05,1.27-.02,2.55-.02,3.83,0,.11,.02,.22,.03,.39,1.28-1.19,2.26-2.53,2.55-4.17,.25-1.42,.19-2.9,.26-4.36Zm-.08-8.25c-.65,.03-1.25,.05-1.85,.08-.08,0-.19,.05-.23,.11-.35,.55-.69,1.1-.69,1.79,0,1.45,0,2.89,0,4.34,0,.11,.02,.22,.03,.38,.34-.25,.63-.43,.89-.66,.94-.85,1.65-1.88,1.82-3.14,.13-.98,.03-1.99,.03-2.92Z"/><path class="d" d="M78.36,166.08c0-1.1,0-2.21,0-3.31,0-.84,.41-1.14,1.24-.96,2.07,.47,4.14,.94,6.22,1.41,1.27,.29,2.22,1.47,2.22,2.76,0,2.15,0,4.31,0,6.46,0,.9-.4,1.22-1.26,.99-2.27-.61-4.54-1.22-6.8-1.85-1.03-.29-1.59-1.05-1.6-2.12,0-.57,0-1.14,0-1.71,0-.56,0-1.12,0-1.67Z"/><path class="e" d="M65.9,162.52c0-1.1,0-2.21,0-3.31,0-.8,.41-1.12,1.18-.92,2.18,.57,4.37,1.15,6.54,1.75,1,.28,1.92,1.48,1.93,2.56,.02,2.29,0,4.57,.01,6.86,0,.29-.12,.48-.39,.52-.33,.05-.7,.11-1.02,.03-2.22-.58-4.44-1.18-6.66-1.8-.91-.25-1.6-1.27-1.61-2.34-.02-1.12,0-2.23,0-3.35Z"/><path class="k" d="M63.12,162.47c0,1.05,0,2.1,0,3.15,0,.82-.51,1.24-1.33,1.04-1.03-.25-2.05-.54-3.08-.82-1.09-.29-2.18-.59-3.27-.89-1.13-.31-1.98-1.43-1.98-2.6,0-2.09,0-4.17,0-6.26,0-.9,.35-1.17,1.24-.95,2.14,.53,4.28,1.06,6.42,1.6,1.12,.28,2,1.42,2.01,2.58,0,1.05,0,2.1,0,3.15h0Z"/><path class="d" d="M63.12,149.92c0,1.09,0,2.18,0,3.27,0,.79-.38,1.09-1.15,.9-2.21-.54-4.41-1.09-6.61-1.65-1.03-.26-1.89-1.4-1.89-2.46,0-2.02,0-4.04,0-6.06,0-.09,0-.19,0-.28,.03-.9,.37-1.17,1.26-.95,2.08,.51,4.15,1.02,6.23,1.54,1.36,.34,2.18,1.41,2.18,2.81,0,.96,0,1.91,0,2.87h-.01Z"/><path class="l" d="M65.9,149.88c0-1.17,0-2.34,0-3.51,0-.54,.32-.82,.85-.7,1.42,.34,2.84,.7,4.26,1.06,.08,.02,.15,.05,.22,.09,1.11,.57,2.2,1.19,3.34,1.69,.76,.34,1.01,.88,1.01,1.63,0,1.96,0,3.91,0,5.87,0,.24,0,.48,0,.72-.02,.53-.26,.75-.79,.7-.21-.02-.42-.07-.62-.12-2.09-.56-4.18-1.12-6.28-1.67-.86-.23-1.45-.76-1.81-1.55-.11-.24-.16-.53-.16-.81-.02-1.13,0-2.26,0-3.39h0Z"/><path class="e" d="M78.39,150.25c.66,.26,1.3,.5,1.93,.78,.54,.24,1.04,.23,1.57,0,.66-.29,1.33-.54,2-.78,.18-.07,.41-.07,.61-.03,.6,.13,1.18,.3,1.78,.45,.95,.24,1.73,1.15,1.73,2.12,.02,2.33,.01,4.65,0,6.98,0,.67-.45,.99-1.14,.85-.78-.16-1.56-.35-2.33-.53-1.39-.32-2.77-.63-4.16-.95-1.1-.25-2.02-1.26-2.04-2.37-.04-2.13-.01-4.25-.01-6.38,0-.02,.02-.05,.05-.14Z"/><path class="d" d="M79.72,147.57c-.46-.1-.87-.12-1.22-.28-1.67-.75-3.34-1.52-4.98-2.32-.94-.46-1.56-1.26-1.99-2.21-.09-.2-.12-.44-.12-.66,0-2.03,0-4.07-.01-6.1,0-.37,.14-.48,.47-.43,.23,.04,.47,.08,.69,.17,1.55,.59,3.1,1.2,4.64,1.8,.73,.29,1.35,.73,1.85,1.34,.44,.54,.69,1.14,.68,1.86-.02,2.09,0,4.17,0,6.26v.57Z"/><path class="k" d="M82.5,143.73c0-1.02,.02-2.05,0-3.07-.02-.59,.17-1.1,.51-1.56,.53-.7,1.2-1.19,2.07-1.47,1.48-.48,2.91-1.09,4.37-1.63,.32-.12,.66-.18,1-.23,.23-.03,.38,.07,.38,.37-.01,2.06,0,4.12-.02,6.18,0,.27-.09,.56-.22,.79-.51,.97-1.23,1.71-2.26,2.16-1.47,.63-2.91,1.3-4.38,1.93-.34,.14-.71,.21-1.07,.28-.28,.06-.4-.06-.39-.37,.02-1.13,0-2.26,0-3.39Z"/><path class="c" d="M68.58,142.52c-.3-.08-.59-.11-.85-.22-1.83-.8-3.65-1.6-5.47-2.42-.92-.42-1.49-1.17-1.87-2.08-.05-.13-.07-.28-.07-.43,0-1.97,0-3.94,0-5.9,0-.08,.01-.15,.03-.31,.27,.05,.52,.07,.74,.15,1.83,.69,3.66,1.38,5.47,2.1,.98,.39,1.6,1.16,2,2.12,.05,.12,.07,.26,.07,.39,0,2.11,0,4.23,0,6.34,0,.06-.02,.13-.04,.27Z"/><path class="l" d="M93.59,142.73v-.57c0-1.83,.03-3.67,0-5.5-.03-1.42,.74-2.35,1.9-2.88,1.87-.86,3.81-1.55,5.72-2.32,.1-.04,.2-.07,.31-.09,.28-.06,.41,.03,.41,.35-.01,1.9,.06,3.8-.03,5.7-.05,1.15-.82,1.96-1.81,2.45-1.79,.88-3.61,1.7-5.42,2.52-.3,.14-.64,.2-1.06,.33Z"/><path class="f" d="M57.53,137.62c-.27-.09-.48-.15-.68-.24-1.08-.52-2.17-1-3.22-1.57-1.03-.56-1.66-1.4-1.64-2.66,.03-1.62,0-3.24,0-4.87,0-.14,0-.29,0-.49,.2,.05,.35,.07,.49,.13,1.12,.45,2.25,.89,3.37,1.35,.94,.38,1.68,1.5,1.68,2.5,0,1.78,0,3.56,0,5.34,0,.14,0,.29,0,.51Z"/><path class="f" d="M110.22,128.2c0,1.18,0,2.31,0,3.43,0,.65,0,1.3,0,1.95,.01,1.06-.54,1.84-1.39,2.3-1.19,.64-2.45,1.14-3.69,1.7-.12,.05-.25,.06-.44,.11v-.47c0-1.75,0-3.51,0-5.26,0-1.14,.61-1.92,1.55-2.36,1.19-.55,2.46-.92,3.69-1.37,.07-.03,.15-.02,.29-.04Z"/><path class="l" d="M90.82,159.29c0-2.23-.04-4.41,.02-6.59,.03-1.15,.58-2.16,1.4-2.96,.61-.59,1.31-1.08,1.99-1.59,.19-.15,.44-.22,.74-.36v.49c0,1.45-.03,2.9,.01,4.34,.02,.9-.18,1.73-.56,2.54-.79,1.7-1.99,3.05-3.6,4.12Z"/><path class="e" d="M94.97,159.69c0,.47,0,.95,0,1.42,0,1.09-.02,2.18,0,3.27,.03,.89-.28,1.67-.63,2.44-.8,1.76-2.01,3.22-3.38,4.55-.02,.02-.06,.03-.13,.06,0-.12-.02-.23-.02-.33,0-1.83-.05-3.67,.01-5.5,.06-1.84,.94-3.32,2.28-4.54,.56-.51,1.17-.96,1.75-1.44l.11,.06Z"/><path class="c" d="M67.4,125.26c-.11,.08-.17,.15-.25,.18-1.5,.56-2.94,1.33-4.55,1.55-.97,.13-1.95,.11-2.93,.13-.23,0-.47-.07-.7-.16-1.38-.53-2.75-1.06-4.12-1.6-.06-.02-.11-.06-.2-.11,.09-.07,.16-.14,.24-.17,1.58-.59,3.1-1.35,4.79-1.6,1.48-.22,2.93-.23,4.34,.42,.99,.45,2.02,.8,3.04,1.2,.11,.04,.21,.09,.35,.15Z"/><path class="k" d="M65.1,129.32c.09-.07,.16-.14,.24-.17,1.43-.53,2.79-1.27,4.32-1.48,.97-.13,1.96-.17,2.94-.19,.37,0,.76,.1,1.12,.24,1.26,.47,2.5,.96,3.75,1.45,.11,.04,.21,.1,.35,.16-.1,.08-.17,.15-.25,.18-1.57,.6-3.08,1.41-4.79,1.57-.87,.08-1.75,.1-2.62,.11-.26,0-.53-.07-.78-.16-1.37-.52-2.72-1.06-4.08-1.59-.06-.02-.11-.06-.2-.11Z"/><path class="e" d="M88.3,133.4c-.33,.14-.57,.26-.81,.35-1.14,.41-2.25,.9-3.42,1.19-1.59,.4-3.21,.59-4.81-.08-1.1-.46-2.22-.87-3.34-1.31-.12-.05-.23-.1-.39-.17,.1-.08,.15-.15,.22-.17,1.42-.51,2.82-1.11,4.28-1.48,1-.25,2.08-.18,3.13-.22,.26-.01,.53,.06,.77,.16,1.37,.52,2.72,1.05,4.08,1.58,.06,.02,.11,.06,.28,.14Z"/><path class="d" d="M98.23,129.4c-.62,.26-1.15,.45-1.65,.68-1.82,.85-3.73,1.22-5.73,1.11-.3-.02-.61-.06-.89-.17-1.37-.51-2.73-1.05-4.09-1.58-.05-.02-.09-.05-.18-.09,.08-.07,.12-.13,.18-.16,1.53-.6,3.01-1.38,4.67-1.56,.88-.09,1.78-.09,2.67-.1,.22,0,.45,.06,.66,.14,1.35,.52,2.7,1.05,4.05,1.57,.07,.03,.14,.07,.31,.16Z"/><path class="f" d="M75.33,125.32c.05-.06,.07-.09,.09-.1,2.42-1.09,4.87-2,7.6-1.68,.18,.02,.37,.06,.54,.13,1.35,.52,2.7,1.04,4.05,1.57,.06,.02,.11,.06,.2,.11-.08,.06-.13,.13-.2,.16-1.33,.48-2.65,1.03-4.01,1.42-1.08,.31-2.23,.34-3.36,.22-.22-.02-.45-.06-.66-.14-1.34-.51-2.68-1.03-4.01-1.55-.07-.03-.14-.07-.23-.11Z"/><path class="e" d="M64.93,121.29c.11-.08,.16-.14,.23-.17,1.43-.53,2.8-1.27,4.33-1.45,1.07-.13,2.17-.1,3.25-.13,.18,0,.37,.06,.54,.13,1.34,.51,2.68,1.04,4.01,1.56,.05,.02,.09,.05,.17,.09-.06,.06-.1,.11-.15,.13-1.43,.54-2.8,1.25-4.32,1.49-1.11,.18-2.22,.33-3.33,.11-.64-.12-1.26-.41-1.88-.64-.94-.35-1.87-.73-2.86-1.11Z"/><path class="k" d="M95.65,125.36c.09-.07,.13-.12,.19-.14,1.95-.81,3.88-1.67,6.06-1.65,.82,0,1.6,.06,2.37,.39,1.06,.45,2.15,.85,3.23,1.27,.13,.05,.26,.11,.42,.18-.08,.07-.11,.11-.16,.13-2.11,.94-4.23,1.82-6.61,1.66-.55-.04-1.11-.14-1.62-.32-1.18-.41-2.33-.89-3.49-1.35-.12-.05-.23-.1-.39-.17Z"/><path class="d" d="M85.37,121.36c.08-.06,.12-.12,.18-.14,1.64-.63,3.24-1.43,5.04-1.56,1.28-.1,2.53-.12,3.75,.43,1.07,.49,2.19,.87,3.33,1.31-.07,.07-.11,.12-.17,.15-1.4,.54-2.73,1.28-4.24,1.46-1.02,.12-2.06,.12-3.09,.13-.29,0-.59-.13-.88-.24-1.19-.45-2.38-.92-3.57-1.38-.11-.04-.21-.1-.35-.16Z"/><path class="l" d="M75.09,117.35s.08-.07,.11-.09c2.28-.98,4.59-1.86,7.14-1.63,.35,.03,.71,.1,1.04,.22,1.33,.5,2.65,1.02,4.01,1.55-.08,.07-.13,.14-.19,.16-1.41,.53-2.77,1.26-4.29,1.44-1,.11-2.01,.11-3.02,.13-.21,0-.42-.06-.62-.13-1.34-.51-2.68-1.03-4.01-1.55-.06-.02-.11-.06-.18-.11Z"/><path class="e" d="M100.43,142.88c.05,.09,.08,.11,.08,.13,0,1.7,.13,3.41-.04,5.1-.17,1.69-.97,3.16-2.36,4.24-.09,.07-.19,.11-.33,.19,0-.17-.02-.29-.02-.4,0-1.67,0-3.35,0-5.02,0-1.24,.45-2.28,1.35-3.12,.41-.39,.87-.73,1.33-1.11Z"/><path class="f" d="M100.52,153.97v.53c0,1.06-.04,2.13,0,3.19,.05,1.22-.3,2.31-.86,3.35-.48,.91-1.1,1.71-1.89,2.47-.01-.18-.02-.31-.02-.44,0-1.3,.03-2.61-.01-3.91-.03-.84,.17-1.61,.54-2.34,.47-.95,1.09-1.79,1.85-2.54,.09-.09,.2-.17,.4-.33Z"/><path class="l" d="M106.13,148.58c-.08,1.45-.01,2.93-.26,4.36-.29,1.64-1.27,2.98-2.55,4.17-.01-.17-.03-.28-.03-.39,0-1.28-.04-2.55,.02-3.83,.02-.5,.16-1.03,.37-1.49,.5-1.16,1.22-2.17,2.31-2.85l.15,.04Z"/><path class="c" d="M106.05,140.33c0,.93,.11,1.94-.03,2.92-.17,1.26-.88,2.29-1.82,3.14-.25,.23-.55,.41-.89,.66-.01-.17-.03-.27-.03-.38,0-1.45,0-2.89,0-4.34,0-.69,.34-1.24,.69-1.79,.04-.06,.15-.11,.23-.11,.6-.03,1.2-.06,1.85-.08Z"/></g></g><g><path d="M58.11,150.1c-.32-2.88-2.1-4.21-4.95-4.16-1.46,.03-3.26,.75-3.96-1.13-.83-2.2,1.33-2.69,2.56-3.67,1.88-1.5,2.46-3.37,1.42-5.62-1.01-2.19-2.48-3.95-5.15-3.6-5,.66-9.41,2.37-11.46,7.57-.32,.82-.21,1.86-1.15,2.36-.83,.44-1.65,.9-2.48,1.35-.01,.01-.03,.02-.05,.03-.33,.18-.65,.35-.98,.53-.04,.02-.09,.05-.13,.08-3.27,2.2-4.04,5.6-2.03,8.87,1.09,1.77,2.57,2.88,4.28,3.22,.38,.08,.76,.11,1.14,.11,.29,0,.57-.02,.86-.07,.15-.04,.3-.06,.45-.08,.06-.01,.11-.02,.17-.03,1.64-.25,3.24-.2,4.59,.43,4.83,2.27,9.06,1.35,13.58-.06,3.15-.97,3.59-3.4,3.29-6.13Zm-23.47,2.81c-1.08-.21-1.83-1.1-2.26-1.81-1.14-1.85-.77-3.43,1.12-4.7,.6-.4,1.17-.58,1.73-.58,.93,0,1.86,.47,3,1.16,1.32,3.13,.21,4.42-.77,5.12-.98,.71-1.95,.98-2.82,.81Zm17.45-.11c-1.75,.39-3.52,.64-5.3,.88-.43,.06-.9-.08-1.33-.19-.71-.18-5.3-11.24-5.09-12.22,.65-3.04,4.8-5.46,8.52-4.92,.21,.03,.35,.45,.73,.96-3.1,2.32-5.93,4.38-4.37,8.66,1.16,3.18,3.39,4.35,6.6,4.27,.76-.02,2.01-.49,2.09,.93,.05,1.11-1.01,1.45-1.85,1.63Z"/><path d="M38.23,146.98c1.32,3.13,.21,4.42-.77,5.12-.98,.71-1.95,.98-2.82,.81-1.08-.21-1.83-1.1-2.26-1.81-1.14-1.85-.77-3.43,1.12-4.7,.6-.4,1.17-.58,1.73-.58,.93,0,1.86,.47,3,1.16Z"/><path d="M53.94,151.17c.05,1.11-1.01,1.45-1.85,1.63-1.75,.39-3.52,.64-5.3,.88-.43,.06-.9-.08-1.33-.19-.71-.18-5.3-11.24-5.09-12.22,.65-3.04,4.8-5.46,8.52-4.92,.21,.03,.35,.45,.73,.96-3.1,2.32-5.93,4.38-4.37,8.66,1.16,3.18,3.39,4.35,6.6,4.27,.76-.02,2.01-.49,2.09,.93Z"/><path class="i" d="M53.94,151.17c.05,1.11-1.01,1.45-1.85,1.63-1.75,.39-3.52,.64-5.3,.88-.43,.06-.9-.08-1.33-.19-.71-.18-5.3-11.24-5.09-12.22,.65-3.04,4.8-5.46,8.52-4.92,.21,.03,.35,.45,.73,.96-3.1,2.32-5.93,4.38-4.37,8.66,1.16,3.18,3.39,4.35,6.6,4.27,.76-.02,2.01-.49,2.09,.93Z"/><g><path class="d" d="M37.46,152.1c-.98,.71-1.95,.98-2.82,.81-1.08-.21-1.83-1.1-2.26-1.81-1.14-1.85-.77-3.43,1.12-4.7,.6-.4,1.17-.58,1.73-.58,.93,0,1.86,.47,3,1.16,1.32,3.13,.21,4.42-.77,5.12Z"/><path d="M31.91,143.76c.33-.18,.65-.35,.98-.53-.32,.14-.65,.31-.98,.53Z"/></g></g><g><g><path d="M172.17,151.41c-.14-1.52-.54-2.92-1.12-4.18-.04-.08-.07-.14-.12-.21-.22-.48-.43-.96-.62-1.45-.66-1.75-1.12-3.56-1.53-5.35-.01-.02-.01-.05-.03-.08-3.09-13.28-9-24.43-20.57-32.13-.03-.02-.05-.04-.08-.06-1.06-.71-.27-.77-1.3-.04-.18,.13-.3,.23-.38,.29-.08,0-.21,.02-.4,.06l-1.66,1.21s-2.2,1.86-5,6.54l-2.15,4.64c-1.55,4.97-1.36,4.66-.58,5.94,.06,.1,.13,.21,.2,.34l5.9,3.28c.27-.18,.55-.31,.87-.44,1.88-.72,2.57,1.16,3.51,2.15,.47,.49,.92,.99,1.35,1.49,2.66,3.07,4.45,6.18,5.37,9.42,.14,.49,.25,.97,.35,1.46,.1,.3,.16,.63,.18,.97,.04,.37,.03,.74-.02,1.14-.24,2-2.23,1.72-3.53,2.1-.52,.14-1.03,.28-1.54,.39-4.47,1.09-8.45,1.18-12.09,.24-.84-.22-1.66-.48-2.46-.8-3.98-1.61-7.52-4.53-10.82-8.83-.93-1.2-2.16-2.17-2.96-2.85-.17-.14-.32-.27-.44-.38-2.76-1.44-5.15-2.09-7.5-2.44-.66-.1-1.31-.17-1.97-.23-.28-.03-.55-.04-.81-.02-2.79,.04-4.3,1.77-5.37,4.08h0c-.13,.31-.26,.61-.38,.92-.15,.37-.25,.73-.32,1.08-.07,.28-.1,.55-.11,.81-.11,1.55,.48,2.86,1.63,3.98,.33,.33,.71,.64,1.13,.93,.51,.36,1.15,.64,1.75,.96h.01c1.24,.68,2.31,1.49,1.66,3.36-.3,.86-.78,1.32-1.37,1.56-.82,.32-1.84,.21-2.82,.16-.42-.02-.84-.02-1.23,.02-.44,.05-.86,.13-1.25,.25-1.43,.41-2.53,1.22-3.19,2.41-.3,.54-.51,1.16-.62,1.86-.23,1.54-.33,3.25,.13,4.7h0c.3,1,.86,1.86,1.8,2.45,.19,.12,.4,.23,.63,.33,5.02,2.17,10.79,3.94,15.75,1.02,5.3-3.13,10.45-1.99,15.26-.71,5.87,1.55,11.62,2.42,17.27,2.32,1.67-.02,3.33-.13,4.98-.34,2.07-.25,4.12-.64,6.16-1.19,.54-.15,1.09-.31,1.62-.48,.03-.01,.06-.01,.1-.02,.75-.24,1.49-.5,2.23-.79,3.66-1.69,6.14-5.08,6.49-9.22,.1-.86,.1-1.72,.01-2.62Zm-52.45-2.51c-1.4,1.8-2.36,4.01-1.71,6.28,.9,3.18-.49,4.66-3.31,5.1-.46,.07-.93,.14-1.4,.19-.23,.03-.47,.05-.7,.07-.24,.02-.48,.04-.71,.05-.06,.01-.11,.01-.16,.01-.5,.02-.98,.03-1.47-.01-.27-.01-.54-.04-.8-.08-.26-.03-.52-.08-.78-.14-.19-.04-.37-.08-.55-.14-.1-.03-.19-.06-.28-.09-.24-.07-.47-.17-.69-.27-.22-.1-.44-.22-.66-.35-.15-.09-.3-.19-.45-.3-.17-.12-.34-.26-.5-.4-.11-.1-.22-.2-.32-.31-1.53-1.58,.85-1.85,2.01-1.9,.03,0,.07,0,.1-.01,.03,.01,.06,0,.09,0,.2-.01,.39-.02,.57-.04,.04,0,.07,0,.1-.01,.25-.02,.49-.05,.73-.09,.42-.06,.82-.14,1.2-.26,.08-.02,.15-.04,.22-.06,.12-.03,.24-.07,.36-.12,.12-.04,.24-.09,.35-.14,.3-.12,.59-.26,.86-.42,.07-.04,.14-.08,.2-.12,.07-.04,.14-.08,.2-.13,.09-.05,.18-.11,.26-.18,.33-.24,.63-.52,.91-.82,.15-.17,.3-.34,.43-.52s.26-.37,.38-.56c.1-.15,.18-.29,.26-.44l.18-.36c.04-.08,.08-.16,.11-.25,.06-.12,.11-.25,.16-.38,.17-.41,.31-.84,.43-1.31,1-3.74-.89-5.99-3.39-8.17-.88-.75-3.04-.72-2.4-2.46,.05-.14,.11-.27,.19-.38,.04-.07,.09-.14,.13-.2s.09-.11,.15-.16c.05-.04,.09-.08,.14-.11,.04-.04,.09-.07,.14-.09,.1-.07,.22-.11,.35-.14,.03-.01,.06-.02,.09-.02,.06-.02,.13-.03,.2-.03,.14-.01,.28-.01,.43,0,.07,0,.13,.01,.19,.02,.15,.03,.31,.05,.46,.08,.03,0,.06,.01,.09,.02,.1,.02,.21,.04,.31,.07,.07,0,.13,.03,.19,.04,.08,.02,.15,.04,.22,.06h.01c.21,.05,.42,.09,.62,.12,1.27,.17,2.48,.75,3.71,1.15,2.82,2.36,5.8,4.54,2.55,8.71Zm10.92,6.83c-1.1,2.21-3.06,2.9-5.14,2.04-2.42-1-3.16-3.34-2.04-5.58,1-2.03,3.14-2.74,5.28-1.66,2.11,1.06,2.78,2.91,1.9,5.2Zm17.85-30.5c-1.69-.14-1.93-1.2-1.9-2.03,.09-2.88,1.73-5,4.26-5.93,.97-.35,2.76,1.64,2.37,2.56-.96,2.33-4.02,2.97-4.73,5.4Zm1.39,1.78c.56-2.45,2.63-4.06,4.69-5.07,1.31-.63,2.63,1.96,2.37,2.36-1.27,1.89-3.01,3.47-4.72,5.31-.98-1.05-2.47-2.02-2.34-2.6Zm3.77,3.94c.53-2.13,2.39-3.42,4.19-4.03,1.06-.37,1.62,1.59,2.07,3.5-1.48,.77-3.08,1.88-4.85,2.44-.93,.3-1.63-1.02-1.41-1.91Zm-14.75,27.55c-.44,1.59-1.9,.97-2.75,.48-1.72-.98,.13-2.28-.11-3.42,.62-.93,1.52-1.28,2.34-.61,1.14,.93,.82,2.42,.52,3.55Zm5.34,1.06c-.23,1.49-1.57,1.17-2.63,.82-2.5-.82-.64-2.85-1.21-3.97,.34-1.8,1.77-1.89,2.61-1.56,2.33,.89,1.49,3.05,1.23,4.71Zm5.96,.75c-.18,1.12-2.17,.7-4.07,.2,0-1.67-.22-3.6,.12-5.43,.17-.96,1.67-.96,2.35-.35,.13,.12,.25,.25,.37,.38t.01,.01c.08,.08,.15,.17,.2,.26,.1,.13,.19,.25,.27,.39,.09,.13,.17,.27,.24,.41,.09,.17,.17,.36,.23,.55,.06,.14,.11,.31,.15,.47v.02s.03,.07,.03,.1c.09,.31,.13,.64,.15,.96,.03,.16,.04,.33,.04,.49,.02,.53,0,1.05-.09,1.54Zm2.73,.43c-.29-.54-.55-1.1-.79-1.69-.63-1.56-1.1-3.23-1.7-4.95,1.39-.39,2.94-1.25,3.4-.85,.06,.04,.12,.1,.16,.15l.21,.2c1.02,1.04,1.54,2.4,1.78,3.8,.12,.79,.15,1.59,.12,2.36-.04,1.46-2.95,1.4-3.18,.98Zm3.44-24.91c-.3-2.48,2-2.74,3.58-3.29,1.43-.5,1.77,.83,1.96,1.93,.44,2.58-2.22,1.9-2.93,2.93-1.75,.54-2.49-.68-2.61-1.57Zm2.46,5.14c-.21-.28-.29-.66-.2-1.1,.04-.24,.14-.47,.25-.66,.54-.93,1.69-1.24,2.64-1.46,.19-.04,.36-.05,.51-.05,1.14,.05,1.24,1.38,1.2,2.25-.02,.61-.21,.93-.51,1.11-.09,.06-.2,.09-.3,.12-.68,.21-1.62,.01-2.15,.47-.07-.02-.13-.02-.2-.04-.55-.08-.99-.29-1.24-.64Zm8.33,9.85c-.04,.49-.16,.93-.34,1.33-.61,1.34-1.94,2.14-3.64,2.19-.97,.03-1.83-.24-2.48-.75-.48-.36-.86-.84-1.11-1.42-.22-.5-.34-1.09-.35-1.72-.03-1.58,.55-2.75,1.67-3.43,.39-.25,.85-.43,1.37-.55,.21-.06,.44-.09,.67-.13,2.47-.07,4,1.36,4.21,3.58,.04,.32,.04,.61,0,.9Z"/><path class="h" d="M163.23,139.95c-.02,.61-.21,.93-.51,1.11-.09,.06-.2,.09-.3,.12-.68,.21-1.62,.01-2.15,.47-.07-.02-.13-.02-.2-.04-.55-.08-.99-.29-1.24-.64-.21-.28-.29-.66-.2-1.1,.04-.24,.14-.47,.25-.66,.54-.93,1.69-1.24,2.64-1.46,.19-.04,.36-.05,.51-.05,1.14,.05,1.24,1.38,1.2,2.25Z"/><path class="h" d="M150.29,158.77c.02,.53,0,1.05-.09,1.54-.18,1.12-2.17,.7-4.07,.2,0-1.67-.22-3.6,.12-5.43,.17-.96,1.67-.96,2.35-.35,.13,.12,.25,.25,.37,.38t.01,.01c.08,.08,.15,.17,.2,.26,.1,.13,.19,.25,.27,.39,.09,.13,.17,.27,.24,.41,.09,.17,.17,.36,.23,.55,.06,.14,.11,.31,.15,.47v.02s.03,.07,.03,.1c.09,.31,.13,.64,.15,.96,.03,.16,.04,.33,.04,.49Z"/><path class="h" d="M156.11,159.76c-.04,1.46-2.95,1.4-3.18,.98-.29-.54-.55-1.1-.79-1.69-.63-1.56-1.1-3.23-1.7-4.95,1.39-.39,2.94-1.25,3.4-.85,.06,.04,.12,.1,.16,.15l.21,.2c1.02,1.04,1.54,2.4,1.78,3.8,.12,.79,.15,1.59,.12,2.36Z"/><path d="M119.72,148.9c-1.4,1.79-2.36,4.01-1.72,6.28,.9,3.18-.49,4.66-3.31,5.1-3.34,.52-7.02,.74-9.47-1.77-1.54-1.58,.85-1.85,2.01-1.9,4.22-.15,6.98-1.93,8.1-6.22,.99-3.75-.89-5.99-3.4-8.17-.88-.76-3.04-.72-2.39-2.46,.69-1.87,2.56-.91,3.91-.72,1.28,.17,2.48,.76,3.71,1.15,2.82,2.36,5.8,4.54,2.55,8.71Z"/><path d="M130.64,155.73c-1.09,2.21-3.06,2.9-5.14,2.04-2.43-1-3.16-3.34-2.04-5.59,1-2.03,3.14-2.74,5.28-1.66,2.11,1.06,2.78,2.91,1.9,5.2Z"/><path class="i" d="M119.72,148.9c-1.4,1.79-2.36,4.01-1.72,6.28,.9,3.18-.49,4.66-3.31,5.1-3.34,.52-7.02,.74-9.47-1.77-1.54-1.58,.85-1.85,2.01-1.9,4.22-.15,6.98-1.93,8.1-6.22,.99-3.75-.89-5.99-3.4-8.17-.88-.76-3.04-.72-2.39-2.46,.69-1.87,2.56-.91,3.91-.72,1.28,.17,2.48,.76,3.71,1.15,2.82,2.36,5.8,4.54,2.55,8.71Z"/><path class="d" d="M130.64,155.73c-1.09,2.21-3.06,2.9-5.14,2.04-2.43-1-3.16-3.34-2.04-5.59,1-2.03,3.14-2.74,5.28-1.66,2.11,1.06,2.78,2.91,1.9,5.2Z"/><path class="h" d="M144.24,159.56c-.23,1.49-1.57,1.17-2.63,.82-2.5-.82-.64-2.85-1.21-3.97,.34-1.8,1.77-1.89,2.61-1.56,2.33,.89,1.49,3.05,1.23,4.71Z"/><path class="h" d="M138.9,158.5c-.44,1.59-1.9,.97-2.75,.48-1.72-.98,.13-2.28-.11-3.42,.62-.93,1.52-1.28,2.34-.61,1.14,.93,.82,2.42,.52,3.55Z"/></g><g><path d="M154.36,145.26c-.05-.33-.1-.65-.18-.97,.1,.3,.16,.63,.18,.97Z"/><path class="h" d="M153.22,119.83c-.96,2.33-4.02,2.97-4.73,5.4-1.69-.14-1.93-1.2-1.9-2.03,.09-2.88,1.73-5,4.26-5.93,.97-.35,2.76,1.64,2.37,2.56Z"/><path class="h" d="M156.94,124.3c-1.27,1.89-3.01,3.47-4.72,5.31-.98-1.05-2.47-2.02-2.34-2.6,.56-2.45,2.63-4.06,4.69-5.07,1.31-.63,2.63,1.96,2.37,2.36Z"/><path class="h" d="M159.91,130.42c-1.48,.77-3.08,1.88-4.85,2.44-.93,.3-1.63-1.02-1.41-1.91,.53-2.13,2.39-3.42,4.19-4.03,1.06-.37,1.62,1.59,2.07,3.5Z"/><path class="h" d="M158.98,137.4c-1.75,.54-2.49-.68-2.61-1.57-.3-2.48,2-2.74,3.58-3.29,1.43-.5,1.77,.83,1.96,1.93,.44,2.58-2.22,1.9-2.93,2.93Z"/></g><path d="M154.18,144.29c.08,.32,.14,.64,.18,.97-.02-.34-.08-.67-.18-.97Zm9.26,19.75c.78-.19,1.54-.46,2.23-.79-.74,.29-1.48,.55-2.23,.79Z"/></g></svg>