<?xml version="1.0" encoding="utf-8"?>
<!-- Generator: Adobe Illustrator 24.3.0, SVG Export Plug-In . SVG Version: 6.00 Build 0)  -->
<svg version="1.1" id="Layer_1" xmlns="http://www.w3.org/2000/svg" xmlns:xlink="http://www.w3.org/1999/xlink" x="0px" y="0px"
	 viewBox="0 0 297.8 221.16" style="enable-background:new 0 0 297.8 221.16;" xml:space="preserve">
<style type="text/css">
	.st0{fill:#FFFEF8;}
	
		.st1{clip-path:url(#SVGID_2_);fill:none;stroke:#D60023;stroke-width:0.4313;stroke-linecap:round;stroke-linejoin:round;stroke-miterlimit:10;}
	.st2{fill:none;stroke:#000000;stroke-width:0.4313;stroke-linecap:round;stroke-linejoin:round;stroke-miterlimit:10;}
	
		.st3{clip-path:url(#SVGID_4_);fill:none;stroke:#1E08FF;stroke-width:0.4313;stroke-linecap:round;stroke-linejoin:round;stroke-miterlimit:10;stroke-dasharray:4.3131,4.3131;}
	.st4{fill:#FFFFFF;}
	.st5{fill:none;stroke:#D60023;stroke-width:0.4313;stroke-linecap:round;stroke-linejoin:round;stroke-miterlimit:10;}
	
		.st6{fill:none;stroke:#1E08FF;stroke-width:0.4313;stroke-linecap:round;stroke-linejoin:round;stroke-miterlimit:10;stroke-dasharray:4.3131,4.3131;}
	.st7{fill:none;}
</style>
<rect x="50.29" class="st0" width="247.29" height="169.3"/>
<g>
	<defs>
		<rect id="SVGID_1_" x="50.43" y="0.22" width="247.15" height="169.08"/>
	</defs>
	<clipPath id="SVGID_2_">
		<use xlink:href="#SVGID_1_"  style="overflow:visible;"/>
	</clipPath>
	<polyline class="st1" points="59.58,6.99 61.64,6.99 61.87,8.62 62.11,9.05 62.33,9.51 62.56,10 62.79,10.51 63.02,11.07 
		63.25,11.67 63.48,12.32 63.7,13.04 63.94,13.85 64.17,14.75 64.39,15.82 64.62,17.1 64.86,18.74 65.08,21.04 65.31,25.01 
		65.54,37.11 65.77,24.23 66,20.92 66.23,18.97 66.45,17.59 66.69,16.53 66.92,15.68 67.14,14.97 67.37,14.37 67.61,13.85 
		67.83,13.38 68.06,12.97 68.29,12.61 68.51,12.27 68.75,11.98 68.98,11.7 69.2,36.89 69.43,25.19 69.67,21.39 69.89,19.27 
		70.12,17.81 70.35,16.71 70.58,15.83 70.81,15.1 71.04,14.47 71.26,13.94 71.5,13.47 71.73,13.05 71.95,12.67 72.18,12.34 
		72.42,12.03 72.64,15.55 72.87,16.78 73.1,18.31 73.33,20.4 73.56,23.79 73.79,34.72 74.01,25.48 74.25,21.52 74.48,19.36 
		74.7,17.86 74.93,19.77 75.17,22.65 75.39,29.18 75.62,27.42 75.85,22.32 76.08,19.85 76.31,18.23 76.54,22.47 76.76,19.94 
		77,18.3 77.23,17.08 77.45,16.13 77.68,18.22 77.92,20.28 78.14,23.56 78.37,33.2 78.6,25.78 78.83,20.64 79.06,24.22 79.28,39.8 
		79.51,24.97 79.74,22.47 79.98,28.6 80.2,27.87 80.43,22.47 80.65,28.08 80.89,28.35 81.12,22.63 81.34,31.5 81.57,26.27 
		81.81,21.87 82.03,20.52 82.26,24 82.49,36.76 82.72,30.08 82.95,23.14 83.18,26.02 83.4,31.86 83.64,26.81 83.87,30.07 
		84.09,28.98 84.32,27.56 84.56,25.01 84.78,37.13 85.01,26.54 85.24,21.98 85.47,31.38 85.7,26.8 85.93,30.09 86.15,42 
		86.39,37.34 86.62,24.25 86.84,27.55 87.07,26.42 87.31,28.12 87.53,28.3 87.76,26.44 87.99,33 88.22,32.18 88.45,34.44 
		88.68,27.12 88.9,30.77 89.14,40.22 89.37,32.05 89.59,26.91 89.82,31.98 90.06,42.16 90.28,30.43 90.51,30.87 90.74,33.75 
		90.96,33.16 91.2,28.43 91.43,37.5 91.65,30.31 91.88,35.77 92.12,40.07 92.34,28.41 92.57,29.44 92.8,33.34 93.03,43.57 
		93.26,45.21 93.49,34.43 93.71,30.72 93.95,33.22 94.18,31.5 94.4,33.86 94.63,38.11 94.87,44.93 95.09,55.93 95.32,45.28 
		95.55,38.65 95.78,34.61 96.01,41.92 96.24,36.42 96.46,38.53 96.7,33.19 96.93,41.7 97.15,34.02 97.38,44.71 97.62,42.14 
		97.84,43.07 98.07,40.18 98.3,36.26 98.53,52.21 98.76,38.71 98.98,39.01 99.21,36.26 99.45,38.4 99.68,40.67 99.9,40.13 
		100.13,45.2 100.36,46.82 100.59,35.62 100.82,47.58 101.04,47.4 101.28,40.77 101.51,48.38 101.73,51.42 101.96,43.43 
		102.19,41.14 102.42,42.54 102.65,43.99 102.88,50.25 103.1,40.73 103.34,39.92 103.57,53.83 103.79,40.75 104.02,47.76 
		104.26,40.1 104.48,55.65 104.71,48.91 104.94,39.06 105.17,40.45 105.4,41 105.63,40.88 105.85,44.83 106.09,40.08 106.32,50.77 
		106.54,45.98 106.77,44.23 107.01,43.84 107.23,44.99 107.46,44.27 107.69,46.44 107.92,42.95 108.15,41.91 108.38,54.97 
		108.6,52.9 108.84,42.23 109.07,43.72 109.29,65.38 109.52,58.24 109.76,66.2 109.98,44.46 110.21,49.24 110.44,52.16 
		110.67,52.58 110.9,54.06 111.13,49.4 111.35,54.26 111.59,46.06 111.82,52.27 112.04,50.64 112.27,46.87 112.51,51.08 
		112.73,52.02 112.96,48.59 113.19,48.61 113.41,50.73 113.65,50.84 113.88,62.5 114.1,52.88 114.33,46.57 114.57,52.63 
		114.79,47.95 115.02,57.67 115.25,48.54 115.48,58.33 115.71,61.22 115.94,56.66 116.16,48.16 116.4,54.24 116.63,54.18 
		116.85,54.22 117.08,50.75 117.32,54.52 117.54,52.65 117.77,51.46 118,49.83 118.23,58.86 118.46,59.13 118.68,60.55 
		118.91,58.12 119.15,53.26 119.38,50.05 119.6,52.62 119.83,58.73 120.07,60.48 120.29,54.77 120.52,52.46 120.74,56.31 
		120.98,57.56 121.21,69.67 121.43,53.23 121.66,64.04 121.9,58.31 122.12,54.86 122.35,53.29 122.58,53.3 122.81,57 123.04,56.79 
		123.27,60.45 123.49,71.74 123.73,57.36 123.96,66.73 124.18,55.69 124.41,62.5 124.64,63.42 124.87,63.77 125.1,63.32 
		125.33,56.28 125.55,57.66 125.79,55.68 126.02,63.48 126.24,64.97 126.47,58.04 126.71,60.28 126.93,60.23 127.16,66.98 
		127.39,57.72 127.62,66.3 127.85,65.56 128.08,67.91 128.3,60.7 128.54,59.06 128.77,64.72 128.99,60.51 129.22,62.52 
		129.46,68.21 129.68,70.59 129.91,62.59 130.14,61.6 130.37,71.33 130.6,63.48 130.83,69.06 131.05,67.95 131.29,71.41 
		131.52,63.18 131.74,69.96 131.97,63.1 132.21,67.25 132.43,66.29 132.66,62.19 132.89,62.44 133.12,69.05 133.35,68.02 
		133.58,67.03 133.8,66.92 134.04,74.6 134.27,63.26 134.49,68.58 134.72,63.15 134.96,62.99 135.18,73.88 135.41,74.76 
		135.64,63.74 135.86,69.3 136.1,75.3 136.33,71.75 136.55,68.85 136.78,65.72 137.02,69.96 137.24,69.51 137.47,92.73 137.7,69.57 
		137.93,72.58 138.16,75.61 138.38,78.97 138.61,67.06 138.85,68.41 139.08,67.69 139.3,74.68 139.53,68.63 139.77,66.3 
		139.99,66.56 140.22,71.41 140.44,74.36 140.68,87.1 140.91,69.75 141.13,68.86 141.36,71.33 141.6,73.66 141.82,73.64 
		142.05,72.42 142.28,69.7 142.51,75.6 142.74,74.1 142.97,73.62 143.19,71.36 143.43,67.99 143.66,75.58 143.88,71.85 
		144.11,84.31 144.35,76.55 144.57,79.33 144.8,71.36 145.03,85.24 145.26,71.87 145.49,81.51 145.72,73.43 145.94,83.31 
		146.17,84.95 146.41,73.54 146.63,79.96 146.86,80.98 147.09,77.32 147.32,74.26 147.55,80.83 147.78,77.81 148,81.6 148.24,84.42 
		148.47,77.55 148.69,73.04 148.92,77.24 149.16,74.89 149.38,84.44 149.61,78.42 149.84,85.18 150.07,83.12 150.3,79.33 
		150.53,79.57 150.75,81.17 150.99,80.64 151.22,76.28 151.44,87.47 151.67,75.81 151.91,77.03 152.13,76.92 152.36,81.47 
		152.59,80.06 152.82,82.56 153.05,95.64 153.28,77.14 153.5,79.58 153.74,88.53 153.97,86.64 154.19,79.98 154.42,79.03 
		154.66,87.23 154.88,84.94 155.11,83.47 155.34,80.55 155.57,77.37 155.8,81.7 156.03,82.65 156.25,82.76 156.49,86.38 
		156.72,81.63 156.94,90.46 157.17,83.28 157.4,81.11 157.63,88.33 157.86,82.48 158.08,93.65 158.31,97.44 158.55,82.97 
		158.78,82.85 159,88.68 159.23,84.44 159.46,85.66 159.69,82.65 159.92,90.78 160.14,84.74 160.38,82.88 160.61,89.87 
		160.83,84.81 161.06,91.38 161.3,97.89 161.52,84.48 161.75,93.6 161.98,89.77 162.21,92.48 162.44,97.01 162.67,93.31 
		162.89,88.21 163.13,93.51 163.36,93.91 163.58,86.94 163.81,95.93 164.05,104.5 164.27,85.66 164.5,96.62 164.73,97.92 
		164.96,98.27 165.19,112.81 165.42,89.39 165.64,93.14 165.88,87.66 166.11,118.71 166.33,98.37 166.56,87.99 166.8,96.1 
		167.02,94.01 167.25,88.7 167.48,94.53 167.71,102.65 167.94,90.24 168.17,89.23 168.39,91.79 168.62,93.76 168.86,87.98 
		169.08,95.7 169.31,99.56 169.54,96.27 169.77,91.83 170,95.93 170.23,94.53 170.45,103.61 170.69,113.05 170.92,91.42 
		171.14,93.82 171.37,91.84 171.61,93.15 171.83,102.2 172.06,93.92 172.29,92.82 172.52,95.79 172.75,105.22 172.98,99.79 
		173.2,100.75 173.44,96.09 173.67,96.97 173.89,113.57 174.12,93.08 174.36,96.8 174.58,107 174.81,96.33 175.04,103.07 
		175.27,105.64 175.5,100.2 175.73,106.33 175.95,95.3 176.19,97.55 176.42,101.98 176.64,101.13 176.87,134.23 177.11,99.21 
		177.33,100.07 177.56,122.87 177.78,96.54 178.02,113.69 178.25,105 178.48,104.64 178.7,96.76 178.94,107.81 179.16,101.66 
		179.39,105.9 179.62,110.73 179.84,107.85 180.08,111.17 180.31,102.11 180.53,107.81 180.76,103.37 181,100.54 181.22,102 
		181.45,103.05 181.68,100.69 181.91,103.79 182.14,100.67 182.37,109.53 182.59,106.95 182.83,126.72 183.06,103.71 183.28,103.49 
		183.51,101.25 183.75,104.8 183.97,104.3 184.2,122.16 184.43,111.12 184.66,106.09 184.89,102.4 185.12,106.79 185.34,101.89 
		185.58,103.26 185.81,115.69 186.03,116.71 186.26,104.44 186.5,105.97 186.72,108.36 186.95,100.05 187.18,102.39 187.41,110.3 
		187.64,106.64 187.87,102.57 188.09,105.79 188.33,102.19 188.56,102.37 188.78,107.26 189.01,101.4 189.25,104 189.47,100.65 
		189.7,102.51 189.93,102.32 190.16,104.32 190.39,101.92 190.62,101.26 190.84,101.8 191.07,101.36 191.31,99.91 191.53,100.92 
		191.76,101.85 191.99,99.43 192.22,100.94 192.45,99.62 192.68,100.01 192.9,99.52 193.14,99.87 193.37,99.75 193.59,99.57 
		193.82,98.46 194.06,98.72 194.28,98.8 194.51,97.76 194.74,98.34 194.97,97.44 195.2,97.47 195.43,97.5 195.65,97.8 195.89,97.35 
		196.12,97.22 196.34,96.92 196.57,96.67 196.81,96.49 197.03,96.43 197.26,96.28 197.48,95.97 197.72,95.68 197.95,95.69 
		198.18,95.43 198.4,95.14 198.64,95.07 198.86,94.94 199.09,94.69 199.32,94.63 199.56,94.25 199.78,94.26 200.01,93.93 
		200.23,93.89 200.47,93.63 200.7,93.49 200.92,93.3 201.15,93.14 201.39,92.94 201.61,92.76 201.84,92.59 202.07,92.38 
		202.29,92.24 202.53,92.02 202.76,91.85 202.98,91.67 203.21,91.47 203.45,91.3 203.67,91.11 203.9,90.96 204.13,90.74 
		204.36,90.57 204.59,90.39 204.82,90.21 205.04,90.06 205.28,89.87 205.51,89.68 205.73,89.49 205.96,89.3 206.2,89.12 
		206.42,88.94 206.65,88.76 206.88,88.59 207.11,88.4 207.34,88.22 207.57,88.03 207.79,87.87 208.03,87.69 208.26,87.5 
		208.48,87.32 208.71,87.14 208.95,86.96 209.17,86.77 209.4,86.6 209.63,86.41 209.86,86.24 210.09,86.05 210.32,85.86 
		210.54,85.69 210.78,85.51 211.01,85.33 211.23,85.15 211.46,84.97 211.7,84.78 211.92,84.6 212.15,84.43 212.38,84.25 
		212.61,84.06 212.84,83.88 213.07,83.71 213.29,83.52 213.52,83.34 213.76,83.16 213.98,82.97 214.21,82.8 214.44,82.62 
		214.67,82.43 214.9,82.26 215.13,82.08 215.35,81.89 215.59,81.71 215.82,81.53 216.04,81.36 216.27,81.17 216.51,80.99 
		216.73,80.81 216.96,80.62 217.18,80.45 217.42,80.27 217.65,80.08 217.88,79.9 218.1,79.73 218.34,79.54 218.56,79.36 
		218.79,79.18 219.02,79.01 219.26,78.82 219.48,78.64 219.71,78.46 219.93,78.27 220.17,78.1 220.4,77.92 220.62,77.73 
		220.85,77.55 221.09,77.38 221.31,77.19 221.54,77.01 221.77,76.83 222,76.65 222.23,76.47 222.46,76.29 222.68,76.1 222.92,75.92 
		223.15,75.75 223.37,75.57 223.6,75.38 223.84,75.2 224.06,75.03 224.29,74.84 224.52,74.66 224.74,74.48 224.98,74.3 
		225.21,74.12 225.43,73.94 225.66,73.75 225.9,73.57 226.12,73.4 226.35,73.21 226.58,73.03 226.81,72.85 227.04,72.68 
		227.27,72.49 227.49,72.31 227.73,72.13 227.96,71.95 228.18,71.77 228.41,71.59 228.65,71.4 228.87,71.22 229.1,71.05 
		229.33,70.86 229.56,70.68 229.79,70.5 230.02,70.33 230.24,70.14 230.48,69.96 230.71,69.78 230.93,69.6 231.16,69.42 
		231.4,69.24 231.62,69.05 231.85,68.87 232.08,68.7 232.31,68.51 232.54,68.33 232.77,68.15 232.99,67.97 233.23,67.79 
		233.46,67.61 233.68,67.42 233.91,67.25 234.15,67.07 234.37,66.89 234.6,66.7 234.83,66.52 235.06,66.35 235.29,66.16 
		235.52,65.98 235.74,65.8 235.97,65.62 236.21,65.44 236.43,65.26 236.66,65.07 236.88,64.9 237.12,64.72 237.35,64.53 
		237.58,64.35 237.8,64.17 238.04,64 238.26,63.81 238.49,63.63 238.72,63.45 238.96,63.27 239.18,63.09 239.41,62.91 239.63,62.72 
		239.87,62.55 240.1,62.37 240.32,62.18 240.55,62 240.79,61.82 241.01,61.65 241.24,61.46 241.47,61.28 241.7,61.1 241.93,60.92 
		242.16,60.74 242.38,60.56 242.62,60.37 242.85,60.2 243.07,60.02 243.3,59.83 243.54,59.65 243.76,59.48 243.99,59.29 
		244.22,59.11 244.45,58.93 244.68,58.74 244.91,58.57 245.13,58.39 245.37,58.21 245.6,58.02 245.82,57.85 246.05,57.67 
		246.29,57.48 246.51,57.3 246.74,57.13 246.97,56.94 247.19,56.76 247.43,56.58 247.66,56.4 247.88,56.22 248.11,56.04 
		248.35,55.85 248.57,55.67 248.8,55.5 249.03,55.32 249.26,55.13 249.49,54.95 249.72,54.78 249.94,54.59 250.18,54.41 
		250.41,54.23 250.63,54.05 250.86,53.87 251.1,53.69 251.32,53.5 251.55,53.33 251.78,53.15 252.01,52.97 252.24,52.78 
		252.47,52.61 252.69,52.43 252.93,52.24 253.16,52.06 253.38,51.89 253.61,51.7 253.85,51.52 254.07,51.34 254.3,51.16 
		254.53,50.98 254.76,50.8 254.99,50.61 255.22,50.44 255.44,50.26 255.68,50.08 255.91,49.89 256.13,49.72 256.36,49.54 
		256.6,49.35 256.82,49.17 257.05,49 257.28,48.81 257.5,48.63 257.74,48.45 257.96,48.27 258.19,48.09 258.42,47.91 258.66,47.72 
		258.88,47.55 259.11,47.37 259.33,47.19 259.57,47.01 259.8,46.83 260.02,46.65 260.25,46.46 260.49,46.29 260.71,46.11 
		260.94,45.92 261.17,45.74 261.4,45.57 261.63,45.38 261.86,45.2 262.08,45.03 262.32,44.85 262.55,44.66 262.77,44.48 263,44.31 
		263.24,44.12 263.46,43.94 263.69,43.77 263.92,43.58 264.15,43.4 264.38,43.23 264.61,43.04 264.83,42.86 265.07,42.69 
		265.3,42.51 265.52,42.32 265.75,42.15 265.99,41.97 266.21,41.78 266.44,41.61 266.67,41.43 266.9,41.24 267.13,41.07 
		267.36,40.89 267.58,40.7 267.82,40.53 268.05,40.35 268.27,40.18 268.5,39.99 268.73,39.81 268.96,39.64 269.19,39.45 
		269.42,39.28 269.64,39.1 269.88,38.92 270.11,38.74 270.33,38.56 270.56,38.39 270.8,38.2 271.02,38.03 271.25,37.85 
		271.48,37.68 271.71,37.49 271.94,37.32 272.17,37.14 272.39,36.96 272.63,36.78 272.86,36.61 273.08,36.42 273.31,36.25 
		273.55,36.07 273.77,35.9 274,35.72 274.23,35.54 274.46,35.37 274.69,35.2 274.92,35.01 275.14,34.84 275.38,34.67 275.61,34.48 
		275.83,34.31 276.06,34.14 276.3,33.95 276.52,33.78 276.75,33.61 276.98,33.44 277.21,33.27 277.44,33.09 277.66,32.91 
		277.89,32.74 278.13,32.56 278.36,32.39 278.58,32.22 278.81,32.05 279.05,31.87 279.27,31.7 279.5,31.53 279.72,31.37 
		279.95,31.19 280.19,31.02 280.41,30.85 280.64,30.69 280.87,30.52 281.1,30.34 281.33,30.18 281.56,30.01 281.78,29.85 
		282.02,29.67 282.25,29.51 282.47,29.34 282.7,29.18 282.94,29.02 283.16,28.85 283.39,28.68 283.62,28.52 283.85,28.36 
		284.08,28.2 284.31,28.05 284.53,27.88 284.77,27.72 285,27.56 285.22,27.41 285.45,27.25 285.69,27.1 285.91,26.95 286.14,26.8 
		286.37,26.64 286.6,26.49 286.83,26.34 287.06,26.19 287.28,26.04 287.52,25.9 287.75,25.76 287.97,25.62 288.2,25.47 
		288.44,25.34 	"/>
</g>
<polyline class="st2" points="50.43,169.3 297.58,169.3 297.58,0.22 50.43,0.22 50.43,169.3 "/>
<g>
	<path d="M171.69,210.81h0.95v3.26h0.02c0.15-0.27,0.39-0.51,0.68-0.67c0.28-0.16,0.62-0.27,0.97-0.27c0.7,0,1.82,0.43,1.82,2.23
		v3.11h-0.95v-3c0-0.84-0.31-1.55-1.21-1.55c-0.62,0-1.1,0.43-1.27,0.95c-0.05,0.13-0.06,0.27-0.06,0.45v3.15h-0.95V210.81z"/>
</g>
<g>
	<path d="M5.62,92.87v2.83h2.62v-3.15h0.79v4.09H1.75v-3.93h0.79v2.99h2.3v-2.83H5.62z"/>
	<path d="M5.43,91.3c-0.62,0-1.14,0.01-1.63,0.04v-0.83l1.02-0.03v-0.04c-0.7-0.24-1.14-0.81-1.14-1.45c0-0.11,0.01-0.18,0.03-0.27
		h0.9c-0.02,0.1-0.03,0.19-0.03,0.32c0,0.67,0.51,1.14,1.22,1.27c0.13,0.02,0.28,0.04,0.44,0.04h2.78v0.94H5.43z"/>
	<path d="M5.43,87.7c-0.62,0-1.14,0.01-1.63,0.04v-0.83l1.02-0.03v-0.04c-0.7-0.24-1.14-0.81-1.14-1.45c0-0.11,0.01-0.18,0.03-0.27
		h0.9c-0.02,0.1-0.03,0.19-0.03,0.32c0,0.67,0.51,1.14,1.22,1.27c0.13,0.02,0.28,0.04,0.44,0.04h2.78v0.94H5.43z"/>
	<path d="M6.37,79.39c1.93,0,2.77,1.34,2.77,2.6c0,1.41-1.04,2.5-2.69,2.5c-1.75,0-2.77-1.14-2.77-2.59
		C3.69,80.4,4.77,79.39,6.37,79.39z M6.42,83.53c1.14,0,2.01-0.66,2.01-1.59c0-0.91-0.85-1.59-2.03-1.59
		c-0.88,0-2.01,0.44-2.01,1.56S5.43,83.53,6.42,83.53z"/>
	<path d="M5.43,78.14c-0.62,0-1.14,0.01-1.63,0.04v-0.83l1.02-0.03v-0.04c-0.7-0.24-1.14-0.81-1.14-1.45c0-0.11,0.01-0.18,0.03-0.27
		h0.9c-0.02,0.1-0.03,0.19-0.03,0.32c0,0.67,0.51,1.14,1.22,1.27c0.13,0.02,0.28,0.04,0.44,0.04h2.78v0.94H5.43z"/>
</g>
<g>
	<defs>
		<rect id="SVGID_3_" x="50.43" y="0.22" width="247.15" height="169.08"/>
	</defs>
	<clipPath id="SVGID_4_">
		<use xlink:href="#SVGID_3_"  style="overflow:visible;"/>
	</clipPath>
	<polyline class="st3" points="59.58,6.99 61.64,6.99 61.87,10.45 62.11,11 62.33,11.59 62.56,12.23 62.79,12.94 63.02,13.73 
		63.25,14.62 63.48,15.66 63.7,16.91 63.94,18.48 64.17,20.66 64.39,24.26 64.62,40.63 64.86,24.92 65.08,21.26 65.31,19.19 
		65.54,17.75 65.77,16.66 66,15.79 66.23,15.06 66.45,14.45 66.69,13.91 66.92,13.45 67.14,13.03 67.37,12.66 67.61,12.32 
		67.83,12.01 68.06,11.73 68.29,11.48 68.51,11.25 68.75,11.02 68.98,10.83 69.2,17.04 69.43,18.64 69.67,20.9 69.89,24.72 
		70.12,41.09 70.35,24.47 70.58,21.04 70.81,19.04 71.04,17.64 71.26,16.57 71.5,15.72 71.73,15 71.95,14.4 72.18,13.87 72.42,13.4 
		72.64,14.51 72.87,15.54 73.1,16.76 73.33,18.29 73.56,20.37 73.79,23.71 74.01,34.2 74.25,25.57 74.48,21.57 74.7,16.69 
		74.93,18.2 75.17,20.25 75.39,23.51 75.62,32.86 75.85,25.86 76.08,21.7 76.31,19.46 76.54,27.65 76.76,28.83 77,22.78 
		77.23,20.13 77.45,18.43 77.68,19.2 77.92,21.75 78.14,26.61 78.37,30.44 78.6,23.23 78.83,19.56 79.06,22.32 79.28,28.13 
		79.51,28.29 79.74,22.47 79.98,28.6 80.2,27.87 80.43,22.47 80.65,28.08 80.89,28.35 81.12,22.63 81.34,23.38 81.57,32.14 
		81.81,26.06 82.03,20.52 82.26,24 82.49,36.76 82.72,37.8 82.95,24.28 83.18,28.12 83.4,28.3 83.64,26.81 83.87,30.07 84.09,24.14 
		84.32,38.6 84.56,25.01 84.78,37.13 85.01,28.23 85.24,22.59 85.47,28.76 85.7,24.59 85.93,46.07 86.15,35.48 86.39,32.45 
		86.62,25.98 86.84,29.09 87.07,25.47 87.31,29.74 87.53,27.08 87.76,28.77 87.99,33 88.22,35.82 88.45,34.44 88.68,28.14 
		88.9,36.92 89.14,34.36 89.37,32.05 89.59,27.75 89.82,28.01 90.06,34.74 90.28,32.02 90.51,35.09 90.74,31.76 90.96,33.16 
		91.2,27.67 91.43,47.62 91.65,31.53 91.88,40.21 92.12,40.07 92.34,28.41 92.57,31.36 92.8,35.31 93.03,43.57 93.26,42.04 
		93.49,40.68 93.71,31.67 93.95,32.01 94.18,32.52 94.4,33.86 94.63,42.8 94.87,44.93 95.09,41.54 95.32,45.28 95.55,43.08 
		95.78,42.23 96.01,41.92 96.24,36.42 96.46,38.53 96.7,32.37 96.93,41.7 97.15,34.02 97.38,49.76 97.62,42.14 97.84,43.07 
		98.07,56.04 98.3,37.7 98.53,52.21 98.76,38.71 98.98,37.38 99.21,35.27 99.45,35.92 99.68,43.83 99.9,48.24 100.13,41.57 
		100.36,38.44 100.59,36.47 100.82,42.95 101.04,42.98 101.28,37.92 101.51,43.59 101.73,51.42 101.96,47.52 102.19,39.62 
		102.42,45.44 102.65,41.72 102.88,51.84 103.1,44.83 103.34,41.25 103.57,49.94 103.79,47.75 104.02,40.88 104.26,42.83 
		104.48,50.2 104.71,48.91 104.94,39.06 105.17,42.93 105.4,40.04 105.63,41.99 105.85,47.44 106.09,40.94 106.32,49.46 
		106.54,49.04 106.77,44.23 107.01,47.99 107.23,47.08 107.46,53.63 107.69,49.16 107.92,41.99 108.15,42.83 108.38,55.7 
		108.6,60.94 108.84,42.23 109.07,43.72 109.29,51.99 109.52,54.78 109.76,46.9 109.98,47.07 110.21,53.73 110.44,52.16 
		110.67,47.43 110.9,54.06 111.13,49.4 111.35,71.02 111.59,45.06 111.82,58.09 112.04,53.96 112.27,48.17 112.51,47.57 
		112.73,52.02 112.96,52.79 113.19,57.16 113.41,58.57 113.65,53.37 113.88,57.84 114.1,49.1 114.33,47.44 114.57,52.63 
		114.79,49.03 115.02,52.99 115.25,51.12 115.48,58.33 115.71,61.22 115.94,51.56 116.16,50.12 116.4,57.7 116.63,54.18 
		116.85,52.27 117.08,49.7 117.32,66.09 117.54,54.53 117.77,52.84 118,50.75 118.23,53.51 118.46,55.76 118.68,54.31 118.91,52.22 
		119.15,53.26 119.38,50.83 119.6,52.62 119.83,64.04 120.07,61.4 120.29,56.62 120.52,51.56 120.74,58.76 120.98,55.59 
		121.21,63.14 121.43,55.68 121.66,68.5 121.9,58.31 122.12,56.22 122.35,54.23 122.58,55.3 122.81,58.95 123.04,54.4 123.27,60.45 
		123.49,60.6 123.73,57.36 123.96,61.56 124.18,54.74 124.41,61.99 124.64,63.42 124.87,63.77 125.1,60.43 125.33,56.28 
		125.55,56.57 125.79,58.95 126.02,69.18 126.24,64.97 126.47,59.34 126.71,57.66 126.93,65.31 127.16,66.1 127.39,60.05 
		127.62,62.96 127.85,60.77 128.08,67.91 128.3,62.39 128.54,61.63 128.77,64.72 128.99,63.93 129.22,62.52 129.46,62.55 
		129.68,70.59 129.91,62.59 130.14,65.2 130.37,74.52 130.6,65.59 130.83,69.06 131.05,67.95 131.29,68.54 131.52,64.85 
		131.74,87.65 131.97,64.61 132.21,71.28 132.43,72.68 132.66,63.31 132.89,62.44 133.12,69.05 133.35,68.02 133.58,63.84 
		133.8,62.83 134.04,66.95 134.27,65.66 134.49,72.1 134.72,64.11 134.96,66.32 135.18,81.87 135.41,70.21 135.64,65.8 135.86,69.3 
		136.1,70.74 136.33,71.75 136.55,67.17 136.78,66.9 137.02,66.68 137.24,69.51 137.47,92.73 137.7,71.94 137.93,68.33 
		138.16,69.59 138.38,73.26 138.61,68.21 138.85,68.41 139.08,72.77 139.3,82.18 139.53,68.63 139.77,67.11 139.99,66.56 
		140.22,73.71 140.44,79.17 140.68,87.1 140.91,69.75 141.13,67.95 141.36,71.33 141.6,73.66 141.82,73.64 142.05,72.42 
		142.28,70.79 142.51,75.6 142.74,74.1 142.97,75.93 143.19,72.69 143.43,69.33 143.66,89.93 143.88,77.57 144.11,82.85 
		144.35,97.77 144.57,74.2 144.8,71.36 145.03,78.82 145.26,74.21 145.49,77.13 145.72,73.43 145.94,83.31 146.17,84.95 
		146.41,74.77 146.63,77.22 146.86,79.1 147.09,79.9 147.32,79.44 147.55,78.02 147.78,76.1 148,78.62 148.24,91.22 148.47,73.95 
		148.69,73.8 148.92,79.04 149.16,75.92 149.38,78.44 149.61,78.42 149.84,77.36 150.07,90.44 150.3,85.69 150.53,77.97 
		150.75,81.17 150.99,80.64 151.22,80.05 151.44,80.47 151.67,75.81 151.91,78.06 152.13,77.89 152.36,81.47 152.59,81.82 
		152.82,88.19 153.05,95.64 153.28,80.21 153.5,80.92 153.74,88.53 153.97,83.51 154.19,81.28 154.42,80.05 154.66,87.23 
		154.88,82.76 155.11,81.8 155.34,80.55 155.57,77.98 155.8,83.15 156.03,86.94 156.25,81.47 156.49,86.38 156.72,82.84 
		156.94,86.62 157.17,84.89 157.4,82.07 157.63,88.33 157.86,81.5 158.08,95.68 158.31,97.44 158.55,87.9 158.78,85.39 159,83.49 
		159.23,83.31 159.46,90.36 159.69,82.65 159.92,87.9 160.14,84.74 160.38,82.88 160.61,94.14 160.83,84.81 161.06,91.38 
		161.3,96.41 161.52,85.47 161.75,90.33 161.98,95.51 162.21,99.18 162.44,99.21 162.67,93.31 162.89,88.21 163.13,101.07 
		163.36,90.84 163.58,86.94 163.81,92.06 164.05,104.5 164.27,87.43 164.5,96.62 164.73,89.31 164.96,93.6 165.19,96.79 
		165.42,88.24 165.64,88.43 165.88,88.61 166.11,93.68 166.33,94.26 166.56,87.99 166.8,93.26 167.02,92.01 167.25,87.91 
		167.48,94.53 167.71,101.7 167.94,92.87 168.17,90.12 168.39,98.97 168.62,100.04 168.86,89.29 169.08,92.21 169.31,99.56 
		169.54,99.82 169.77,93.02 170,98.88 170.23,94.53 170.45,103.61 170.69,100.4 170.92,92.31 171.14,95.28 171.37,92.74 
		171.61,93.15 171.83,101.4 172.06,92.89 172.29,93.78 172.52,95.79 172.75,100.06 172.98,109.7 173.2,106.49 173.44,97.68 
		173.67,101.82 173.89,102.72 174.12,93.08 174.36,96.8 174.58,107 174.81,99.46 175.04,100.03 175.27,103.57 175.5,100.2 
		175.73,103.72 175.95,97.24 176.19,100.79 176.42,98.25 176.64,104.04 176.87,102.16 177.11,100.89 177.33,102.06 177.56,106.53 
		177.78,95.8 178.02,108.25 178.25,102.22 178.48,102.07 178.7,99.5 178.94,101.78 179.16,103.7 179.39,112.2 179.62,102.96 
		179.84,108.4 180.08,111.17 180.31,102.11 180.53,107.81 180.76,105.64 181,101.69 181.22,100.83 181.45,103.05 181.68,100.69 
		181.91,102.34 182.14,99.84 182.37,121.34 182.59,110.89 182.83,106.73 183.06,105.33 183.28,103.49 183.51,103.19 183.75,104.8 
		183.97,105.86 184.2,112.29 184.43,112.42 184.66,108.17 184.89,105.74 185.12,111.55 185.34,105.84 185.58,112.55 185.81,106.38 
		186.03,105.14 186.26,119.31 186.5,103.1 186.72,109.18 186.95,104.66 187.18,106.61 187.41,108.45 187.64,107.41 187.87,109.26 
		188.09,117.43 188.33,108.78 188.56,114.24 188.78,108.68 189.01,108.95 189.25,112.08 189.47,106.5 189.7,115.48 189.93,116.85 
		190.16,108.73 190.39,116.74 190.62,125.45 190.84,115.02 191.07,125.45 191.31,108.72 191.53,117.97 191.76,109.09 191.99,107.57 
		192.22,111.39 192.45,114.49 192.68,116.66 192.9,114.63 193.14,118.17 193.37,115.42 193.59,114.79 193.82,112.98 194.06,123.07 
		194.28,114.42 194.51,109.3 194.74,117.11 194.97,110.38 195.2,111.19 195.43,116.84 195.65,113.38 195.89,120.27 196.12,125.42 
		196.34,118.56 196.57,117.05 196.81,117.34 197.03,122.24 197.26,118.07 197.48,117.92 197.72,113.64 197.95,119.8 198.18,117.36 
		198.4,113.74 198.64,128.57 198.86,122.27 199.09,115.66 199.32,122.86 199.56,113.3 199.78,118.28 200.01,115.58 200.23,117.55 
		200.47,127.23 200.7,135.97 200.92,124 201.15,120.05 201.39,131.72 201.61,135.42 201.84,144.94 202.07,131.71 202.29,117.81 
		202.53,123.38 202.76,125.07 202.98,127.04 203.21,122.84 203.45,128.09 203.67,121.82 203.9,119.42 204.13,123.55 204.36,131.6 
		204.59,127.03 204.82,121.99 205.04,119.2 205.28,125.7 205.51,127.03 205.73,121.25 205.96,122.76 206.2,124.35 206.42,122.97 
		206.65,125.64 206.88,135.63 207.11,123.8 207.34,121 207.57,123.97 207.79,134.5 208.03,126.78 208.26,125.47 208.48,131.88 
		208.71,134.28 208.95,125.92 209.17,124.32 209.4,122.01 209.63,130.21 209.86,128.81 210.09,125.46 210.32,122.29 210.54,122.05 
		210.78,130.44 211.01,128.61 211.23,127.87 211.46,133.48 211.7,141.09 211.92,133.25 212.15,142.05 212.38,127.18 212.61,132.27 
		212.84,130.98 213.07,136.04 213.29,130.2 213.52,139.44 213.76,129.53 213.98,130.96 214.21,139.15 214.44,134.33 214.67,128.86 
		214.9,132.42 215.13,128.23 215.35,127.94 215.59,127.72 215.82,143.72 216.04,132.19 216.27,134.22 216.51,126.73 216.73,136.67 
		216.96,135.97 217.18,132.91 217.42,136.14 217.65,132.69 217.88,131.45 218.1,131.28 218.34,130.23 218.56,141.49 218.79,135.86 
		219.02,129.68 219.26,132.51 219.48,133.92 219.71,136.46 219.93,137.34 220.17,140.18 220.4,142.68 220.62,135.22 220.85,142.77 
		221.09,144.21 221.31,137.92 221.54,132.51 221.77,143.33 222,143.18 222.23,133.8 222.46,137.36 222.68,148.07 222.92,136.6 
		223.15,141.88 223.37,141.06 223.6,139.33 223.84,131.04 224.06,131.06 224.29,132.91 224.52,134.89 224.74,130.75 224.98,142.99 
		225.21,133.31 225.43,130.81 225.66,134.45 225.9,129.83 226.12,133.82 226.35,130.81 226.58,129.29 226.81,130 227.04,129.4 
		227.27,128.43 227.49,127.88 227.73,128.35 227.96,128.91 228.18,128.19 228.41,127.51 228.65,126.73 228.87,127.4 229.1,126.46 
		229.33,126.33 229.56,125.22 229.79,125.32 230.02,125.03 230.24,124.47 230.48,124.27 230.71,124.04 230.93,123.38 231.16,123.27 
		231.4,122.68 231.62,122.54 231.85,122.15 232.08,121.79 232.31,121.37 232.54,120.94 232.77,120.59 232.99,120.26 233.23,119.94 
		233.46,119.52 233.68,119.14 233.91,118.8 234.15,118.48 234.37,118.08 234.6,117.74 234.83,117.34 235.06,117 235.29,116.65 
		235.52,116.28 235.74,115.94 235.97,115.58 236.21,115.19 236.43,114.87 236.66,114.48 236.88,114.12 237.12,113.76 237.35,113.41 
		237.58,113.05 237.8,112.68 238.04,112.31 238.26,111.97 238.49,111.6 238.72,111.22 238.96,110.87 239.18,110.51 239.41,110.15 
		239.63,109.78 239.87,109.42 240.1,109.06 240.32,108.7 240.55,108.33 240.79,107.98 241.01,107.61 241.24,107.26 241.47,106.89 
		241.7,106.53 241.93,106.17 242.16,105.8 242.38,105.44 242.62,105.08 242.85,104.72 243.07,104.36 243.3,104 243.54,103.63 
		243.76,103.28 243.99,102.91 244.22,102.55 244.45,102.19 244.68,101.83 244.91,101.47 245.13,101.11 245.37,100.74 245.6,100.38 
		245.82,100.02 246.05,99.65 246.29,99.3 246.51,98.93 246.74,98.58 246.97,98.21 247.19,97.85 247.43,97.49 247.66,97.13 
		247.88,96.76 248.11,96.4 248.35,96.04 248.57,95.68 248.8,95.32 249.03,94.95 249.26,94.6 249.49,94.23 249.72,93.87 
		249.94,93.51 250.18,93.15 250.41,92.79 250.63,92.43 250.86,92.06 251.1,91.7 251.32,91.34 251.55,90.97 251.78,90.62 
		252.01,90.25 252.24,89.9 252.47,89.53 252.69,89.17 252.93,88.81 253.16,88.45 253.38,88.08 253.61,87.73 253.85,87.36 254.07,87 
		254.3,86.64 254.53,86.27 254.76,85.92 254.99,85.55 255.22,85.19 255.44,84.83 255.68,84.47 255.91,84.11 256.13,83.75 
		256.36,83.38 256.6,83.03 256.82,82.66 257.05,82.29 257.28,81.94 257.5,81.57 257.74,81.22 257.96,80.85 258.19,80.49 
		258.42,80.13 258.66,79.77 258.88,79.4 259.11,79.05 259.33,78.68 259.57,78.32 259.8,77.96 260.02,77.59 260.25,77.24 
		260.49,76.87 260.71,76.51 260.94,76.15 261.17,75.79 261.4,75.43 261.63,75.07 261.86,74.7 262.08,74.35 262.32,73.98 
		262.55,73.61 262.77,73.26 263,72.89 263.24,72.54 263.46,72.17 263.69,71.81 263.92,71.45 264.15,71.09 264.38,70.72 
		264.61,70.37 264.83,70 265.07,69.65 265.3,69.28 265.52,68.91 265.75,68.56 265.99,68.19 266.21,67.83 266.44,67.47 266.67,67.11 
		266.9,66.75 267.13,66.39 267.36,66.02 267.58,65.67 267.82,65.3 268.05,64.94 268.27,64.58 268.5,64.21 268.73,63.86 
		268.96,63.49 269.19,63.13 269.42,62.77 269.64,62.41 269.88,62.04 270.11,61.69 270.33,61.32 270.56,60.97 270.8,60.6 
		271.02,60.23 271.25,59.88 271.48,59.51 271.71,59.15 271.94,58.79 272.17,58.43 272.39,58.07 272.63,57.71 272.86,57.34 
		273.08,56.99 273.31,56.62 273.55,56.26 273.77,55.9 274,55.53 274.23,55.18 274.46,54.81 274.69,54.45 274.92,54.09 275.14,53.73 
		275.38,53.36 275.61,53.01 275.83,52.64 276.06,52.29 276.3,51.92 276.52,51.56 276.75,51.2 276.98,50.83 277.21,50.47 
		277.44,50.11 277.66,49.75 277.89,49.39 278.13,49.03 278.36,48.66 278.58,48.31 278.81,47.94 279.05,47.58 279.27,47.22 
		279.5,46.86 279.72,46.5 279.95,46.13 280.19,45.77 280.41,45.41 280.64,45.05 280.87,44.68 281.1,44.33 281.33,43.96 
		281.56,43.61 281.78,43.24 282.02,42.88 282.25,42.52 282.47,42.16 282.7,41.79 282.94,41.44 283.16,41.07 283.39,40.7 
		283.62,40.35 283.85,39.98 284.08,39.63 284.31,39.26 284.53,38.9 284.77,38.54 285,38.18 285.22,37.82 285.45,37.46 285.69,37.09 
		285.91,36.74 286.14,36.37 286.37,36.01 286.6,35.65 286.83,35.29 287.06,34.93 287.28,34.57 287.52,34.2 287.75,33.85 
		287.97,33.48 288.2,33.12 288.44,32.76 	"/>
</g>
<line class="st2" x1="59.58" y1="169.3" x2="273.18" y2="169.3"/>
<line class="st2" x1="59.58" y1="169.3" x2="59.58" y2="175.77"/>
<line class="st2" x1="90.1" y1="169.3" x2="90.1" y2="175.77"/>
<line class="st2" x1="120.61" y1="169.3" x2="120.61" y2="175.77"/>
<line class="st2" x1="151.12" y1="169.3" x2="151.12" y2="175.77"/>
<line class="st2" x1="181.63" y1="169.3" x2="181.63" y2="175.77"/>
<line class="st2" x1="212.15" y1="169.3" x2="212.15" y2="175.77"/>
<line class="st2" x1="242.66" y1="169.3" x2="242.66" y2="175.77"/>
<line class="st2" x1="273.18" y1="169.3" x2="273.18" y2="175.77"/>
<g>
	<path d="M51.71,186.46h-0.02l-1.22,0.66l-0.18-0.72l1.53-0.82h0.81v7.01h-0.92V186.46z"/>
	<path d="M59.9,189.01c0,2.38-0.88,3.7-2.44,3.7c-1.37,0-2.3-1.28-2.32-3.6c0-2.35,1.01-3.65,2.44-3.65
		C59.06,185.46,59.9,186.78,59.9,189.01z M56.09,189.12c0,1.82,0.56,2.86,1.42,2.86c0.97,0,1.43-1.13,1.43-2.92
		c0-1.73-0.44-2.86-1.42-2.86C56.7,186.19,56.09,187.21,56.09,189.12z"/>
</g>
<g>
	<path d="M62.03,185.89v0.49h-1.87v-0.49H62.03z"/>
	<path d="M64.07,183.89h-0.02l-0.85,0.46l-0.13-0.51l1.07-0.57h0.57v4.91h-0.64V183.89z"/>
	<path d="M69.73,183.27v0.44l-2.14,4.47H66.9l2.13-4.34v-0.01h-2.4v-0.55H69.73z"/>
</g>
<g>
	<path d="M82.22,186.46H82.2l-1.22,0.66l-0.18-0.72l1.53-0.82h0.81v7.01h-0.92V186.46z"/>
	<path d="M90.4,189.01c0,2.38-0.88,3.7-2.44,3.7c-1.37,0-2.3-1.28-2.32-3.6c0-2.35,1.01-3.65,2.44-3.65
		C89.56,185.46,90.4,186.78,90.4,189.01z M86.6,189.12c0,1.82,0.56,2.86,1.42,2.86c0.97,0,1.43-1.13,1.43-2.92
		c0-1.73-0.44-2.86-1.42-2.86C87.2,186.19,86.6,187.21,86.6,189.12z"/>
</g>
<g>
	<path d="M92.55,185.89v0.49h-1.87v-0.49H92.55z"/>
	<path d="M94.59,183.89h-0.02l-0.85,0.46l-0.13-0.51l1.07-0.57h0.57v4.91h-0.64V183.89z"/>
	<path d="M99.98,183.83h-1.87l-0.19,1.26c0.11-0.02,0.22-0.03,0.4-0.03c0.38,0,0.76,0.08,1.06,0.26c0.39,0.22,0.7,0.64,0.7,1.26
		c0,0.96-0.76,1.68-1.83,1.68c-0.54,0-0.99-0.15-1.22-0.3l0.17-0.51c0.2,0.12,0.6,0.27,1.05,0.27c0.63,0,1.16-0.41,1.16-1.06
		c-0.01-0.63-0.43-1.09-1.41-1.09c-0.28,0-0.5,0.03-0.68,0.05l0.32-2.36h2.35V183.83z"/>
</g>
<g>
	<path d="M112.73,186.46h-0.02l-1.22,0.66l-0.18-0.72l1.53-0.82h0.81v7.01h-0.92V186.46z"/>
	<path d="M120.92,189.01c0,2.38-0.88,3.7-2.44,3.7c-1.37,0-2.3-1.28-2.32-3.6c0-2.35,1.01-3.65,2.44-3.65
		C120.08,185.46,120.92,186.78,120.92,189.01z M117.11,189.12c0,1.82,0.56,2.86,1.42,2.86c0.97,0,1.43-1.13,1.43-2.92
		c0-1.73-0.44-2.86-1.42-2.86C117.72,186.19,117.11,187.21,117.11,189.12z"/>
</g>
<g>
	<path d="M123.06,185.89v0.49h-1.87v-0.49H123.06z"/>
	<path d="M125.1,183.89h-0.02l-0.85,0.46l-0.13-0.51l1.07-0.57h0.57v4.91h-0.64V183.89z"/>
	<path d="M127.73,187.42c0.19,0.12,0.63,0.31,1.09,0.31c0.85,0,1.12-0.54,1.11-0.95c-0.01-0.69-0.63-0.98-1.27-0.98h-0.37v-0.5h0.37
		c0.48,0,1.1-0.25,1.1-0.83c0-0.39-0.25-0.74-0.86-0.74c-0.39,0-0.77,0.17-0.98,0.33l-0.17-0.48c0.26-0.19,0.76-0.38,1.28-0.38
		c0.97,0,1.4,0.57,1.4,1.17c0,0.51-0.3,0.94-0.91,1.16v0.01c0.6,0.12,1.1,0.57,1.1,1.26c0,0.79-0.61,1.47-1.79,1.47
		c-0.55,0-1.03-0.17-1.28-0.33L127.73,187.42z"/>
</g>
<g>
	<path d="M143.25,186.46h-0.02l-1.22,0.66l-0.18-0.72l1.53-0.82h0.81v7.01h-0.92V186.46z"/>
	<path d="M151.43,189.01c0,2.38-0.88,3.7-2.44,3.7c-1.37,0-2.3-1.28-2.32-3.6c0-2.35,1.01-3.65,2.44-3.65
		C150.59,185.46,151.43,186.78,151.43,189.01z M147.63,189.12c0,1.82,0.56,2.86,1.42,2.86c0.97,0,1.43-1.13,1.43-2.92
		c0-1.73-0.44-2.86-1.42-2.86C148.23,186.19,147.63,187.21,147.63,189.12z"/>
</g>
<g>
	<path d="M153.58,185.89v0.49h-1.87v-0.49H153.58z"/>
	<path d="M155.62,183.89h-0.02l-0.85,0.46l-0.13-0.51l1.07-0.57h0.57v4.91h-0.64V183.89z"/>
	<path d="M159.53,183.89h-0.02l-0.85,0.46l-0.13-0.51l1.07-0.57h0.57v4.91h-0.64V183.89z"/>
</g>
<g>
	<path d="M175.65,186.46h-0.02l-1.22,0.66l-0.18-0.72l1.53-0.82h0.81v7.01h-0.92V186.46z"/>
	<path d="M183.84,189.01c0,2.38-0.88,3.7-2.44,3.7c-1.37,0-2.3-1.28-2.32-3.6c0-2.35,1.01-3.65,2.44-3.65
		C183,185.46,183.84,186.78,183.84,189.01z M180.03,189.12c0,1.82,0.56,2.86,1.42,2.86c0.97,0,1.43-1.13,1.43-2.92
		c0-1.73-0.44-2.86-1.42-2.86C180.63,186.19,180.03,187.21,180.03,189.12z"/>
</g>
<g>
	<path d="M185.97,185.89v0.49h-1.87v-0.49H185.97z"/>
	<path d="M186.95,187.71c0.14,0.02,0.31,0,0.54-0.02c0.38-0.05,0.75-0.21,1.03-0.48c0.32-0.29,0.56-0.73,0.65-1.31h-0.02
		c-0.27,0.33-0.66,0.53-1.16,0.53c-0.88,0-1.45-0.67-1.45-1.5c0-0.93,0.67-1.74,1.68-1.74s1.62,0.82,1.62,2.07
		c0,1.08-0.36,1.83-0.85,2.3c-0.38,0.37-0.9,0.6-1.43,0.66c-0.24,0.04-0.45,0.05-0.61,0.04V187.71z M187.19,184.89
		c0,0.61,0.37,1.04,0.94,1.04c0.45,0,0.79-0.22,0.97-0.51c0.04-0.06,0.06-0.14,0.06-0.24c0-0.84-0.31-1.48-1-1.48
		C187.59,183.69,187.19,184.19,187.19,184.89z"/>
</g>
<g>
	<path d="M206.17,186.46h-0.02l-1.22,0.66l-0.18-0.72l1.53-0.82h0.81v7.01h-0.92V186.46z"/>
	<path d="M214.35,189.01c0,2.38-0.88,3.7-2.44,3.7c-1.37,0-2.3-1.28-2.32-3.6c0-2.35,1.01-3.65,2.44-3.65
		C213.51,185.46,214.35,186.78,214.35,189.01z M210.54,189.12c0,1.82,0.56,2.86,1.42,2.86c0.97,0,1.43-1.13,1.43-2.92
		c0-1.73-0.44-2.86-1.42-2.86C211.15,186.19,210.54,187.21,210.54,189.12z"/>
</g>
<g>
	<path d="M216.48,185.89v0.49h-1.87v-0.49H216.48z"/>
	<path d="M220.27,183.27v0.44l-2.14,4.47h-0.69l2.13-4.34v-0.01h-2.4v-0.55H220.27z"/>
</g>
<g>
	<path d="M236.67,186.46h-0.02l-1.22,0.66l-0.18-0.72l1.53-0.82h0.81v7.01h-0.92V186.46z"/>
	<path d="M244.86,189.01c0,2.38-0.88,3.7-2.44,3.7c-1.37,0-2.3-1.28-2.32-3.6c0-2.35,1.01-3.65,2.44-3.65
		C244.01,185.46,244.86,186.78,244.86,189.01z M241.05,189.12c0,1.82,0.56,2.86,1.42,2.86c0.97,0,1.43-1.13,1.43-2.92
		c0-1.73-0.44-2.86-1.42-2.86C241.65,186.19,241.05,187.21,241.05,189.12z"/>
</g>
<g>
	<path d="M247,185.89v0.49h-1.87v-0.49H247z"/>
	<path d="M250.53,183.83h-1.87l-0.19,1.26c0.11-0.02,0.22-0.03,0.4-0.03c0.38,0,0.76,0.08,1.06,0.26c0.39,0.22,0.7,0.64,0.7,1.26
		c0,0.96-0.76,1.68-1.83,1.68c-0.54,0-0.99-0.15-1.22-0.3l0.17-0.51c0.2,0.12,0.6,0.27,1.05,0.27c0.63,0,1.16-0.41,1.16-1.06
		c-0.01-0.63-0.43-1.09-1.41-1.09c-0.28,0-0.5,0.03-0.68,0.05l0.32-2.36h2.35V183.83z"/>
</g>
<g>
	<path d="M267.19,186.46h-0.02l-1.22,0.66l-0.18-0.72l1.53-0.82h0.81v7.01h-0.92V186.46z"/>
	<path d="M275.37,189.01c0,2.38-0.88,3.7-2.44,3.7c-1.37,0-2.3-1.28-2.32-3.6c0-2.35,1.01-3.65,2.44-3.65
		C274.53,185.46,275.37,186.78,275.37,189.01z M271.56,189.12c0,1.82,0.56,2.86,1.42,2.86c0.97,0,1.43-1.13,1.43-2.92
		c0-1.73-0.44-2.86-1.42-2.86C272.17,186.19,271.56,187.21,271.56,189.12z"/>
</g>
<g>
	<path d="M277.51,185.89v0.49h-1.87v-0.49H277.51z"/>
	<path d="M278.27,187.42c0.19,0.12,0.63,0.31,1.09,0.31c0.85,0,1.12-0.54,1.11-0.95c-0.01-0.69-0.63-0.98-1.27-0.98h-0.37v-0.5h0.37
		c0.48,0,1.09-0.25,1.09-0.83c0-0.39-0.25-0.74-0.86-0.74c-0.39,0-0.77,0.17-0.98,0.33l-0.17-0.48c0.26-0.19,0.76-0.38,1.28-0.38
		c0.97,0,1.41,0.57,1.41,1.17c0,0.51-0.3,0.94-0.91,1.16v0.01c0.6,0.12,1.09,0.57,1.09,1.26c0,0.79-0.61,1.47-1.79,1.47
		c-0.55,0-1.04-0.17-1.28-0.33L278.27,187.42z"/>
</g>
<line class="st2" x1="59.58" y1="169.3" x2="273.18" y2="169.3"/>
<line class="st2" x1="59.58" y1="169.3" x2="59.58" y2="175.77"/>
<line class="st2" x1="90.1" y1="169.3" x2="90.1" y2="175.77"/>
<line class="st2" x1="120.61" y1="169.3" x2="120.61" y2="175.77"/>
<line class="st2" x1="151.12" y1="169.3" x2="151.12" y2="175.77"/>
<line class="st2" x1="181.63" y1="169.3" x2="181.63" y2="175.77"/>
<line class="st2" x1="212.15" y1="169.3" x2="212.15" y2="175.77"/>
<line class="st2" x1="242.66" y1="169.3" x2="242.66" y2="175.77"/>
<line class="st2" x1="273.18" y1="169.3" x2="273.18" y2="175.77"/>
<line class="st2" x1="50.43" y1="163.03" x2="50.43" y2="18.52"/>
<line class="st2" x1="50.43" y1="163.03" x2="43.96" y2="163.03"/>
<line class="st2" x1="50.43" y1="138.95" x2="43.96" y2="138.95"/>
<line class="st2" x1="50.43" y1="114.87" x2="43.96" y2="114.87"/>
<line class="st2" x1="50.43" y1="90.78" x2="43.96" y2="90.78"/>
<line class="st2" x1="50.43" y1="66.69" x2="43.96" y2="66.69"/>
<line class="st2" x1="50.43" y1="42.6" x2="43.96" y2="42.6"/>
<line class="st2" x1="50.43" y1="18.52" x2="43.96" y2="18.52"/>
<g>
	<path d="M28.78,170.92v0.02l0.66,1.22l-0.72,0.18l-0.82-1.53V170h7.01v0.92H28.78z"/>
	<path d="M31.32,162.73c2.38,0,3.7,0.88,3.7,2.44c0,1.37-1.28,2.3-3.6,2.32c-2.35,0-3.65-1.01-3.65-2.44
		C27.77,163.57,29.09,162.73,31.32,162.73z M31.43,166.54c1.82,0,2.86-0.56,2.86-1.42c0-0.97-1.13-1.43-2.92-1.43
		c-1.73,0-2.86,0.44-2.86,1.42C28.51,165.93,29.52,166.54,31.43,166.54z"/>
</g>
<g>
	<path d="M28.21,160.59h0.49v1.87h-0.49V160.59z"/>
	<path d="M26.2,158.55v0.02l0.46,0.85l-0.51,0.13l-0.57-1.07v-0.57h4.91v0.64H26.2z"/>
	<path d="M30.49,156.08h-0.41l-0.51-0.52c-1.19-1.25-1.83-1.82-2.57-1.83c-0.5,0-0.96,0.24-0.96,0.97c0,0.45,0.23,0.82,0.42,1.04
		L26,155.96c-0.29-0.34-0.5-0.82-0.5-1.39c0-1.06,0.73-1.5,1.43-1.5c0.91,0,1.64,0.66,2.64,1.69l0.36,0.39h0.02v-2.21h0.55V156.08z"
		/>
</g>
<g>
	<path d="M28.78,146.83v0.02l0.66,1.22l-0.72,0.18l-0.82-1.53v-0.81h7.01v0.92H28.78z"/>
	<path d="M31.32,138.64c2.38,0,3.7,0.88,3.7,2.44c0,1.37-1.28,2.3-3.6,2.32c-2.35,0-3.65-1.01-3.65-2.44
		C27.77,139.48,29.09,138.64,31.32,138.64z M31.43,142.45c1.82,0,2.86-0.56,2.86-1.42c0-0.97-1.13-1.43-2.92-1.43
		c-1.73,0-2.86,0.44-2.86,1.42C28.51,141.85,29.52,142.45,31.43,142.45z"/>
</g>
<g>
	<path d="M28.21,136.5h0.49v1.87h-0.49V136.5z"/>
	<path d="M26.2,134.46v0.02l0.46,0.85l-0.51,0.13l-0.57-1.07v-0.57h4.91v0.64H26.2z"/>
	<path d="M27.99,128.73c1.67,0,2.59,0.62,2.59,1.71c0,0.96-0.9,1.61-2.52,1.62c-1.65,0-2.55-0.71-2.55-1.71
		C25.5,129.32,26.42,128.73,27.99,128.73z M28.06,131.4c1.28,0,2-0.39,2-1c0-0.68-0.79-1-2.05-1c-1.21,0-2,0.31-2,1
		C26.01,130.97,26.72,131.4,28.06,131.4z"/>
</g>
<g>
	<path d="M28.78,120.85v0.02l0.66,1.22l-0.72,0.18l-0.82-1.53v-0.81h7.01v0.92H28.78z"/>
	<path d="M31.32,112.67c2.38,0,3.7,0.88,3.7,2.44c0,1.37-1.28,2.3-3.6,2.32c-2.35,0-3.65-1.01-3.65-2.44
		C27.77,113.51,29.09,112.67,31.32,112.67z M31.43,116.47c1.82,0,2.86-0.56,2.86-1.42c0-0.97-1.13-1.43-2.92-1.43
		c-1.73,0-2.86,0.44-2.86,1.42C28.51,115.87,29.52,116.47,31.43,116.47z"/>
</g>
<g>
	<path d="M28.21,110.52h0.49v1.87h-0.49V110.52z"/>
	<path d="M29.25,109.99c-0.62,0-1.06-0.37-1.31-0.97l-0.02,0.01c-0.26,0.54-0.68,0.78-1.1,0.78c-0.78,0-1.31-0.66-1.31-1.52
		c0-0.95,0.6-1.43,1.21-1.43c0.42,0,0.86,0.2,1.15,0.81h0.02c0.24-0.61,0.67-0.99,1.27-0.99c0.85,0,1.43,0.73,1.43,1.67
		C30.58,109.37,29.96,109.99,29.25,109.99z M26.76,109.17c0.49,0,0.76-0.37,0.91-0.94c-0.14-0.42-0.45-0.75-0.89-0.75
		c-0.39,0-0.8,0.23-0.8,0.83C25.98,108.87,26.34,109.17,26.76,109.17z M29.22,107.35c-0.6,0-0.88,0.42-1.07,1.08
		c0.17,0.57,0.54,0.88,1.01,0.88c0.5,0.02,0.94-0.35,0.94-0.98C30.09,107.73,29.72,107.35,29.22,107.35z"/>
</g>
<g>
	<path d="M28.78,96.76v0.02L29.43,98l-0.72,0.18l-0.82-1.53v-0.81h7.01v0.92H28.78z"/>
	<path d="M31.32,88.58c2.38,0,3.7,0.88,3.7,2.44c0,1.37-1.28,2.3-3.6,2.32c-2.35,0-3.65-1.01-3.65-2.44
		C27.77,89.42,29.09,88.58,31.32,88.58z M31.43,92.39c1.82,0,2.86-0.56,2.86-1.42c0-0.97-1.13-1.43-2.92-1.43
		c-1.73,0-2.86,0.44-2.86,1.42C28.51,91.78,29.52,92.39,31.43,92.39z"/>
</g>
<g>
	<path d="M28.21,86.44h0.49v1.87h-0.49V86.44z"/>
	<path d="M26.05,83.05c-0.01,0.14,0,0.31,0.03,0.5c0.17,1.04,0.94,1.59,1.75,1.71v-0.02c-0.31-0.23-0.57-0.64-0.57-1.19
		c0-0.87,0.63-1.48,1.59-1.48c0.9,0,1.73,0.61,1.73,1.63c0,1.05-0.82,1.74-2.09,1.74c-0.97,0-1.73-0.35-2.21-0.83
		c-0.4-0.41-0.65-0.95-0.73-1.57c-0.03-0.2-0.04-0.36-0.04-0.48H26.05z M28.89,83.24c-0.7,0-1.13,0.4-1.13,1.01
		c0,0.4,0.25,0.77,0.6,0.95c0.08,0.04,0.17,0.08,0.29,0.08c0.81-0.02,1.4-0.39,1.4-1.08C30.06,83.62,29.59,83.24,28.89,83.24z"/>
</g>
<g>
	<path d="M28.78,72.69v0.02l0.66,1.22l-0.72,0.18l-0.82-1.53v-0.81h7.01v0.92H28.78z"/>
	<path d="M31.32,64.5c2.38,0,3.7,0.88,3.7,2.44c0,1.37-1.28,2.3-3.6,2.32c-2.35,0-3.65-1.01-3.65-2.44
		C27.77,65.34,29.09,64.5,31.32,64.5z M31.43,68.31c1.82,0,2.86-0.56,2.86-1.42c0-0.97-1.13-1.43-2.92-1.43
		c-1.73,0-2.86,0.44-2.86,1.42C28.51,67.7,29.52,68.31,31.43,68.31z"/>
</g>
<g>
	<path d="M28.21,62.36h0.49v1.87h-0.49V62.36z"/>
	<path d="M30.49,59.71h-1.34v2.28h-0.44l-3.13-2.19v-0.72h3.05v-0.69h0.52v0.69h1.34V59.71z M28.64,59.71H27
		c-0.26,0-0.51-0.01-0.77-0.02v0.02c0.29,0.15,0.5,0.27,0.72,0.41l1.67,1.2h0.01V59.71z"/>
</g>
<g>
	<path d="M28.78,48.6v0.02l0.66,1.22l-0.72,0.18l-0.82-1.53v-0.81h7.01v0.92H28.78z"/>
	<path d="M31.32,40.41c2.38,0,3.7,0.88,3.7,2.44c0,1.37-1.28,2.3-3.6,2.32c-2.35,0-3.65-1.01-3.65-2.44
		C27.77,41.25,29.09,40.41,31.32,40.41z M31.43,44.22c1.82,0,2.86-0.56,2.86-1.42c0-0.97-1.13-1.43-2.92-1.43
		c-1.73,0-2.86,0.44-2.86,1.42C28.51,43.62,29.52,44.22,31.43,44.22z"/>
</g>
<g>
	<path d="M28.21,38.27h0.49v1.87h-0.49V38.27z"/>
	<path d="M30.49,37.67h-0.41l-0.51-0.52c-1.19-1.25-1.83-1.82-2.57-1.83c-0.5,0-0.96,0.24-0.96,0.97c0,0.45,0.23,0.82,0.42,1.04
		L26,37.55c-0.29-0.34-0.5-0.82-0.5-1.39c0-1.06,0.73-1.5,1.43-1.5c0.91,0,1.64,0.66,2.64,1.69l0.36,0.39h0.02v-2.21h0.55V37.67z"/>
</g>
<g>
	<path d="M28.78,23.25v0.02l0.66,1.22l-0.72,0.18l-0.82-1.53v-0.81h7.01v0.92H28.78z"/>
	<path d="M31.32,15.06c2.38,0,3.7,0.88,3.7,2.44c0,1.37-1.28,2.3-3.6,2.32c-2.35,0-3.65-1.01-3.65-2.44
		C27.77,15.9,29.09,15.06,31.32,15.06z M31.43,18.87c1.82,0,2.86-0.56,2.86-1.42c0-0.97-1.13-1.43-2.92-1.43
		c-1.73,0-2.86,0.44-2.86,1.42C28.51,18.26,29.52,18.87,31.43,18.87z"/>
</g>
<g>
	<path d="M27.99,11.42c1.67,0,2.59,0.62,2.59,1.71c0,0.96-0.9,1.61-2.52,1.62c-1.65,0-2.55-0.71-2.55-1.71
		C25.5,12.01,26.42,11.42,27.99,11.42z M28.06,14.08c1.28,0,2-0.39,2-1c0-0.68-0.79-1-2.05-1c-1.21,0-2,0.31-2,1
		C26.01,13.66,26.72,14.08,28.06,14.08z"/>
</g>
<line class="st2" x1="50.43" y1="163.03" x2="50.43" y2="18.52"/>
<line class="st2" x1="50.43" y1="163.03" x2="43.96" y2="163.03"/>
<line class="st2" x1="50.43" y1="138.95" x2="43.96" y2="138.95"/>
<line class="st2" x1="50.43" y1="114.87" x2="43.96" y2="114.87"/>
<line class="st2" x1="50.43" y1="90.78" x2="43.96" y2="90.78"/>
<line class="st2" x1="50.43" y1="66.69" x2="43.96" y2="66.69"/>
<line class="st2" x1="50.43" y1="42.6" x2="43.96" y2="42.6"/>
<line class="st2" x1="50.43" y1="18.52" x2="43.96" y2="18.52"/>
<g>
	<path d="M54.41,80.85c0.47-0.1,1.15-0.15,1.8-0.15c1,0,1.65,0.18,2.1,0.59c0.37,0.32,0.57,0.82,0.57,1.38c0,0.96-0.6,1.6-1.37,1.86
		v0.03c0.56,0.19,0.9,0.71,1.07,1.47c0.24,1.01,0.41,1.72,0.56,2h-0.97c-0.12-0.21-0.28-0.83-0.49-1.74c-0.22-1-0.6-1.38-1.46-1.41
		h-0.88v3.15h-0.94V80.85z M55.35,84.16h0.96c1,0,1.64-0.55,1.64-1.38c0-0.94-0.68-1.35-1.67-1.36c-0.45,0-0.78,0.04-0.93,0.09
		V84.16z"/>
	<path d="M64.89,85.37c0,1.93-1.34,2.77-2.6,2.77c-1.41,0-2.5-1.04-2.5-2.69c0-1.75,1.14-2.77,2.59-2.77
		C63.88,82.68,64.89,83.77,64.89,85.37z M60.75,85.42c0,1.14,0.66,2.01,1.59,2.01c0.91,0,1.59-0.85,1.59-2.03
		c0-0.88-0.44-2.01-1.56-2.01S60.75,84.43,60.75,85.42z"/>
	<path d="M70.51,86.6c0,0.54,0.01,1.01,0.04,1.42h-0.84l-0.05-0.85h-0.02c-0.25,0.42-0.8,0.97-1.73,0.97c-0.82,0-1.8-0.45-1.8-2.29
		V82.8h0.95v2.89c0,0.99,0.3,1.66,1.17,1.66c0.64,0,1.08-0.44,1.25-0.86c0.05-0.14,0.09-0.31,0.09-0.49v-3.2h0.95V86.6z"/>
	<path d="M72.08,84.21c0-0.54-0.01-0.98-0.04-1.41h0.84l0.05,0.86h0.02c0.26-0.5,0.86-0.98,1.73-0.98c0.72,0,1.84,0.43,1.84,2.22
		v3.12h-0.95v-3.01c0-0.84-0.31-1.54-1.21-1.54c-0.63,0-1.11,0.44-1.27,0.97c-0.04,0.12-0.06,0.28-0.06,0.44v3.14h-0.95V84.21z"/>
	<path d="M82.57,80.36v6.31c0,0.46,0.01,0.99,0.04,1.35h-0.85l-0.04-0.91H81.7c-0.29,0.58-0.93,1.02-1.78,1.02
		c-1.26,0-2.23-1.07-2.23-2.65c-0.01-1.74,1.07-2.8,2.34-2.8c0.8,0,1.34,0.38,1.58,0.8h0.02v-3.12H82.57z M81.63,84.92
		c0-0.12-0.01-0.28-0.04-0.4c-0.14-0.6-0.66-1.1-1.37-1.1c-0.98,0-1.56,0.86-1.56,2.02c0,1.06,0.52,1.93,1.54,1.93
		c0.64,0,1.22-0.42,1.39-1.13c0.03-0.13,0.04-0.26,0.04-0.41V84.92z"/>
	<path d="M86.35,84.75v0.7h-2.66v-0.7H86.35z"/>
	<path d="M92.23,85.37c0,1.93-1.34,2.77-2.6,2.77c-1.41,0-2.5-1.04-2.5-2.69c0-1.75,1.14-2.77,2.59-2.77
		C91.21,82.68,92.23,83.77,92.23,85.37z M88.08,85.42c0,1.14,0.66,2.01,1.59,2.01c0.91,0,1.59-0.85,1.59-2.03
		c0-0.88-0.44-2.01-1.56-2.01S88.08,84.43,88.08,85.42z"/>
	<path d="M96.7,88.02v-4.5h-2.19v4.5h-0.94v-4.5h-0.73V82.8h0.73v-0.17c0-0.73,0.17-1.37,0.58-1.78c0.3-0.3,0.73-0.49,1.32-0.49
		c0.3,0,0.58,0.1,0.74,0.18l-0.19,0.7c-0.14-0.06-0.35-0.13-0.56-0.13c-0.74,0-0.95,0.64-0.95,1.46v0.23h2.19v-0.25
		c0-0.73,0.17-1.4,0.61-1.82c0.36-0.35,0.83-0.49,1.26-0.49c0.35,0,0.63,0.08,0.81,0.15l-0.12,0.73c-0.15-0.06-0.33-0.12-0.61-0.12
		c-0.8,0-1.01,0.71-1.01,1.51v0.28h1.26v0.72h-1.25v4.5H96.7z"/>
	<path d="M103.74,85.58c0.02,1.28,0.84,1.81,1.79,1.81c0.68,0,1.09-0.12,1.45-0.27l0.16,0.68c-0.33,0.15-0.91,0.32-1.74,0.32
		c-1.61,0-2.57-1.06-2.57-2.63s0.93-2.82,2.45-2.82c1.7,0,2.16,1.5,2.16,2.46c0,0.19-0.02,0.35-0.03,0.44H103.74z M106.52,84.9
		c0.01-0.6-0.25-1.54-1.32-1.54c-0.96,0-1.38,0.88-1.46,1.54H106.52z"/>
	<path d="M108.62,84.43c0-0.62-0.01-1.14-0.04-1.63h0.83l0.03,1.02h0.04c0.24-0.7,0.81-1.14,1.45-1.14c0.11,0,0.18,0.01,0.27,0.03
		v0.9c-0.1-0.02-0.19-0.03-0.32-0.03c-0.67,0-1.14,0.51-1.27,1.22c-0.02,0.13-0.04,0.28-0.04,0.44v2.78h-0.94V84.43z"/>
	<path d="M112.21,84.43c0-0.62-0.01-1.14-0.04-1.63H113l0.03,1.02h0.04c0.24-0.7,0.81-1.14,1.45-1.14c0.11,0,0.18,0.01,0.27,0.03
		v0.9c-0.1-0.02-0.19-0.03-0.32-0.03c-0.67,0-1.14,0.51-1.27,1.22c-0.02,0.13-0.04,0.28-0.04,0.44v2.78h-0.94V84.43z"/>
	<path d="M120.53,85.37c0,1.93-1.34,2.77-2.6,2.77c-1.41,0-2.5-1.04-2.5-2.69c0-1.75,1.14-2.77,2.59-2.77
		C119.52,82.68,120.53,83.77,120.53,85.37z M116.39,85.42c0,1.14,0.66,2.01,1.59,2.01c0.91,0,1.59-0.85,1.59-2.03
		c0-0.88-0.44-2.01-1.56-2.01S116.39,84.43,116.39,85.42z"/>
	<path d="M121.78,84.43c0-0.62-0.01-1.14-0.04-1.63h0.83l0.03,1.02h0.04c0.24-0.7,0.81-1.14,1.45-1.14c0.11,0,0.18,0.01,0.27,0.03
		v0.9c-0.1-0.02-0.19-0.03-0.32-0.03c-0.67,0-1.14,0.51-1.27,1.22c-0.02,0.13-0.04,0.28-0.04,0.44v2.78h-0.94V84.43z"/>
</g>
<g>
	<path d="M73.08,93.3v6.31c0,0.46,0.01,0.99,0.04,1.35h-0.85l-0.04-0.91h-0.02c-0.29,0.58-0.93,1.02-1.78,1.02
		c-1.26,0-2.23-1.07-2.23-2.65c-0.01-1.74,1.07-2.8,2.34-2.8c0.8,0,1.34,0.38,1.58,0.8h0.02V93.3H73.08z M72.13,97.86
		c0-0.12-0.01-0.28-0.04-0.4c-0.14-0.6-0.66-1.1-1.37-1.1c-0.98,0-1.56,0.86-1.56,2.02c0,1.06,0.52,1.93,1.54,1.93
		c0.64,0,1.22-0.42,1.39-1.13c0.03-0.13,0.04-0.26,0.04-0.41V97.86z"/>
	<path d="M79.38,98.31c0,1.93-1.34,2.77-2.6,2.77c-1.41,0-2.5-1.04-2.5-2.69c0-1.75,1.14-2.77,2.59-2.77
		C78.37,95.62,79.38,96.71,79.38,98.31z M75.24,98.36c0,1.14,0.66,2.01,1.59,2.01c0.91,0,1.59-0.85,1.59-2.03
		c0-0.88-0.44-2.01-1.56-2.01S75.24,97.37,75.24,98.36z"/>
	<path d="M80.63,97.15c0-0.54-0.01-0.98-0.04-1.41h0.83l0.04,0.84h0.03c0.29-0.5,0.78-0.96,1.64-0.96c0.71,0,1.25,0.43,1.48,1.05
		h0.02c0.16-0.29,0.37-0.52,0.58-0.68c0.31-0.24,0.66-0.37,1.15-0.37c0.69,0,1.72,0.45,1.72,2.27v3.07h-0.93V98
		c0-1-0.37-1.61-1.13-1.61c-0.54,0-0.96,0.4-1.12,0.86c-0.04,0.13-0.08,0.3-0.08,0.47v3.23H83.9v-3.13c0-0.83-0.37-1.44-1.09-1.44
		c-0.59,0-1.02,0.47-1.18,0.95c-0.05,0.14-0.08,0.3-0.08,0.46v3.15h-0.93V97.15z"/>
	<path d="M90.67,94.27c0.01,0.32-0.23,0.58-0.6,0.58c-0.33,0-0.57-0.26-0.57-0.58c0-0.33,0.25-0.59,0.59-0.59
		C90.44,93.68,90.67,93.94,90.67,94.27z M89.61,100.96v-5.22h0.95v5.22H89.61z"/>
	<path d="M92.13,97.15c0-0.54-0.01-0.98-0.04-1.41h0.84l0.05,0.86h0.02c0.26-0.5,0.86-0.98,1.73-0.98c0.72,0,1.84,0.43,1.84,2.22
		v3.12h-0.95v-3.01c0-0.84-0.31-1.54-1.21-1.54c-0.63,0-1.11,0.44-1.27,0.97c-0.04,0.12-0.06,0.28-0.06,0.44v3.14h-0.95V97.15z"/>
	<path d="M101.01,100.96l-0.08-0.66h-0.03c-0.29,0.41-0.85,0.78-1.6,0.78c-1.06,0-1.6-0.74-1.6-1.5c0-1.26,1.12-1.95,3.14-1.94
		v-0.11c0-0.43-0.12-1.21-1.19-1.21c-0.49,0-0.99,0.15-1.36,0.39l-0.22-0.63c0.43-0.28,1.06-0.46,1.71-0.46
		c1.6,0,1.99,1.09,1.99,2.14v1.95c0,0.45,0.02,0.9,0.09,1.25H101.01z M100.87,98.29c-1.04-0.02-2.21,0.16-2.21,1.18
		c0,0.61,0.41,0.91,0.9,0.91c0.68,0,1.11-0.43,1.26-0.87c0.03-0.1,0.05-0.2,0.05-0.3V98.29z"/>
	<path d="M103.37,97.15c0-0.54-0.01-0.98-0.04-1.41h0.84l0.05,0.86h0.02c0.26-0.5,0.86-0.98,1.73-0.98c0.72,0,1.84,0.43,1.84,2.22
		v3.12h-0.95v-3.01c0-0.84-0.31-1.54-1.21-1.54c-0.63,0-1.11,0.44-1.27,0.97c-0.04,0.12-0.06,0.28-0.06,0.44v3.14h-0.95V97.15z"/>
	<path d="M110.23,94.24v1.5h1.36v0.72h-1.36v2.82c0,0.65,0.18,1.01,0.71,1.01c0.25,0,0.43-0.03,0.55-0.06l0.04,0.71
		c-0.18,0.08-0.47,0.13-0.84,0.13c-0.44,0-0.8-0.14-1.02-0.4c-0.27-0.28-0.37-0.74-0.37-1.36v-2.85h-0.81v-0.72h0.81v-1.25
		L110.23,94.24z"/>
</g>
<g>
	<path d="M220.98,81.55h-2.21v-0.8h5.38v0.8h-2.22v6.47h-0.95V81.55z"/>
	<path d="M224.03,84.43c0-0.62-0.01-1.14-0.04-1.63h0.83l0.03,1.02h0.04c0.24-0.7,0.81-1.14,1.45-1.14c0.11,0,0.18,0.01,0.27,0.03
		v0.9c-0.1-0.02-0.19-0.03-0.32-0.03c-0.67,0-1.14,0.51-1.27,1.22c-0.02,0.13-0.04,0.28-0.04,0.44v2.78h-0.94V84.43z"/>
	<path d="M231.99,86.6c0,0.54,0.01,1.01,0.04,1.42h-0.84l-0.05-0.85h-0.02c-0.25,0.42-0.8,0.97-1.73,0.97c-0.82,0-1.8-0.45-1.8-2.29
		V82.8h0.95v2.89c0,0.99,0.3,1.66,1.17,1.66c0.64,0,1.08-0.44,1.25-0.86c0.05-0.14,0.09-0.31,0.09-0.49v-3.2h0.95V86.6z"/>
	<path d="M233.56,84.21c0-0.54-0.01-0.98-0.04-1.41h0.84l0.05,0.86h0.02c0.26-0.5,0.86-0.98,1.73-0.98c0.72,0,1.84,0.43,1.84,2.22
		v3.12h-0.95v-3.01c0-0.84-0.31-1.54-1.21-1.54c-0.62,0-1.11,0.44-1.27,0.97c-0.04,0.12-0.06,0.28-0.06,0.44v3.14h-0.95V84.21z"/>
	<path d="M243.26,87.83c-0.25,0.13-0.8,0.3-1.5,0.3c-1.58,0-2.6-1.07-2.6-2.66c0-1.61,1.1-2.77,2.8-2.77c0.56,0,1.06,0.14,1.32,0.27
		l-0.22,0.73c-0.23-0.13-0.58-0.25-1.1-0.25c-1.2,0-1.84,0.88-1.84,1.97c0,1.21,0.78,1.95,1.81,1.95c0.54,0,0.9-0.14,1.17-0.26
		L243.26,87.83z"/>
	<path d="M247.28,88.02l-0.08-0.66h-0.03c-0.29,0.41-0.85,0.78-1.6,0.78c-1.06,0-1.6-0.74-1.6-1.5c0-1.26,1.12-1.95,3.14-1.94v-0.11
		c0-0.43-0.12-1.21-1.19-1.21c-0.49,0-0.99,0.15-1.36,0.39l-0.22-0.63c0.43-0.28,1.06-0.46,1.72-0.46c1.6,0,1.98,1.09,1.98,2.14
		v1.95c0,0.45,0.02,0.9,0.09,1.25H247.28z M247.13,85.36c-1.04-0.02-2.21,0.16-2.21,1.18c0,0.61,0.41,0.91,0.9,0.91
		c0.68,0,1.11-0.43,1.26-0.87c0.03-0.1,0.05-0.2,0.05-0.3V85.36z"/>
	<path d="M250.78,81.3v1.5h1.36v0.72h-1.36v2.82c0,0.65,0.18,1.01,0.71,1.01c0.25,0,0.43-0.03,0.55-0.06l0.04,0.71
		c-0.18,0.08-0.47,0.13-0.84,0.13c-0.44,0-0.8-0.14-1.02-0.4c-0.27-0.28-0.37-0.74-0.37-1.36v-2.85h-0.81V82.8h0.81v-1.25
		L250.78,81.3z"/>
	<path d="M254.24,81.33c0.01,0.32-0.23,0.58-0.6,0.58c-0.33,0-0.57-0.26-0.57-0.58c0-0.33,0.25-0.59,0.59-0.59
		C254.01,80.74,254.24,81,254.24,81.33z M253.18,88.02V82.8h0.95v5.22H253.18z"/>
	<path d="M260.43,85.37c0,1.93-1.34,2.77-2.6,2.77c-1.41,0-2.5-1.04-2.5-2.69c0-1.75,1.14-2.77,2.59-2.77
		C259.42,82.68,260.43,83.77,260.43,85.37z M256.29,85.42c0,1.14,0.66,2.01,1.59,2.01c0.91,0,1.59-0.85,1.59-2.03
		c0-0.88-0.44-2.01-1.56-2.01S256.29,84.43,256.29,85.42z"/>
	<path d="M261.68,84.21c0-0.54-0.01-0.98-0.04-1.41h0.84l0.05,0.86h0.02c0.26-0.5,0.86-0.98,1.73-0.98c0.72,0,1.84,0.43,1.84,2.22
		v3.12h-0.95v-3.01c0-0.84-0.31-1.54-1.21-1.54c-0.62,0-1.11,0.44-1.27,0.97c-0.04,0.12-0.06,0.28-0.06,0.44v3.14h-0.95V84.21z"/>
	<path d="M271.69,85.58c0.02,1.28,0.84,1.81,1.79,1.81c0.68,0,1.09-0.12,1.45-0.27l0.16,0.68c-0.33,0.15-0.91,0.32-1.74,0.32
		c-1.61,0-2.57-1.06-2.57-2.63s0.93-2.82,2.45-2.82c1.71,0,2.16,1.5,2.16,2.46c0,0.19-0.02,0.35-0.03,0.44H271.69z M274.47,84.9
		c0.01-0.6-0.25-1.54-1.32-1.54c-0.96,0-1.38,0.88-1.46,1.54H274.47z"/>
	<path d="M276.57,84.43c0-0.62-0.01-1.14-0.04-1.63h0.83l0.03,1.02h0.04c0.24-0.7,0.81-1.14,1.45-1.14c0.11,0,0.18,0.01,0.27,0.03
		v0.9c-0.1-0.02-0.19-0.03-0.32-0.03c-0.67,0-1.14,0.51-1.27,1.22c-0.02,0.13-0.04,0.28-0.04,0.44v2.78h-0.94V84.43z"/>
	<path d="M280.16,84.43c0-0.62-0.01-1.14-0.04-1.63h0.83l0.03,1.02h0.04c0.24-0.7,0.81-1.14,1.45-1.14c0.11,0,0.18,0.01,0.27,0.03
		v0.9c-0.1-0.02-0.19-0.03-0.32-0.03c-0.67,0-1.14,0.51-1.27,1.22c-0.02,0.13-0.04,0.28-0.04,0.44v2.78h-0.94V84.43z"/>
	<path d="M288.48,85.37c0,1.93-1.34,2.77-2.6,2.77c-1.41,0-2.5-1.04-2.5-2.69c0-1.75,1.14-2.77,2.59-2.77
		C287.46,82.68,288.48,83.77,288.48,85.37z M284.33,85.42c0,1.14,0.66,2.01,1.59,2.01c0.91,0,1.59-0.85,1.59-2.03
		c0-0.88-0.44-2.01-1.56-2.01S284.33,84.43,284.33,85.42z"/>
	<path d="M289.72,84.43c0-0.62-0.01-1.14-0.04-1.63h0.83l0.03,1.02h0.04c0.24-0.7,0.81-1.14,1.45-1.14c0.11,0,0.18,0.01,0.27,0.03
		v0.9c-0.1-0.02-0.19-0.03-0.32-0.03c-0.67,0-1.14,0.51-1.27,1.22c-0.02,0.13-0.04,0.28-0.04,0.44v2.78h-0.94V84.43z"/>
</g>
<g>
	<path d="M240.91,93.3v6.31c0,0.46,0.01,0.99,0.04,1.35h-0.85l-0.04-0.91h-0.02c-0.29,0.58-0.93,1.02-1.78,1.02
		c-1.26,0-2.23-1.07-2.23-2.65c-0.01-1.74,1.07-2.8,2.34-2.8c0.8,0,1.34,0.38,1.58,0.8h0.02V93.3H240.91z M239.96,97.86
		c0-0.12-0.01-0.28-0.04-0.4c-0.14-0.6-0.66-1.1-1.37-1.1c-0.98,0-1.56,0.86-1.56,2.02c0,1.06,0.52,1.93,1.54,1.93
		c0.64,0,1.22-0.42,1.39-1.13c0.03-0.13,0.04-0.26,0.04-0.41V97.86z"/>
	<path d="M247.2,98.31c0,1.93-1.34,2.77-2.6,2.77c-1.41,0-2.5-1.04-2.5-2.69c0-1.75,1.14-2.77,2.59-2.77
		C246.19,95.62,247.2,96.71,247.2,98.31z M243.06,98.36c0,1.14,0.66,2.01,1.59,2.01c0.91,0,1.59-0.85,1.59-2.03
		c0-0.88-0.44-2.01-1.56-2.01S243.06,97.37,243.06,98.36z"/>
	<path d="M248.45,97.15c0-0.54-0.01-0.98-0.04-1.41h0.83l0.04,0.84h0.03c0.29-0.5,0.78-0.96,1.64-0.96c0.71,0,1.25,0.43,1.48,1.05
		h0.02c0.16-0.29,0.37-0.52,0.58-0.68c0.31-0.24,0.66-0.37,1.15-0.37c0.69,0,1.72,0.45,1.72,2.27v3.07h-0.93V98
		c0-1-0.37-1.61-1.13-1.61c-0.54,0-0.96,0.4-1.12,0.86c-0.04,0.13-0.08,0.3-0.08,0.47v3.23h-0.93v-3.13c0-0.83-0.37-1.44-1.09-1.44
		c-0.59,0-1.03,0.47-1.18,0.95c-0.05,0.14-0.08,0.3-0.08,0.46v3.15h-0.93V97.15z"/>
	<path d="M258.49,94.27c0.01,0.32-0.23,0.58-0.6,0.58c-0.33,0-0.57-0.26-0.57-0.58c0-0.33,0.25-0.59,0.59-0.59
		C258.26,93.68,258.49,93.94,258.49,94.27z M257.43,100.96v-5.22h0.95v5.22H257.43z"/>
	<path d="M259.96,97.15c0-0.54-0.01-0.98-0.04-1.41h0.84l0.05,0.86h0.02c0.26-0.5,0.86-0.98,1.73-0.98c0.72,0,1.84,0.43,1.84,2.22
		v3.12h-0.95v-3.01c0-0.84-0.31-1.54-1.21-1.54c-0.62,0-1.11,0.44-1.27,0.97c-0.04,0.12-0.06,0.28-0.06,0.44v3.14h-0.95V97.15z"/>
	<path d="M268.83,100.96l-0.08-0.66h-0.03c-0.29,0.41-0.85,0.78-1.6,0.78c-1.06,0-1.6-0.74-1.6-1.5c0-1.26,1.12-1.95,3.14-1.94
		v-0.11c0-0.43-0.12-1.21-1.19-1.21c-0.49,0-0.99,0.15-1.36,0.39l-0.22-0.63c0.43-0.28,1.06-0.46,1.72-0.46
		c1.6,0,1.98,1.09,1.98,2.14v1.95c0,0.45,0.02,0.9,0.09,1.25H268.83z M268.69,98.29c-1.04-0.02-2.21,0.16-2.21,1.18
		c0,0.61,0.41,0.91,0.9,0.91c0.68,0,1.11-0.43,1.26-0.87c0.03-0.1,0.05-0.2,0.05-0.3V98.29z"/>
	<path d="M271.19,97.15c0-0.54-0.01-0.98-0.04-1.41h0.84l0.05,0.86h0.02c0.26-0.5,0.86-0.98,1.73-0.98c0.72,0,1.84,0.43,1.84,2.22
		v3.12h-0.95v-3.01c0-0.84-0.31-1.54-1.21-1.54c-0.62,0-1.11,0.44-1.27,0.97c-0.04,0.12-0.06,0.28-0.06,0.44v3.14h-0.95V97.15z"/>
	<path d="M278.05,94.24v1.5h1.36v0.72h-1.36v2.82c0,0.65,0.18,1.01,0.71,1.01c0.25,0,0.43-0.03,0.55-0.06l0.04,0.71
		c-0.18,0.08-0.47,0.13-0.84,0.13c-0.44,0-0.8-0.14-1.02-0.4c-0.27-0.28-0.37-0.74-0.37-1.36v-2.85h-0.81v-0.72h0.81v-1.25
		L278.05,94.24z"/>
</g>
<rect x="59.58" y="126.91" class="st4" width="130.75" height="38.82"/>
<rect x="59.58" y="126.91" class="st2" width="130.75" height="38.82"/>
<line class="st5" x1="69.29" y1="139.85" x2="88.7" y2="139.85"/>
<line class="st6" x1="69.29" y1="152.79" x2="88.7" y2="152.79"/>
<g>
	<path d="M99.22,136.29h3.92v0.79h-2.98v2.42h2.75v0.78h-2.75v3.29h-0.94V136.29z"/>
	<path d="M108.25,140.91c0,1.93-1.34,2.77-2.6,2.77c-1.41,0-2.5-1.04-2.5-2.69c0-1.75,1.14-2.77,2.59-2.77
		C107.24,138.22,108.25,139.31,108.25,140.91z M104.11,140.96c0,1.14,0.66,2.01,1.59,2.01c0.91,0,1.59-0.85,1.59-2.03
		c0-0.88-0.44-2.01-1.56-2.01S104.11,139.97,104.11,140.96z"/>
	<path d="M109.5,139.97c0-0.62-0.01-1.14-0.04-1.63h0.83l0.03,1.02h0.04c0.24-0.7,0.81-1.14,1.45-1.14c0.11,0,0.18,0.01,0.27,0.03
		v0.9c-0.1-0.02-0.19-0.03-0.32-0.03c-0.67,0-1.14,0.51-1.27,1.22c-0.02,0.13-0.04,0.28-0.04,0.44v2.78h-0.94V139.97z"/>
	<path d="M113.47,138.34l0.69,2.65c0.15,0.58,0.29,1.12,0.39,1.66h0.03c0.12-0.53,0.29-1.09,0.46-1.65l0.85-2.66h0.8l0.81,2.61
		c0.19,0.63,0.35,1.18,0.46,1.7H118c0.09-0.53,0.23-1.08,0.4-1.69l0.74-2.62h0.94l-1.68,5.22h-0.86l-0.8-2.49
		c-0.18-0.58-0.33-1.1-0.46-1.72h-0.02c-0.13,0.63-0.29,1.17-0.47,1.73l-0.84,2.48h-0.86l-1.57-5.22H113.47z"/>
	<path d="M123.67,143.56l-0.08-0.66h-0.03c-0.29,0.41-0.85,0.78-1.6,0.78c-1.06,0-1.6-0.74-1.6-1.5c0-1.26,1.12-1.95,3.14-1.94
		v-0.11c0-0.43-0.12-1.21-1.19-1.21c-0.49,0-0.99,0.15-1.36,0.39l-0.22-0.63c0.43-0.28,1.06-0.46,1.71-0.46
		c1.6,0,1.99,1.09,1.99,2.14v1.95c0,0.45,0.02,0.9,0.09,1.25H123.67z M123.53,140.9c-1.04-0.02-2.21,0.16-2.21,1.18
		c0,0.61,0.41,0.91,0.9,0.91c0.68,0,1.11-0.43,1.26-0.87c0.03-0.1,0.05-0.2,0.05-0.3V140.9z"/>
	<path d="M126.03,139.97c0-0.62-0.01-1.14-0.04-1.63h0.83l0.03,1.02h0.04c0.24-0.7,0.81-1.14,1.45-1.14c0.11,0,0.18,0.01,0.27,0.03
		v0.9c-0.1-0.02-0.19-0.03-0.32-0.03c-0.67,0-1.14,0.51-1.27,1.22c-0.02,0.13-0.04,0.28-0.04,0.44v2.78h-0.94V139.97z"/>
	<path d="M134.13,135.9v6.31c0,0.46,0.01,0.99,0.04,1.35h-0.85l-0.04-0.91h-0.02c-0.29,0.58-0.93,1.02-1.78,1.02
		c-1.26,0-2.23-1.07-2.23-2.65c-0.01-1.74,1.07-2.8,2.34-2.8c0.8,0,1.34,0.38,1.58,0.8h0.02v-3.12H134.13z M133.18,140.47
		c0-0.12-0.01-0.28-0.04-0.4c-0.14-0.6-0.66-1.1-1.37-1.1c-0.98,0-1.56,0.86-1.56,2.02c0,1.06,0.52,1.93,1.54,1.93
		c0.64,0,1.22-0.42,1.39-1.13c0.03-0.13,0.04-0.26,0.04-0.41V140.47z"/>
	<path d="M143.57,135.9v6.31c0,0.46,0.01,0.99,0.04,1.35h-0.85l-0.04-0.91h-0.02c-0.29,0.58-0.93,1.02-1.78,1.02
		c-1.26,0-2.23-1.07-2.23-2.65c-0.01-1.74,1.07-2.8,2.34-2.8c0.8,0,1.34,0.38,1.58,0.8h0.02v-3.12H143.57z M142.62,140.47
		c0-0.12-0.01-0.28-0.04-0.4c-0.14-0.6-0.66-1.1-1.37-1.1c-0.98,0-1.56,0.86-1.56,2.02c0,1.06,0.52,1.93,1.54,1.93
		c0.64,0,1.22-0.42,1.39-1.13c0.03-0.13,0.04-0.26,0.04-0.41V140.47z"/>
	<path d="M146.2,136.87c0.01,0.32-0.23,0.58-0.6,0.58c-0.33,0-0.57-0.26-0.57-0.58c0-0.33,0.25-0.59,0.59-0.59
		C145.98,136.28,146.2,136.54,146.2,136.87z M145.15,143.56v-5.22h0.95v5.22H145.15z"/>
	<path d="M150.89,143.56v-4.5h-2.19v4.5h-0.94v-4.5h-0.73v-0.72h0.73v-0.17c0-0.73,0.17-1.37,0.58-1.78c0.3-0.3,0.73-0.49,1.32-0.49
		c0.3,0,0.58,0.1,0.74,0.18l-0.19,0.7c-0.14-0.06-0.35-0.13-0.56-0.13c-0.74,0-0.95,0.64-0.95,1.46v0.23h2.19v-0.25
		c0-0.73,0.17-1.4,0.61-1.82c0.36-0.35,0.83-0.49,1.26-0.49c0.35,0,0.63,0.08,0.81,0.15l-0.12,0.73c-0.15-0.06-0.33-0.12-0.61-0.12
		c-0.8,0-1.01,0.71-1.01,1.51v0.28h1.26v0.72h-1.25v4.5H150.89z"/>
	<path d="M154.44,141.12c0.02,1.28,0.84,1.81,1.79,1.81c0.68,0,1.09-0.12,1.45-0.27l0.16,0.68c-0.33,0.15-0.91,0.32-1.74,0.32
		c-1.61,0-2.57-1.06-2.57-2.63s0.93-2.82,2.45-2.82c1.7,0,2.16,1.5,2.16,2.46c0,0.19-0.02,0.35-0.03,0.44H154.44z M157.22,140.44
		c0.01-0.6-0.25-1.54-1.32-1.54c-0.96,0-1.38,0.88-1.46,1.54H157.22z"/>
	<path d="M159.32,139.97c0-0.62-0.01-1.14-0.04-1.63h0.83l0.03,1.02h0.04c0.24-0.7,0.81-1.14,1.45-1.14c0.11,0,0.18,0.01,0.27,0.03
		v0.9c-0.1-0.02-0.19-0.03-0.32-0.03c-0.67,0-1.14,0.51-1.27,1.22c-0.02,0.13-0.04,0.28-0.04,0.44v2.78h-0.94V139.97z"/>
	<path d="M163.44,141.12c0.02,1.28,0.84,1.81,1.79,1.81c0.68,0,1.09-0.12,1.45-0.27l0.16,0.68c-0.33,0.15-0.91,0.32-1.74,0.32
		c-1.61,0-2.57-1.06-2.57-2.63s0.93-2.82,2.45-2.82c1.7,0,2.16,1.5,2.16,2.46c0,0.19-0.02,0.35-0.03,0.44H163.44z M166.23,140.44
		c0.01-0.6-0.25-1.54-1.32-1.54c-0.96,0-1.38,0.88-1.46,1.54H166.23z"/>
	<path d="M168.33,139.75c0-0.54-0.01-0.98-0.04-1.41h0.84l0.05,0.86h0.02c0.26-0.5,0.86-0.98,1.73-0.98c0.72,0,1.84,0.43,1.84,2.22
		v3.12h-0.95v-3.01c0-0.84-0.31-1.54-1.21-1.54c-0.63,0-1.11,0.44-1.27,0.97c-0.04,0.12-0.06,0.28-0.06,0.44v3.14h-0.95V139.75z"/>
	<path d="M178.03,143.37c-0.25,0.13-0.8,0.3-1.5,0.3c-1.58,0-2.6-1.07-2.6-2.66c0-1.61,1.1-2.77,2.8-2.77
		c0.56,0,1.06,0.14,1.32,0.27l-0.22,0.73c-0.23-0.13-0.58-0.25-1.1-0.25c-1.2,0-1.84,0.88-1.84,1.97c0,1.21,0.78,1.95,1.81,1.95
		c0.54,0,0.9-0.14,1.17-0.26L178.03,143.37z"/>
	<path d="M179.68,141.12c0.02,1.28,0.84,1.81,1.79,1.81c0.68,0,1.09-0.12,1.45-0.27l0.16,0.68c-0.33,0.15-0.91,0.32-1.74,0.32
		c-1.61,0-2.57-1.06-2.57-2.63s0.93-2.82,2.45-2.82c1.71,0,2.16,1.5,2.16,2.46c0,0.19-0.02,0.35-0.03,0.44H179.68z M182.47,140.44
		c0.01-0.6-0.25-1.54-1.32-1.54c-0.96,0-1.38,0.88-1.46,1.54H182.47z"/>
</g>
<g>
	<path d="M104.3,156.26c-0.35,0.17-1.04,0.35-1.92,0.35c-2.05,0-3.59-1.29-3.59-3.68c0-2.28,1.54-3.82,3.8-3.82
		c0.91,0,1.48,0.19,1.73,0.32l-0.23,0.77c-0.36-0.17-0.86-0.3-1.47-0.3c-1.7,0-2.84,1.09-2.84,3c0,1.78,1.02,2.92,2.79,2.92
		c0.57,0,1.15-0.12,1.53-0.3L104.3,156.26z"/>
	<path d="M105.97,154.06c0.02,1.28,0.84,1.81,1.79,1.81c0.68,0,1.09-0.12,1.45-0.27l0.16,0.68c-0.33,0.15-0.91,0.32-1.74,0.32
		c-1.61,0-2.57-1.06-2.57-2.63s0.93-2.82,2.45-2.82c1.7,0,2.16,1.5,2.16,2.46c0,0.19-0.02,0.35-0.03,0.44H105.97z M108.76,153.38
		c0.01-0.6-0.25-1.54-1.32-1.54c-0.96,0-1.38,0.88-1.46,1.54H108.76z"/>
	<path d="M110.86,152.69c0-0.54-0.01-0.98-0.04-1.41h0.84l0.05,0.86h0.02c0.26-0.5,0.86-0.98,1.73-0.98c0.72,0,1.84,0.43,1.84,2.22
		v3.12h-0.95v-3.01c0-0.84-0.31-1.54-1.21-1.54c-0.63,0-1.11,0.44-1.27,0.97c-0.04,0.12-0.06,0.28-0.06,0.44v3.14h-0.95V152.69z"/>
	<path d="M117.72,149.78v1.5h1.36V152h-1.36v2.82c0,0.65,0.18,1.01,0.71,1.01c0.25,0,0.43-0.03,0.55-0.06l0.04,0.71
		c-0.18,0.08-0.47,0.13-0.84,0.13c-0.44,0-0.8-0.14-1.02-0.4c-0.27-0.28-0.37-0.74-0.37-1.36V152h-0.81v-0.72h0.81v-1.25
		L117.72,149.78z"/>
	<path d="M120.65,154.06c0.02,1.28,0.84,1.81,1.79,1.81c0.68,0,1.09-0.12,1.45-0.27l0.16,0.68c-0.33,0.15-0.91,0.32-1.74,0.32
		c-1.61,0-2.57-1.06-2.57-2.63s0.93-2.82,2.45-2.82c1.7,0,2.16,1.5,2.16,2.46c0,0.19-0.02,0.35-0.03,0.44H120.65z M123.43,153.38
		c0.01-0.6-0.25-1.54-1.32-1.54c-0.96,0-1.38,0.88-1.46,1.54H123.43z"/>
	<path d="M125.53,152.91c0-0.62-0.01-1.14-0.04-1.63h0.83l0.03,1.02h0.04c0.24-0.7,0.81-1.14,1.45-1.14c0.11,0,0.18,0.01,0.27,0.03
		v0.9c-0.1-0.02-0.19-0.03-0.32-0.03c-0.67,0-1.14,0.51-1.27,1.22c-0.02,0.13-0.04,0.28-0.04,0.44v2.78h-0.94V152.91z"/>
	<path d="M137.14,148.84v6.31c0,0.46,0.01,0.99,0.04,1.35h-0.85l-0.04-0.91h-0.02c-0.29,0.58-0.93,1.02-1.78,1.02
		c-1.26,0-2.23-1.07-2.23-2.65c-0.01-1.74,1.07-2.8,2.34-2.8c0.8,0,1.34,0.38,1.58,0.8h0.02v-3.12H137.14z M136.19,153.4
		c0-0.12-0.01-0.28-0.04-0.4c-0.14-0.6-0.66-1.1-1.37-1.1c-0.98,0-1.56,0.86-1.56,2.02c0,1.06,0.52,1.93,1.54,1.93
		c0.64,0,1.22-0.42,1.39-1.13c0.03-0.13,0.04-0.26,0.04-0.41V153.4z"/>
	<path d="M139.77,149.81c0.01,0.32-0.23,0.58-0.6,0.58c-0.33,0-0.57-0.26-0.57-0.58c0-0.33,0.25-0.59,0.59-0.59
		C139.54,149.22,139.77,149.48,139.77,149.81z M138.71,156.5v-5.22h0.95v5.22H138.71z"/>
	<path d="M144.46,156.5V152h-2.19v4.5h-0.94V152h-0.73v-0.72h0.73v-0.17c0-0.73,0.17-1.37,0.58-1.78c0.3-0.3,0.73-0.49,1.32-0.49
		c0.3,0,0.58,0.1,0.74,0.18l-0.19,0.7c-0.14-0.06-0.35-0.13-0.56-0.13c-0.74,0-0.95,0.64-0.95,1.46v0.23h2.19v-0.25
		c0-0.73,0.17-1.4,0.61-1.82c0.36-0.35,0.83-0.49,1.26-0.49c0.35,0,0.63,0.08,0.81,0.15l-0.12,0.73c-0.15-0.06-0.33-0.12-0.61-0.12
		c-0.8,0-1.01,0.71-1.01,1.51v0.28h1.26V152h-1.25v4.5H144.46z"/>
	<path d="M148,154.06c0.02,1.28,0.84,1.81,1.79,1.81c0.68,0,1.09-0.12,1.45-0.27l0.16,0.68c-0.33,0.15-0.91,0.32-1.74,0.32
		c-1.61,0-2.57-1.06-2.57-2.63s0.93-2.82,2.45-2.82c1.7,0,2.16,1.5,2.16,2.46c0,0.19-0.02,0.35-0.03,0.44H148z M150.79,153.38
		c0.01-0.6-0.25-1.54-1.32-1.54c-0.96,0-1.38,0.88-1.46,1.54H150.79z"/>
	<path d="M152.89,152.91c0-0.62-0.01-1.14-0.04-1.63h0.83l0.03,1.02h0.04c0.24-0.7,0.81-1.14,1.45-1.14c0.11,0,0.18,0.01,0.27,0.03
		v0.9c-0.1-0.02-0.19-0.03-0.32-0.03c-0.67,0-1.14,0.51-1.27,1.22c-0.02,0.13-0.04,0.28-0.04,0.44v2.78h-0.94V152.91z"/>
	<path d="M157.01,154.06c0.02,1.28,0.84,1.81,1.79,1.81c0.68,0,1.09-0.12,1.45-0.27l0.16,0.68c-0.33,0.15-0.91,0.32-1.74,0.32
		c-1.61,0-2.57-1.06-2.57-2.63s0.93-2.82,2.45-2.82c1.7,0,2.16,1.5,2.16,2.46c0,0.19-0.02,0.35-0.03,0.44H157.01z M159.79,153.38
		c0.01-0.6-0.25-1.54-1.32-1.54c-0.96,0-1.38,0.88-1.46,1.54H159.79z"/>
	<path d="M161.89,152.69c0-0.54-0.01-0.98-0.04-1.41h0.84l0.05,0.86h0.02c0.26-0.5,0.86-0.98,1.73-0.98c0.72,0,1.84,0.43,1.84,2.22
		v3.12h-0.95v-3.01c0-0.84-0.31-1.54-1.21-1.54c-0.63,0-1.11,0.44-1.27,0.97c-0.04,0.12-0.06,0.28-0.06,0.44v3.14h-0.95V152.69z"/>
	<path d="M171.6,156.31c-0.25,0.13-0.8,0.3-1.5,0.3c-1.58,0-2.6-1.07-2.6-2.66c0-1.61,1.1-2.77,2.8-2.77c0.56,0,1.06,0.14,1.32,0.27
		l-0.22,0.73c-0.23-0.13-0.58-0.25-1.1-0.25c-1.2,0-1.84,0.88-1.84,1.97c0,1.21,0.78,1.95,1.81,1.95c0.54,0,0.9-0.14,1.17-0.26
		L171.6,156.31z"/>
	<path d="M173.24,154.06c0.02,1.28,0.84,1.81,1.79,1.81c0.68,0,1.09-0.12,1.45-0.27l0.16,0.68c-0.33,0.15-0.91,0.32-1.74,0.32
		c-1.61,0-2.57-1.06-2.57-2.63s0.93-2.82,2.45-2.82c1.7,0,2.16,1.5,2.16,2.46c0,0.19-0.02,0.35-0.03,0.44H173.24z M176.03,153.38
		c0.01-0.6-0.25-1.54-1.32-1.54c-0.96,0-1.38,0.88-1.46,1.54H176.03z"/>
</g>
<rect x="50.43" y="0.22" class="st7" width="247.15" height="169.08"/>
</svg>
